G04 Layer_Physical_Order=2*
G04 Layer_Color=16711680*
%FSLAX43Y43*%
%MOMM*%
G71*
G01*
G75*
%ADD27C,0.254*%
%ADD28C,0.508*%
%ADD29C,0.381*%
%ADD30C,1.700*%
%ADD31C,5.000*%
%ADD32C,1.000*%
%ADD33C,0.762*%
%ADD34C,0.305*%
G36*
X10615Y-2715D02*
X974D01*
X948Y-2588D01*
X1254Y-2461D01*
X1624Y-2235D01*
X1953Y-1953D01*
X2235Y-1624D01*
X2461Y-1254D01*
X2627Y-854D01*
X2729Y-432D01*
X2753Y-127D01*
X-2753D01*
X-2729Y-432D01*
X-2627Y-854D01*
X-2461Y-1254D01*
X-2235Y-1624D01*
X-1953Y-1953D01*
X-1624Y-2235D01*
X-1254Y-2461D01*
X-948Y-2588D01*
X-974Y-2715D01*
X-38215D01*
Y-700D01*
X-38215Y-700D01*
X-38210D01*
X-38254Y-366D01*
X-38382Y-55D01*
X-38588Y212D01*
X-38855Y418D01*
X-39166Y546D01*
X-39500Y590D01*
Y585D01*
X-52581D01*
X-52639Y712D01*
X-52448Y936D01*
X-52229Y1292D01*
X-52070Y1678D01*
X-51972Y2084D01*
X-51939Y2500D01*
X-51972Y2916D01*
X-52070Y3322D01*
X-52229Y3708D01*
X-52448Y4064D01*
X-52719Y4381D01*
X-53036Y4652D01*
X-53392Y4871D01*
X-53778Y5030D01*
X-54184Y5128D01*
X-54600Y5161D01*
X-55016Y5128D01*
X-55422Y5030D01*
X-55808Y4871D01*
X-56164Y4652D01*
X-56481Y4381D01*
X-56752Y4064D01*
X-56971Y3708D01*
X-57130Y3322D01*
X-57228Y2916D01*
X-57261Y2500D01*
X-57228Y2084D01*
X-57130Y1678D01*
X-56971Y1292D01*
X-56752Y936D01*
X-56561Y712D01*
X-56619Y585D01*
X-65565D01*
Y61011D01*
X-56580D01*
X-56522Y60884D01*
X-56752Y60614D01*
X-56971Y60258D01*
X-57130Y59872D01*
X-57228Y59466D01*
X-57261Y59050D01*
X-57228Y58634D01*
X-57130Y58228D01*
X-56971Y57842D01*
X-56752Y57486D01*
X-56481Y57169D01*
X-56164Y56898D01*
X-55808Y56679D01*
X-55422Y56520D01*
X-55016Y56422D01*
X-54600Y56389D01*
X-54184Y56422D01*
X-53778Y56520D01*
X-53392Y56679D01*
X-53036Y56898D01*
X-52719Y57169D01*
X-52448Y57486D01*
X-52229Y57842D01*
X-52070Y58228D01*
X-51972Y58634D01*
X-51939Y59050D01*
X-51972Y59466D01*
X-52070Y59872D01*
X-52229Y60258D01*
X-52448Y60614D01*
X-52719Y60931D01*
X-53036Y61202D01*
X-53392Y61421D01*
X-53778Y61580D01*
X-53869Y61602D01*
X-53943Y61751D01*
X-53854Y61966D01*
X-53810Y62300D01*
X-53815D01*
Y63115D01*
X-44300D01*
X-44300Y63115D01*
Y63110D01*
X-43966Y63154D01*
X-43655Y63282D01*
X-43388Y63488D01*
X-43182Y63755D01*
X-43054Y64066D01*
X-43010Y64400D01*
X-43015D01*
X-43015Y64400D01*
Y65715D01*
X-973D01*
X-948Y65588D01*
X-1254Y65461D01*
X-1624Y65235D01*
X-1953Y64953D01*
X-2235Y64624D01*
X-2461Y64254D01*
X-2627Y63854D01*
X-2729Y63432D01*
X-2753Y63127D01*
X2753D01*
X2729Y63432D01*
X2627Y63854D01*
X2461Y64254D01*
X2235Y64624D01*
X1953Y64953D01*
X1624Y65235D01*
X1254Y65461D01*
X948Y65588D01*
X973Y65715D01*
X10615D01*
Y-2715D01*
D02*
G37*
%LPC*%
G36*
X-63814Y28197D02*
Y27227D01*
X-62844D01*
X-62865Y27388D01*
X-62976Y27657D01*
X-63153Y27887D01*
X-63384Y28064D01*
X-63653Y28176D01*
X-63814Y28197D01*
D02*
G37*
G36*
X-56321Y28111D02*
X-56582Y28077D01*
X-56826Y27976D01*
X-57036Y27815D01*
X-57196Y27606D01*
X-57297Y27362D01*
X-57332Y27100D01*
X-57297Y26838D01*
X-57196Y26594D01*
X-57036Y26385D01*
X-56826Y26224D01*
X-56582Y26123D01*
X-56321Y26089D01*
X-56059Y26123D01*
X-55815Y26224D01*
X-55606Y26385D01*
X-55445Y26594D01*
X-55344Y26838D01*
X-55310Y27100D01*
X-55344Y27362D01*
X-55445Y27606D01*
X-55606Y27815D01*
X-55815Y27976D01*
X-56059Y28077D01*
X-56321Y28111D01*
D02*
G37*
G36*
X-64068Y28197D02*
X-64229Y28176D01*
X-64498Y28064D01*
X-64728Y27887D01*
X-64905Y27657D01*
X-65016Y27388D01*
X-65038Y27227D01*
X-64068D01*
Y28197D01*
D02*
G37*
G36*
X-56448Y30737D02*
X-56609Y30716D01*
X-56878Y30604D01*
X-57108Y30427D01*
X-57285Y30197D01*
X-57396Y29928D01*
X-57418Y29767D01*
X-56448D01*
Y30737D01*
D02*
G37*
G36*
X-56194D02*
Y29767D01*
X-55224D01*
X-55245Y29928D01*
X-55356Y30197D01*
X-55533Y30427D01*
X-55764Y30604D01*
X-56033Y30716D01*
X-56194Y30737D01*
D02*
G37*
G36*
X-56448Y29513D02*
X-57418D01*
X-57396Y29352D01*
X-57285Y29083D01*
X-57108Y28853D01*
X-56878Y28676D01*
X-56609Y28564D01*
X-56448Y28543D01*
Y29513D01*
D02*
G37*
G36*
X-55224D02*
X-56194D01*
Y28543D01*
X-56033Y28564D01*
X-55764Y28676D01*
X-55533Y28853D01*
X-55356Y29083D01*
X-55245Y29352D01*
X-55224Y29513D01*
D02*
G37*
G36*
X-62844Y26973D02*
X-63814D01*
Y26003D01*
X-63653Y26024D01*
X-63384Y26136D01*
X-63153Y26313D01*
X-62976Y26543D01*
X-62865Y26812D01*
X-62844Y26973D01*
D02*
G37*
G36*
X-56321Y25561D02*
X-56582Y25527D01*
X-56826Y25426D01*
X-57036Y25265D01*
X-57196Y25056D01*
X-57297Y24812D01*
X-57332Y24550D01*
X-57297Y24288D01*
X-57196Y24044D01*
X-57036Y23835D01*
X-56826Y23674D01*
X-56582Y23573D01*
X-56321Y23539D01*
X-56059Y23573D01*
X-55815Y23674D01*
X-55606Y23835D01*
X-55445Y24044D01*
X-55344Y24288D01*
X-55310Y24550D01*
X-55344Y24812D01*
X-55445Y25056D01*
X-55606Y25265D01*
X-55815Y25426D01*
X-56059Y25527D01*
X-56321Y25561D01*
D02*
G37*
G36*
X-62844Y24423D02*
X-63814D01*
Y23453D01*
X-63653Y23474D01*
X-63384Y23586D01*
X-63153Y23763D01*
X-62976Y23993D01*
X-62865Y24262D01*
X-62844Y24423D01*
D02*
G37*
G36*
X-64068D02*
X-65038D01*
X-65016Y24262D01*
X-64905Y23993D01*
X-64728Y23763D01*
X-64498Y23586D01*
X-64229Y23474D01*
X-64068Y23453D01*
Y24423D01*
D02*
G37*
G36*
Y25647D02*
X-64229Y25626D01*
X-64498Y25514D01*
X-64728Y25337D01*
X-64905Y25107D01*
X-65016Y24838D01*
X-65038Y24677D01*
X-64068D01*
Y25647D01*
D02*
G37*
G36*
Y26973D02*
X-65038D01*
X-65016Y26812D01*
X-64905Y26543D01*
X-64728Y26313D01*
X-64498Y26136D01*
X-64229Y26024D01*
X-64068Y26003D01*
Y26973D01*
D02*
G37*
G36*
X-12750Y41652D02*
X-12958Y41610D01*
X-13135Y41493D01*
X-13252Y41316D01*
X-13294Y41108D01*
X-13252Y40900D01*
X-13135Y40723D01*
X-13064Y40676D01*
Y40524D01*
X-13135Y40477D01*
X-13252Y40300D01*
X-13294Y40092D01*
X-13252Y39884D01*
X-13135Y39707D01*
X-12958Y39590D01*
X-12750Y39548D01*
X-12632Y39572D01*
X-9035Y35974D01*
Y33290D01*
X-9035Y33290D01*
X-9013Y33181D01*
X-8951Y33088D01*
X207Y23930D01*
Y17758D01*
X207Y17758D01*
X229Y17649D01*
X291Y17557D01*
X730Y17118D01*
X706Y17000D01*
X748Y16792D01*
X865Y16615D01*
X1042Y16498D01*
X1250Y16456D01*
X1458Y16498D01*
X1635Y16615D01*
X1752Y16792D01*
X1794Y17000D01*
X1752Y17208D01*
X1691Y17301D01*
X1699Y17339D01*
X1756Y17432D01*
X1927Y17466D01*
X2103Y17584D01*
X2221Y17760D01*
X2262Y17968D01*
X2221Y18177D01*
X2103Y18353D01*
X1927Y18471D01*
X1718Y18512D01*
X1601Y18489D01*
X1285Y18805D01*
Y24258D01*
X1263Y24367D01*
X1201Y24459D01*
X1201Y24459D01*
X-7707Y33368D01*
X-7644Y33485D01*
X-7500Y33456D01*
X-7292Y33498D01*
X-7115Y33615D01*
X-6998Y33627D01*
X1681Y24948D01*
X1681Y24948D01*
X1773Y24886D01*
X1882Y24865D01*
X2399D01*
X2400Y24865D01*
X2509Y24886D01*
X2601Y24948D01*
X2668Y25015D01*
X2818Y24915D01*
X3026Y24873D01*
X3234Y24915D01*
X3411Y25032D01*
X3529Y25209D01*
X3570Y25417D01*
X3529Y25625D01*
X3411Y25802D01*
X3234Y25919D01*
X3026Y25961D01*
X2967Y25949D01*
X2859Y26057D01*
X2880Y26164D01*
X2839Y26372D01*
X2721Y26548D01*
X2544Y26666D01*
X2336Y26708D01*
X2128Y26666D01*
X1952Y26548D01*
X1885Y26448D01*
X1725Y26428D01*
X-6979Y35132D01*
X-6998Y35224D01*
X-7115Y35401D01*
X-7292Y35518D01*
X-7500Y35560D01*
X-7708Y35518D01*
X-7830Y35437D01*
X-7957Y35503D01*
Y36662D01*
X-7957Y36662D01*
X-7979Y36771D01*
X-8041Y36863D01*
X-8041Y36863D01*
X-12219Y41042D01*
X-12206Y41108D01*
X-12248Y41316D01*
X-12365Y41493D01*
X-12542Y41610D01*
X-12750Y41652D01*
D02*
G37*
G36*
X-63814Y25647D02*
Y24677D01*
X-62844D01*
X-62865Y24838D01*
X-62976Y25107D01*
X-63153Y25337D01*
X-63384Y25514D01*
X-63653Y25626D01*
X-63814Y25647D01*
D02*
G37*
G36*
X-33846Y30683D02*
X-34341D01*
Y30188D01*
X-34220Y30212D01*
X-34010Y30352D01*
X-33870Y30562D01*
X-33846Y30683D01*
D02*
G37*
G36*
X-62844Y6603D02*
X-63814D01*
Y5633D01*
X-63653Y5654D01*
X-63384Y5766D01*
X-63153Y5943D01*
X-62976Y6173D01*
X-62865Y6442D01*
X-62844Y6603D01*
D02*
G37*
G36*
X-56321Y7741D02*
X-56582Y7707D01*
X-56826Y7606D01*
X-57036Y7445D01*
X-57196Y7236D01*
X-57297Y6992D01*
X-57332Y6730D01*
X-57297Y6468D01*
X-57196Y6224D01*
X-57036Y6015D01*
X-56826Y5854D01*
X-56582Y5753D01*
X-56321Y5719D01*
X-56059Y5753D01*
X-55815Y5854D01*
X-55606Y6015D01*
X-55445Y6224D01*
X-55344Y6468D01*
X-55310Y6730D01*
X-55344Y6992D01*
X-55445Y7236D01*
X-55606Y7445D01*
X-55815Y7606D01*
X-56059Y7707D01*
X-56321Y7741D01*
D02*
G37*
G36*
X-64068Y7827D02*
X-64229Y7806D01*
X-64498Y7694D01*
X-64728Y7517D01*
X-64905Y7287D01*
X-65016Y7018D01*
X-65038Y6857D01*
X-64068D01*
Y7827D01*
D02*
G37*
G36*
Y6603D02*
X-65038D01*
X-65016Y6442D01*
X-64905Y6173D01*
X-64728Y5943D01*
X-64498Y5766D01*
X-64229Y5654D01*
X-64068Y5633D01*
Y6603D01*
D02*
G37*
G36*
X-63814Y35817D02*
Y34847D01*
X-62844D01*
X-62865Y35008D01*
X-62976Y35277D01*
X-63153Y35507D01*
X-63384Y35684D01*
X-63653Y35796D01*
X-63814Y35817D01*
D02*
G37*
G36*
X-64068D02*
X-64229Y35796D01*
X-64498Y35684D01*
X-64728Y35507D01*
X-64905Y35277D01*
X-65016Y35008D01*
X-65038Y34847D01*
X-64068D01*
Y35817D01*
D02*
G37*
G36*
X2022Y5119D02*
X2000Y5114D01*
X1978Y5119D01*
X1809Y5097D01*
X1789Y5086D01*
X1767D01*
X1609Y5020D01*
X1593Y5005D01*
X1572Y4999D01*
X1436Y4895D01*
X1425Y4875D01*
X1406Y4864D01*
X1301Y4728D01*
X1296Y4707D01*
X1280Y4691D01*
X1214Y4533D01*
Y4511D01*
X1203Y4491D01*
X1181Y4322D01*
X1184Y4311D01*
X1179Y4300D01*
X1184Y4290D01*
X1181Y4279D01*
X1203Y4109D01*
X1214Y4090D01*
Y4067D01*
X1280Y3909D01*
X1296Y3894D01*
X1301Y3872D01*
X1406Y3736D01*
X1425Y3725D01*
X1436Y3706D01*
X1572Y3602D01*
X1593Y3596D01*
X1609Y3580D01*
X1767Y3515D01*
X1789D01*
X1809Y3503D01*
X1978Y3481D01*
X2000Y3487D01*
X2022Y3481D01*
X2191Y3503D01*
X2211Y3515D01*
X2233D01*
X2391Y3580D01*
X2407Y3596D01*
X2428Y3602D01*
X2564Y3706D01*
X2575Y3725D01*
X2594Y3736D01*
X2699Y3872D01*
X2704Y3894D01*
X2720Y3909D01*
X2786Y4067D01*
Y4090D01*
X2797Y4109D01*
X2819Y4279D01*
X2816Y4290D01*
X2821Y4300D01*
X2816Y4311D01*
X2819Y4322D01*
X2797Y4491D01*
X2786Y4511D01*
Y4533D01*
X2720Y4691D01*
X2704Y4707D01*
X2699Y4728D01*
X2594Y4864D01*
X2575Y4875D01*
X2564Y4895D01*
X2428Y4999D01*
X2407Y5005D01*
X2391Y5020D01*
X2233Y5086D01*
X2211D01*
X2191Y5097D01*
X2022Y5119D01*
D02*
G37*
G36*
X-63814Y7827D02*
Y6857D01*
X-62844D01*
X-62865Y7018D01*
X-62976Y7287D01*
X-63153Y7517D01*
X-63384Y7694D01*
X-63653Y7806D01*
X-63814Y7827D01*
D02*
G37*
G36*
X-56321Y33191D02*
X-56582Y33157D01*
X-56826Y33056D01*
X-57036Y32895D01*
X-57196Y32686D01*
X-57297Y32442D01*
X-57332Y32180D01*
X-57297Y31918D01*
X-57196Y31674D01*
X-57036Y31465D01*
X-56826Y31304D01*
X-56582Y31203D01*
X-56321Y31169D01*
X-56059Y31203D01*
X-55815Y31304D01*
X-55606Y31465D01*
X-55445Y31674D01*
X-55344Y31918D01*
X-55310Y32180D01*
X-55344Y32442D01*
X-55445Y32686D01*
X-55606Y32895D01*
X-55815Y33056D01*
X-56059Y33157D01*
X-56321Y33191D01*
D02*
G37*
G36*
X-34341Y31432D02*
Y30937D01*
X-33846D01*
X-33870Y31058D01*
X-34010Y31268D01*
X-34220Y31408D01*
X-34341Y31432D01*
D02*
G37*
G36*
X-34595D02*
X-34716Y31408D01*
X-34926Y31268D01*
X-35066Y31058D01*
X-35090Y30937D01*
X-34595D01*
Y31432D01*
D02*
G37*
G36*
X-48100Y38294D02*
X-48308Y38252D01*
X-48485Y38135D01*
X-48602Y37958D01*
X-48644Y37750D01*
X-48602Y37542D01*
X-48485Y37365D01*
X-48308Y37248D01*
X-48153Y37217D01*
X-47714Y36778D01*
Y33510D01*
X-47802Y33378D01*
X-47844Y33170D01*
X-47802Y32962D01*
X-47685Y32785D01*
X-47508Y32668D01*
X-47300Y32626D01*
X-47092Y32668D01*
X-46915Y32785D01*
X-46798Y32962D01*
X-46756Y33170D01*
X-46798Y33378D01*
X-46886Y33510D01*
Y36950D01*
X-46917Y37109D01*
X-47007Y37243D01*
X-47567Y37803D01*
X-47598Y37958D01*
X-47715Y38135D01*
X-47892Y38252D01*
X-48100Y38294D01*
D02*
G37*
G36*
X-56321Y35731D02*
X-56582Y35697D01*
X-56826Y35596D01*
X-57036Y35435D01*
X-57196Y35226D01*
X-57297Y34982D01*
X-57332Y34720D01*
X-57297Y34458D01*
X-57196Y34214D01*
X-57036Y34005D01*
X-56826Y33844D01*
X-56582Y33743D01*
X-56321Y33709D01*
X-56059Y33743D01*
X-55815Y33844D01*
X-55606Y34005D01*
X-55445Y34214D01*
X-55344Y34458D01*
X-55310Y34720D01*
X-55344Y34982D01*
X-55445Y35226D01*
X-55606Y35435D01*
X-55815Y35596D01*
X-56059Y35697D01*
X-56321Y35731D01*
D02*
G37*
G36*
X-62844Y34593D02*
X-63814D01*
Y33623D01*
X-63653Y33644D01*
X-63384Y33756D01*
X-63153Y33933D01*
X-62976Y34163D01*
X-62865Y34432D01*
X-62844Y34593D01*
D02*
G37*
G36*
X-64068D02*
X-65038D01*
X-65016Y34432D01*
X-64905Y34163D01*
X-64728Y33933D01*
X-64498Y33756D01*
X-64229Y33644D01*
X-64068Y33623D01*
Y34593D01*
D02*
G37*
G36*
X-48100Y17994D02*
X-48308Y17952D01*
X-48485Y17835D01*
X-48602Y17658D01*
X-48644Y17450D01*
X-48602Y17242D01*
X-48485Y17065D01*
X-48308Y16948D01*
X-48153Y16917D01*
X-47714Y16478D01*
Y13140D01*
X-47802Y13008D01*
X-47844Y12800D01*
X-47802Y12592D01*
X-47685Y12415D01*
X-47508Y12298D01*
X-47300Y12256D01*
X-47092Y12298D01*
X-46915Y12415D01*
X-46798Y12592D01*
X-46756Y12800D01*
X-46798Y13008D01*
X-46886Y13140D01*
Y16650D01*
X-46917Y16809D01*
X-47007Y16943D01*
X-47567Y17503D01*
X-47598Y17658D01*
X-47715Y17835D01*
X-47892Y17952D01*
X-48100Y17994D01*
D02*
G37*
G36*
X-40400Y12244D02*
X-40608Y12202D01*
X-40785Y12085D01*
X-40834Y12011D01*
X-50096D01*
X-50145Y12085D01*
X-50322Y12202D01*
X-50530Y12244D01*
X-50738Y12202D01*
X-50915Y12085D01*
X-51032Y11908D01*
X-51074Y11700D01*
X-51032Y11492D01*
X-50915Y11315D01*
X-50738Y11198D01*
X-50530Y11156D01*
X-50322Y11198D01*
X-50145Y11315D01*
X-50096Y11389D01*
X-40834D01*
X-40785Y11315D01*
X-40608Y11198D01*
X-40400Y11156D01*
X-40192Y11198D01*
X-40015Y11315D01*
X-39898Y11492D01*
X-39856Y11700D01*
X-39898Y11908D01*
X-40015Y12085D01*
X-40192Y12202D01*
X-40400Y12244D01*
D02*
G37*
G36*
X-56321Y12821D02*
X-56582Y12787D01*
X-56826Y12686D01*
X-57036Y12525D01*
X-57196Y12316D01*
X-57297Y12072D01*
X-57332Y11810D01*
X-57297Y11548D01*
X-57196Y11304D01*
X-57036Y11095D01*
X-56826Y10934D01*
X-56582Y10833D01*
X-56321Y10799D01*
X-56059Y10833D01*
X-55815Y10934D01*
X-55606Y11095D01*
X-55445Y11304D01*
X-55344Y11548D01*
X-55310Y11810D01*
X-55344Y12072D01*
X-55445Y12316D01*
X-55606Y12525D01*
X-55815Y12686D01*
X-56059Y12787D01*
X-56321Y12821D01*
D02*
G37*
G36*
X-64068Y14223D02*
X-65038D01*
X-65016Y14062D01*
X-64905Y13793D01*
X-64728Y13563D01*
X-64498Y13386D01*
X-64229Y13274D01*
X-64068Y13253D01*
Y14223D01*
D02*
G37*
G36*
X-7250Y25044D02*
X-7458Y25002D01*
X-7635Y24885D01*
X-7752Y24708D01*
X-7794Y24500D01*
X-7752Y24292D01*
X-7635Y24115D01*
X-7535Y24049D01*
Y20750D01*
X-7535Y20750D01*
X-7513Y20641D01*
X-7451Y20549D01*
X-1701Y14799D01*
X-1701Y14799D01*
X-1609Y14737D01*
X-1500Y14715D01*
X2049D01*
X2115Y14615D01*
X2292Y14498D01*
X2500Y14456D01*
X2708Y14498D01*
X2885Y14615D01*
X3002Y14792D01*
X3044Y15000D01*
X3002Y15208D01*
X2885Y15385D01*
X2708Y15502D01*
X2500Y15544D01*
X2292Y15502D01*
X2115Y15385D01*
X2049Y15285D01*
X-1382D01*
X-6965Y20868D01*
Y24049D01*
X-6865Y24115D01*
X-6748Y24292D01*
X-6706Y24500D01*
X-6748Y24708D01*
X-6865Y24885D01*
X-7042Y25002D01*
X-7250Y25044D01*
D02*
G37*
G36*
X-56321Y15361D02*
X-56582Y15327D01*
X-56826Y15226D01*
X-57036Y15065D01*
X-57196Y14856D01*
X-57297Y14612D01*
X-57332Y14350D01*
X-57297Y14088D01*
X-57196Y13844D01*
X-57036Y13635D01*
X-56826Y13474D01*
X-56582Y13373D01*
X-56321Y13339D01*
X-56059Y13373D01*
X-55815Y13474D01*
X-55606Y13635D01*
X-55445Y13844D01*
X-55344Y14088D01*
X-55310Y14350D01*
X-55344Y14612D01*
X-55445Y14856D01*
X-55606Y15065D01*
X-55815Y15226D01*
X-56059Y15327D01*
X-56321Y15361D01*
D02*
G37*
G36*
X-62844Y14223D02*
X-63814D01*
Y13253D01*
X-63653Y13274D01*
X-63384Y13386D01*
X-63153Y13563D01*
X-62976Y13793D01*
X-62865Y14062D01*
X-62844Y14223D01*
D02*
G37*
G36*
X-29566Y11189D02*
Y10693D01*
X-29070D01*
X-29094Y10814D01*
X-29235Y11024D01*
X-29445Y11165D01*
X-29566Y11189D01*
D02*
G37*
G36*
X-56448Y10367D02*
X-56609Y10346D01*
X-56878Y10234D01*
X-57108Y10057D01*
X-57285Y9827D01*
X-57396Y9558D01*
X-57418Y9397D01*
X-56448D01*
Y10367D01*
D02*
G37*
G36*
X-55224Y9143D02*
X-56194D01*
Y8173D01*
X-56033Y8194D01*
X-55764Y8306D01*
X-55533Y8483D01*
X-55356Y8713D01*
X-55245Y8982D01*
X-55224Y9143D01*
D02*
G37*
G36*
X-56448D02*
X-57418D01*
X-57396Y8982D01*
X-57285Y8713D01*
X-57108Y8483D01*
X-56878Y8306D01*
X-56609Y8194D01*
X-56448Y8173D01*
Y9143D01*
D02*
G37*
G36*
X-56194Y10367D02*
Y9397D01*
X-55224D01*
X-55245Y9558D01*
X-55356Y9827D01*
X-55533Y10057D01*
X-55764Y10234D01*
X-56033Y10346D01*
X-56194Y10367D01*
D02*
G37*
G36*
X-29820Y11189D02*
X-29940Y11165D01*
X-30150Y11024D01*
X-30291Y10814D01*
X-30315Y10693D01*
X-29820D01*
Y11189D01*
D02*
G37*
G36*
X-29070Y10439D02*
X-29566D01*
Y9944D01*
X-29445Y9968D01*
X-29235Y10109D01*
X-29094Y10319D01*
X-29070Y10439D01*
D02*
G37*
G36*
X-29820D02*
X-30315D01*
X-30291Y10319D01*
X-30150Y10109D01*
X-29940Y9968D01*
X-29820Y9944D01*
Y10439D01*
D02*
G37*
G36*
X-64068Y15447D02*
X-64229Y15426D01*
X-64498Y15314D01*
X-64728Y15137D01*
X-64905Y14907D01*
X-65016Y14638D01*
X-65038Y14477D01*
X-64068D01*
Y15447D01*
D02*
G37*
G36*
X-56194Y20567D02*
Y19597D01*
X-55224D01*
X-55245Y19758D01*
X-55356Y20027D01*
X-55533Y20257D01*
X-55764Y20434D01*
X-56033Y20546D01*
X-56194Y20567D01*
D02*
G37*
G36*
X-56448D02*
X-56609Y20546D01*
X-56878Y20434D01*
X-57108Y20257D01*
X-57285Y20027D01*
X-57396Y19758D01*
X-57418Y19597D01*
X-56448D01*
Y20567D01*
D02*
G37*
G36*
X-17100Y18644D02*
X-17308Y18602D01*
X-17485Y18485D01*
X-17551Y18385D01*
X-25400D01*
X-25400Y18385D01*
X-25509Y18363D01*
X-25601Y18301D01*
X-25601Y18301D01*
X-34001Y9901D01*
X-34063Y9809D01*
X-34085Y9700D01*
X-34085Y9700D01*
Y8651D01*
X-34185Y8585D01*
X-34302Y8408D01*
X-34344Y8200D01*
X-34302Y7992D01*
X-34185Y7815D01*
X-34008Y7698D01*
X-33800Y7656D01*
X-33592Y7698D01*
X-33415Y7815D01*
X-33298Y7992D01*
X-33256Y8200D01*
X-33298Y8408D01*
X-33415Y8585D01*
X-33515Y8651D01*
Y9582D01*
X-25282Y17815D01*
X-17551D01*
X-17485Y17715D01*
X-17308Y17598D01*
X-17100Y17556D01*
X-16892Y17598D01*
X-16715Y17715D01*
X-16598Y17892D01*
X-16556Y18100D01*
X-16598Y18308D01*
X-16715Y18485D01*
X-16892Y18602D01*
X-17100Y18644D01*
D02*
G37*
G36*
X-56321Y23021D02*
X-56582Y22987D01*
X-56826Y22886D01*
X-57036Y22725D01*
X-57196Y22516D01*
X-57297Y22272D01*
X-57332Y22010D01*
X-57297Y21748D01*
X-57196Y21504D01*
X-57036Y21295D01*
X-56826Y21134D01*
X-56582Y21033D01*
X-56321Y20999D01*
X-56059Y21033D01*
X-55815Y21134D01*
X-55606Y21295D01*
X-55445Y21504D01*
X-55344Y21748D01*
X-55310Y22010D01*
X-55344Y22272D01*
X-55445Y22516D01*
X-55606Y22725D01*
X-55815Y22886D01*
X-56059Y22987D01*
X-56321Y23021D01*
D02*
G37*
G36*
X-17200Y23844D02*
X-17408Y23802D01*
X-17585Y23685D01*
X-17702Y23508D01*
X-17744Y23300D01*
X-17702Y23092D01*
X-17585Y22915D01*
X-17408Y22798D01*
X-17200Y22756D01*
X-16992Y22798D01*
X-16815Y22915D01*
X-16698Y23092D01*
X-16656Y23300D01*
X-16698Y23508D01*
X-16815Y23685D01*
X-16992Y23802D01*
X-17200Y23844D01*
D02*
G37*
G36*
X-48100Y28164D02*
X-48308Y28122D01*
X-48485Y28005D01*
X-48602Y27828D01*
X-48644Y27620D01*
X-48602Y27412D01*
X-48485Y27235D01*
X-48308Y27118D01*
X-48153Y27087D01*
X-47714Y26648D01*
Y23340D01*
X-47802Y23208D01*
X-47844Y23000D01*
X-47802Y22792D01*
X-47685Y22615D01*
X-47508Y22498D01*
X-47300Y22456D01*
X-47092Y22498D01*
X-46915Y22615D01*
X-46798Y22792D01*
X-46756Y23000D01*
X-46798Y23208D01*
X-46886Y23340D01*
Y26820D01*
X-46917Y26979D01*
X-47007Y27113D01*
X-47567Y27673D01*
X-47598Y27828D01*
X-47715Y28005D01*
X-47892Y28122D01*
X-48100Y28164D01*
D02*
G37*
G36*
X7500Y27294D02*
X7292Y27252D01*
X7115Y27135D01*
X6998Y26958D01*
X6956Y26750D01*
X6998Y26542D01*
X7115Y26365D01*
X7215Y26299D01*
Y21725D01*
X7088Y21666D01*
X6958Y21752D01*
X6750Y21794D01*
X6542Y21752D01*
X6365Y21635D01*
X6248Y21458D01*
X6206Y21250D01*
X6248Y21042D01*
X6365Y20865D01*
X6465Y20799D01*
Y16868D01*
X5882Y16285D01*
X118D01*
X-5549Y21951D01*
X-5641Y22013D01*
X-5750Y22035D01*
X-5750Y22035D01*
X-5799D01*
X-5865Y22135D01*
X-6042Y22252D01*
X-6250Y22294D01*
X-6458Y22252D01*
X-6635Y22135D01*
X-6752Y21958D01*
X-6794Y21750D01*
X-6752Y21542D01*
X-6635Y21365D01*
X-6458Y21248D01*
X-6250Y21206D01*
X-6042Y21248D01*
X-5865Y21365D01*
X-5777Y21374D01*
X-201Y15799D01*
X-201Y15799D01*
X-109Y15737D01*
X0Y15715D01*
X6000D01*
X6000Y15715D01*
X6109Y15737D01*
X6201Y15799D01*
X6951Y16549D01*
X6951Y16549D01*
X7013Y16641D01*
X7035Y16750D01*
X7035Y16750D01*
Y17775D01*
X7162Y17834D01*
X7292Y17748D01*
X7500Y17706D01*
X7708Y17748D01*
X7885Y17865D01*
X8002Y18042D01*
X8044Y18250D01*
X8002Y18458D01*
X7885Y18635D01*
X7785Y18701D01*
Y26299D01*
X7885Y26365D01*
X8002Y26542D01*
X8044Y26750D01*
X8002Y26958D01*
X7885Y27135D01*
X7708Y27252D01*
X7500Y27294D01*
D02*
G37*
G36*
X-55224Y19343D02*
X-56194D01*
Y18373D01*
X-56033Y18394D01*
X-55764Y18506D01*
X-55533Y18683D01*
X-55356Y18913D01*
X-55245Y19182D01*
X-55224Y19343D01*
D02*
G37*
G36*
X-62844Y16803D02*
X-63814D01*
Y15833D01*
X-63653Y15854D01*
X-63384Y15966D01*
X-63153Y16143D01*
X-62976Y16373D01*
X-62865Y16642D01*
X-62844Y16803D01*
D02*
G37*
G36*
X-64068D02*
X-65038D01*
X-65016Y16642D01*
X-64905Y16373D01*
X-64728Y16143D01*
X-64498Y15966D01*
X-64229Y15854D01*
X-64068Y15833D01*
Y16803D01*
D02*
G37*
G36*
X-63814Y15447D02*
Y14477D01*
X-62844D01*
X-62865Y14638D01*
X-62976Y14907D01*
X-63153Y15137D01*
X-63384Y15314D01*
X-63653Y15426D01*
X-63814Y15447D01*
D02*
G37*
G36*
X-56321Y17941D02*
X-56582Y17907D01*
X-56826Y17806D01*
X-57036Y17645D01*
X-57196Y17436D01*
X-57297Y17192D01*
X-57332Y16930D01*
X-57297Y16668D01*
X-57196Y16424D01*
X-57036Y16215D01*
X-56826Y16054D01*
X-56582Y15953D01*
X-56321Y15919D01*
X-56059Y15953D01*
X-55815Y16054D01*
X-55606Y16215D01*
X-55445Y16424D01*
X-55344Y16668D01*
X-55310Y16930D01*
X-55344Y17192D01*
X-55445Y17436D01*
X-55606Y17645D01*
X-55815Y17806D01*
X-56059Y17907D01*
X-56321Y17941D01*
D02*
G37*
G36*
X-56448Y19343D02*
X-57418D01*
X-57396Y19182D01*
X-57285Y18913D01*
X-57108Y18683D01*
X-56878Y18506D01*
X-56609Y18394D01*
X-56448Y18373D01*
Y19343D01*
D02*
G37*
G36*
X-63814Y18027D02*
Y17057D01*
X-62844D01*
X-62865Y17218D01*
X-62976Y17487D01*
X-63153Y17717D01*
X-63384Y17894D01*
X-63653Y18006D01*
X-63814Y18027D01*
D02*
G37*
G36*
X-64068D02*
X-64229Y18006D01*
X-64498Y17894D01*
X-64728Y17717D01*
X-64905Y17487D01*
X-65016Y17218D01*
X-65038Y17057D01*
X-64068D01*
Y18027D01*
D02*
G37*
G36*
Y37103D02*
X-65038D01*
X-65016Y36942D01*
X-64905Y36673D01*
X-64728Y36443D01*
X-64498Y36266D01*
X-64229Y36154D01*
X-64068Y36133D01*
Y37103D01*
D02*
G37*
G36*
X-56448Y49793D02*
X-57418D01*
X-57396Y49632D01*
X-57285Y49363D01*
X-57108Y49133D01*
X-56878Y48956D01*
X-56609Y48844D01*
X-56448Y48823D01*
Y49793D01*
D02*
G37*
G36*
X-25375Y48882D02*
Y48387D01*
X-24879D01*
X-24903Y48508D01*
X-25044Y48718D01*
X-25254Y48858D01*
X-25375Y48882D01*
D02*
G37*
G36*
X-25629D02*
X-25749Y48858D01*
X-25959Y48718D01*
X-26100Y48508D01*
X-26124Y48387D01*
X-25629D01*
Y48882D01*
D02*
G37*
G36*
X-55224Y49793D02*
X-56194D01*
Y48823D01*
X-56033Y48844D01*
X-55764Y48956D01*
X-55533Y49133D01*
X-55356Y49363D01*
X-55245Y49632D01*
X-55224Y49793D01*
D02*
G37*
G36*
X-56448Y51017D02*
X-56609Y50996D01*
X-56878Y50884D01*
X-57108Y50707D01*
X-57285Y50477D01*
X-57396Y50208D01*
X-57418Y50047D01*
X-56448D01*
Y51017D01*
D02*
G37*
G36*
X-10100Y51644D02*
X-10308Y51602D01*
X-10485Y51485D01*
X-10602Y51308D01*
X-10644Y51100D01*
X-10602Y50892D01*
X-10485Y50715D01*
X-10308Y50598D01*
X-10100Y50556D01*
X-9982Y50580D01*
X-9601Y50199D01*
X-9601Y50199D01*
X-9509Y50137D01*
X-9400Y50115D01*
X-9400Y50115D01*
X1849D01*
X1915Y50015D01*
X2092Y49898D01*
X2300Y49856D01*
X2508Y49898D01*
X2685Y50015D01*
X2802Y50192D01*
X2844Y50400D01*
X2802Y50608D01*
X2685Y50785D01*
X2508Y50902D01*
X2300Y50944D01*
X2092Y50902D01*
X1915Y50785D01*
X1849Y50685D01*
X-9282D01*
X-9580Y50982D01*
X-9556Y51100D01*
X-9598Y51308D01*
X-9715Y51485D01*
X-9892Y51602D01*
X-10100Y51644D01*
D02*
G37*
G36*
X-11500D02*
X-11708Y51602D01*
X-11885Y51485D01*
X-12002Y51308D01*
X-12044Y51100D01*
X-12002Y50892D01*
X-11885Y50715D01*
X-11708Y50598D01*
X-11500Y50556D01*
X-11382Y50580D01*
X-10001Y49199D01*
X-10001Y49199D01*
X-9909Y49137D01*
X-9800Y49115D01*
X6149D01*
X6215Y49015D01*
X6392Y48898D01*
X6600Y48856D01*
X6808Y48898D01*
X6985Y49015D01*
X7102Y49192D01*
X7144Y49400D01*
X7102Y49608D01*
X6985Y49785D01*
X6808Y49902D01*
X6600Y49944D01*
X6392Y49902D01*
X6215Y49785D01*
X6149Y49685D01*
X-9682D01*
X-10980Y50982D01*
X-10956Y51100D01*
X-10998Y51308D01*
X-11115Y51485D01*
X-11292Y51602D01*
X-11500Y51644D01*
D02*
G37*
G36*
X-10773Y48522D02*
Y48027D01*
X-10278D01*
X-10302Y48148D01*
X-10442Y48358D01*
X-10652Y48498D01*
X-10773Y48522D01*
D02*
G37*
G36*
X-64068Y48477D02*
X-64229Y48456D01*
X-64498Y48344D01*
X-64728Y48167D01*
X-64905Y47937D01*
X-65016Y47668D01*
X-65038Y47507D01*
X-64068D01*
Y48477D01*
D02*
G37*
G36*
X-10278Y47773D02*
X-10773D01*
Y47278D01*
X-10652Y47302D01*
X-10442Y47442D01*
X-10302Y47652D01*
X-10278Y47773D01*
D02*
G37*
G36*
X-11027D02*
X-11522D01*
X-11498Y47652D01*
X-11358Y47442D01*
X-11148Y47302D01*
X-11027Y47278D01*
Y47773D01*
D02*
G37*
G36*
X-63814Y48477D02*
Y47507D01*
X-62844D01*
X-62865Y47668D01*
X-62976Y47937D01*
X-63153Y48167D01*
X-63384Y48344D01*
X-63653Y48456D01*
X-63814Y48477D01*
D02*
G37*
G36*
X-11027Y48522D02*
X-11148Y48498D01*
X-11358Y48358D01*
X-11498Y48148D01*
X-11522Y48027D01*
X-11027D01*
Y48522D01*
D02*
G37*
G36*
X-24879Y48133D02*
X-25375D01*
Y47638D01*
X-25254Y47662D01*
X-25044Y47802D01*
X-24903Y48012D01*
X-24879Y48133D01*
D02*
G37*
G36*
X-25629D02*
X-26124D01*
X-26100Y48012D01*
X-25959Y47802D01*
X-25749Y47662D01*
X-25629Y47638D01*
Y48133D01*
D02*
G37*
G36*
X-56194Y51017D02*
Y50047D01*
X-55224D01*
X-55245Y50208D01*
X-55356Y50477D01*
X-55533Y50707D01*
X-55764Y50884D01*
X-56033Y50996D01*
X-56194Y51017D01*
D02*
G37*
G36*
X2753Y62873D02*
X127D01*
Y60247D01*
X432Y60271D01*
X854Y60373D01*
X1254Y60539D01*
X1624Y60765D01*
X1953Y61047D01*
X2235Y61376D01*
X2461Y61746D01*
X2627Y62146D01*
X2729Y62568D01*
X2753Y62873D01*
D02*
G37*
G36*
X-127D02*
X-2753D01*
X-2729Y62568D01*
X-2627Y62146D01*
X-2461Y61746D01*
X-2235Y61376D01*
X-1953Y61047D01*
X-1624Y60765D01*
X-1254Y60539D01*
X-854Y60373D01*
X-432Y60271D01*
X-127Y60247D01*
Y62873D01*
D02*
G37*
G36*
X-1026Y59501D02*
X-1048Y59495D01*
X-1070Y59501D01*
X-1239Y59479D01*
X-1259Y59467D01*
X-1281D01*
X-1439Y59402D01*
X-1455Y59386D01*
X-1476Y59380D01*
X-1612Y59276D01*
X-1623Y59257D01*
X-1642Y59246D01*
X-1747Y59110D01*
X-1752Y59088D01*
X-1768Y59073D01*
X-1834Y58915D01*
Y58892D01*
X-1845Y58873D01*
X-1867Y58703D01*
X-1864Y58692D01*
X-1869Y58682D01*
X-1864Y58671D01*
X-1867Y58660D01*
X-1845Y58491D01*
X-1834Y58471D01*
Y58449D01*
X-1768Y58291D01*
X-1752Y58275D01*
X-1747Y58253D01*
X-1642Y58118D01*
X-1623Y58107D01*
X-1612Y58087D01*
X-1476Y57983D01*
X-1455Y57977D01*
X-1439Y57962D01*
X-1281Y57896D01*
X-1259D01*
X-1239Y57885D01*
X-1070Y57863D01*
X-1048Y57868D01*
X-1026Y57863D01*
X-857Y57885D01*
X-837Y57896D01*
X-815D01*
X-657Y57962D01*
X-641Y57977D01*
X-620Y57983D01*
X-484Y58087D01*
X-473Y58107D01*
X-454Y58118D01*
X-349Y58253D01*
X-344Y58275D01*
X-328Y58291D01*
X-262Y58449D01*
Y58471D01*
X-251Y58491D01*
X-229Y58660D01*
X-232Y58671D01*
X-227Y58682D01*
X-232Y58692D01*
X-229Y58703D01*
X-251Y58873D01*
X-262Y58892D01*
Y58915D01*
X-328Y59073D01*
X-344Y59088D01*
X-349Y59110D01*
X-454Y59246D01*
X-473Y59257D01*
X-484Y59276D01*
X-620Y59380D01*
X-641Y59386D01*
X-657Y59402D01*
X-815Y59467D01*
X-837D01*
X-857Y59479D01*
X-1026Y59501D01*
D02*
G37*
G36*
X-13462Y64186D02*
X-13957D01*
X-13933Y64065D01*
X-13793Y63855D01*
X-13583Y63715D01*
X-13462Y63691D01*
Y64186D01*
D02*
G37*
G36*
X-13208Y64935D02*
Y64440D01*
X-12713D01*
X-12737Y64561D01*
X-12877Y64771D01*
X-13087Y64911D01*
X-13208Y64935D01*
D02*
G37*
G36*
X-13462D02*
X-13583Y64911D01*
X-13793Y64771D01*
X-13933Y64561D01*
X-13957Y64440D01*
X-13462D01*
Y64935D01*
D02*
G37*
G36*
X-12713Y64186D02*
X-13208D01*
Y63691D01*
X-13087Y63715D01*
X-12877Y63855D01*
X-12737Y64065D01*
X-12713Y64186D01*
D02*
G37*
G36*
X-6604Y56729D02*
X-6812Y56687D01*
X-6989Y56569D01*
X-7012Y56534D01*
X-9296D01*
X-9430Y56508D01*
X-9544Y56432D01*
X-14624Y51352D01*
X-14699Y51239D01*
X-14726Y51105D01*
Y39446D01*
X-14699Y39312D01*
X-14624Y39199D01*
X-11043Y35618D01*
Y31693D01*
X-11016Y31560D01*
X-10941Y31446D01*
X-8850Y29355D01*
Y29008D01*
X-8885Y28985D01*
X-9002Y28808D01*
X-9044Y28600D01*
X-9002Y28392D01*
X-8885Y28215D01*
X-8850Y28192D01*
Y26108D01*
X-8885Y26085D01*
X-9002Y25908D01*
X-9044Y25700D01*
X-9002Y25492D01*
X-8885Y25315D01*
X-8850Y25292D01*
Y23708D01*
X-8885Y23685D01*
X-9002Y23508D01*
X-9044Y23300D01*
X-9002Y23092D01*
X-8885Y22915D01*
X-8850Y22892D01*
Y21208D01*
X-8885Y21185D01*
X-9002Y21008D01*
X-9044Y20800D01*
X-9002Y20592D01*
X-8885Y20415D01*
X-8850Y20392D01*
Y18508D01*
X-8885Y18485D01*
X-9002Y18308D01*
X-9044Y18100D01*
X-9002Y17892D01*
X-8885Y17715D01*
X-8708Y17598D01*
X-8500Y17556D01*
X-8459Y17564D01*
X-3350Y12455D01*
Y7108D01*
X-3385Y7085D01*
X-3502Y6908D01*
X-3544Y6700D01*
X-3502Y6492D01*
X-3385Y6315D01*
X-3208Y6198D01*
X-3000Y6156D01*
X-2792Y6198D01*
X-2615Y6315D01*
X-2498Y6492D01*
X-2456Y6700D01*
X-2498Y6908D01*
X-2615Y7085D01*
X-2650Y7108D01*
Y12600D01*
X-2677Y12734D01*
X-2753Y12847D01*
X-2753Y12847D01*
X-7964Y18059D01*
X-7956Y18100D01*
X-7998Y18308D01*
X-8115Y18485D01*
X-8150Y18508D01*
Y20392D01*
X-8115Y20415D01*
X-7998Y20592D01*
X-7956Y20800D01*
X-7998Y21008D01*
X-8115Y21185D01*
X-8150Y21208D01*
Y22892D01*
X-8115Y22915D01*
X-7998Y23092D01*
X-7956Y23300D01*
X-7998Y23508D01*
X-8115Y23685D01*
X-8150Y23708D01*
Y25292D01*
X-8115Y25315D01*
X-7998Y25492D01*
X-7956Y25700D01*
X-7998Y25908D01*
X-8115Y26085D01*
X-8150Y26108D01*
Y28192D01*
X-8115Y28215D01*
X-7998Y28392D01*
X-7956Y28600D01*
X-7998Y28808D01*
X-8115Y28985D01*
X-8150Y29008D01*
Y29500D01*
X-8177Y29634D01*
X-8253Y29747D01*
X-10344Y31838D01*
Y35763D01*
X-10344Y35763D01*
X-10370Y35897D01*
X-10446Y36010D01*
X-10446Y36010D01*
X-14027Y39591D01*
Y50960D01*
X-9152Y55835D01*
X-7012D01*
X-6989Y55800D01*
X-6812Y55682D01*
X-6604Y55641D01*
X-6396Y55682D01*
X-6219Y55800D01*
X-6102Y55977D01*
X-6060Y56185D01*
X-6102Y56393D01*
X-6219Y56569D01*
X-6396Y56687D01*
X-6604Y56729D01*
D02*
G37*
G36*
X-64068Y54873D02*
X-65038D01*
X-65016Y54712D01*
X-64905Y54443D01*
X-64728Y54213D01*
X-64498Y54036D01*
X-64229Y53924D01*
X-64068Y53903D01*
Y54873D01*
D02*
G37*
G36*
X-46600Y59444D02*
X-46808Y59402D01*
X-46985Y59285D01*
X-47102Y59108D01*
X-47144Y58900D01*
X-47102Y58692D01*
X-47014Y58560D01*
Y58472D01*
X-47593Y57893D01*
X-47683Y57759D01*
X-47714Y57600D01*
Y53790D01*
X-47802Y53658D01*
X-47844Y53450D01*
X-47802Y53242D01*
X-47685Y53065D01*
X-47508Y52948D01*
X-47300Y52906D01*
X-47092Y52948D01*
X-46915Y53065D01*
X-46798Y53242D01*
X-46756Y53450D01*
X-46798Y53658D01*
X-46886Y53790D01*
Y57428D01*
X-46307Y58007D01*
X-46217Y58141D01*
X-46186Y58300D01*
Y58560D01*
X-46098Y58692D01*
X-46056Y58900D01*
X-46098Y59108D01*
X-46215Y59285D01*
X-46392Y59402D01*
X-46600Y59444D01*
D02*
G37*
G36*
X-56321Y53471D02*
X-56582Y53437D01*
X-56826Y53336D01*
X-57036Y53175D01*
X-57196Y52966D01*
X-57297Y52722D01*
X-57332Y52460D01*
X-57297Y52198D01*
X-57196Y51954D01*
X-57036Y51745D01*
X-56826Y51584D01*
X-56582Y51483D01*
X-56321Y51449D01*
X-56059Y51483D01*
X-55815Y51584D01*
X-55606Y51745D01*
X-55445Y51954D01*
X-55344Y52198D01*
X-55310Y52460D01*
X-55344Y52722D01*
X-55445Y52966D01*
X-55606Y53175D01*
X-55815Y53336D01*
X-56059Y53437D01*
X-56321Y53471D01*
D02*
G37*
G36*
X-62844Y54873D02*
X-63814D01*
Y53903D01*
X-63653Y53924D01*
X-63384Y54036D01*
X-63153Y54213D01*
X-62976Y54443D01*
X-62865Y54712D01*
X-62844Y54873D01*
D02*
G37*
G36*
X-63814Y56097D02*
Y55127D01*
X-62844D01*
X-62865Y55288D01*
X-62976Y55557D01*
X-63153Y55787D01*
X-63384Y55964D01*
X-63653Y56076D01*
X-63814Y56097D01*
D02*
G37*
G36*
X-64068D02*
X-64229Y56076D01*
X-64498Y55964D01*
X-64728Y55787D01*
X-64905Y55557D01*
X-65016Y55288D01*
X-65038Y55127D01*
X-64068D01*
Y56097D01*
D02*
G37*
G36*
X-56321Y56011D02*
X-56582Y55977D01*
X-56826Y55876D01*
X-57036Y55715D01*
X-57196Y55506D01*
X-57297Y55262D01*
X-57332Y55000D01*
X-57297Y54738D01*
X-57196Y54494D01*
X-57036Y54285D01*
X-56826Y54124D01*
X-56582Y54023D01*
X-56321Y53989D01*
X-56059Y54023D01*
X-55815Y54124D01*
X-55606Y54285D01*
X-55445Y54494D01*
X-55344Y54738D01*
X-55310Y55000D01*
X-55344Y55262D01*
X-55445Y55506D01*
X-55606Y55715D01*
X-55815Y55876D01*
X-56059Y55977D01*
X-56321Y56011D01*
D02*
G37*
G36*
X-55224Y39643D02*
X-56194D01*
Y38673D01*
X-56033Y38694D01*
X-55764Y38806D01*
X-55533Y38983D01*
X-55356Y39213D01*
X-55245Y39482D01*
X-55224Y39643D01*
D02*
G37*
G36*
X-56448D02*
X-57418D01*
X-57396Y39482D01*
X-57285Y39213D01*
X-57108Y38983D01*
X-56878Y38806D01*
X-56609Y38694D01*
X-56448Y38673D01*
Y39643D01*
D02*
G37*
G36*
X-26670Y38316D02*
Y37821D01*
X-26175D01*
X-26199Y37941D01*
X-26339Y38151D01*
X-26549Y38292D01*
X-26670Y38316D01*
D02*
G37*
G36*
X-56448Y40867D02*
X-56609Y40846D01*
X-56878Y40734D01*
X-57108Y40557D01*
X-57285Y40327D01*
X-57396Y40058D01*
X-57418Y39897D01*
X-56448D01*
Y40867D01*
D02*
G37*
G36*
X-20307Y40640D02*
X-20803D01*
Y40145D01*
X-20682Y40169D01*
X-20472Y40309D01*
X-20331Y40519D01*
X-20307Y40640D01*
D02*
G37*
G36*
X-21057D02*
X-21552D01*
X-21528Y40519D01*
X-21387Y40309D01*
X-21177Y40169D01*
X-21057Y40145D01*
Y40640D01*
D02*
G37*
G36*
X-56194Y40867D02*
Y39897D01*
X-55224D01*
X-55245Y40058D01*
X-55356Y40327D01*
X-55533Y40557D01*
X-55764Y40734D01*
X-56033Y40846D01*
X-56194Y40867D01*
D02*
G37*
G36*
X-26924Y38316D02*
X-27045Y38292D01*
X-27255Y38151D01*
X-27395Y37941D01*
X-27419Y37821D01*
X-26924D01*
Y38316D01*
D02*
G37*
G36*
X127Y2753D02*
Y127D01*
X2753D01*
X2729Y432D01*
X2627Y854D01*
X2461Y1254D01*
X2235Y1624D01*
X1953Y1953D01*
X1624Y2235D01*
X1254Y2461D01*
X854Y2627D01*
X432Y2729D01*
X127Y2753D01*
D02*
G37*
G36*
X-56321Y38241D02*
X-56582Y38207D01*
X-56826Y38106D01*
X-57036Y37945D01*
X-57196Y37736D01*
X-57297Y37492D01*
X-57332Y37230D01*
X-57297Y36968D01*
X-57196Y36724D01*
X-57036Y36515D01*
X-56826Y36354D01*
X-56582Y36253D01*
X-56321Y36219D01*
X-56059Y36253D01*
X-55815Y36354D01*
X-55606Y36515D01*
X-55445Y36724D01*
X-55344Y36968D01*
X-55310Y37230D01*
X-55344Y37492D01*
X-55445Y37736D01*
X-55606Y37945D01*
X-55815Y38106D01*
X-56059Y38207D01*
X-56321Y38241D01*
D02*
G37*
G36*
X-62844Y37103D02*
X-63814D01*
Y36133D01*
X-63653Y36154D01*
X-63384Y36266D01*
X-63153Y36443D01*
X-62976Y36673D01*
X-62865Y36942D01*
X-62844Y37103D01*
D02*
G37*
G36*
X-14032Y37762D02*
X-14240Y37721D01*
X-14416Y37603D01*
X-14534Y37427D01*
X-14575Y37218D01*
X-14559Y37135D01*
X-14667Y37027D01*
X-14750Y37044D01*
X-14958Y37002D01*
X-15135Y36885D01*
X-15252Y36708D01*
X-15294Y36500D01*
X-15252Y36292D01*
X-15135Y36115D01*
X-14958Y35998D01*
X-14750Y35956D01*
X-14542Y35998D01*
X-14392Y36098D01*
X-13472Y35179D01*
Y15360D01*
X-13472Y15360D01*
X-13451Y15251D01*
X-13389Y15159D01*
X-13120Y14890D01*
X-13221Y14740D01*
X-13262Y14532D01*
X-13221Y14323D01*
X-13103Y14147D01*
X-12927Y14029D01*
X-12718Y13988D01*
X-12510Y14029D01*
X-12334Y14147D01*
X-12216Y14323D01*
X-12175Y14532D01*
X-12191Y14615D01*
X-12083Y14723D01*
X-12000Y14706D01*
X-11792Y14748D01*
X-11615Y14865D01*
X-11498Y15042D01*
X-11456Y15250D01*
X-11498Y15458D01*
X-11615Y15635D01*
X-11792Y15752D01*
X-12000Y15794D01*
X-12208Y15752D01*
X-12268Y15713D01*
X-12395Y15781D01*
Y35507D01*
X-12395Y35507D01*
X-12416Y35616D01*
X-12478Y35709D01*
X-12478Y35709D01*
X-13630Y36860D01*
X-13529Y37010D01*
X-13488Y37218D01*
X-13529Y37427D01*
X-13647Y37603D01*
X-13823Y37721D01*
X-14032Y37762D01*
D02*
G37*
G36*
X-127Y2753D02*
X-432Y2729D01*
X-854Y2627D01*
X-1254Y2461D01*
X-1624Y2235D01*
X-1953Y1953D01*
X-2235Y1624D01*
X-2461Y1254D01*
X-2627Y854D01*
X-2729Y432D01*
X-2753Y127D01*
X-127D01*
Y2753D01*
D02*
G37*
G36*
X-63814Y38327D02*
Y37357D01*
X-62844D01*
X-62865Y37518D01*
X-62976Y37787D01*
X-63153Y38017D01*
X-63384Y38194D01*
X-63653Y38306D01*
X-63814Y38327D01*
D02*
G37*
G36*
X-64068D02*
X-64229Y38306D01*
X-64498Y38194D01*
X-64728Y38017D01*
X-64905Y37787D01*
X-65016Y37518D01*
X-65038Y37357D01*
X-64068D01*
Y38327D01*
D02*
G37*
G36*
X-63814Y45947D02*
Y44977D01*
X-62844D01*
X-62865Y45138D01*
X-62976Y45407D01*
X-63153Y45637D01*
X-63384Y45814D01*
X-63653Y45926D01*
X-63814Y45947D01*
D02*
G37*
G36*
X-64068D02*
X-64229Y45926D01*
X-64498Y45814D01*
X-64728Y45637D01*
X-64905Y45407D01*
X-65016Y45138D01*
X-65038Y44977D01*
X-64068D01*
Y45947D01*
D02*
G37*
G36*
X-56321Y45861D02*
X-56582Y45827D01*
X-56826Y45726D01*
X-57036Y45565D01*
X-57196Y45356D01*
X-57297Y45112D01*
X-57332Y44850D01*
X-57297Y44588D01*
X-57196Y44344D01*
X-57036Y44135D01*
X-56826Y43974D01*
X-56582Y43873D01*
X-56321Y43839D01*
X-56059Y43873D01*
X-55815Y43974D01*
X-55606Y44135D01*
X-55445Y44344D01*
X-55344Y44588D01*
X-55310Y44850D01*
X-55344Y45112D01*
X-55445Y45356D01*
X-55606Y45565D01*
X-55815Y45726D01*
X-56059Y45827D01*
X-56321Y45861D01*
D02*
G37*
G36*
X-64068Y47253D02*
X-65038D01*
X-65016Y47092D01*
X-64905Y46823D01*
X-64728Y46593D01*
X-64498Y46416D01*
X-64229Y46304D01*
X-64068Y46283D01*
Y47253D01*
D02*
G37*
G36*
X2300Y47244D02*
X2092Y47202D01*
X1915Y47085D01*
X1849Y46985D01*
X-8400D01*
X-8400Y46985D01*
X-8509Y46963D01*
X-8575Y46919D01*
X-8700Y46944D01*
X-8908Y46902D01*
X-9085Y46785D01*
X-9202Y46608D01*
X-9244Y46400D01*
X-9202Y46192D01*
X-9085Y46015D01*
X-8908Y45898D01*
X-8700Y45856D01*
X-8492Y45898D01*
X-8315Y46015D01*
X-8198Y46192D01*
X-8156Y46400D01*
X-8144Y46415D01*
X-7860D01*
X-7823Y46343D01*
X-7815Y46288D01*
X-8618Y45485D01*
X-11949D01*
X-12015Y45585D01*
X-12192Y45702D01*
X-12400Y45744D01*
X-12608Y45702D01*
X-12785Y45585D01*
X-12902Y45408D01*
X-12944Y45200D01*
X-12902Y44992D01*
X-12785Y44815D01*
X-12608Y44698D01*
X-12400Y44656D01*
X-12192Y44698D01*
X-12015Y44815D01*
X-11949Y44915D01*
X-8500D01*
X-8500Y44915D01*
X-8459Y44923D01*
X-8397Y44806D01*
X-8718Y44485D01*
X-10699D01*
X-10765Y44585D01*
X-10942Y44702D01*
X-11150Y44744D01*
X-11358Y44702D01*
X-11535Y44585D01*
X-11652Y44408D01*
X-11694Y44200D01*
X-11652Y43992D01*
X-11535Y43815D01*
X-11358Y43698D01*
X-11150Y43656D01*
X-10942Y43698D01*
X-10765Y43815D01*
X-10699Y43915D01*
X-8600D01*
X-8600Y43915D01*
X-8491Y43937D01*
X-8399Y43999D01*
X-7282Y45115D01*
X1282D01*
X1799Y44599D01*
X1891Y44537D01*
X2000Y44515D01*
X2000Y44515D01*
X5782D01*
X6080Y44218D01*
X6056Y44100D01*
X6098Y43892D01*
X6215Y43715D01*
X6392Y43598D01*
X6600Y43556D01*
X6808Y43598D01*
X6985Y43715D01*
X7102Y43892D01*
X7144Y44100D01*
X7102Y44308D01*
X6985Y44485D01*
X6808Y44602D01*
X6600Y44644D01*
X6482Y44620D01*
X6101Y45001D01*
X6009Y45063D01*
X5900Y45085D01*
X5900Y45085D01*
X2118D01*
X1601Y45601D01*
X1509Y45663D01*
X1400Y45685D01*
X1400Y45685D01*
X-7301D01*
X-7373Y45812D01*
X-7371Y45815D01*
X1582D01*
X2099Y45299D01*
X2099Y45299D01*
X2191Y45237D01*
X2300Y45215D01*
X2300Y45215D01*
X6149D01*
X6215Y45115D01*
X6392Y44998D01*
X6600Y44956D01*
X6808Y44998D01*
X6985Y45115D01*
X7102Y45292D01*
X7144Y45500D01*
X7102Y45708D01*
X6985Y45885D01*
X6808Y46002D01*
X6600Y46044D01*
X6392Y46002D01*
X6215Y45885D01*
X6149Y45785D01*
X2418D01*
X2145Y46057D01*
X2208Y46174D01*
X2300Y46156D01*
X2508Y46198D01*
X2685Y46315D01*
X2802Y46492D01*
X2844Y46700D01*
X2802Y46908D01*
X2685Y47085D01*
X2508Y47202D01*
X2300Y47244D01*
D02*
G37*
G36*
X-56321Y48391D02*
X-56582Y48357D01*
X-56826Y48256D01*
X-57036Y48095D01*
X-57196Y47886D01*
X-57297Y47642D01*
X-57332Y47380D01*
X-57297Y47118D01*
X-57196Y46874D01*
X-57036Y46665D01*
X-56826Y46504D01*
X-56582Y46403D01*
X-56321Y46369D01*
X-56059Y46403D01*
X-55815Y46504D01*
X-55606Y46665D01*
X-55445Y46874D01*
X-55344Y47118D01*
X-55310Y47380D01*
X-55344Y47642D01*
X-55445Y47886D01*
X-55606Y48095D01*
X-55815Y48256D01*
X-56059Y48357D01*
X-56321Y48391D01*
D02*
G37*
G36*
X-62844Y47253D02*
X-63814D01*
Y46283D01*
X-63653Y46304D01*
X-63384Y46416D01*
X-63153Y46593D01*
X-62976Y46823D01*
X-62865Y47092D01*
X-62844Y47253D01*
D02*
G37*
G36*
Y44723D02*
X-63814D01*
Y43753D01*
X-63653Y43774D01*
X-63384Y43886D01*
X-63153Y44063D01*
X-62976Y44293D01*
X-62865Y44562D01*
X-62844Y44723D01*
D02*
G37*
G36*
X-56321Y43321D02*
X-56582Y43287D01*
X-56826Y43186D01*
X-57036Y43025D01*
X-57196Y42816D01*
X-57297Y42572D01*
X-57332Y42310D01*
X-57297Y42048D01*
X-57196Y41804D01*
X-57036Y41595D01*
X-56826Y41434D01*
X-56582Y41333D01*
X-56321Y41299D01*
X-56059Y41333D01*
X-55815Y41434D01*
X-55606Y41595D01*
X-55445Y41804D01*
X-55344Y42048D01*
X-55310Y42310D01*
X-55344Y42572D01*
X-55445Y42816D01*
X-55606Y43025D01*
X-55815Y43186D01*
X-56059Y43287D01*
X-56321Y43321D01*
D02*
G37*
G36*
X-20803Y41389D02*
Y40894D01*
X-20307D01*
X-20331Y41015D01*
X-20472Y41225D01*
X-20682Y41365D01*
X-20803Y41389D01*
D02*
G37*
G36*
X-21057D02*
X-21177Y41365D01*
X-21387Y41225D01*
X-21528Y41015D01*
X-21552Y40894D01*
X-21057D01*
Y41389D01*
D02*
G37*
G36*
X-11405Y59218D02*
X-11613Y59176D01*
X-11789Y59059D01*
X-11907Y58882D01*
X-11938Y58727D01*
X-27649Y43016D01*
X-27739Y42881D01*
X-27770Y42723D01*
Y42350D01*
X-27788Y42337D01*
X-27915Y42401D01*
Y43400D01*
X-27915Y43400D01*
X-27937Y43509D01*
X-27999Y43601D01*
X-27999Y43601D01*
X-36949Y52551D01*
X-37041Y52613D01*
X-37150Y52635D01*
X-37150Y52635D01*
X-40278D01*
X-40281Y52637D01*
X-40400Y52661D01*
X-50096D01*
X-50145Y52735D01*
X-50322Y52852D01*
X-50530Y52894D01*
X-50738Y52852D01*
X-50915Y52735D01*
X-51032Y52558D01*
X-51074Y52350D01*
X-51032Y52142D01*
X-50915Y51965D01*
X-50738Y51848D01*
X-50530Y51806D01*
X-50322Y51848D01*
X-50145Y51965D01*
X-50096Y52039D01*
X-40400D01*
X-40281Y52063D01*
X-40278Y52065D01*
X-37268D01*
X-28485Y43282D01*
Y42118D01*
X-29527Y41076D01*
X-29615Y41085D01*
X-29792Y41202D01*
X-30000Y41244D01*
X-30208Y41202D01*
X-30385Y41085D01*
X-30502Y40908D01*
X-30544Y40700D01*
X-30502Y40492D01*
X-30385Y40315D01*
X-30208Y40198D01*
X-30000Y40156D01*
X-29792Y40198D01*
X-29615Y40315D01*
X-29549Y40415D01*
X-29500D01*
X-29500Y40415D01*
X-29500Y40415D01*
X-25518D01*
X-25120Y40018D01*
X-25144Y39900D01*
X-25102Y39692D01*
X-24985Y39515D01*
X-24808Y39398D01*
X-24600Y39356D01*
X-24392Y39398D01*
X-24215Y39515D01*
X-24149Y39615D01*
X-23018D01*
X-21185Y37782D01*
Y29600D01*
X-21185Y29600D01*
X-21163Y29491D01*
X-21101Y29399D01*
X-20101Y28399D01*
X-20101Y28399D01*
X-20009Y28337D01*
X-19900Y28315D01*
X-19900Y28315D01*
X-17851D01*
X-17785Y28215D01*
X-17608Y28098D01*
X-17400Y28056D01*
X-17192Y28098D01*
X-17015Y28215D01*
X-16898Y28392D01*
X-16856Y28600D01*
X-16898Y28808D01*
X-17015Y28985D01*
X-17192Y29102D01*
X-17400Y29144D01*
X-17608Y29102D01*
X-17785Y28985D01*
X-17851Y28885D01*
X-19782D01*
X-20615Y29718D01*
Y37900D01*
X-20615Y37900D01*
X-20637Y38009D01*
X-20699Y38101D01*
X-20699Y38101D01*
X-22699Y40101D01*
X-22791Y40163D01*
X-22900Y40185D01*
X-22900Y40185D01*
X-24149D01*
X-24215Y40285D01*
X-24392Y40402D01*
X-24600Y40444D01*
X-24718Y40420D01*
X-25199Y40901D01*
X-25291Y40963D01*
X-25400Y40985D01*
X-25400Y40985D01*
X-28646D01*
X-28695Y41102D01*
X-28006Y41792D01*
X-27972Y41791D01*
X-27870Y41762D01*
X-27858Y41702D01*
X-27740Y41525D01*
X-27564Y41408D01*
X-27356Y41366D01*
X-27148Y41408D01*
X-27016Y41496D01*
X-25292D01*
X-24499Y40703D01*
X-24365Y40613D01*
X-24206Y40581D01*
X-23987D01*
X-23856Y40493D01*
X-23647Y40452D01*
X-23439Y40493D01*
X-23263Y40611D01*
X-23145Y40787D01*
X-23104Y40996D01*
X-23145Y41204D01*
X-23263Y41380D01*
X-23439Y41498D01*
X-23647Y41539D01*
X-23856Y41498D01*
X-23987Y41410D01*
X-24035D01*
X-24828Y42203D01*
X-24962Y42293D01*
X-25121Y42324D01*
X-26941D01*
Y42551D01*
X-11352Y58141D01*
X-11196Y58172D01*
X-11020Y58289D01*
X-10902Y58466D01*
X-10861Y58674D01*
X-10902Y58882D01*
X-11020Y59059D01*
X-11196Y59176D01*
X-11405Y59218D01*
D02*
G37*
G36*
X-30912Y43236D02*
X-30912Y43236D01*
X-32639D01*
X-32639Y43236D01*
X-32748Y43215D01*
X-32840Y43153D01*
X-32840Y43153D01*
X-33508Y42485D01*
X-40278D01*
X-40281Y42487D01*
X-40400Y42511D01*
X-50096D01*
X-50145Y42585D01*
X-50322Y42702D01*
X-50530Y42744D01*
X-50738Y42702D01*
X-50915Y42585D01*
X-51032Y42408D01*
X-51074Y42200D01*
X-51032Y41992D01*
X-50915Y41815D01*
X-50738Y41698D01*
X-50530Y41656D01*
X-50322Y41698D01*
X-50145Y41815D01*
X-50096Y41889D01*
X-40400D01*
X-40281Y41913D01*
X-40278Y41915D01*
X-33390D01*
X-33390Y41915D01*
X-33281Y41937D01*
X-33189Y41999D01*
X-32521Y42667D01*
X-31030D01*
X-30527Y42164D01*
X-31301Y41390D01*
X-31363Y41297D01*
X-31385Y41188D01*
X-31385Y41188D01*
Y40300D01*
X-31385Y40300D01*
X-31385Y40298D01*
X-31502Y40236D01*
X-31592Y40326D01*
Y41332D01*
X-31492Y41398D01*
X-31375Y41575D01*
X-31333Y41783D01*
X-31375Y41991D01*
X-31492Y42168D01*
X-31669Y42285D01*
X-31877Y42327D01*
X-32085Y42285D01*
X-32262Y42168D01*
X-32379Y41991D01*
X-32421Y41783D01*
X-32379Y41575D01*
X-32262Y41398D01*
X-32162Y41332D01*
Y40208D01*
X-32162Y40208D01*
X-32160Y40200D01*
X-32275Y40124D01*
X-32392Y40202D01*
X-32600Y40244D01*
X-32808Y40202D01*
X-32940Y40114D01*
X-34300D01*
X-34459Y40083D01*
X-34593Y39993D01*
X-35593Y38993D01*
X-35683Y38859D01*
X-35714Y38700D01*
Y35440D01*
X-35802Y35308D01*
X-35844Y35100D01*
X-35802Y34892D01*
X-35714Y34760D01*
Y33700D01*
X-35683Y33541D01*
X-35593Y33407D01*
X-32664Y30478D01*
Y30440D01*
X-32752Y30308D01*
X-32794Y30100D01*
X-32752Y29892D01*
X-32635Y29715D01*
X-32458Y29598D01*
X-32250Y29556D01*
X-32042Y29598D01*
X-31865Y29715D01*
X-31748Y29892D01*
X-31706Y30100D01*
X-31748Y30308D01*
X-31836Y30440D01*
Y30650D01*
X-31867Y30809D01*
X-31957Y30943D01*
X-34886Y33872D01*
Y34760D01*
X-34798Y34892D01*
X-34756Y35100D01*
X-34798Y35308D01*
X-34886Y35440D01*
Y38528D01*
X-34128Y39286D01*
X-32940D01*
X-32808Y39198D01*
X-32600Y39156D01*
X-32392Y39198D01*
X-32215Y39315D01*
X-32098Y39492D01*
X-32056Y39700D01*
X-32082Y39831D01*
X-31965Y39893D01*
X-31324Y39252D01*
Y30322D01*
X-31423Y30255D01*
X-31541Y30079D01*
X-31583Y29870D01*
X-31541Y29662D01*
X-31423Y29486D01*
X-31247Y29368D01*
X-31039Y29327D01*
X-30831Y29368D01*
X-30654Y29486D01*
X-30580Y29597D01*
X-30427Y29622D01*
X-30423Y29620D01*
X-29805Y29002D01*
X-29854Y28885D01*
X-33482D01*
X-34671Y30074D01*
X-34608Y30191D01*
X-34595Y30188D01*
Y30683D01*
X-35090D01*
X-35087Y30670D01*
X-35204Y30607D01*
X-36869Y32271D01*
X-36961Y32333D01*
X-37070Y32355D01*
X-37070Y32355D01*
X-40278D01*
X-40281Y32357D01*
X-40400Y32381D01*
X-50096D01*
X-50145Y32455D01*
X-50322Y32572D01*
X-50530Y32614D01*
X-50738Y32572D01*
X-50915Y32455D01*
X-51032Y32278D01*
X-51074Y32070D01*
X-51032Y31862D01*
X-50915Y31685D01*
X-50738Y31568D01*
X-50530Y31526D01*
X-50322Y31568D01*
X-50145Y31685D01*
X-50096Y31759D01*
X-40400D01*
X-40281Y31783D01*
X-40278Y31785D01*
X-37188D01*
X-33801Y28399D01*
X-33801Y28399D01*
X-33709Y28337D01*
X-33600Y28315D01*
X-33600Y28315D01*
X-29451D01*
X-29385Y28215D01*
X-29208Y28098D01*
X-29000Y28056D01*
X-28792Y28098D01*
X-28615Y28215D01*
X-28498Y28392D01*
X-28456Y28600D01*
X-28498Y28808D01*
X-28615Y28985D01*
X-28792Y29102D01*
X-29000Y29144D01*
X-29118Y29120D01*
X-30015Y30018D01*
Y30182D01*
X-29888Y30221D01*
X-29885Y30215D01*
X-29708Y30098D01*
X-29500Y30056D01*
X-29382Y30080D01*
X-28185Y28882D01*
Y24718D01*
X-30718Y22185D01*
X-40278D01*
X-40281Y22187D01*
X-40400Y22211D01*
X-50096D01*
X-50145Y22285D01*
X-50322Y22402D01*
X-50530Y22444D01*
X-50738Y22402D01*
X-50915Y22285D01*
X-51032Y22108D01*
X-51074Y21900D01*
X-51032Y21692D01*
X-50915Y21515D01*
X-50738Y21398D01*
X-50530Y21356D01*
X-50322Y21398D01*
X-50145Y21515D01*
X-50096Y21589D01*
X-40400D01*
X-40281Y21613D01*
X-40278Y21615D01*
X-30600D01*
X-30600Y21615D01*
X-30491Y21637D01*
X-30399Y21699D01*
X-27699Y24399D01*
X-27699Y24399D01*
X-27637Y24491D01*
X-27615Y24600D01*
X-27615Y24600D01*
Y29000D01*
X-27637Y29109D01*
X-27699Y29201D01*
X-27699Y29201D01*
X-28980Y30482D01*
X-28956Y30600D01*
X-28980Y30718D01*
X-27682Y32015D01*
X-24851D01*
X-24785Y31915D01*
X-24608Y31798D01*
X-24400Y31756D01*
X-24192Y31798D01*
X-24015Y31915D01*
X-23898Y32092D01*
X-23856Y32300D01*
X-23898Y32508D01*
X-24015Y32685D01*
X-24192Y32802D01*
X-24400Y32844D01*
X-24608Y32802D01*
X-24785Y32685D01*
X-24851Y32585D01*
X-27800D01*
X-27800Y32585D01*
X-27909Y32563D01*
X-28001Y32501D01*
X-28001Y32501D01*
X-29382Y31120D01*
X-29500Y31144D01*
X-29708Y31102D01*
X-29885Y30985D01*
X-29888Y30979D01*
X-30015Y31018D01*
Y32873D01*
X-26042D01*
X-26042Y32873D01*
X-25933Y32895D01*
X-25840Y32957D01*
X-23663Y35134D01*
X-23608Y35098D01*
X-23400Y35056D01*
X-23282Y35080D01*
X-22785Y34582D01*
Y31451D01*
X-22813Y31440D01*
X-22912Y31430D01*
X-23015Y31585D01*
X-23192Y31702D01*
X-23400Y31744D01*
X-23608Y31702D01*
X-23785Y31585D01*
X-23902Y31408D01*
X-23921Y31314D01*
X-26660D01*
X-26792Y31402D01*
X-27000Y31444D01*
X-27208Y31402D01*
X-27385Y31285D01*
X-27502Y31108D01*
X-27544Y30900D01*
X-27502Y30692D01*
X-27385Y30515D01*
X-27208Y30398D01*
X-27000Y30356D01*
X-26792Y30398D01*
X-26660Y30486D01*
X-23700D01*
X-23541Y30517D01*
X-23407Y30607D01*
X-23347Y30667D01*
X-23192Y30698D01*
X-23015Y30815D01*
X-22912Y30970D01*
X-22813Y30960D01*
X-22785Y30949D01*
Y21600D01*
X-22785Y21600D01*
X-22763Y21491D01*
X-22701Y21399D01*
X-22001Y20699D01*
X-22001Y20699D01*
X-21909Y20637D01*
X-21800Y20615D01*
X-21800Y20615D01*
X-21300D01*
X-21300Y20615D01*
X-17651D01*
X-17585Y20515D01*
X-17408Y20398D01*
X-17200Y20356D01*
X-16992Y20398D01*
X-16815Y20515D01*
X-16698Y20692D01*
X-16656Y20900D01*
X-16698Y21108D01*
X-16815Y21285D01*
X-16992Y21402D01*
X-17200Y21444D01*
X-17408Y21402D01*
X-17585Y21285D01*
X-17651Y21185D01*
X-21400D01*
X-21400Y21185D01*
X-21682D01*
X-22215Y21718D01*
Y34700D01*
X-22215Y34700D01*
X-22237Y34809D01*
X-22299Y34901D01*
X-22299Y34901D01*
X-22814Y35417D01*
X-22801Y35474D01*
X-22658Y35531D01*
X-22608Y35498D01*
X-22400Y35456D01*
X-22282Y35480D01*
X-21985Y35182D01*
Y26200D01*
X-21985Y26200D01*
X-21963Y26091D01*
X-21901Y25999D01*
X-21401Y25499D01*
X-21309Y25437D01*
X-21200Y25415D01*
X-21200Y25415D01*
X-17751D01*
X-17685Y25315D01*
X-17508Y25198D01*
X-17300Y25156D01*
X-17092Y25198D01*
X-16915Y25315D01*
X-16798Y25492D01*
X-16756Y25700D01*
X-16798Y25908D01*
X-16915Y26085D01*
X-17092Y26202D01*
X-17300Y26244D01*
X-17508Y26202D01*
X-17685Y26085D01*
X-17751Y25985D01*
X-21082D01*
X-21415Y26318D01*
Y35300D01*
X-21415Y35300D01*
X-21437Y35409D01*
X-21499Y35501D01*
X-21499Y35501D01*
X-21880Y35882D01*
X-21856Y36000D01*
X-21898Y36208D01*
X-22015Y36385D01*
X-22192Y36502D01*
X-22400Y36544D01*
X-22518Y36520D01*
X-22899Y36901D01*
X-22991Y36963D01*
X-23100Y36985D01*
X-23100Y36985D01*
X-26504D01*
X-26504Y36986D01*
X-26525Y37112D01*
X-26339Y37236D01*
X-26199Y37446D01*
X-26175Y37567D01*
X-27419D01*
X-27395Y37446D01*
X-27255Y37236D01*
X-27069Y37112D01*
X-27090Y36986D01*
X-27090Y36985D01*
X-27382D01*
X-30815Y40418D01*
Y41070D01*
X-29970Y41915D01*
X-29600D01*
X-29600Y41915D01*
X-29491Y41937D01*
X-29425Y41981D01*
X-29300Y41956D01*
X-29092Y41998D01*
X-28915Y42115D01*
X-28798Y42292D01*
X-28756Y42500D01*
X-28798Y42708D01*
X-28915Y42885D01*
X-29092Y43002D01*
X-29300Y43044D01*
X-29508Y43002D01*
X-29685Y42885D01*
X-29802Y42708D01*
X-29844Y42500D01*
X-29856Y42485D01*
X-30042D01*
X-30710Y43153D01*
X-30803Y43215D01*
X-30912Y43236D01*
D02*
G37*
G36*
X-64068Y44723D02*
X-65038D01*
X-65016Y44562D01*
X-64905Y44293D01*
X-64728Y44063D01*
X-64498Y43886D01*
X-64229Y43774D01*
X-64068Y43753D01*
Y44723D01*
D02*
G37*
G36*
X-48100Y48444D02*
X-48308Y48402D01*
X-48485Y48285D01*
X-48602Y48108D01*
X-48644Y47900D01*
X-48602Y47692D01*
X-48485Y47515D01*
X-48308Y47398D01*
X-48153Y47367D01*
X-47714Y46928D01*
Y43640D01*
X-47802Y43508D01*
X-47844Y43300D01*
X-47802Y43092D01*
X-47685Y42915D01*
X-47508Y42798D01*
X-47300Y42756D01*
X-47092Y42798D01*
X-46915Y42915D01*
X-46798Y43092D01*
X-46756Y43300D01*
X-46798Y43508D01*
X-46886Y43640D01*
Y47100D01*
X-46917Y47259D01*
X-47007Y47393D01*
X-47567Y47953D01*
X-47598Y48108D01*
X-47715Y48285D01*
X-47892Y48402D01*
X-48100Y48444D01*
D02*
G37*
%LPD*%
G36*
X-27701Y36499D02*
X-27701Y36499D01*
X-27609Y36437D01*
X-27500Y36415D01*
X-27500Y36415D01*
X-23218D01*
X-22986Y36183D01*
X-22999Y36126D01*
X-23142Y36069D01*
X-23192Y36102D01*
X-23400Y36144D01*
X-23608Y36102D01*
X-23785Y35985D01*
X-23902Y35808D01*
X-23929Y35674D01*
X-26160Y33443D01*
X-30142D01*
X-30251Y33422D01*
X-30343Y33360D01*
X-30343Y33360D01*
X-30501Y33201D01*
X-30563Y33109D01*
X-30585Y33000D01*
X-30585Y33000D01*
Y30462D01*
X-30712Y30390D01*
X-30754Y30415D01*
Y33899D01*
X-30627Y33937D01*
X-30608Y33908D01*
X-30398Y33768D01*
X-30277Y33744D01*
Y34366D01*
Y34988D01*
X-30398Y34964D01*
X-30608Y34824D01*
X-30627Y34795D01*
X-30754Y34834D01*
Y37175D01*
X-30627Y37214D01*
X-30608Y37185D01*
X-30398Y37045D01*
X-30277Y37021D01*
Y37643D01*
Y38265D01*
X-30398Y38241D01*
X-30608Y38101D01*
X-30627Y38072D01*
X-30754Y38110D01*
Y39370D01*
X-30754Y39372D01*
X-30637Y39434D01*
X-27701Y36499D01*
D02*
G37*
%LPC*%
G36*
X-30023Y34988D02*
Y34493D01*
X-29528D01*
X-29552Y34614D01*
X-29692Y34824D01*
X-29902Y34964D01*
X-30023Y34988D01*
D02*
G37*
G36*
X-26721Y34963D02*
Y34468D01*
X-26226D01*
X-26250Y34589D01*
X-26390Y34799D01*
X-26600Y34939D01*
X-26721Y34963D01*
D02*
G37*
G36*
X-30023Y38265D02*
Y37770D01*
X-29528D01*
X-29552Y37891D01*
X-29692Y38101D01*
X-29902Y38241D01*
X-30023Y38265D01*
D02*
G37*
G36*
X-29528Y37516D02*
X-30023D01*
Y37021D01*
X-29902Y37045D01*
X-29692Y37185D01*
X-29552Y37395D01*
X-29528Y37516D01*
D02*
G37*
G36*
X-26226Y34214D02*
X-26721D01*
Y33719D01*
X-26600Y33743D01*
X-26390Y33883D01*
X-26250Y34093D01*
X-26226Y34214D01*
D02*
G37*
G36*
X-26975D02*
X-27470D01*
X-27446Y34093D01*
X-27306Y33883D01*
X-27096Y33743D01*
X-26975Y33719D01*
Y34214D01*
D02*
G37*
G36*
Y34963D02*
X-27096Y34939D01*
X-27306Y34799D01*
X-27446Y34589D01*
X-27470Y34468D01*
X-26975D01*
Y34963D01*
D02*
G37*
G36*
X-29528Y34239D02*
X-30023D01*
Y33744D01*
X-29902Y33768D01*
X-29692Y33908D01*
X-29552Y34118D01*
X-29528Y34239D01*
D02*
G37*
%LPD*%
D27*
X-26042Y33158D02*
X-23600Y35600D01*
X-30142Y33158D02*
X-26042D01*
X-30300Y33000D02*
X-30142Y33158D01*
X-27800Y32300D02*
X-24400D01*
X-29500Y30600D02*
X-27800Y32300D01*
X-12750Y41108D02*
X-12688D01*
X-12750Y40092D02*
X-8750Y36092D01*
X-12688Y41108D02*
X-8242Y36662D01*
X-8750Y33290D02*
Y36092D01*
X-32639Y42951D02*
X-30912D01*
X-33390Y42200D02*
X-32639Y42951D01*
X-40400Y42200D02*
X-33390D01*
X-30912Y42951D02*
X-30137Y42177D01*
X-30088Y42200D02*
X-29600D01*
X-31100Y41188D02*
X-30088Y42200D01*
X-31100Y40300D02*
Y41188D01*
X-31877Y40208D02*
Y41783D01*
Y40208D02*
X-31039Y39370D01*
Y29870D02*
Y39370D01*
X-7250Y20750D02*
Y24500D01*
Y20750D02*
X-1500Y15000D01*
X2500D01*
X-8750Y33290D02*
X492Y24048D01*
X-8242Y33500D02*
X1000Y24258D01*
Y18687D02*
X1718Y17968D01*
X-8242Y33500D02*
Y36662D01*
X492Y17758D02*
Y24048D01*
Y17758D02*
X1250Y17000D01*
X1000Y18687D02*
Y24258D01*
X7500Y18250D02*
Y26750D01*
X2336Y25805D02*
Y26164D01*
X2189Y25658D02*
X2336Y25805D01*
X2092Y25658D02*
X2189D01*
X-7500Y35016D02*
X-7266D01*
X2092Y25658D01*
X2667Y25417D02*
X3026D01*
X2400Y25150D02*
X2667Y25417D01*
X-7500Y34000D02*
X-6968D01*
X1882Y25150D02*
X2400D01*
X-6968Y34000D02*
X1882Y25150D01*
X0Y16000D02*
X6000D01*
X6750Y16750D02*
Y21250D01*
X6000Y16000D02*
X6750Y16750D01*
X-6250Y21750D02*
X-5750D01*
X0Y16000D01*
X-25400Y40700D02*
X-24600Y39900D01*
X-22900D01*
X-12359Y15250D02*
X-12000D01*
X-12680Y15570D02*
Y35507D01*
Y15570D02*
X-12359Y15250D01*
X-14032Y36859D02*
X-12680Y35507D01*
X-14032Y36859D02*
Y37218D01*
X-13188Y15360D02*
X-12718Y14891D01*
X-13188Y15360D02*
Y35297D01*
X-12718Y14532D02*
Y14891D01*
X-14750Y36500D02*
X-14391D01*
X-13188Y35297D01*
X-23400Y35600D02*
X-22500Y34700D01*
Y21600D02*
Y34700D01*
Y21600D02*
X-21800Y20900D01*
X-22400Y36000D02*
X-21700Y35300D01*
Y26200D02*
Y35300D01*
Y26200D02*
X-21200Y25700D01*
X-21800Y20900D02*
X-21300D01*
X-22900Y39900D02*
X-20900Y37900D01*
Y29600D02*
Y37900D01*
Y29600D02*
X-19900Y28600D01*
X-17400D01*
X-25400Y18100D02*
X-17100D01*
X-33800Y9700D02*
X-25400Y18100D01*
X-21400Y20900D02*
X-17200D01*
X-21200Y25700D02*
X-17300D01*
X-33800Y8200D02*
Y9700D01*
X-29500Y40700D02*
X-25400D01*
X-30000D02*
X-29500D01*
X-40400Y52350D02*
X-37150D01*
X-28200Y43400D01*
Y42000D02*
Y43400D01*
X-29500Y40700D02*
X-28200Y42000D01*
X-31100Y40300D02*
X-27500Y36700D01*
X-23100D02*
X-22400Y36000D01*
X-27500Y36700D02*
X-23100D01*
X-29600Y42200D02*
X-29300Y42500D01*
X-23600Y35600D02*
X-23400D01*
X-30300Y29900D02*
Y33000D01*
Y29900D02*
X-29000Y28600D01*
X-40400Y32070D02*
X-37070D01*
X-33600Y28600D01*
X-29000D01*
X-40400Y21900D02*
X-40400Y21900D01*
X-30600D01*
X-27900Y24600D01*
Y29000D01*
X-29500Y30600D02*
X-27900Y29000D01*
X-11150Y44200D02*
X-8600D01*
X-7400Y45400D01*
X-8500Y45200D02*
X-7600Y46100D01*
X-12400Y45200D02*
X-8500D01*
X-7400Y45400D02*
X1400D01*
X2000Y44800D01*
X5900D01*
X6600Y44100D01*
X-7600Y46100D02*
X1700D01*
X2300Y45500D01*
X6600D01*
X-8700Y46400D02*
X-8400Y46700D01*
X2300D01*
X-11500Y51100D02*
X-9800Y49400D01*
X6600D01*
X-10100Y51100D02*
X-9400Y50400D01*
X2300D01*
D28*
X-27356Y41910D02*
Y42723D01*
X-11405Y58674D01*
X-24206Y40996D02*
X-23647D01*
X-25121Y41910D02*
X-24206Y40996D01*
X-27356Y41910D02*
X-25121D01*
X-34300Y39700D02*
X-32600D01*
X-35300Y38700D02*
X-34300Y39700D01*
X-35300Y35100D02*
Y38700D01*
Y33700D02*
Y35100D01*
Y33700D02*
X-32250Y30650D01*
Y30100D02*
Y30650D01*
X-23700Y30900D02*
X-23400Y31200D01*
X-27000Y30900D02*
X-23700D01*
X-47300Y23000D02*
Y26820D01*
X-48100Y17450D02*
X-47300Y16650D01*
Y12850D02*
Y16650D01*
X-48100Y27620D02*
X-47300Y26820D01*
Y33170D02*
Y36950D01*
X-48100Y37750D02*
X-47300Y36950D01*
Y43300D02*
Y47100D01*
X-48100Y47900D02*
X-47300Y47100D01*
X-46600Y58300D02*
Y58900D01*
X-47300Y57600D02*
X-46600Y58300D01*
X-47300Y53450D02*
Y57600D01*
D29*
X-9296Y56185D02*
X-6604D01*
X-14376Y51105D02*
X-9296Y56185D01*
X-14376Y39446D02*
Y51105D01*
Y39446D02*
X-10693Y35763D01*
Y31693D02*
Y35763D01*
X-8500Y18100D02*
Y20800D01*
Y18100D02*
X-3000Y12600D01*
X-8500Y25700D02*
Y28600D01*
Y29500D01*
Y23300D02*
Y25700D01*
X-3000Y6700D02*
Y12600D01*
X-10693Y31693D02*
X-8500Y29500D01*
Y20800D02*
Y23300D01*
D30*
X-56321Y47380D02*
D03*
Y49920D02*
D03*
Y52460D02*
D03*
Y55000D02*
D03*
X-63941Y47380D02*
D03*
Y55000D02*
D03*
X-56321Y37230D02*
D03*
Y39770D02*
D03*
Y42310D02*
D03*
Y44850D02*
D03*
X-63941Y37230D02*
D03*
Y44850D02*
D03*
X-56321Y27100D02*
D03*
Y29640D02*
D03*
Y32180D02*
D03*
Y34720D02*
D03*
X-63941Y27100D02*
D03*
Y34720D02*
D03*
X-56321Y16930D02*
D03*
Y19470D02*
D03*
Y22010D02*
D03*
Y24550D02*
D03*
X-63941Y16930D02*
D03*
Y24550D02*
D03*
X-56321Y6730D02*
D03*
Y9270D02*
D03*
Y11810D02*
D03*
Y14350D02*
D03*
X-63941Y6730D02*
D03*
Y14350D02*
D03*
D31*
X0Y63000D02*
D03*
X-54600Y2500D02*
D03*
Y59050D02*
D03*
X0Y0D02*
D03*
D32*
X-1048Y58682D02*
D03*
X2000Y4300D02*
D03*
D33*
X-10900Y47900D02*
D03*
X-25502Y48260D02*
D03*
X-20930Y40767D02*
D03*
X-26797Y37694D02*
D03*
X-26848Y34341D02*
D03*
X-30150Y34366D02*
D03*
Y37643D02*
D03*
X-34468Y30810D02*
D03*
X-29693Y10566D02*
D03*
X-13335Y64313D02*
D03*
X-6604Y56185D02*
D03*
X-12750Y41108D02*
D03*
Y40092D02*
D03*
X-11405Y58674D02*
D03*
X-27356Y41910D02*
D03*
X-23647Y40996D02*
D03*
X-32600Y39700D02*
D03*
X-31877Y41783D02*
D03*
X-31039Y29870D02*
D03*
X-7250Y24500D02*
D03*
X2500Y15000D02*
D03*
X2336Y26164D02*
D03*
X-7500Y35016D02*
D03*
X3026Y25417D02*
D03*
X-7500Y34000D02*
D03*
X1250Y17000D02*
D03*
X1718Y17968D02*
D03*
X7500Y26750D02*
D03*
Y18250D02*
D03*
X-6250Y21750D02*
D03*
X6750Y21250D02*
D03*
X-24600Y39900D02*
D03*
X-8500Y28600D02*
D03*
Y25700D02*
D03*
X-12000Y15250D02*
D03*
X-12718Y14532D02*
D03*
X-14032Y37218D02*
D03*
X-14750Y36500D02*
D03*
X-35300Y35100D02*
D03*
X-32250Y30100D02*
D03*
X-23400Y31200D02*
D03*
X-3000Y6700D02*
D03*
X-8500Y23300D02*
D03*
Y20800D02*
D03*
Y18100D02*
D03*
X-17200Y23300D02*
D03*
X-17400Y28600D02*
D03*
X-17100Y18100D02*
D03*
X-17200Y20900D02*
D03*
X-17300Y25700D02*
D03*
X-33800Y8200D02*
D03*
X-27000Y30900D02*
D03*
X-22400Y36000D02*
D03*
X-29300Y42500D02*
D03*
X-30000Y40700D02*
D03*
X-23400Y35600D02*
D03*
X-24400Y32300D02*
D03*
X-29500Y30600D02*
D03*
X-29000Y28600D02*
D03*
X-11150Y44200D02*
D03*
X-12400Y45200D02*
D03*
X6600Y44100D02*
D03*
Y45500D02*
D03*
X-8700Y46400D02*
D03*
X2300Y46700D02*
D03*
X-11500Y51100D02*
D03*
X6600Y49400D02*
D03*
X-10100Y51100D02*
D03*
X2300Y50400D02*
D03*
X-48100Y17450D02*
D03*
X-47300Y23000D02*
D03*
X-50530Y21900D02*
D03*
X-48100Y27620D02*
D03*
X-47300Y33170D02*
D03*
X-50530Y32070D02*
D03*
X-48100Y37750D02*
D03*
X-47300Y43300D02*
D03*
X-50530Y42200D02*
D03*
X-48100Y47900D02*
D03*
X-46600Y58900D02*
D03*
X-47300Y53450D02*
D03*
X-50530Y52350D02*
D03*
X-47300Y12800D02*
D03*
X-40400Y11700D02*
D03*
X-50530D02*
D03*
D34*
Y21900D02*
X-40400D01*
X-50530Y32070D02*
X-40400D01*
X-50530Y52350D02*
X-40400D01*
X-50530Y42200D02*
X-40400D01*
X-50530Y11700D02*
X-40400D01*
M02*
