G04 Layer_Color=255*
%FSLAX43Y43*%
%MOMM*%
G71*
G01*
G75*
%ADD10R,0.254X0.254*%
%ADD11R,0.620X0.580*%
%ADD12R,0.620X0.620*%
%ADD13R,1.050X1.400*%
%ADD14R,1.150X1.450*%
%ADD15R,0.580X0.620*%
%ADD16R,0.750X0.500*%
%ADD17R,0.620X0.620*%
%ADD18R,0.800X0.800*%
%ADD19O,0.900X0.300*%
%ADD20O,0.300X0.900*%
%ADD21R,4.200X4.200*%
%ADD22C,0.640*%
%ADD23R,0.300X0.850*%
%ADD24R,1.550X1.750*%
%ADD25R,1.500X0.450*%
%ADD30C,1.700*%
%ADD31C,5.000*%
%ADD32C,1.000*%
D10*
X-1651Y8865D02*
D03*
Y8484D02*
D03*
D11*
X-24500Y42560D02*
D03*
Y43500D02*
D03*
X-46850Y7220D02*
D03*
Y6280D02*
D03*
X-45600Y8170D02*
D03*
Y7230D02*
D03*
Y48820D02*
D03*
Y47880D02*
D03*
Y38670D02*
D03*
Y37730D02*
D03*
Y28540D02*
D03*
Y27600D02*
D03*
Y18370D02*
D03*
Y17430D02*
D03*
X-49250Y7220D02*
D03*
Y6280D02*
D03*
Y47870D02*
D03*
Y46930D02*
D03*
Y37720D02*
D03*
Y36780D02*
D03*
Y27590D02*
D03*
Y26650D02*
D03*
Y17420D02*
D03*
Y16480D02*
D03*
X-46850Y47870D02*
D03*
Y46930D02*
D03*
Y37720D02*
D03*
Y36780D02*
D03*
Y27590D02*
D03*
Y26650D02*
D03*
Y17420D02*
D03*
Y16480D02*
D03*
X-30200Y27930D02*
D03*
Y28870D02*
D03*
X-24800Y8670D02*
D03*
Y7730D02*
D03*
X-22000Y37970D02*
D03*
Y37030D02*
D03*
Y34870D02*
D03*
Y33930D02*
D03*
D12*
X-26600Y27850D02*
D03*
X-25400D02*
D03*
X-51000Y47850D02*
D03*
Y46950D02*
D03*
Y37700D02*
D03*
Y36800D02*
D03*
Y27570D02*
D03*
Y26670D02*
D03*
Y17400D02*
D03*
Y16500D02*
D03*
X-27700Y25950D02*
D03*
Y26850D02*
D03*
X-22352Y40760D02*
D03*
Y39860D02*
D03*
X-25400Y28750D02*
D03*
X-26600D02*
D03*
X-51000Y7200D02*
D03*
Y6300D02*
D03*
X-9400Y43850D02*
D03*
Y44750D02*
D03*
D13*
X-27305Y46076D02*
D03*
X-25505D02*
D03*
X-48350Y60200D02*
D03*
X-50150D02*
D03*
X-49400Y8900D02*
D03*
X-51200D02*
D03*
X-49400Y49550D02*
D03*
X-51200D02*
D03*
X-49400Y39400D02*
D03*
X-51200D02*
D03*
X-49400Y29270D02*
D03*
X-51200D02*
D03*
X-49400Y19100D02*
D03*
X-51200D02*
D03*
D14*
X-9500Y61800D02*
D03*
X-7700D02*
D03*
X-46650Y60200D02*
D03*
X-44850D02*
D03*
D15*
X-51470Y51250D02*
D03*
X-50530D02*
D03*
X-51470Y41100D02*
D03*
X-50530D02*
D03*
X-51470Y30970D02*
D03*
X-50530D02*
D03*
X-51470Y20800D02*
D03*
X-50530D02*
D03*
X-48430Y14000D02*
D03*
X-49370D02*
D03*
X-48430Y54650D02*
D03*
X-49370D02*
D03*
X-48430Y44500D02*
D03*
X-49370D02*
D03*
X-48430Y34370D02*
D03*
X-49370D02*
D03*
X-48430Y24200D02*
D03*
X-49370D02*
D03*
X-51370Y14000D02*
D03*
X-50430D02*
D03*
X-51370Y54650D02*
D03*
X-50430D02*
D03*
X-51370Y44500D02*
D03*
X-50430D02*
D03*
X-51370Y34370D02*
D03*
X-50430D02*
D03*
X-51370Y24200D02*
D03*
X-50430D02*
D03*
X-48330Y12800D02*
D03*
X-49270D02*
D03*
X-48330Y53450D02*
D03*
X-49270D02*
D03*
X-48330Y43300D02*
D03*
X-49270D02*
D03*
X-48330Y33170D02*
D03*
X-49270D02*
D03*
X-48330Y23000D02*
D03*
X-49270D02*
D03*
X-13630Y18100D02*
D03*
X-14570D02*
D03*
X-13630Y28600D02*
D03*
X-14570D02*
D03*
X-13630Y25700D02*
D03*
X-14570D02*
D03*
X-13630Y20800D02*
D03*
X-14570D02*
D03*
X-13730Y23300D02*
D03*
X-14670D02*
D03*
X-10930Y64300D02*
D03*
X-11870D02*
D03*
X-34330Y36200D02*
D03*
X-35270D02*
D03*
X-25530Y29800D02*
D03*
X-26470D02*
D03*
X-51470Y10600D02*
D03*
X-50530D02*
D03*
D16*
X-9700Y28600D02*
D03*
X-11100D02*
D03*
X-9700Y25700D02*
D03*
X-11100D02*
D03*
X-9700Y20800D02*
D03*
X-11100D02*
D03*
X-9800Y23300D02*
D03*
X-11200D02*
D03*
X-9700Y18100D02*
D03*
X-11100D02*
D03*
D17*
X-51350Y12800D02*
D03*
X-50450D02*
D03*
X-51350Y53450D02*
D03*
X-50450D02*
D03*
X-51350Y43300D02*
D03*
X-50450D02*
D03*
X-51350Y33170D02*
D03*
X-50450D02*
D03*
X-51350Y23000D02*
D03*
X-50450D02*
D03*
X-28250Y10500D02*
D03*
X-27350D02*
D03*
X-22750Y8700D02*
D03*
X-23650D02*
D03*
X-22750Y7600D02*
D03*
X-23650D02*
D03*
X-33150Y31100D02*
D03*
X-32250D02*
D03*
X-22250Y32600D02*
D03*
X-23150D02*
D03*
X-26449Y43307D02*
D03*
X-27349D02*
D03*
X-34029Y40869D02*
D03*
X-33129D02*
D03*
X-22550Y43600D02*
D03*
X-23450D02*
D03*
X-22550Y42400D02*
D03*
X-23450D02*
D03*
X-19550Y38100D02*
D03*
X-20450D02*
D03*
X-19550Y36900D02*
D03*
X-20450D02*
D03*
X-19550Y35000D02*
D03*
X-20450D02*
D03*
X-19550Y33800D02*
D03*
X-20450D02*
D03*
D18*
X-7700Y64200D02*
D03*
X-9300D02*
D03*
D19*
X-25050Y33250D02*
D03*
Y33750D02*
D03*
Y34250D02*
D03*
Y34750D02*
D03*
Y35250D02*
D03*
Y35750D02*
D03*
Y36250D02*
D03*
Y36750D02*
D03*
Y37250D02*
D03*
Y37750D02*
D03*
Y38250D02*
D03*
Y38750D02*
D03*
X-31950D02*
D03*
Y38250D02*
D03*
Y37750D02*
D03*
Y37250D02*
D03*
Y36750D02*
D03*
Y36250D02*
D03*
Y35750D02*
D03*
Y35250D02*
D03*
Y34750D02*
D03*
Y34250D02*
D03*
Y33750D02*
D03*
Y33250D02*
D03*
D20*
X-25750Y39450D02*
D03*
X-26250D02*
D03*
X-26750D02*
D03*
X-27250D02*
D03*
X-27750D02*
D03*
X-28250D02*
D03*
X-28750D02*
D03*
X-29250D02*
D03*
X-29750D02*
D03*
X-30250D02*
D03*
X-30750D02*
D03*
X-31250D02*
D03*
Y32550D02*
D03*
X-30750D02*
D03*
X-30250D02*
D03*
X-29750D02*
D03*
X-29250D02*
D03*
X-28750D02*
D03*
X-28250D02*
D03*
X-27750D02*
D03*
X-27250D02*
D03*
X-26750D02*
D03*
X-26250D02*
D03*
X-25750D02*
D03*
D21*
X-28500Y36000D02*
D03*
D22*
X-1175Y56256D02*
D03*
Y54986D02*
D03*
Y53716D02*
D03*
Y52446D02*
D03*
Y51176D02*
D03*
Y49906D02*
D03*
Y48636D02*
D03*
Y47366D02*
D03*
Y46096D02*
D03*
Y44826D02*
D03*
Y43556D02*
D03*
Y42286D02*
D03*
Y41016D02*
D03*
Y39746D02*
D03*
Y38476D02*
D03*
Y37206D02*
D03*
Y35936D02*
D03*
Y34666D02*
D03*
Y33396D02*
D03*
Y32126D02*
D03*
Y30856D02*
D03*
Y29586D02*
D03*
Y28316D02*
D03*
Y27046D02*
D03*
Y25776D02*
D03*
Y24506D02*
D03*
Y23236D02*
D03*
Y21966D02*
D03*
Y20696D02*
D03*
Y19426D02*
D03*
Y18156D02*
D03*
Y16886D02*
D03*
Y15616D02*
D03*
Y14346D02*
D03*
Y13076D02*
D03*
Y11806D02*
D03*
Y10536D02*
D03*
Y9266D02*
D03*
Y7996D02*
D03*
Y6726D02*
D03*
X95Y56256D02*
D03*
Y54986D02*
D03*
Y53716D02*
D03*
Y52446D02*
D03*
Y51176D02*
D03*
Y49906D02*
D03*
Y48636D02*
D03*
Y47366D02*
D03*
Y46096D02*
D03*
Y44826D02*
D03*
Y43556D02*
D03*
Y42286D02*
D03*
Y41016D02*
D03*
Y39746D02*
D03*
Y38476D02*
D03*
Y37206D02*
D03*
Y35936D02*
D03*
Y34666D02*
D03*
Y33396D02*
D03*
Y32126D02*
D03*
Y30856D02*
D03*
Y29586D02*
D03*
Y28316D02*
D03*
Y27046D02*
D03*
Y25776D02*
D03*
Y24506D02*
D03*
Y23236D02*
D03*
Y21966D02*
D03*
Y20696D02*
D03*
Y19426D02*
D03*
Y18156D02*
D03*
Y16886D02*
D03*
Y15616D02*
D03*
Y14346D02*
D03*
Y13076D02*
D03*
Y11806D02*
D03*
Y10536D02*
D03*
Y9266D02*
D03*
Y7996D02*
D03*
Y6726D02*
D03*
X3905Y56256D02*
D03*
Y54986D02*
D03*
Y53716D02*
D03*
Y52446D02*
D03*
Y51176D02*
D03*
Y49906D02*
D03*
Y48636D02*
D03*
Y47366D02*
D03*
Y46096D02*
D03*
Y44826D02*
D03*
Y43556D02*
D03*
Y42286D02*
D03*
Y41016D02*
D03*
Y39746D02*
D03*
Y38476D02*
D03*
Y37206D02*
D03*
Y35936D02*
D03*
Y34666D02*
D03*
Y33396D02*
D03*
Y32126D02*
D03*
Y30856D02*
D03*
Y29586D02*
D03*
Y28316D02*
D03*
Y27046D02*
D03*
Y25776D02*
D03*
Y24506D02*
D03*
Y23236D02*
D03*
Y21966D02*
D03*
Y20696D02*
D03*
Y19426D02*
D03*
Y18156D02*
D03*
Y16886D02*
D03*
Y15616D02*
D03*
Y14346D02*
D03*
Y13076D02*
D03*
Y11806D02*
D03*
Y10536D02*
D03*
Y9266D02*
D03*
Y7996D02*
D03*
Y6726D02*
D03*
X5175Y56256D02*
D03*
Y54986D02*
D03*
Y53716D02*
D03*
Y52446D02*
D03*
Y51176D02*
D03*
Y49906D02*
D03*
Y48636D02*
D03*
Y47366D02*
D03*
Y46096D02*
D03*
Y44826D02*
D03*
Y43556D02*
D03*
Y42286D02*
D03*
Y41016D02*
D03*
Y39746D02*
D03*
Y38476D02*
D03*
Y37206D02*
D03*
Y35936D02*
D03*
Y34666D02*
D03*
Y33396D02*
D03*
Y32126D02*
D03*
Y30856D02*
D03*
Y29586D02*
D03*
Y28316D02*
D03*
Y27046D02*
D03*
Y25776D02*
D03*
Y24506D02*
D03*
Y23236D02*
D03*
Y21966D02*
D03*
Y20696D02*
D03*
Y19426D02*
D03*
Y18156D02*
D03*
Y16886D02*
D03*
Y15616D02*
D03*
Y14346D02*
D03*
Y13076D02*
D03*
Y11806D02*
D03*
Y10536D02*
D03*
Y9266D02*
D03*
Y7996D02*
D03*
Y6726D02*
D03*
D23*
X-10150Y49400D02*
D03*
X-10650D02*
D03*
X-11150D02*
D03*
X-11650D02*
D03*
Y46400D02*
D03*
X-11150D02*
D03*
X-10650D02*
D03*
X-10150D02*
D03*
D24*
X-10900Y47900D02*
D03*
D25*
X-31600Y9175D02*
D03*
Y8525D02*
D03*
Y7875D02*
D03*
Y7225D02*
D03*
X-27200Y7875D02*
D03*
Y8525D02*
D03*
Y9175D02*
D03*
Y7225D02*
D03*
D30*
X-56321Y47380D02*
D03*
Y49920D02*
D03*
Y52460D02*
D03*
Y55000D02*
D03*
X-63941Y47380D02*
D03*
Y55000D02*
D03*
X-56321Y37230D02*
D03*
Y39770D02*
D03*
Y42310D02*
D03*
Y44850D02*
D03*
X-63941Y37230D02*
D03*
Y44850D02*
D03*
X-56321Y27100D02*
D03*
Y29640D02*
D03*
Y32180D02*
D03*
Y34720D02*
D03*
X-63941Y27100D02*
D03*
Y34720D02*
D03*
X-56321Y16930D02*
D03*
Y19470D02*
D03*
Y22010D02*
D03*
Y24550D02*
D03*
X-63941Y16930D02*
D03*
Y24550D02*
D03*
X-56321Y6730D02*
D03*
Y9270D02*
D03*
Y11810D02*
D03*
Y14350D02*
D03*
X-63941Y6730D02*
D03*
Y14350D02*
D03*
D31*
X0Y63000D02*
D03*
X-54600Y2500D02*
D03*
Y59050D02*
D03*
X0Y0D02*
D03*
D32*
X-1048Y58682D02*
D03*
X2000Y4300D02*
D03*
M02*
