G04 Layer_Physical_Order=1*
G04 Layer_Color=255*
%FSLAX43Y43*%
%MOMM*%
G71*
G01*
G75*
%ADD10R,0.254X0.254*%
%ADD11R,0.620X0.580*%
%ADD12R,0.620X0.620*%
%ADD13R,1.050X1.400*%
%ADD14R,1.150X1.450*%
%ADD15R,0.580X0.620*%
%ADD16R,0.750X0.500*%
%ADD17R,0.620X0.620*%
%ADD18R,0.800X0.800*%
%ADD19O,0.900X0.300*%
%ADD20O,0.300X0.900*%
%ADD21R,4.200X4.200*%
%ADD22C,0.640*%
%ADD23R,0.300X0.850*%
%ADD24R,1.550X1.750*%
%ADD25R,1.500X0.450*%
%ADD26C,0.152*%
%ADD27C,0.254*%
%ADD28C,0.508*%
%ADD29C,0.381*%
%ADD30C,1.700*%
%ADD31C,5.000*%
%ADD32C,1.000*%
%ADD33C,0.762*%
G36*
X10615Y-2715D02*
X974D01*
X948Y-2588D01*
X1254Y-2461D01*
X1624Y-2235D01*
X1953Y-1953D01*
X2235Y-1624D01*
X2461Y-1254D01*
X2627Y-854D01*
X2729Y-432D01*
X2753Y-127D01*
X-2753D01*
X-2729Y-432D01*
X-2627Y-854D01*
X-2461Y-1254D01*
X-2235Y-1624D01*
X-1953Y-1953D01*
X-1624Y-2235D01*
X-1254Y-2461D01*
X-948Y-2588D01*
X-974Y-2715D01*
X-38215D01*
Y-700D01*
X-38215Y-700D01*
X-38210D01*
X-38254Y-366D01*
X-38382Y-55D01*
X-38588Y212D01*
X-38855Y418D01*
X-39166Y546D01*
X-39500Y590D01*
Y585D01*
X-52581D01*
X-52639Y712D01*
X-52448Y936D01*
X-52229Y1292D01*
X-52070Y1678D01*
X-51972Y2084D01*
X-51939Y2500D01*
X-51972Y2916D01*
X-52070Y3322D01*
X-52229Y3708D01*
X-52448Y4064D01*
X-52719Y4381D01*
X-53036Y4652D01*
X-53392Y4871D01*
X-53778Y5030D01*
X-54184Y5128D01*
X-54600Y5161D01*
X-55016Y5128D01*
X-55422Y5030D01*
X-55808Y4871D01*
X-56164Y4652D01*
X-56481Y4381D01*
X-56752Y4064D01*
X-56971Y3708D01*
X-57130Y3322D01*
X-57228Y2916D01*
X-57261Y2500D01*
X-57228Y2084D01*
X-57130Y1678D01*
X-56971Y1292D01*
X-56752Y936D01*
X-56561Y712D01*
X-56619Y585D01*
X-65565D01*
Y61011D01*
X-56580D01*
X-56522Y60884D01*
X-56752Y60614D01*
X-56971Y60258D01*
X-57130Y59872D01*
X-57228Y59466D01*
X-57261Y59050D01*
X-57228Y58634D01*
X-57130Y58228D01*
X-56971Y57842D01*
X-56752Y57486D01*
X-56481Y57169D01*
X-56164Y56898D01*
X-55808Y56679D01*
X-55422Y56520D01*
X-55016Y56422D01*
X-54600Y56389D01*
X-54184Y56422D01*
X-53778Y56520D01*
X-53392Y56679D01*
X-53036Y56898D01*
X-52719Y57169D01*
X-52448Y57486D01*
X-52229Y57842D01*
X-52070Y58228D01*
X-51972Y58634D01*
X-51939Y59050D01*
X-51972Y59466D01*
X-52070Y59872D01*
X-52229Y60258D01*
X-52448Y60614D01*
X-52719Y60931D01*
X-53036Y61202D01*
X-53392Y61421D01*
X-53778Y61580D01*
X-53869Y61602D01*
X-53943Y61751D01*
X-53854Y61966D01*
X-53810Y62300D01*
X-53815D01*
Y63115D01*
X-44300D01*
X-44300Y63115D01*
Y63110D01*
X-43966Y63154D01*
X-43655Y63282D01*
X-43388Y63488D01*
X-43182Y63755D01*
X-43054Y64066D01*
X-43010Y64400D01*
X-43015D01*
X-43015Y64400D01*
Y65715D01*
X-973D01*
X-948Y65588D01*
X-1254Y65461D01*
X-1624Y65235D01*
X-1953Y64953D01*
X-2235Y64624D01*
X-2461Y64254D01*
X-2627Y63854D01*
X-2729Y63432D01*
X-2753Y63127D01*
X2753D01*
X2729Y63432D01*
X2627Y63854D01*
X2461Y64254D01*
X2235Y64624D01*
X1953Y64953D01*
X1624Y65235D01*
X1254Y65461D01*
X948Y65588D01*
X973Y65715D01*
X10615D01*
Y-2715D01*
D02*
G37*
%LPC*%
G36*
X-615Y24379D02*
X-1048D01*
Y23946D01*
X-951Y23965D01*
X-761Y24092D01*
X-634Y24282D01*
X-615Y24379D01*
D02*
G37*
G36*
X-1302D02*
X-1735D01*
X-1716Y24282D01*
X-1589Y24092D01*
X-1399Y23965D01*
X-1302Y23946D01*
Y24379D01*
D02*
G37*
G36*
X95Y24988D02*
X-89Y24951D01*
X-246Y24847D01*
X-350Y24690D01*
X-387Y24506D01*
X-350Y24322D01*
X-246Y24165D01*
X-89Y24061D01*
X95Y24024D01*
X279Y24061D01*
X436Y24165D01*
X540Y24322D01*
X577Y24506D01*
X540Y24690D01*
X436Y24847D01*
X279Y24951D01*
X95Y24988D01*
D02*
G37*
G36*
X-1302Y25066D02*
X-1399Y25047D01*
X-1589Y24920D01*
X-1716Y24730D01*
X-1735Y24633D01*
X-1302D01*
Y25066D01*
D02*
G37*
G36*
X5175Y24988D02*
X4991Y24951D01*
X4834Y24847D01*
X4730Y24690D01*
X4693Y24506D01*
X4730Y24322D01*
X4834Y24165D01*
X4991Y24061D01*
X5175Y24024D01*
X5359Y24061D01*
X5516Y24165D01*
X5620Y24322D01*
X5657Y24506D01*
X5620Y24690D01*
X5516Y24847D01*
X5359Y24951D01*
X5175Y24988D01*
D02*
G37*
G36*
X3905D02*
X3721Y24951D01*
X3564Y24847D01*
X3460Y24690D01*
X3423Y24506D01*
X3460Y24322D01*
X3564Y24165D01*
X3721Y24061D01*
X3905Y24024D01*
X4089Y24061D01*
X4246Y24165D01*
X4350Y24322D01*
X4387Y24506D01*
X4350Y24690D01*
X4246Y24847D01*
X4089Y24951D01*
X3905Y24988D01*
D02*
G37*
G36*
X-32Y23796D02*
X-129Y23777D01*
X-319Y23650D01*
X-446Y23460D01*
X-465Y23363D01*
X-32D01*
Y23796D01*
D02*
G37*
G36*
X5175Y23718D02*
X4991Y23681D01*
X4834Y23577D01*
X4730Y23420D01*
X4693Y23236D01*
X4730Y23052D01*
X4834Y22895D01*
X4991Y22791D01*
X5175Y22754D01*
X5359Y22791D01*
X5516Y22895D01*
X5620Y23052D01*
X5657Y23236D01*
X5620Y23420D01*
X5516Y23577D01*
X5359Y23681D01*
X5175Y23718D01*
D02*
G37*
G36*
X3905D02*
X3721Y23681D01*
X3564Y23577D01*
X3460Y23420D01*
X3423Y23236D01*
X3460Y23052D01*
X3564Y22895D01*
X3721Y22791D01*
X3905Y22754D01*
X4089Y22791D01*
X4246Y22895D01*
X4350Y23052D01*
X4387Y23236D01*
X4350Y23420D01*
X4246Y23577D01*
X4089Y23681D01*
X3905Y23718D01*
D02*
G37*
G36*
X-62844Y24423D02*
X-63814D01*
Y23453D01*
X-63653Y23474D01*
X-63384Y23586D01*
X-63153Y23763D01*
X-62976Y23993D01*
X-62865Y24262D01*
X-62844Y24423D01*
D02*
G37*
G36*
X-64068D02*
X-65038D01*
X-65016Y24262D01*
X-64905Y23993D01*
X-64728Y23763D01*
X-64498Y23586D01*
X-64229Y23474D01*
X-64068Y23453D01*
Y24423D01*
D02*
G37*
G36*
X222Y23796D02*
Y23363D01*
X655D01*
X636Y23460D01*
X509Y23650D01*
X319Y23777D01*
X222Y23796D01*
D02*
G37*
G36*
X-1048Y25066D02*
Y24633D01*
X-615D01*
X-634Y24730D01*
X-761Y24920D01*
X-951Y25047D01*
X-1048Y25066D01*
D02*
G37*
G36*
X-64068Y26973D02*
X-65038D01*
X-65016Y26812D01*
X-64905Y26543D01*
X-64728Y26313D01*
X-64498Y26136D01*
X-64229Y26024D01*
X-64068Y26003D01*
Y26973D01*
D02*
G37*
G36*
X5735Y26919D02*
X5175D01*
X4615D01*
X4634Y26822D01*
X4761Y26632D01*
X4951Y26505D01*
X5100Y26476D01*
Y26346D01*
X4951Y26317D01*
X4761Y26190D01*
X4634Y26000D01*
X4605Y25851D01*
X4475D01*
X4446Y26000D01*
X4319Y26190D01*
X4129Y26317D01*
X4032Y26336D01*
Y25776D01*
Y25216D01*
X4129Y25235D01*
X4319Y25362D01*
X4446Y25552D01*
X4475Y25701D01*
X4605D01*
X4634Y25552D01*
X4761Y25362D01*
X4951Y25235D01*
X5048Y25216D01*
Y25776D01*
X5175D01*
Y25903D01*
X5735D01*
X5716Y26000D01*
X5589Y26190D01*
X5399Y26317D01*
X5250Y26346D01*
Y26476D01*
X5399Y26505D01*
X5589Y26632D01*
X5716Y26822D01*
X5735Y26919D01*
D02*
G37*
G36*
X-27131Y25823D02*
X-27573D01*
Y25381D01*
X-27390D01*
X-27291Y25401D01*
X-27207Y25457D01*
X-27151Y25541D01*
X-27131Y25640D01*
Y25823D01*
D02*
G37*
G36*
X655Y26919D02*
X222D01*
Y26486D01*
X319Y26505D01*
X509Y26632D01*
X636Y26822D01*
X655Y26919D01*
D02*
G37*
G36*
X-32D02*
X-465D01*
X-446Y26822D01*
X-319Y26632D01*
X-129Y26505D01*
X-32Y26486D01*
Y26919D01*
D02*
G37*
G36*
X-62844Y26973D02*
X-63814D01*
Y26003D01*
X-63653Y26024D01*
X-63384Y26136D01*
X-63153Y26313D01*
X-62976Y26543D01*
X-62865Y26812D01*
X-62844Y26973D01*
D02*
G37*
G36*
X2336Y26708D02*
X2128Y26666D01*
X1952Y26548D01*
X1834Y26372D01*
X1792Y26164D01*
X1834Y25956D01*
X1934Y25805D01*
X1505Y25376D01*
X1443Y25284D01*
X1421Y25175D01*
X1421Y25175D01*
Y19173D01*
X1421Y19173D01*
X1443Y19063D01*
X1505Y18971D01*
X1863Y18613D01*
X1800Y18496D01*
X1718Y18512D01*
X1510Y18471D01*
X1334Y18353D01*
X1216Y18177D01*
X1193Y18060D01*
X684D01*
X577Y18156D01*
X540Y18340D01*
X436Y18497D01*
X279Y18601D01*
X95Y18638D01*
X-89Y18601D01*
X-246Y18497D01*
X-350Y18340D01*
X-387Y18156D01*
X-350Y17972D01*
X-246Y17815D01*
X-89Y17711D01*
X95Y17674D01*
X161Y17687D01*
X246Y17602D01*
X259Y17541D01*
Y17501D01*
X246Y17440D01*
X161Y17355D01*
X95Y17368D01*
X-89Y17331D01*
X-246Y17227D01*
X-350Y17070D01*
X-387Y16886D01*
X-350Y16702D01*
X-246Y16545D01*
X-89Y16441D01*
X95Y16404D01*
X279Y16441D01*
X436Y16545D01*
X540Y16702D01*
X556Y16783D01*
X700Y16868D01*
X735Y16857D01*
X748Y16792D01*
X865Y16615D01*
X1042Y16498D01*
X1250Y16456D01*
X1458Y16498D01*
X1635Y16615D01*
X1752Y16792D01*
X1794Y17000D01*
X1752Y17208D01*
X1691Y17301D01*
X1699Y17339D01*
X1756Y17432D01*
X1927Y17466D01*
X2045Y17545D01*
X2172Y17477D01*
Y16579D01*
X2172Y16579D01*
X2194Y16470D01*
X2256Y16378D01*
X2838Y15796D01*
X2838Y15796D01*
X2931Y15734D01*
X3040Y15712D01*
X3040Y15712D01*
X3316D01*
X3423Y15616D01*
X3460Y15432D01*
X3483Y15397D01*
X3423Y15285D01*
X2951D01*
X2885Y15385D01*
X2708Y15502D01*
X2500Y15544D01*
X2292Y15502D01*
X2115Y15385D01*
X1998Y15208D01*
X1956Y15000D01*
X1998Y14792D01*
X2115Y14615D01*
X2292Y14498D01*
X2500Y14456D01*
X2708Y14498D01*
X2885Y14615D01*
X2951Y14715D01*
X3327D01*
X3386Y14603D01*
X3364Y14570D01*
X3345Y14473D01*
X3905D01*
X4465D01*
X4446Y14570D01*
X4412Y14621D01*
X4443Y14790D01*
X4731Y15078D01*
X4731Y15078D01*
X4900Y15109D01*
X4951Y15075D01*
X5048Y15056D01*
Y15616D01*
X5175D01*
Y15743D01*
X5735D01*
X5716Y15840D01*
X5589Y16030D01*
X5399Y16157D01*
X5250Y16186D01*
Y16316D01*
X5399Y16345D01*
X5589Y16472D01*
X5716Y16662D01*
X5735Y16759D01*
X5175D01*
Y16886D01*
X5048D01*
Y17446D01*
X4951Y17427D01*
X4927Y17410D01*
X4815Y17470D01*
Y17676D01*
X4942Y17744D01*
X4991Y17711D01*
X5175Y17674D01*
X5359Y17711D01*
X5516Y17815D01*
X5553Y17871D01*
X7112D01*
X7115Y17865D01*
X7292Y17748D01*
X7500Y17706D01*
X7708Y17748D01*
X7885Y17865D01*
X8002Y18042D01*
X8044Y18250D01*
X8002Y18458D01*
X7885Y18635D01*
X7708Y18752D01*
X7500Y18794D01*
X7292Y18752D01*
X7115Y18635D01*
X6998Y18458D01*
X6994Y18441D01*
X5553D01*
X5516Y18497D01*
X5359Y18601D01*
X5175Y18638D01*
X4991Y18601D01*
X4942Y18568D01*
X4815Y18636D01*
Y18801D01*
X4793Y18910D01*
X4731Y19003D01*
X4731Y19003D01*
X4374Y19360D01*
X4387Y19426D01*
X4350Y19610D01*
X4246Y19767D01*
X4089Y19871D01*
X3905Y19908D01*
X3721Y19871D01*
X3564Y19767D01*
X3460Y19610D01*
X3423Y19426D01*
X3460Y19242D01*
X3564Y19085D01*
X3721Y18981D01*
X3905Y18944D01*
X3971Y18957D01*
X4095Y18833D01*
X4033Y18716D01*
X4032Y18716D01*
Y18156D01*
X3778D01*
Y18716D01*
X3681Y18697D01*
X3491Y18570D01*
X3377Y18399D01*
X3296Y18404D01*
X3250Y18420D01*
Y18632D01*
X3250Y18632D01*
X3228Y18741D01*
X3167Y18833D01*
X3167Y18833D01*
X2499Y19501D01*
Y24846D01*
X2668Y25015D01*
X2818Y24915D01*
X3026Y24873D01*
X3234Y24915D01*
X3411Y25032D01*
X3529Y25209D01*
X3529Y25210D01*
X3646Y25259D01*
X3681Y25235D01*
X3778Y25216D01*
Y25776D01*
Y26336D01*
X3681Y26317D01*
X3491Y26190D01*
X3364Y26000D01*
X3357Y25964D01*
X3240Y25916D01*
X3234Y25919D01*
X3026Y25961D01*
X2967Y25949D01*
X2859Y26057D01*
X2880Y26164D01*
X2839Y26372D01*
X2721Y26548D01*
X2544Y26666D01*
X2336Y26708D01*
D02*
G37*
G36*
X-63814Y25647D02*
Y24677D01*
X-62844D01*
X-62865Y24838D01*
X-62976Y25107D01*
X-63153Y25337D01*
X-63384Y25514D01*
X-63653Y25626D01*
X-63814Y25647D01*
D02*
G37*
G36*
X-64068D02*
X-64229Y25626D01*
X-64498Y25514D01*
X-64728Y25337D01*
X-64905Y25107D01*
X-65016Y24838D01*
X-65038Y24677D01*
X-64068D01*
Y25647D01*
D02*
G37*
G36*
X95Y26258D02*
X-89Y26221D01*
X-246Y26117D01*
X-350Y25960D01*
X-387Y25776D01*
X-350Y25592D01*
X-246Y25435D01*
X-89Y25331D01*
X95Y25294D01*
X279Y25331D01*
X436Y25435D01*
X540Y25592D01*
X577Y25776D01*
X540Y25960D01*
X436Y26117D01*
X279Y26221D01*
X95Y26258D01*
D02*
G37*
G36*
X-1175D02*
X-1359Y26221D01*
X-1516Y26117D01*
X-1620Y25960D01*
X-1657Y25776D01*
X-1620Y25592D01*
X-1516Y25435D01*
X-1359Y25331D01*
X-1175Y25294D01*
X-991Y25331D01*
X-834Y25435D01*
X-730Y25592D01*
X-693Y25776D01*
X-730Y25960D01*
X-834Y26117D01*
X-991Y26221D01*
X-1175Y26258D01*
D02*
G37*
G36*
X5735Y25649D02*
X5302D01*
Y25216D01*
X5399Y25235D01*
X5589Y25362D01*
X5716Y25552D01*
X5735Y25649D01*
D02*
G37*
G36*
X-1175Y23718D02*
X-1359Y23681D01*
X-1516Y23577D01*
X-1620Y23420D01*
X-1657Y23236D01*
X-1620Y23052D01*
X-1516Y22895D01*
X-1359Y22791D01*
X-1175Y22754D01*
X-991Y22791D01*
X-834Y22895D01*
X-730Y23052D01*
X-693Y23236D01*
X-730Y23420D01*
X-834Y23577D01*
X-991Y23681D01*
X-1175Y23718D01*
D02*
G37*
G36*
X-615Y20569D02*
X-1048D01*
Y20136D01*
X-951Y20155D01*
X-761Y20282D01*
X-634Y20472D01*
X-615Y20569D01*
D02*
G37*
G36*
X5048D02*
X4615D01*
X4634Y20472D01*
X4761Y20282D01*
X4951Y20155D01*
X5048Y20136D01*
Y20569D01*
D02*
G37*
G36*
X-1302D02*
X-1735D01*
X-1716Y20472D01*
X-1589Y20282D01*
X-1399Y20155D01*
X-1302Y20136D01*
Y20569D01*
D02*
G37*
G36*
X-51597Y20673D02*
X-52019D01*
Y20490D01*
X-51999Y20391D01*
X-51943Y20307D01*
X-51859Y20251D01*
X-51760Y20231D01*
X-51597D01*
Y20673D01*
D02*
G37*
G36*
X95Y21178D02*
X-89Y21141D01*
X-246Y21037D01*
X-350Y20880D01*
X-387Y20696D01*
X-350Y20512D01*
X-246Y20355D01*
X-89Y20251D01*
X95Y20214D01*
X279Y20251D01*
X436Y20355D01*
X540Y20512D01*
X577Y20696D01*
X540Y20880D01*
X436Y21037D01*
X279Y21141D01*
X95Y21178D01*
D02*
G37*
G36*
X5735Y20569D02*
X5302D01*
Y20136D01*
X5399Y20155D01*
X5589Y20282D01*
X5716Y20472D01*
X5735Y20569D01*
D02*
G37*
G36*
X-32Y19986D02*
X-129Y19967D01*
X-319Y19840D01*
X-446Y19650D01*
X-465Y19553D01*
X-32D01*
Y19986D01*
D02*
G37*
G36*
X-50675Y20059D02*
X-51073D01*
Y19227D01*
X-50416D01*
Y19800D01*
X-50436Y19899D01*
X-50492Y19983D01*
X-50576Y20039D01*
X-50675Y20059D01*
D02*
G37*
G36*
X-51327D02*
X-51725D01*
X-51824Y20039D01*
X-51908Y19983D01*
X-51964Y19899D01*
X-51984Y19800D01*
Y19227D01*
X-51327D01*
Y20059D01*
D02*
G37*
G36*
X-56194Y20567D02*
Y19597D01*
X-55224D01*
X-55245Y19758D01*
X-55356Y20027D01*
X-55533Y20257D01*
X-55764Y20434D01*
X-56033Y20546D01*
X-56194Y20567D01*
D02*
G37*
G36*
X-56448D02*
X-56609Y20546D01*
X-56878Y20434D01*
X-57108Y20257D01*
X-57285Y20027D01*
X-57396Y19758D01*
X-57418Y19597D01*
X-56448D01*
Y20567D01*
D02*
G37*
G36*
X222Y19986D02*
Y19553D01*
X655D01*
X636Y19650D01*
X509Y19840D01*
X319Y19967D01*
X222Y19986D01*
D02*
G37*
G36*
X-1302Y21256D02*
X-1399Y21237D01*
X-1589Y21110D01*
X-1716Y20920D01*
X-1735Y20823D01*
X-1302D01*
Y21256D01*
D02*
G37*
G36*
X-1175Y22448D02*
X-1359Y22411D01*
X-1516Y22307D01*
X-1553Y22251D01*
X-1966D01*
X-1966Y22251D01*
X-2075Y22229D01*
X-2167Y22167D01*
X-2167Y22167D01*
X-4800Y19535D01*
X-10250D01*
X-10359Y19513D01*
X-10451Y19451D01*
X-10451Y19451D01*
X-11301Y18601D01*
X-11359Y18515D01*
X-11475D01*
X-11592Y18467D01*
X-11626Y18385D01*
X-13175D01*
Y18410D01*
X-13223Y18527D01*
X-13340Y18575D01*
X-13920D01*
X-14027Y18530D01*
X-14037Y18527D01*
X-14163D01*
X-14173Y18530D01*
X-14280Y18575D01*
X-14860D01*
X-14977Y18527D01*
X-15025Y18410D01*
Y18385D01*
X-16649D01*
X-16715Y18485D01*
X-16892Y18602D01*
X-17100Y18644D01*
X-17308Y18602D01*
X-17485Y18485D01*
X-17602Y18308D01*
X-17644Y18100D01*
X-17602Y17892D01*
X-17485Y17715D01*
X-17308Y17598D01*
X-17100Y17556D01*
X-16892Y17598D01*
X-16715Y17715D01*
X-16649Y17815D01*
X-15025D01*
Y17790D01*
X-14977Y17673D01*
X-14860Y17625D01*
X-14280D01*
X-14173Y17670D01*
X-14163Y17673D01*
X-14037D01*
X-14027Y17670D01*
X-13920Y17625D01*
X-13340D01*
X-13223Y17673D01*
X-13175Y17790D01*
Y17815D01*
X-11626D01*
X-11592Y17733D01*
X-11475Y17685D01*
X-10725D01*
X-10608Y17733D01*
X-10560Y17850D01*
Y18350D01*
X-10608Y18467D01*
X-10612Y18485D01*
X-10132Y18965D01*
X-4682D01*
X-4682Y18965D01*
X-4573Y18987D01*
X-4481Y19049D01*
X-1848Y21681D01*
X-1553D01*
X-1516Y21625D01*
X-1359Y21521D01*
X-1175Y21484D01*
X-991Y21521D01*
X-834Y21625D01*
X-730Y21782D01*
X-693Y21966D01*
X-730Y22150D01*
X-834Y22307D01*
X-991Y22411D01*
X-1175Y22448D01*
D02*
G37*
G36*
X5302Y22526D02*
Y22093D01*
X5735D01*
X5716Y22190D01*
X5589Y22380D01*
X5399Y22507D01*
X5302Y22526D01*
D02*
G37*
G36*
X3778Y22526D02*
X3681Y22507D01*
X3491Y22380D01*
X3364Y22190D01*
X3345Y22093D01*
X3778D01*
Y22526D01*
D02*
G37*
G36*
X655Y23109D02*
X222D01*
Y22676D01*
X319Y22695D01*
X509Y22822D01*
X636Y23012D01*
X655Y23109D01*
D02*
G37*
G36*
X-32D02*
X-465D01*
X-446Y23012D01*
X-319Y22822D01*
X-129Y22695D01*
X-32Y22676D01*
Y23109D01*
D02*
G37*
G36*
X-51477Y22873D02*
X-51919D01*
Y22690D01*
X-51899Y22591D01*
X-51843Y22507D01*
X-51759Y22451D01*
X-51660Y22431D01*
X-51477D01*
Y22873D01*
D02*
G37*
G36*
X3778Y21839D02*
X3345D01*
X3364Y21742D01*
X3491Y21552D01*
X3681Y21425D01*
X3778Y21406D01*
Y21839D01*
D02*
G37*
G36*
X-51597Y21369D02*
X-51760D01*
X-51859Y21349D01*
X-51943Y21293D01*
X-51999Y21209D01*
X-52019Y21110D01*
Y20927D01*
X-51597D01*
Y21369D01*
D02*
G37*
G36*
X-1048Y21256D02*
Y20823D01*
X-615D01*
X-634Y20920D01*
X-761Y21110D01*
X-951Y21237D01*
X-1048Y21256D01*
D02*
G37*
G36*
X5048Y22526D02*
X4951Y22507D01*
X4761Y22380D01*
X4634Y22190D01*
X4605Y22041D01*
X4475D01*
X4446Y22190D01*
X4319Y22380D01*
X4129Y22507D01*
X4032Y22526D01*
Y21966D01*
Y21406D01*
X4033Y21406D01*
X4095Y21289D01*
X3971Y21165D01*
X3905Y21178D01*
X3721Y21141D01*
X3564Y21037D01*
X3460Y20880D01*
X3423Y20696D01*
X3460Y20512D01*
X3564Y20355D01*
X3721Y20251D01*
X3905Y20214D01*
X4089Y20251D01*
X4246Y20355D01*
X4350Y20512D01*
X4387Y20696D01*
X4374Y20762D01*
X4498Y20886D01*
X4615Y20824D01*
X4615Y20823D01*
X5175D01*
Y20696D01*
D01*
Y20823D01*
X5735D01*
X5718Y20909D01*
X5722Y20941D01*
X5773Y21036D01*
X6252D01*
X6365Y20865D01*
X6542Y20748D01*
X6750Y20706D01*
X6958Y20748D01*
X7135Y20865D01*
X7252Y21042D01*
X7294Y21250D01*
X7252Y21458D01*
X7135Y21635D01*
X6958Y21752D01*
X6750Y21794D01*
X6542Y21752D01*
X6365Y21635D01*
X6346Y21606D01*
X5759D01*
X5699Y21718D01*
X5716Y21742D01*
X5735Y21839D01*
X5175D01*
Y21966D01*
X5048D01*
Y22526D01*
D02*
G37*
G36*
X-6250Y22294D02*
X-6458Y22252D01*
X-6635Y22135D01*
X-6701Y22035D01*
X-10500D01*
X-10500Y22035D01*
X-10609Y22013D01*
X-10701Y21951D01*
X-11301Y21351D01*
X-11363Y21259D01*
X-11372Y21215D01*
X-11475D01*
X-11592Y21167D01*
X-11626Y21085D01*
X-13175D01*
Y21110D01*
X-13223Y21227D01*
X-13340Y21275D01*
X-13920D01*
X-14027Y21230D01*
X-14037Y21227D01*
X-14163D01*
X-14173Y21230D01*
X-14280Y21275D01*
X-14860D01*
X-14977Y21227D01*
X-15025Y21110D01*
Y21085D01*
X-16693D01*
X-16698Y21108D01*
X-16815Y21285D01*
X-16992Y21402D01*
X-17200Y21444D01*
X-17408Y21402D01*
X-17585Y21285D01*
X-17702Y21108D01*
X-17744Y20900D01*
X-17702Y20692D01*
X-17585Y20515D01*
X-17408Y20398D01*
X-17200Y20356D01*
X-16992Y20398D01*
X-16816Y20515D01*
X-15025D01*
Y20490D01*
X-14977Y20373D01*
X-14860Y20325D01*
X-14280D01*
X-14173Y20370D01*
X-14163Y20373D01*
X-14037D01*
X-14027Y20370D01*
X-13920Y20325D01*
X-13340D01*
X-13223Y20373D01*
X-13175Y20490D01*
Y20515D01*
X-11626D01*
X-11592Y20433D01*
X-11475Y20385D01*
X-10725D01*
X-10608Y20433D01*
X-10560Y20550D01*
Y21050D01*
X-10608Y21167D01*
X-10620Y21227D01*
X-10382Y21465D01*
X-8541D01*
X-8529Y21338D01*
X-8590Y21326D01*
X-8708Y21302D01*
X-8885Y21185D01*
X-8908Y21150D01*
X-9201D01*
X-9208Y21167D01*
X-9325Y21215D01*
X-10075D01*
X-10192Y21167D01*
X-10240Y21050D01*
Y20550D01*
X-10192Y20433D01*
X-10075Y20385D01*
X-9325D01*
X-9208Y20433D01*
X-9201Y20450D01*
X-8908D01*
X-8885Y20415D01*
X-8708Y20298D01*
X-8500Y20256D01*
X-8292Y20298D01*
X-8115Y20415D01*
X-7998Y20592D01*
X-7956Y20800D01*
X-7998Y21008D01*
X-8115Y21185D01*
X-8292Y21302D01*
X-8410Y21326D01*
X-8471Y21338D01*
X-8459Y21465D01*
X-6701D01*
X-6635Y21365D01*
X-6458Y21248D01*
X-6250Y21206D01*
X-6042Y21248D01*
X-5865Y21365D01*
X-5748Y21542D01*
X-5706Y21750D01*
X-5748Y21958D01*
X-5865Y22135D01*
X-6042Y22252D01*
X-6250Y22294D01*
D02*
G37*
G36*
X95Y22448D02*
X-89Y22411D01*
X-246Y22307D01*
X-350Y22150D01*
X-387Y21966D01*
X-350Y21782D01*
X-246Y21625D01*
X-89Y21521D01*
X95Y21484D01*
X279Y21521D01*
X436Y21625D01*
X540Y21782D01*
X577Y21966D01*
X540Y22150D01*
X436Y22307D01*
X279Y22411D01*
X95Y22448D01*
D02*
G37*
G36*
X-21681Y32473D02*
X-22123D01*
Y32031D01*
X-21940D01*
X-21841Y32051D01*
X-21757Y32107D01*
X-21701Y32191D01*
X-21681Y32290D01*
Y32473D01*
D02*
G37*
G36*
X3905Y32608D02*
X3721Y32571D01*
X3564Y32467D01*
X3460Y32310D01*
X3423Y32126D01*
X3460Y31942D01*
X3564Y31785D01*
X3721Y31681D01*
X3905Y31644D01*
X4089Y31681D01*
X4246Y31785D01*
X4350Y31942D01*
X4387Y32126D01*
X4350Y32310D01*
X4246Y32467D01*
X4089Y32571D01*
X3905Y32608D01*
D02*
G37*
G36*
X95D02*
X-89Y32571D01*
X-246Y32467D01*
X-350Y32310D01*
X-387Y32126D01*
X-350Y31942D01*
X-246Y31785D01*
X-89Y31681D01*
X95Y31644D01*
X279Y31681D01*
X436Y31785D01*
X540Y31942D01*
X577Y32126D01*
X540Y32310D01*
X436Y32467D01*
X279Y32571D01*
X95Y32608D01*
D02*
G37*
G36*
X-1048Y32686D02*
Y32253D01*
X-615D01*
X-634Y32350D01*
X-761Y32540D01*
X-951Y32667D01*
X-1048Y32686D01*
D02*
G37*
G36*
X5048Y32686D02*
X4951Y32667D01*
X4761Y32540D01*
X4634Y32350D01*
X4615Y32253D01*
X5048D01*
Y32686D01*
D02*
G37*
G36*
X-1302D02*
X-1399Y32667D01*
X-1589Y32540D01*
X-1716Y32350D01*
X-1735Y32253D01*
X-1302D01*
Y32686D01*
D02*
G37*
G36*
X-51597Y31539D02*
X-51760D01*
X-51859Y31519D01*
X-51943Y31463D01*
X-51999Y31379D01*
X-52019Y31280D01*
Y31097D01*
X-51597D01*
Y31539D01*
D02*
G37*
G36*
X222Y31416D02*
Y30983D01*
X655D01*
X636Y31080D01*
X509Y31270D01*
X319Y31397D01*
X222Y31416D01*
D02*
G37*
G36*
X5735Y31999D02*
X5175D01*
X4615D01*
X4634Y31902D01*
X4761Y31712D01*
X4951Y31585D01*
X5100Y31556D01*
Y31426D01*
X4951Y31397D01*
X4761Y31270D01*
X4634Y31080D01*
X4615Y30983D01*
X5175D01*
X5735D01*
X5716Y31080D01*
X5589Y31270D01*
X5399Y31397D01*
X5250Y31426D01*
Y31556D01*
X5399Y31585D01*
X5589Y31712D01*
X5716Y31902D01*
X5735Y31999D01*
D02*
G37*
G36*
X-615D02*
X-1048D01*
Y31566D01*
X-951Y31585D01*
X-761Y31712D01*
X-634Y31902D01*
X-615Y31999D01*
D02*
G37*
G36*
X-1302D02*
X-1735D01*
X-1716Y31902D01*
X-1589Y31712D01*
X-1399Y31585D01*
X-1302Y31566D01*
Y31999D01*
D02*
G37*
G36*
X-33277Y31669D02*
X-33460D01*
X-33559Y31649D01*
X-33643Y31593D01*
X-33699Y31509D01*
X-33719Y31410D01*
Y31227D01*
X-33277D01*
Y31669D01*
D02*
G37*
G36*
X5302Y32686D02*
Y32253D01*
X5735D01*
X5716Y32350D01*
X5589Y32540D01*
X5399Y32667D01*
X5302Y32686D01*
D02*
G37*
G36*
X4032Y33956D02*
Y33523D01*
X4465D01*
X4446Y33620D01*
X4319Y33810D01*
X4129Y33937D01*
X4032Y33956D01*
D02*
G37*
G36*
X3778Y33956D02*
X3681Y33937D01*
X3491Y33810D01*
X3364Y33620D01*
X3345Y33523D01*
X3778D01*
Y33956D01*
D02*
G37*
G36*
X5175Y33878D02*
X4991Y33841D01*
X4834Y33737D01*
X4730Y33580D01*
X4693Y33396D01*
X4730Y33212D01*
X4834Y33055D01*
X4991Y32951D01*
X5175Y32914D01*
X5359Y32951D01*
X5516Y33055D01*
X5620Y33212D01*
X5657Y33396D01*
X5620Y33580D01*
X5516Y33737D01*
X5359Y33841D01*
X5175Y33878D01*
D02*
G37*
G36*
X-28627Y35873D02*
X-30859D01*
Y33900D01*
X-30839Y33801D01*
X-30783Y33717D01*
X-30699Y33661D01*
X-30600Y33641D01*
X-28627D01*
Y35873D01*
D02*
G37*
G36*
X-62844Y34593D02*
X-63814D01*
Y33623D01*
X-63653Y33644D01*
X-63384Y33756D01*
X-63153Y33933D01*
X-62976Y34163D01*
X-62865Y34432D01*
X-62844Y34593D01*
D02*
G37*
G36*
X-64068D02*
X-65038D01*
X-65016Y34432D01*
X-64905Y34163D01*
X-64728Y33933D01*
X-64498Y33756D01*
X-64229Y33644D01*
X-64068Y33623D01*
Y34593D01*
D02*
G37*
G36*
X3778Y33269D02*
X3345D01*
X3364Y33172D01*
X3491Y32982D01*
X3681Y32855D01*
X3778Y32836D01*
Y33269D01*
D02*
G37*
G36*
X-21940Y33169D02*
X-22123D01*
Y32727D01*
X-21681D01*
Y32910D01*
X-21701Y33009D01*
X-21757Y33093D01*
X-21841Y33149D01*
X-21940Y33169D01*
D02*
G37*
G36*
X-51477Y33043D02*
X-51919D01*
Y32860D01*
X-51899Y32761D01*
X-51843Y32677D01*
X-51759Y32621D01*
X-51660Y32601D01*
X-51477D01*
Y33043D01*
D02*
G37*
G36*
X95Y33878D02*
X-89Y33841D01*
X-246Y33737D01*
X-350Y33580D01*
X-387Y33396D01*
X-350Y33212D01*
X-246Y33055D01*
X-89Y32951D01*
X95Y32914D01*
X279Y32951D01*
X436Y33055D01*
X540Y33212D01*
X577Y33396D01*
X540Y33580D01*
X436Y33737D01*
X279Y33841D01*
X95Y33878D01*
D02*
G37*
G36*
X-1175D02*
X-1359Y33841D01*
X-1516Y33737D01*
X-1620Y33580D01*
X-1657Y33396D01*
X-1620Y33212D01*
X-1516Y33055D01*
X-1359Y32951D01*
X-1175Y32914D01*
X-991Y32951D01*
X-834Y33055D01*
X-730Y33212D01*
X-693Y33396D01*
X-730Y33580D01*
X-834Y33737D01*
X-991Y33841D01*
X-1175Y33878D01*
D02*
G37*
G36*
X4465Y33269D02*
X4032D01*
Y32836D01*
X4129Y32855D01*
X4319Y32982D01*
X4446Y33172D01*
X4465Y33269D01*
D02*
G37*
G36*
X-32Y31416D02*
X-129Y31397D01*
X-319Y31270D01*
X-446Y31080D01*
X-465Y30983D01*
X-32D01*
Y31416D01*
D02*
G37*
G36*
X-1302Y28876D02*
X-1399Y28857D01*
X-1589Y28730D01*
X-1716Y28540D01*
X-1735Y28443D01*
X-1302D01*
Y28876D01*
D02*
G37*
G36*
X-50416Y29143D02*
X-51073D01*
Y28311D01*
X-50675D01*
X-50576Y28331D01*
X-50492Y28387D01*
X-50436Y28471D01*
X-50416Y28570D01*
Y29143D01*
D02*
G37*
G36*
X-51327D02*
X-51984D01*
Y28570D01*
X-51964Y28471D01*
X-51908Y28387D01*
X-51824Y28331D01*
X-51725Y28311D01*
X-51327D01*
Y29143D01*
D02*
G37*
G36*
X-55224Y29513D02*
X-56194D01*
Y28543D01*
X-56033Y28564D01*
X-55764Y28676D01*
X-55533Y28853D01*
X-55356Y29083D01*
X-55245Y29352D01*
X-55224Y29513D01*
D02*
G37*
G36*
X-56448D02*
X-57418D01*
X-57396Y29352D01*
X-57285Y29083D01*
X-57108Y28853D01*
X-56878Y28676D01*
X-56609Y28564D01*
X-56448Y28543D01*
Y29513D01*
D02*
G37*
G36*
X-1048Y28876D02*
Y28443D01*
X-615D01*
X-634Y28540D01*
X-761Y28730D01*
X-951Y28857D01*
X-1048Y28876D01*
D02*
G37*
G36*
X-30327Y27803D02*
X-30769D01*
Y27640D01*
X-30749Y27541D01*
X-30693Y27457D01*
X-30609Y27401D01*
X-30510Y27381D01*
X-30327D01*
Y27803D01*
D02*
G37*
G36*
X-63814Y28197D02*
Y27227D01*
X-62844D01*
X-62865Y27388D01*
X-62976Y27657D01*
X-63153Y27887D01*
X-63384Y28064D01*
X-63653Y28176D01*
X-63814Y28197D01*
D02*
G37*
G36*
X-64068D02*
X-64229Y28176D01*
X-64498Y28064D01*
X-64728Y27887D01*
X-64905Y27657D01*
X-65016Y27388D01*
X-65038Y27227D01*
X-64068D01*
Y28197D01*
D02*
G37*
G36*
X-50690Y28139D02*
X-50873D01*
Y27697D01*
X-50431D01*
Y27880D01*
X-50451Y27979D01*
X-50507Y28063D01*
X-50591Y28119D01*
X-50690Y28139D01*
D02*
G37*
G36*
X-51127D02*
X-51310D01*
X-51409Y28119D01*
X-51493Y28063D01*
X-51549Y27979D01*
X-51569Y27880D01*
Y27697D01*
X-51127D01*
Y28139D01*
D02*
G37*
G36*
X-29631Y27803D02*
X-30073D01*
Y27381D01*
X-29890D01*
X-29791Y27401D01*
X-29707Y27457D01*
X-29651Y27541D01*
X-29631Y27640D01*
Y27803D01*
D02*
G37*
G36*
X-45727Y29089D02*
X-45910D01*
X-46009Y29069D01*
X-46093Y29013D01*
X-46149Y28929D01*
X-46169Y28830D01*
Y28667D01*
X-45727D01*
Y29089D01*
D02*
G37*
G36*
X-51597Y30843D02*
X-52019D01*
Y30660D01*
X-51999Y30561D01*
X-51943Y30477D01*
X-51859Y30421D01*
X-51760Y30401D01*
X-51597D01*
Y30843D01*
D02*
G37*
G36*
X-34595Y30683D02*
X-35090D01*
X-35066Y30562D01*
X-34926Y30352D01*
X-34716Y30212D01*
X-34595Y30188D01*
Y30683D01*
D02*
G37*
G36*
X-56194Y30737D02*
Y29767D01*
X-55224D01*
X-55245Y29928D01*
X-55356Y30197D01*
X-55533Y30427D01*
X-55764Y30604D01*
X-56033Y30716D01*
X-56194Y30737D01*
D02*
G37*
G36*
X-34595Y31432D02*
X-34716Y31408D01*
X-34926Y31268D01*
X-35066Y31058D01*
X-35090Y30937D01*
X-34595D01*
Y31432D01*
D02*
G37*
G36*
X-34341D02*
Y30810D01*
Y30188D01*
X-34220Y30212D01*
X-34010Y30352D01*
X-33870Y30562D01*
X-33836Y30729D01*
X-33707D01*
X-33699Y30691D01*
X-33643Y30607D01*
X-33559Y30551D01*
X-33460Y30531D01*
X-33277D01*
Y30973D01*
X-33719D01*
Y30951D01*
X-33846Y30939D01*
X-33870Y31058D01*
X-34010Y31268D01*
X-34220Y31408D01*
X-34341Y31432D01*
D02*
G37*
G36*
X3905Y31338D02*
X3721Y31301D01*
X3564Y31197D01*
X3460Y31040D01*
X3423Y30856D01*
X3460Y30672D01*
X3493Y30623D01*
X3425Y30496D01*
X679D01*
X619Y30608D01*
X636Y30632D01*
X655Y30729D01*
X95D01*
X-465D01*
X-446Y30632D01*
X-429Y30608D01*
X-489Y30496D01*
X-695D01*
X-763Y30623D01*
X-730Y30672D01*
X-693Y30856D01*
X-730Y31040D01*
X-834Y31197D01*
X-991Y31301D01*
X-1175Y31338D01*
X-1359Y31301D01*
X-1516Y31197D01*
X-1620Y31040D01*
X-1657Y30856D01*
X-1620Y30672D01*
X-1587Y30623D01*
X-1655Y30496D01*
X-10039D01*
X-10039Y30496D01*
X-10148Y30474D01*
X-10241Y30412D01*
X-10241Y30412D01*
X-11301Y29351D01*
X-11363Y29259D01*
X-11385Y29150D01*
X-11385Y29150D01*
Y29015D01*
X-11475D01*
X-11592Y28967D01*
X-11626Y28885D01*
X-13175D01*
Y28910D01*
X-13223Y29027D01*
X-13340Y29075D01*
X-13920D01*
X-14027Y29030D01*
X-14037Y29027D01*
X-14163D01*
X-14173Y29030D01*
X-14280Y29075D01*
X-14860D01*
X-14977Y29027D01*
X-15025Y28910D01*
Y28885D01*
X-16949D01*
X-17015Y28985D01*
X-17192Y29102D01*
X-17400Y29144D01*
X-17608Y29102D01*
X-17785Y28985D01*
X-17902Y28808D01*
X-17944Y28600D01*
X-17902Y28392D01*
X-17785Y28215D01*
X-17608Y28098D01*
X-17400Y28056D01*
X-17192Y28098D01*
X-17015Y28215D01*
X-16949Y28315D01*
X-15025D01*
Y28290D01*
X-14977Y28173D01*
X-14860Y28125D01*
X-14280D01*
X-14173Y28170D01*
X-14163Y28173D01*
X-14037D01*
X-14027Y28170D01*
X-13920Y28125D01*
X-13340D01*
X-13223Y28173D01*
X-13175Y28290D01*
Y28315D01*
X-11626D01*
X-11592Y28233D01*
X-11475Y28185D01*
X-10725D01*
X-10608Y28233D01*
X-10560Y28350D01*
Y28850D01*
X-10608Y28967D01*
X-10674Y28994D01*
X-10712Y29124D01*
X-10711Y29136D01*
X-9921Y29926D01*
X-1651D01*
X-1591Y29814D01*
X-1620Y29770D01*
X-1657Y29586D01*
X-1620Y29402D01*
X-1516Y29245D01*
X-1359Y29141D01*
X-1175Y29104D01*
X-991Y29141D01*
X-834Y29245D01*
X-730Y29402D01*
X-693Y29586D01*
X-730Y29770D01*
X-759Y29814D01*
X-699Y29926D01*
X-381D01*
X-321Y29814D01*
X-350Y29770D01*
X-387Y29586D01*
X-350Y29402D01*
X-246Y29245D01*
X-89Y29141D01*
X95Y29104D01*
X279Y29141D01*
X436Y29245D01*
X540Y29402D01*
X577Y29586D01*
X540Y29770D01*
X511Y29814D01*
X571Y29926D01*
X3307D01*
X3358Y29831D01*
X3362Y29799D01*
X3345Y29713D01*
X3905D01*
Y29586D01*
D01*
Y29713D01*
X4465D01*
X4448Y29799D01*
X4452Y29831D01*
X4503Y29926D01*
X4699D01*
X4759Y29814D01*
X4730Y29770D01*
X4693Y29586D01*
X4730Y29402D01*
X4834Y29245D01*
X4991Y29141D01*
X5175Y29104D01*
X5359Y29141D01*
X5516Y29245D01*
X5620Y29402D01*
X5657Y29586D01*
X5620Y29770D01*
X5591Y29814D01*
X5651Y29926D01*
X6671D01*
X7901Y28696D01*
Y27276D01*
X7774Y27208D01*
X7708Y27252D01*
X7500Y27294D01*
X7292Y27252D01*
X7207Y27196D01*
X6531Y27872D01*
X6438Y27934D01*
X6329Y27956D01*
X6329Y27956D01*
X5655D01*
X5587Y28083D01*
X5620Y28132D01*
X5657Y28316D01*
X5620Y28500D01*
X5516Y28657D01*
X5359Y28761D01*
X5175Y28798D01*
X4991Y28761D01*
X4834Y28657D01*
X4730Y28500D01*
X4693Y28316D01*
X4730Y28132D01*
X4763Y28083D01*
X4695Y27956D01*
X4385D01*
X4317Y28083D01*
X4350Y28132D01*
X4387Y28316D01*
X4350Y28500D01*
X4246Y28657D01*
X4089Y28761D01*
X3905Y28798D01*
X3721Y28761D01*
X3564Y28657D01*
X3460Y28500D01*
X3423Y28316D01*
X3460Y28132D01*
X3493Y28083D01*
X3425Y27956D01*
X575D01*
X507Y28083D01*
X540Y28132D01*
X577Y28316D01*
X540Y28500D01*
X436Y28657D01*
X279Y28761D01*
X95Y28798D01*
X-89Y28761D01*
X-246Y28657D01*
X-350Y28500D01*
X-387Y28316D01*
X-350Y28132D01*
X-317Y28083D01*
X-385Y27956D01*
X-591D01*
X-651Y28068D01*
X-634Y28092D01*
X-615Y28189D01*
X-1175D01*
Y28316D01*
D01*
Y28189D01*
X-1735D01*
X-1716Y28092D01*
X-1699Y28068D01*
X-1759Y27956D01*
X-8354D01*
X-8367Y28083D01*
X-8292Y28098D01*
X-8115Y28215D01*
X-7998Y28392D01*
X-7956Y28600D01*
X-7998Y28808D01*
X-8115Y28985D01*
X-8292Y29102D01*
X-8500Y29144D01*
X-8708Y29102D01*
X-8885Y28985D01*
X-8908Y28950D01*
X-9201D01*
X-9208Y28967D01*
X-9325Y29015D01*
X-10075D01*
X-10192Y28967D01*
X-10240Y28850D01*
Y28350D01*
X-10192Y28233D01*
X-10075Y28185D01*
X-9325D01*
X-9208Y28233D01*
X-9201Y28250D01*
X-8908D01*
X-8885Y28215D01*
X-8708Y28098D01*
X-8633Y28083D01*
X-8646Y27956D01*
X-9129D01*
X-9238Y27934D01*
X-9331Y27872D01*
X-9331Y27872D01*
X-11088Y26115D01*
X-11475D01*
X-11592Y26067D01*
X-11626Y25985D01*
X-13175D01*
Y26010D01*
X-13223Y26127D01*
X-13340Y26175D01*
X-13920D01*
X-14027Y26130D01*
X-14037Y26127D01*
X-14163D01*
X-14173Y26130D01*
X-14280Y26175D01*
X-14860D01*
X-14977Y26127D01*
X-15025Y26010D01*
Y25985D01*
X-16000D01*
X-16000Y25985D01*
X-16849D01*
X-16915Y26085D01*
X-17092Y26202D01*
X-17300Y26244D01*
X-17508Y26202D01*
X-17685Y26085D01*
X-17802Y25908D01*
X-17844Y25700D01*
X-17802Y25492D01*
X-17685Y25315D01*
X-17508Y25198D01*
X-17300Y25156D01*
X-17092Y25198D01*
X-16915Y25315D01*
X-16849Y25415D01*
X-16000D01*
X-16000Y25415D01*
X-15025D01*
Y25390D01*
X-14977Y25273D01*
X-14860Y25225D01*
X-14280D01*
X-14173Y25270D01*
X-14163Y25273D01*
X-14037D01*
X-14027Y25270D01*
X-13920Y25225D01*
X-13340D01*
X-13223Y25273D01*
X-13175Y25390D01*
Y25415D01*
X-11626D01*
X-11592Y25333D01*
X-11475Y25285D01*
X-10725D01*
X-10608Y25333D01*
X-10560Y25450D01*
Y25837D01*
X-10328Y26069D01*
X-10220Y25997D01*
X-10240Y25950D01*
Y25450D01*
X-10192Y25333D01*
X-10075Y25285D01*
X-9325D01*
X-9208Y25333D01*
X-9201Y25350D01*
X-8908D01*
X-8885Y25315D01*
X-8708Y25198D01*
X-8500Y25156D01*
X-8292Y25198D01*
X-8115Y25315D01*
X-7998Y25492D01*
X-7956Y25700D01*
X-7998Y25908D01*
X-8115Y26085D01*
X-8292Y26202D01*
X-8500Y26244D01*
X-8708Y26202D01*
X-8885Y26085D01*
X-8908Y26050D01*
X-9201D01*
X-9208Y26067D01*
X-9325Y26115D01*
X-10075D01*
X-10122Y26095D01*
X-10194Y26203D01*
X-9011Y27386D01*
X-1651D01*
X-1591Y27274D01*
X-1620Y27230D01*
X-1657Y27046D01*
X-1620Y26862D01*
X-1516Y26705D01*
X-1359Y26601D01*
X-1175Y26564D01*
X-991Y26601D01*
X-834Y26705D01*
X-730Y26862D01*
X-693Y27046D01*
X-730Y27230D01*
X-759Y27274D01*
X-699Y27386D01*
X-503D01*
X-452Y27291D01*
X-448Y27259D01*
X-465Y27173D01*
X95D01*
Y27046D01*
D01*
Y27173D01*
X655D01*
X638Y27259D01*
X642Y27291D01*
X693Y27386D01*
X3429D01*
X3489Y27274D01*
X3460Y27230D01*
X3423Y27046D01*
X3460Y26862D01*
X3564Y26705D01*
X3721Y26601D01*
X3905Y26564D01*
X4089Y26601D01*
X4246Y26705D01*
X4350Y26862D01*
X4387Y27046D01*
X4350Y27230D01*
X4321Y27274D01*
X4381Y27386D01*
X4577D01*
X4628Y27291D01*
X4632Y27259D01*
X4615Y27173D01*
X5175D01*
X5735D01*
X5718Y27259D01*
X5722Y27291D01*
X5773Y27386D01*
X6211D01*
X6983Y26614D01*
X6998Y26542D01*
X7115Y26365D01*
X7292Y26248D01*
X7500Y26206D01*
X7708Y26248D01*
X7774Y26292D01*
X7901Y26224D01*
Y20804D01*
X6808Y19711D01*
X5553D01*
X5516Y19767D01*
X5359Y19871D01*
X5175Y19908D01*
X4991Y19871D01*
X4834Y19767D01*
X4730Y19610D01*
X4693Y19426D01*
X4730Y19242D01*
X4834Y19085D01*
X4991Y18981D01*
X5175Y18944D01*
X5359Y18981D01*
X5516Y19085D01*
X5553Y19141D01*
X6926D01*
X6926Y19141D01*
X7035Y19163D01*
X7127Y19225D01*
X8387Y20484D01*
X8387Y20484D01*
X8449Y20577D01*
X8471Y20686D01*
Y28814D01*
X8471Y28814D01*
X8449Y28923D01*
X8387Y29016D01*
X8387Y29016D01*
X6991Y30412D01*
X6898Y30474D01*
X6789Y30496D01*
X6789Y30496D01*
X5759D01*
X5699Y30608D01*
X5716Y30632D01*
X5735Y30729D01*
X5175D01*
X4615D01*
X4634Y30632D01*
X4651Y30608D01*
X4591Y30496D01*
X4385D01*
X4317Y30623D01*
X4350Y30672D01*
X4387Y30856D01*
X4350Y31040D01*
X4246Y31197D01*
X4089Y31301D01*
X3905Y31338D01*
D02*
G37*
G36*
X4465Y29459D02*
X4032D01*
Y29026D01*
X4129Y29045D01*
X4319Y29172D01*
X4446Y29362D01*
X4465Y29459D01*
D02*
G37*
G36*
X3778D02*
X3345D01*
X3364Y29362D01*
X3491Y29172D01*
X3681Y29045D01*
X3778Y29026D01*
Y29459D01*
D02*
G37*
G36*
X-45290Y29089D02*
X-45473D01*
Y28667D01*
X-45031D01*
Y28830D01*
X-45051Y28929D01*
X-45107Y29013D01*
X-45191Y29069D01*
X-45290Y29089D01*
D02*
G37*
G36*
X-56448Y30737D02*
X-56609Y30716D01*
X-56878Y30604D01*
X-57108Y30427D01*
X-57285Y30197D01*
X-57396Y29928D01*
X-57418Y29767D01*
X-56448D01*
Y30737D01*
D02*
G37*
G36*
X-50675Y30229D02*
X-51073D01*
Y29397D01*
X-50416D01*
Y29970D01*
X-50436Y30069D01*
X-50492Y30153D01*
X-50576Y30209D01*
X-50675Y30229D01*
D02*
G37*
G36*
X-51327D02*
X-51725D01*
X-51824Y30209D01*
X-51908Y30153D01*
X-51964Y30069D01*
X-51984Y29970D01*
Y29397D01*
X-51327D01*
Y30229D01*
D02*
G37*
G36*
X655Y19299D02*
X222D01*
Y18866D01*
X319Y18885D01*
X509Y19012D01*
X636Y19202D01*
X655Y19299D01*
D02*
G37*
G36*
X-51327Y9859D02*
X-51725D01*
X-51824Y9839D01*
X-51908Y9783D01*
X-51964Y9699D01*
X-51984Y9600D01*
Y9027D01*
X-51327D01*
Y9859D01*
D02*
G37*
G36*
X5175Y9748D02*
X4991Y9711D01*
X4834Y9607D01*
X4730Y9450D01*
X4693Y9266D01*
X4730Y9082D01*
X4834Y8925D01*
X4991Y8821D01*
X5175Y8784D01*
X5359Y8821D01*
X5516Y8925D01*
X5620Y9082D01*
X5657Y9266D01*
X5620Y9450D01*
X5516Y9607D01*
X5359Y9711D01*
X5175Y9748D01*
D02*
G37*
G36*
X95D02*
X-89Y9711D01*
X-246Y9607D01*
X-350Y9450D01*
X-387Y9266D01*
X-350Y9082D01*
X-246Y8925D01*
X-89Y8821D01*
X95Y8784D01*
X279Y8821D01*
X436Y8925D01*
X540Y9082D01*
X577Y9266D01*
X540Y9450D01*
X436Y9607D01*
X279Y9711D01*
X95Y9748D01*
D02*
G37*
G36*
X-1048Y9826D02*
Y9393D01*
X-615D01*
X-634Y9490D01*
X-761Y9680D01*
X-951Y9807D01*
X-1048Y9826D01*
D02*
G37*
G36*
X3778Y9826D02*
X3681Y9807D01*
X3491Y9680D01*
X3364Y9490D01*
X3345Y9393D01*
X3778D01*
Y9826D01*
D02*
G37*
G36*
X-50675Y9859D02*
X-51073D01*
Y9027D01*
X-50416D01*
Y9600D01*
X-50436Y9699D01*
X-50492Y9783D01*
X-50576Y9839D01*
X-50675Y9859D01*
D02*
G37*
G36*
X-55224Y9143D02*
X-56194D01*
Y8173D01*
X-56033Y8194D01*
X-55764Y8306D01*
X-55533Y8483D01*
X-55356Y8713D01*
X-55245Y8982D01*
X-55224Y9143D01*
D02*
G37*
G36*
X-56448D02*
X-57418D01*
X-57396Y8982D01*
X-57285Y8713D01*
X-57108Y8483D01*
X-56878Y8306D01*
X-56609Y8194D01*
X-56448Y8173D01*
Y9143D01*
D02*
G37*
G36*
X3905Y9266D02*
D01*
Y9139D01*
X3345D01*
X3364Y9042D01*
X3491Y8852D01*
X3681Y8725D01*
X3830Y8696D01*
Y8566D01*
X3681Y8537D01*
X3491Y8410D01*
X3364Y8220D01*
X3345Y8123D01*
X3905D01*
X4465D01*
X4446Y8220D01*
X4319Y8410D01*
X4129Y8537D01*
X3980Y8566D01*
Y8696D01*
X4129Y8725D01*
X4319Y8852D01*
X4446Y9042D01*
X4465Y9139D01*
X3905D01*
Y9266D01*
D02*
G37*
G36*
X-1302Y9826D02*
X-1399Y9807D01*
X-1589Y9680D01*
X-1716Y9490D01*
X-1760Y9266D01*
X-1877Y9231D01*
X-1961Y9175D01*
X-2017Y9091D01*
X-2037Y8992D01*
D01*
X-1651D01*
Y8776D01*
X-1778D01*
X-1870Y8738D01*
X-2037D01*
X-2017Y8638D01*
X-1961Y8554D01*
X-1943Y8542D01*
Y8357D01*
X-1895Y8240D01*
X-1778Y8192D01*
X-1747D01*
X-1643Y8065D01*
X-1657Y7996D01*
X-1620Y7812D01*
X-1516Y7655D01*
X-1359Y7551D01*
X-1175Y7514D01*
X-991Y7551D01*
X-834Y7655D01*
X-730Y7812D01*
X-693Y7996D01*
X-730Y8180D01*
X-834Y8337D01*
X-991Y8441D01*
X-1175Y8478D01*
X-1186Y8475D01*
X-1276Y8565D01*
X-1228Y8677D01*
X-1211Y8688D01*
X-1175Y8681D01*
X-951Y8725D01*
X-761Y8852D01*
X-634Y9042D01*
X-615Y9139D01*
X-1175D01*
Y9266D01*
X-1302D01*
Y9826D01*
D02*
G37*
G36*
X-45290Y8719D02*
X-45473D01*
Y8297D01*
X-45031D01*
Y8460D01*
X-45051Y8559D01*
X-45107Y8643D01*
X-45191Y8699D01*
X-45290Y8719D01*
D02*
G37*
G36*
X-45727D02*
X-45910D01*
X-46009Y8699D01*
X-46093Y8643D01*
X-46149Y8559D01*
X-46169Y8460D01*
Y8297D01*
X-45727D01*
Y8719D01*
D02*
G37*
G36*
X4032Y9826D02*
Y9393D01*
X4465D01*
X4446Y9490D01*
X4319Y9680D01*
X4129Y9807D01*
X4032Y9826D01*
D02*
G37*
G36*
X5735Y10409D02*
X5302D01*
Y9976D01*
X5399Y9995D01*
X5589Y10122D01*
X5716Y10312D01*
X5735Y10409D01*
D02*
G37*
G36*
X655D02*
X222D01*
Y9976D01*
X319Y9995D01*
X509Y10122D01*
X636Y10312D01*
X655Y10409D01*
D02*
G37*
G36*
X5048D02*
X4615D01*
X4634Y10312D01*
X4761Y10122D01*
X4951Y9995D01*
X5048Y9976D01*
Y10409D01*
D02*
G37*
G36*
X3905Y11018D02*
X3721Y10981D01*
X3564Y10877D01*
X3460Y10720D01*
X3423Y10536D01*
X3460Y10352D01*
X3564Y10195D01*
X3721Y10091D01*
X3905Y10054D01*
X4089Y10091D01*
X4246Y10195D01*
X4350Y10352D01*
X4387Y10536D01*
X4350Y10720D01*
X4246Y10877D01*
X4089Y10981D01*
X3905Y11018D01*
D02*
G37*
G36*
X-1175D02*
X-1359Y10981D01*
X-1516Y10877D01*
X-1620Y10720D01*
X-1657Y10536D01*
X-1620Y10352D01*
X-1516Y10195D01*
X-1359Y10091D01*
X-1175Y10054D01*
X-991Y10091D01*
X-834Y10195D01*
X-730Y10352D01*
X-693Y10536D01*
X-730Y10720D01*
X-834Y10877D01*
X-991Y10981D01*
X-1175Y11018D01*
D02*
G37*
G36*
X-51597Y10473D02*
X-52019D01*
Y10290D01*
X-51999Y10191D01*
X-51943Y10107D01*
X-51859Y10051D01*
X-51760Y10031D01*
X-51597D01*
Y10473D01*
D02*
G37*
G36*
X-28377Y10373D02*
X-28819D01*
Y10190D01*
X-28799Y10091D01*
X-28743Y10007D01*
X-28659Y9951D01*
X-28560Y9931D01*
X-28377D01*
Y10373D01*
D02*
G37*
G36*
X-56194Y10367D02*
Y9397D01*
X-55224D01*
X-55245Y9558D01*
X-55356Y9827D01*
X-55533Y10057D01*
X-55764Y10234D01*
X-56033Y10346D01*
X-56194Y10367D01*
D02*
G37*
G36*
X-56448D02*
X-56609Y10346D01*
X-56878Y10234D01*
X-57108Y10057D01*
X-57285Y9827D01*
X-57396Y9558D01*
X-57418Y9397D01*
X-56448D01*
Y10367D01*
D02*
G37*
G36*
X-32Y10409D02*
X-465D01*
X-446Y10312D01*
X-319Y10122D01*
X-129Y9995D01*
X-32Y9976D01*
Y10409D01*
D02*
G37*
G36*
X-29070Y10439D02*
X-29566D01*
Y9944D01*
X-29445Y9968D01*
X-29235Y10109D01*
X-29094Y10319D01*
X-29070Y10439D01*
D02*
G37*
G36*
X-29820D02*
X-30315D01*
X-30291Y10319D01*
X-30150Y10109D01*
X-29940Y9968D01*
X-29820Y9944D01*
Y10439D01*
D02*
G37*
G36*
X-50416Y8773D02*
X-51073D01*
Y7941D01*
X-50675D01*
X-50576Y7961D01*
X-50492Y8017D01*
X-50436Y8101D01*
X-50416Y8200D01*
Y8773D01*
D02*
G37*
G36*
X-3000Y7244D02*
X-3208Y7202D01*
X-3385Y7085D01*
X-3502Y6908D01*
X-3544Y6700D01*
X-3502Y6492D01*
X-3385Y6315D01*
X-3208Y6198D01*
X-3000Y6156D01*
X-2792Y6198D01*
X-2615Y6315D01*
X-2592Y6350D01*
X-1463D01*
X-1359Y6281D01*
X-1175Y6244D01*
X-991Y6281D01*
X-834Y6385D01*
X-730Y6542D01*
X-693Y6726D01*
X-730Y6910D01*
X-834Y7067D01*
X-991Y7171D01*
X-1175Y7208D01*
X-1359Y7171D01*
X-1516Y7067D01*
X-1527Y7050D01*
X-2592D01*
X-2615Y7085D01*
X-2792Y7202D01*
X-3000Y7244D01*
D02*
G37*
G36*
X5735Y6599D02*
X5302D01*
Y6166D01*
X5399Y6185D01*
X5589Y6312D01*
X5716Y6502D01*
X5735Y6599D01*
D02*
G37*
G36*
X5048D02*
X4615D01*
X4634Y6502D01*
X4761Y6312D01*
X4951Y6185D01*
X5048Y6166D01*
Y6599D01*
D02*
G37*
G36*
X-26191Y7098D02*
X-27073D01*
Y6741D01*
X-26450D01*
X-26351Y6761D01*
X-26267Y6817D01*
X-26211Y6901D01*
X-26191Y7000D01*
Y7098D01*
D02*
G37*
G36*
X-27327D02*
X-28209D01*
Y7000D01*
X-28189Y6901D01*
X-28133Y6817D01*
X-28049Y6761D01*
X-27950Y6741D01*
X-27327D01*
Y7098D01*
D02*
G37*
G36*
X3905Y7208D02*
X3721Y7171D01*
X3564Y7067D01*
X3460Y6910D01*
X3423Y6726D01*
X3460Y6542D01*
X3564Y6385D01*
X3721Y6281D01*
X3905Y6244D01*
X4089Y6281D01*
X4246Y6385D01*
X4350Y6542D01*
X4387Y6726D01*
X4350Y6910D01*
X4246Y7067D01*
X4089Y7171D01*
X3905Y7208D01*
D02*
G37*
G36*
X2022Y5119D02*
X2000Y5114D01*
X1978Y5119D01*
X1809Y5097D01*
X1789Y5086D01*
X1767D01*
X1609Y5020D01*
X1593Y5005D01*
X1572Y4999D01*
X1436Y4895D01*
X1425Y4875D01*
X1406Y4864D01*
X1301Y4728D01*
X1296Y4707D01*
X1280Y4691D01*
X1214Y4533D01*
Y4511D01*
X1203Y4491D01*
X1181Y4322D01*
X1184Y4311D01*
X1179Y4300D01*
X1184Y4290D01*
X1181Y4279D01*
X1203Y4109D01*
X1214Y4090D01*
Y4067D01*
X1280Y3909D01*
X1296Y3894D01*
X1301Y3872D01*
X1406Y3736D01*
X1425Y3725D01*
X1436Y3706D01*
X1572Y3602D01*
X1593Y3596D01*
X1609Y3580D01*
X1767Y3515D01*
X1789D01*
X1809Y3503D01*
X1978Y3481D01*
X2000Y3487D01*
X2022Y3481D01*
X2191Y3503D01*
X2211Y3515D01*
X2233D01*
X2391Y3580D01*
X2407Y3596D01*
X2428Y3602D01*
X2564Y3706D01*
X2575Y3725D01*
X2594Y3736D01*
X2699Y3872D01*
X2704Y3894D01*
X2720Y3909D01*
X2786Y4067D01*
Y4090D01*
X2797Y4109D01*
X2819Y4279D01*
X2816Y4290D01*
X2821Y4300D01*
X2816Y4311D01*
X2819Y4322D01*
X2797Y4491D01*
X2786Y4511D01*
Y4533D01*
X2720Y4691D01*
X2704Y4707D01*
X2699Y4728D01*
X2594Y4864D01*
X2575Y4875D01*
X2564Y4895D01*
X2428Y4999D01*
X2407Y5005D01*
X2391Y5020D01*
X2233Y5086D01*
X2211D01*
X2191Y5097D01*
X2022Y5119D01*
D02*
G37*
G36*
X127Y2753D02*
Y127D01*
X2753D01*
X2729Y432D01*
X2627Y854D01*
X2461Y1254D01*
X2235Y1624D01*
X1953Y1953D01*
X1624Y2235D01*
X1254Y2461D01*
X854Y2627D01*
X432Y2729D01*
X127Y2753D01*
D02*
G37*
G36*
X-127D02*
X-432Y2729D01*
X-854Y2627D01*
X-1254Y2461D01*
X-1624Y2235D01*
X-1953Y1953D01*
X-2235Y1624D01*
X-2461Y1254D01*
X-2627Y854D01*
X-2729Y432D01*
X-2753Y127D01*
X-127D01*
Y2753D01*
D02*
G37*
G36*
X-32Y6599D02*
X-465D01*
X-446Y6502D01*
X-319Y6312D01*
X-129Y6185D01*
X-32Y6166D01*
Y6599D01*
D02*
G37*
G36*
X-62844Y6603D02*
X-63814D01*
Y5633D01*
X-63653Y5654D01*
X-63384Y5766D01*
X-63153Y5943D01*
X-62976Y6173D01*
X-62865Y6442D01*
X-62844Y6603D01*
D02*
G37*
G36*
X-64068D02*
X-65038D01*
X-65016Y6442D01*
X-64905Y6173D01*
X-64728Y5943D01*
X-64498Y5766D01*
X-64229Y5654D01*
X-64068Y5633D01*
Y6603D01*
D02*
G37*
G36*
X-32Y7286D02*
X-129Y7267D01*
X-319Y7140D01*
X-446Y6950D01*
X-465Y6853D01*
X-32D01*
Y7286D01*
D02*
G37*
G36*
X4465Y7869D02*
X4032D01*
Y7436D01*
X4129Y7455D01*
X4319Y7582D01*
X4446Y7772D01*
X4465Y7869D01*
D02*
G37*
G36*
X3778D02*
X3345D01*
X3364Y7772D01*
X3491Y7582D01*
X3681Y7455D01*
X3778Y7436D01*
Y7869D01*
D02*
G37*
G36*
X-50690Y7769D02*
X-50873D01*
Y7327D01*
X-50431D01*
Y7510D01*
X-50451Y7609D01*
X-50507Y7693D01*
X-50591Y7749D01*
X-50690Y7769D01*
D02*
G37*
G36*
X-51327Y8773D02*
X-51984D01*
Y8200D01*
X-51964Y8101D01*
X-51908Y8017D01*
X-51824Y7961D01*
X-51725Y7941D01*
X-51327D01*
Y8773D01*
D02*
G37*
G36*
X5175Y8478D02*
X4991Y8441D01*
X4834Y8337D01*
X4730Y8180D01*
X4693Y7996D01*
X4730Y7812D01*
X4834Y7655D01*
X4991Y7551D01*
X5175Y7514D01*
X5359Y7551D01*
X5516Y7655D01*
X5620Y7812D01*
X5657Y7996D01*
X5620Y8180D01*
X5516Y8337D01*
X5359Y8441D01*
X5175Y8478D01*
D02*
G37*
G36*
X95D02*
X-89Y8441D01*
X-246Y8337D01*
X-350Y8180D01*
X-387Y7996D01*
X-350Y7812D01*
X-246Y7655D01*
X-89Y7551D01*
X95Y7514D01*
X279Y7551D01*
X436Y7655D01*
X540Y7812D01*
X577Y7996D01*
X540Y8180D01*
X436Y8337D01*
X279Y8441D01*
X95Y8478D01*
D02*
G37*
G36*
X5302Y7286D02*
Y6853D01*
X5735D01*
X5716Y6950D01*
X5589Y7140D01*
X5399Y7267D01*
X5302Y7286D01*
D02*
G37*
G36*
X222D02*
Y6853D01*
X655D01*
X636Y6950D01*
X509Y7140D01*
X319Y7267D01*
X222Y7286D01*
D02*
G37*
G36*
X5048Y7286D02*
X4951Y7267D01*
X4761Y7140D01*
X4634Y6950D01*
X4615Y6853D01*
X5048D01*
Y7286D01*
D02*
G37*
G36*
X-51127Y7769D02*
X-51310D01*
X-51409Y7749D01*
X-51493Y7693D01*
X-51549Y7609D01*
X-51569Y7510D01*
Y7327D01*
X-51127D01*
Y7769D01*
D02*
G37*
G36*
X-63814Y7827D02*
Y6857D01*
X-62844D01*
X-62865Y7018D01*
X-62976Y7287D01*
X-63153Y7517D01*
X-63384Y7694D01*
X-63653Y7806D01*
X-63814Y7827D01*
D02*
G37*
G36*
X-64068D02*
X-64229Y7806D01*
X-64498Y7694D01*
X-64728Y7517D01*
X-64905Y7287D01*
X-65016Y7018D01*
X-65038Y6857D01*
X-64068D01*
Y7827D01*
D02*
G37*
G36*
X-1302Y16759D02*
X-1735D01*
X-1716Y16662D01*
X-1589Y16472D01*
X-1399Y16345D01*
X-1302Y16326D01*
Y16759D01*
D02*
G37*
G36*
X-62844Y16803D02*
X-63814D01*
Y15833D01*
X-63653Y15854D01*
X-63384Y15966D01*
X-63153Y16143D01*
X-62976Y16373D01*
X-62865Y16642D01*
X-62844Y16803D01*
D02*
G37*
G36*
X-64068D02*
X-65038D01*
X-65016Y16642D01*
X-64905Y16373D01*
X-64728Y16143D01*
X-64498Y15966D01*
X-64229Y15854D01*
X-64068Y15833D01*
Y16803D01*
D02*
G37*
G36*
X-1048Y17446D02*
Y17013D01*
X-615D01*
X-634Y17110D01*
X-761Y17300D01*
X-951Y17427D01*
X-1048Y17446D01*
D02*
G37*
G36*
X-1302Y17446D02*
X-1399Y17427D01*
X-1589Y17300D01*
X-1716Y17110D01*
X-1735Y17013D01*
X-1302D01*
Y17446D01*
D02*
G37*
G36*
X-615Y16759D02*
X-1048D01*
Y16326D01*
X-951Y16345D01*
X-761Y16472D01*
X-634Y16662D01*
X-615Y16759D01*
D02*
G37*
G36*
X655Y15489D02*
X222D01*
Y15056D01*
X319Y15075D01*
X509Y15202D01*
X636Y15392D01*
X655Y15489D01*
D02*
G37*
G36*
X-32D02*
X-465D01*
X-446Y15392D01*
X-319Y15202D01*
X-129Y15075D01*
X-32Y15056D01*
Y15489D01*
D02*
G37*
G36*
X-63814Y15447D02*
Y14477D01*
X-62844D01*
X-62865Y14638D01*
X-62976Y14907D01*
X-63153Y15137D01*
X-63384Y15314D01*
X-63653Y15426D01*
X-63814Y15447D01*
D02*
G37*
G36*
X222Y16176D02*
Y15743D01*
X655D01*
X636Y15840D01*
X509Y16030D01*
X319Y16157D01*
X222Y16176D01*
D02*
G37*
G36*
X-32Y16176D02*
X-129Y16157D01*
X-319Y16030D01*
X-446Y15840D01*
X-465Y15743D01*
X-32D01*
Y16176D01*
D02*
G37*
G36*
X5735Y15489D02*
X5302D01*
Y15056D01*
X5399Y15075D01*
X5589Y15202D01*
X5716Y15392D01*
X5735Y15489D01*
D02*
G37*
G36*
X5302Y17446D02*
Y17013D01*
X5735D01*
X5716Y17110D01*
X5589Y17300D01*
X5399Y17427D01*
X5302Y17446D01*
D02*
G37*
G36*
X-8500Y18644D02*
X-8708Y18602D01*
X-8885Y18485D01*
X-8908Y18450D01*
X-9201D01*
X-9208Y18467D01*
X-9325Y18515D01*
X-10075D01*
X-10192Y18467D01*
X-10240Y18350D01*
Y17850D01*
X-10192Y17733D01*
X-10075Y17685D01*
X-9325D01*
X-9208Y17733D01*
X-9201Y17750D01*
X-8908D01*
X-8885Y17715D01*
X-8708Y17598D01*
X-8500Y17556D01*
X-8292Y17598D01*
X-8115Y17715D01*
X-7998Y17892D01*
X-7956Y18100D01*
X-7998Y18308D01*
X-8115Y18485D01*
X-8292Y18602D01*
X-8500Y18644D01*
D02*
G37*
G36*
X-55224Y19343D02*
X-56194D01*
Y18373D01*
X-56033Y18394D01*
X-55764Y18506D01*
X-55533Y18683D01*
X-55356Y18913D01*
X-55245Y19182D01*
X-55224Y19343D01*
D02*
G37*
G36*
X-56448D02*
X-57418D01*
X-57396Y19182D01*
X-57285Y18913D01*
X-57108Y18683D01*
X-56878Y18506D01*
X-56609Y18394D01*
X-56448Y18373D01*
Y19343D01*
D02*
G37*
G36*
X-32Y19299D02*
X-465D01*
X-446Y19202D01*
X-319Y19012D01*
X-129Y18885D01*
X-32Y18866D01*
Y19299D01*
D02*
G37*
G36*
X-45290Y18919D02*
X-45473D01*
Y18497D01*
X-45031D01*
Y18660D01*
X-45051Y18759D01*
X-45107Y18843D01*
X-45191Y18899D01*
X-45290Y18919D01*
D02*
G37*
G36*
X-45727D02*
X-45910D01*
X-46009Y18899D01*
X-46093Y18843D01*
X-46149Y18759D01*
X-46169Y18660D01*
Y18497D01*
X-45727D01*
Y18919D01*
D02*
G37*
G36*
X-51127Y17969D02*
X-51310D01*
X-51409Y17949D01*
X-51493Y17893D01*
X-51549Y17809D01*
X-51569Y17710D01*
Y17527D01*
X-51127D01*
Y17969D01*
D02*
G37*
G36*
X-63814Y18027D02*
Y17057D01*
X-62844D01*
X-62865Y17218D01*
X-62976Y17487D01*
X-63153Y17717D01*
X-63384Y17894D01*
X-63653Y18006D01*
X-63814Y18027D01*
D02*
G37*
G36*
X-64068D02*
X-64229Y18006D01*
X-64498Y17894D01*
X-64728Y17717D01*
X-64905Y17487D01*
X-65016Y17218D01*
X-65038Y17057D01*
X-64068D01*
Y18027D01*
D02*
G37*
G36*
X-50416Y18973D02*
X-51073D01*
Y18141D01*
X-50675D01*
X-50576Y18161D01*
X-50492Y18217D01*
X-50436Y18301D01*
X-50416Y18400D01*
Y18973D01*
D02*
G37*
G36*
X-51327D02*
X-51984D01*
Y18400D01*
X-51964Y18301D01*
X-51908Y18217D01*
X-51824Y18161D01*
X-51725Y18141D01*
X-51327D01*
Y18973D01*
D02*
G37*
G36*
X-50690Y17969D02*
X-50873D01*
Y17527D01*
X-50431D01*
Y17710D01*
X-50451Y17809D01*
X-50507Y17893D01*
X-50591Y17949D01*
X-50690Y17969D01*
D02*
G37*
G36*
X-64068Y15447D02*
X-64229Y15426D01*
X-64498Y15314D01*
X-64728Y15137D01*
X-64905Y14907D01*
X-65016Y14638D01*
X-65038Y14477D01*
X-64068D01*
Y15447D01*
D02*
G37*
G36*
X-32Y12366D02*
X-129Y12347D01*
X-319Y12220D01*
X-446Y12030D01*
X-465Y11933D01*
X-32D01*
Y12366D01*
D02*
G37*
G36*
X3905Y12288D02*
X3721Y12251D01*
X3564Y12147D01*
X3460Y11990D01*
X3423Y11806D01*
X3460Y11622D01*
X3564Y11465D01*
X3721Y11361D01*
X3905Y11324D01*
X4089Y11361D01*
X4246Y11465D01*
X4350Y11622D01*
X4387Y11806D01*
X4350Y11990D01*
X4246Y12147D01*
X4089Y12251D01*
X3905Y12288D01*
D02*
G37*
G36*
X-1175D02*
X-1359Y12251D01*
X-1516Y12147D01*
X-1620Y11990D01*
X-1657Y11806D01*
X-1620Y11622D01*
X-1516Y11465D01*
X-1359Y11361D01*
X-1175Y11324D01*
X-991Y11361D01*
X-834Y11465D01*
X-730Y11622D01*
X-693Y11806D01*
X-730Y11990D01*
X-834Y12147D01*
X-991Y12251D01*
X-1175Y12288D01*
D02*
G37*
G36*
X5302Y12366D02*
Y11933D01*
X5735D01*
X5716Y12030D01*
X5589Y12220D01*
X5399Y12347D01*
X5302Y12366D01*
D02*
G37*
G36*
X222D02*
Y11933D01*
X655D01*
X636Y12030D01*
X509Y12220D01*
X319Y12347D01*
X222Y12366D01*
D02*
G37*
G36*
X5048Y12366D02*
X4951Y12347D01*
X4761Y12220D01*
X4634Y12030D01*
X4615Y11933D01*
X5048D01*
Y12366D01*
D02*
G37*
G36*
X5735Y11679D02*
X5175D01*
X4615D01*
X4634Y11582D01*
X4761Y11392D01*
X4951Y11265D01*
X5100Y11236D01*
Y11106D01*
X4951Y11077D01*
X4761Y10950D01*
X4634Y10760D01*
X4615Y10663D01*
X5175D01*
X5735D01*
X5716Y10760D01*
X5589Y10950D01*
X5399Y11077D01*
X5250Y11106D01*
Y11236D01*
X5399Y11265D01*
X5589Y11392D01*
X5716Y11582D01*
X5735Y11679D01*
D02*
G37*
G36*
X-28377Y11069D02*
X-28560D01*
X-28659Y11049D01*
X-28743Y10993D01*
X-28799Y10909D01*
X-28819Y10810D01*
Y10627D01*
X-28377D01*
Y11069D01*
D02*
G37*
G36*
X655Y11679D02*
X95D01*
X-465D01*
X-446Y11582D01*
X-319Y11392D01*
X-129Y11265D01*
X20Y11236D01*
Y11106D01*
X-129Y11077D01*
X-319Y10950D01*
X-446Y10760D01*
X-465Y10663D01*
X95D01*
Y10536D01*
D01*
Y10663D01*
X655D01*
X636Y10760D01*
X509Y10950D01*
X319Y11077D01*
X170Y11106D01*
Y11236D01*
X319Y11265D01*
X509Y11392D01*
X636Y11582D01*
X655Y11679D01*
D02*
G37*
G36*
X-51597Y11169D02*
X-51760D01*
X-51859Y11149D01*
X-51943Y11093D01*
X-51999Y11009D01*
X-52019Y10910D01*
Y10727D01*
X-51597D01*
Y11169D01*
D02*
G37*
G36*
X-29566Y11189D02*
Y10693D01*
X-29070D01*
X-29094Y10814D01*
X-29235Y11024D01*
X-29445Y11165D01*
X-29566Y11189D01*
D02*
G37*
G36*
X-29820D02*
X-29940Y11165D01*
X-30150Y11024D01*
X-30291Y10814D01*
X-30315Y10693D01*
X-29820D01*
Y11189D01*
D02*
G37*
G36*
X-56321Y15361D02*
X-56582Y15327D01*
X-56826Y15226D01*
X-57036Y15065D01*
X-57196Y14856D01*
X-57297Y14612D01*
X-57332Y14350D01*
X-57297Y14088D01*
X-57196Y13844D01*
X-57036Y13635D01*
X-56826Y13474D01*
X-56582Y13373D01*
X-56321Y13339D01*
X-56059Y13373D01*
X-55815Y13474D01*
X-55606Y13635D01*
X-55445Y13844D01*
X-55344Y14088D01*
X-55310Y14350D01*
X-55328Y14488D01*
X-55217Y14615D01*
X-51889D01*
X-51852Y14517D01*
X-51846Y14488D01*
X-51899Y14409D01*
X-51919Y14310D01*
Y14127D01*
X-51370D01*
Y13873D01*
X-51919D01*
Y13690D01*
X-51899Y13591D01*
X-51843Y13507D01*
X-51789Y13471D01*
X-51780Y13435D01*
Y13365D01*
X-51789Y13329D01*
X-51843Y13293D01*
X-51899Y13209D01*
X-51919Y13110D01*
Y12927D01*
X-51350D01*
Y12800D01*
X-51223D01*
Y12231D01*
X-51040D01*
X-50910Y12130D01*
X-50909Y12089D01*
X-50915Y12085D01*
X-50981Y11985D01*
X-55333D01*
X-55344Y12072D01*
X-55445Y12316D01*
X-55606Y12525D01*
X-55815Y12686D01*
X-56059Y12787D01*
X-56321Y12821D01*
X-56582Y12787D01*
X-56826Y12686D01*
X-57036Y12525D01*
X-57196Y12316D01*
X-57297Y12072D01*
X-57332Y11810D01*
X-57297Y11548D01*
X-57196Y11304D01*
X-57036Y11095D01*
X-56826Y10934D01*
X-56582Y10833D01*
X-56321Y10799D01*
X-56059Y10833D01*
X-55815Y10934D01*
X-55606Y11095D01*
X-55445Y11304D01*
X-55399Y11415D01*
X-50981D01*
X-50915Y11315D01*
X-50815Y11249D01*
Y11075D01*
X-50820D01*
X-50937Y11027D01*
X-50983Y11072D01*
X-50997Y11093D01*
X-51081Y11149D01*
X-51180Y11169D01*
X-51343D01*
Y10600D01*
Y10031D01*
X-51180D01*
X-51081Y10051D01*
X-50997Y10107D01*
X-50983Y10128D01*
X-50937Y10173D01*
X-50820Y10125D01*
X-50240D01*
X-50123Y10173D01*
X-50075Y10290D01*
Y10910D01*
X-50123Y11027D01*
X-50240Y11075D01*
X-50245D01*
Y11249D01*
X-50145Y11315D01*
X-50028Y11492D01*
X-49986Y11700D01*
X-50028Y11908D01*
X-50145Y12085D01*
X-50245Y12151D01*
Y12325D01*
X-50140D01*
X-50023Y12373D01*
X-50006Y12415D01*
X-49694D01*
X-49677Y12373D01*
X-49560Y12325D01*
X-48980D01*
X-48873Y12370D01*
X-48860Y12372D01*
X-48744Y12329D01*
Y11242D01*
X-49543Y10443D01*
X-49633Y10309D01*
X-49664Y10150D01*
Y9765D01*
X-49925D01*
X-50042Y9717D01*
X-50090Y9600D01*
Y8200D01*
X-50042Y8083D01*
X-49925Y8035D01*
X-49664D01*
Y7632D01*
X-49677Y7627D01*
X-49725Y7510D01*
Y6930D01*
X-49680Y6823D01*
X-49677Y6813D01*
Y6687D01*
X-49680Y6677D01*
X-49725Y6570D01*
Y6565D01*
X-50512D01*
X-50536Y6687D01*
X-50507Y6707D01*
X-50451Y6791D01*
X-50431Y6890D01*
Y7073D01*
X-51000D01*
X-51569D01*
Y6890D01*
X-51549Y6791D01*
X-51496Y6712D01*
X-51502Y6683D01*
X-51539Y6585D01*
X-55233D01*
X-55316Y6680D01*
X-55310Y6730D01*
X-55344Y6992D01*
X-55445Y7236D01*
X-55606Y7445D01*
X-55815Y7606D01*
X-56059Y7707D01*
X-56321Y7741D01*
X-56582Y7707D01*
X-56826Y7606D01*
X-57036Y7445D01*
X-57196Y7236D01*
X-57297Y6992D01*
X-57332Y6730D01*
X-57297Y6468D01*
X-57196Y6224D01*
X-57036Y6015D01*
X-56826Y5854D01*
X-56582Y5753D01*
X-56321Y5719D01*
X-56059Y5753D01*
X-55815Y5854D01*
X-55606Y6015D01*
X-55606Y6015D01*
X-51475D01*
Y5990D01*
X-51427Y5873D01*
X-51310Y5825D01*
X-50690D01*
X-50573Y5873D01*
X-50525Y5990D01*
Y5995D01*
X-49725D01*
Y5990D01*
X-49677Y5873D01*
X-49560Y5825D01*
X-48940D01*
X-48823Y5873D01*
X-48775Y5990D01*
Y5995D01*
X-47325D01*
Y5990D01*
X-47277Y5873D01*
X-47160Y5825D01*
X-46540D01*
X-46423Y5873D01*
X-46375Y5990D01*
Y6570D01*
X-46420Y6677D01*
X-46423Y6687D01*
Y6813D01*
X-46420Y6823D01*
X-46375Y6930D01*
Y6935D01*
X-46073D01*
X-46027Y6823D01*
X-45910Y6775D01*
X-45290D01*
X-45173Y6823D01*
X-45125Y6940D01*
Y6945D01*
X-41046D01*
X-40937Y6967D01*
X-40845Y7029D01*
X-40783Y7121D01*
X-40762Y7230D01*
Y9012D01*
X-40569D01*
Y7230D01*
Y5163D01*
X-40548Y5054D01*
X-40486Y4961D01*
X-40393Y4900D01*
X-40284Y4878D01*
X-39522D01*
X-39413Y4900D01*
X-39321Y4961D01*
X-39259Y5054D01*
X-39238Y5163D01*
Y6945D01*
X-32492D01*
X-32467Y6883D01*
X-32350Y6835D01*
X-30850D01*
X-30733Y6883D01*
X-30710Y6940D01*
X-29775D01*
X-29775Y6940D01*
X-29666Y6962D01*
X-29574Y7024D01*
X-29299Y7299D01*
X-29299Y7299D01*
X-29237Y7391D01*
X-29215Y7500D01*
X-29215Y7500D01*
Y8900D01*
X-29215Y8900D01*
X-29237Y9009D01*
X-29299Y9101D01*
X-29574Y9376D01*
X-29666Y9438D01*
X-29775Y9460D01*
X-29775Y9460D01*
X-30710D01*
X-30733Y9517D01*
X-30850Y9565D01*
X-32350D01*
X-32467Y9517D01*
X-32515Y9400D01*
Y8950D01*
X-32510Y8937D01*
X-32594Y8810D01*
X-33575D01*
X-33684Y8788D01*
X-33762Y8736D01*
X-33800Y8744D01*
X-34008Y8702D01*
X-34185Y8585D01*
X-34251Y8485D01*
X-36782D01*
X-39880Y11582D01*
X-39856Y11700D01*
X-39898Y11908D01*
X-40015Y12085D01*
X-40192Y12202D01*
X-40400Y12244D01*
X-40608Y12202D01*
X-40785Y12085D01*
X-40902Y11908D01*
X-40944Y11700D01*
X-40902Y11492D01*
X-40785Y11315D01*
X-40608Y11198D01*
X-40400Y11156D01*
X-40282Y11180D01*
X-37101Y7999D01*
X-37101Y7999D01*
X-37009Y7937D01*
X-36900Y7915D01*
X-36900Y7915D01*
X-34251D01*
X-34185Y7815D01*
X-34008Y7698D01*
X-33854Y7667D01*
X-33835Y7642D01*
X-33896Y7515D01*
X-39522D01*
X-39631Y7493D01*
X-39724Y7431D01*
X-39786Y7339D01*
X-39807Y7230D01*
Y5448D01*
X-40000D01*
Y7230D01*
Y9297D01*
X-40021Y9406D01*
X-40083Y9499D01*
X-40175Y9560D01*
X-40284Y9582D01*
X-41046D01*
X-41155Y9560D01*
X-41248Y9499D01*
X-41310Y9406D01*
X-41331Y9297D01*
Y7515D01*
X-45125D01*
Y7520D01*
X-45173Y7637D01*
X-45128Y7683D01*
X-45107Y7697D01*
X-45051Y7781D01*
X-45031Y7880D01*
Y8043D01*
X-46169D01*
Y7880D01*
X-46149Y7781D01*
X-46093Y7697D01*
X-46072Y7683D01*
X-46027Y7637D01*
X-46075Y7520D01*
Y7505D01*
X-46315D01*
Y13600D01*
X-46337Y13709D01*
X-46399Y13801D01*
X-46399Y13801D01*
X-46799Y14201D01*
X-46891Y14263D01*
X-47000Y14285D01*
X-47000Y14285D01*
X-47975D01*
Y14310D01*
X-48023Y14427D01*
X-48140Y14475D01*
X-48720D01*
X-48827Y14430D01*
X-48837Y14427D01*
X-48963D01*
X-48973Y14430D01*
X-49080Y14475D01*
X-49660D01*
X-49777Y14427D01*
X-49825Y14310D01*
Y14285D01*
X-49975D01*
Y14310D01*
X-50023Y14427D01*
X-50140Y14475D01*
X-50145Y14530D01*
X-50167Y14639D01*
X-50229Y14731D01*
X-50599Y15101D01*
X-50691Y15163D01*
X-50800Y15185D01*
X-50800Y15185D01*
X-55762D01*
X-55815Y15226D01*
X-56059Y15327D01*
X-56321Y15361D01*
D02*
G37*
G36*
X-1048Y13636D02*
Y13203D01*
X-615D01*
X-634Y13300D01*
X-761Y13490D01*
X-951Y13617D01*
X-1048Y13636D01*
D02*
G37*
G36*
X-1302Y13636D02*
X-1399Y13617D01*
X-1589Y13490D01*
X-1716Y13300D01*
X-1735Y13203D01*
X-1302D01*
Y13636D01*
D02*
G37*
G36*
X4465Y14219D02*
X3905D01*
X3345D01*
X3364Y14122D01*
X3491Y13932D01*
X3681Y13805D01*
X3830Y13776D01*
Y13646D01*
X3681Y13617D01*
X3491Y13490D01*
X3364Y13300D01*
X3345Y13203D01*
X3905D01*
Y13076D01*
D01*
Y13203D01*
X4465D01*
X4446Y13300D01*
X4319Y13490D01*
X4129Y13617D01*
X3980Y13646D01*
Y13776D01*
X4129Y13805D01*
X4319Y13932D01*
X4446Y14122D01*
X4465Y14219D01*
D02*
G37*
G36*
X5175Y14828D02*
X4991Y14791D01*
X4834Y14687D01*
X4730Y14530D01*
X4693Y14346D01*
X4730Y14162D01*
X4834Y14005D01*
X4991Y13901D01*
X5175Y13864D01*
X5359Y13901D01*
X5516Y14005D01*
X5620Y14162D01*
X5657Y14346D01*
X5620Y14530D01*
X5516Y14687D01*
X5359Y14791D01*
X5175Y14828D01*
D02*
G37*
G36*
X-62844Y14223D02*
X-63814D01*
Y13253D01*
X-63653Y13274D01*
X-63384Y13386D01*
X-63153Y13563D01*
X-62976Y13793D01*
X-62865Y14062D01*
X-62844Y14223D01*
D02*
G37*
G36*
X-64068D02*
X-65038D01*
X-65016Y14062D01*
X-64905Y13793D01*
X-64728Y13563D01*
X-64498Y13386D01*
X-64229Y13274D01*
X-64068Y13253D01*
Y14223D01*
D02*
G37*
G36*
X3778Y12949D02*
X3345D01*
X3364Y12852D01*
X3491Y12662D01*
X3681Y12535D01*
X3778Y12516D01*
Y12949D01*
D02*
G37*
G36*
X-1302D02*
X-1735D01*
X-1716Y12852D01*
X-1589Y12662D01*
X-1399Y12535D01*
X-1302Y12516D01*
Y12949D01*
D02*
G37*
G36*
X-51477Y12673D02*
X-51919D01*
Y12490D01*
X-51899Y12391D01*
X-51843Y12307D01*
X-51759Y12251D01*
X-51660Y12231D01*
X-51477D01*
Y12673D01*
D02*
G37*
G36*
X5175Y13558D02*
X4991Y13521D01*
X4834Y13417D01*
X4730Y13260D01*
X4693Y13076D01*
X4730Y12892D01*
X4834Y12735D01*
X4991Y12631D01*
X5175Y12594D01*
X5359Y12631D01*
X5516Y12735D01*
X5620Y12892D01*
X5657Y13076D01*
X5620Y13260D01*
X5516Y13417D01*
X5359Y13521D01*
X5175Y13558D01*
D02*
G37*
G36*
X4465Y12949D02*
X4032D01*
Y12516D01*
X4129Y12535D01*
X4319Y12662D01*
X4446Y12852D01*
X4465Y12949D01*
D02*
G37*
G36*
X-615D02*
X-1048D01*
Y12516D01*
X-951Y12535D01*
X-761Y12662D01*
X-634Y12852D01*
X-615Y12949D01*
D02*
G37*
G36*
X-25375Y48882D02*
Y48387D01*
X-24879D01*
X-24903Y48508D01*
X-25044Y48718D01*
X-25254Y48858D01*
X-25375Y48882D01*
D02*
G37*
G36*
X-25629D02*
X-25749Y48858D01*
X-25959Y48718D01*
X-26100Y48508D01*
X-26124Y48387D01*
X-25629D01*
Y48882D01*
D02*
G37*
G36*
X3905Y49118D02*
X3721Y49081D01*
X3564Y48977D01*
X3460Y48820D01*
X3423Y48636D01*
X3460Y48452D01*
X3564Y48295D01*
X3721Y48191D01*
X3905Y48154D01*
X4089Y48191D01*
X4246Y48295D01*
X4350Y48452D01*
X4387Y48636D01*
X4350Y48820D01*
X4246Y48977D01*
X4089Y49081D01*
X3905Y49118D01*
D02*
G37*
G36*
X-56448Y49793D02*
X-57418D01*
X-57396Y49632D01*
X-57285Y49363D01*
X-57108Y49133D01*
X-56878Y48956D01*
X-56609Y48844D01*
X-56448Y48823D01*
Y49793D01*
D02*
G37*
G36*
X-50416Y49423D02*
X-51073D01*
Y48591D01*
X-50675D01*
X-50576Y48611D01*
X-50492Y48667D01*
X-50436Y48751D01*
X-50416Y48850D01*
Y49423D01*
D02*
G37*
G36*
X-51327D02*
X-51984D01*
Y48850D01*
X-51964Y48751D01*
X-51908Y48667D01*
X-51824Y48611D01*
X-51725Y48591D01*
X-51327D01*
Y49423D01*
D02*
G37*
G36*
X-51127Y48419D02*
X-51310D01*
X-51409Y48399D01*
X-51493Y48343D01*
X-51549Y48259D01*
X-51569Y48160D01*
Y47977D01*
X-51127D01*
Y48419D01*
D02*
G37*
G36*
X-24879Y48133D02*
X-25375D01*
Y47638D01*
X-25254Y47662D01*
X-25044Y47802D01*
X-24903Y48012D01*
X-24879Y48133D01*
D02*
G37*
G36*
X-25629D02*
X-26124D01*
X-26100Y48012D01*
X-25959Y47802D01*
X-25749Y47662D01*
X-25629Y47638D01*
Y48133D01*
D02*
G37*
G36*
X95Y49118D02*
X-89Y49081D01*
X-246Y48977D01*
X-350Y48820D01*
X-387Y48636D01*
X-350Y48452D01*
X-246Y48295D01*
X-89Y48191D01*
X95Y48154D01*
X279Y48191D01*
X436Y48295D01*
X540Y48452D01*
X577Y48636D01*
X540Y48820D01*
X436Y48977D01*
X279Y49081D01*
X95Y49118D01*
D02*
G37*
G36*
X-1175D02*
X-1359Y49081D01*
X-1516Y48977D01*
X-1620Y48820D01*
X-1657Y48636D01*
X-1620Y48452D01*
X-1516Y48295D01*
X-1359Y48191D01*
X-1175Y48154D01*
X-991Y48191D01*
X-834Y48295D01*
X-730Y48452D01*
X-693Y48636D01*
X-730Y48820D01*
X-834Y48977D01*
X-991Y49081D01*
X-1175Y49118D01*
D02*
G37*
G36*
X-50690Y48419D02*
X-50873D01*
Y47977D01*
X-50431D01*
Y48160D01*
X-50451Y48259D01*
X-50507Y48343D01*
X-50591Y48399D01*
X-50690Y48419D01*
D02*
G37*
G36*
X-55224Y49793D02*
X-56194D01*
Y48823D01*
X-56033Y48844D01*
X-55764Y48956D01*
X-55533Y49133D01*
X-55356Y49363D01*
X-55245Y49632D01*
X-55224Y49793D01*
D02*
G37*
G36*
X-51327Y50509D02*
X-51725D01*
X-51824Y50489D01*
X-51908Y50433D01*
X-51964Y50349D01*
X-51984Y50250D01*
Y49677D01*
X-51327D01*
Y50509D01*
D02*
G37*
G36*
X-11777Y50084D02*
X-11800D01*
X-11899Y50064D01*
X-11983Y50008D01*
X-12039Y49924D01*
X-12059Y49825D01*
Y49527D01*
X-11777D01*
Y50084D01*
D02*
G37*
G36*
X5175Y50388D02*
X4991Y50351D01*
X4834Y50247D01*
X4730Y50090D01*
X4693Y49906D01*
X4730Y49722D01*
X4834Y49565D01*
X4991Y49461D01*
X5175Y49424D01*
X5359Y49461D01*
X5516Y49565D01*
X5620Y49722D01*
X5657Y49906D01*
X5620Y50090D01*
X5516Y50247D01*
X5359Y50351D01*
X5175Y50388D01*
D02*
G37*
G36*
X222Y50466D02*
Y50033D01*
X655D01*
X636Y50130D01*
X509Y50320D01*
X319Y50447D01*
X222Y50466D01*
D02*
G37*
G36*
X-32Y50466D02*
X-129Y50447D01*
X-319Y50320D01*
X-446Y50130D01*
X-465Y50033D01*
X-32D01*
Y50466D01*
D02*
G37*
G36*
X-50675Y50509D02*
X-51073D01*
Y49677D01*
X-50416D01*
Y50250D01*
X-50436Y50349D01*
X-50492Y50433D01*
X-50576Y50489D01*
X-50675Y50509D01*
D02*
G37*
G36*
X-45290Y49369D02*
X-45473D01*
Y48947D01*
X-45031D01*
Y49110D01*
X-45051Y49209D01*
X-45107Y49293D01*
X-45191Y49349D01*
X-45290Y49369D01*
D02*
G37*
G36*
X-45727D02*
X-45910D01*
X-46009Y49349D01*
X-46093Y49293D01*
X-46149Y49209D01*
X-46169Y49110D01*
Y48947D01*
X-45727D01*
Y49369D01*
D02*
G37*
G36*
X6600Y49944D02*
X6392Y49902D01*
X6215Y49785D01*
X6098Y49608D01*
X6056Y49400D01*
X6080Y49282D01*
X5718Y48921D01*
X5553D01*
X5516Y48977D01*
X5359Y49081D01*
X5175Y49118D01*
X4991Y49081D01*
X4834Y48977D01*
X4730Y48820D01*
X4693Y48636D01*
X4730Y48452D01*
X4834Y48295D01*
X4991Y48191D01*
X5175Y48154D01*
X5359Y48191D01*
X5516Y48295D01*
X5553Y48351D01*
X5836D01*
X5836Y48351D01*
X5945Y48373D01*
X6037Y48435D01*
X6482Y48880D01*
X6600Y48856D01*
X6808Y48898D01*
X6985Y49015D01*
X7102Y49192D01*
X7144Y49400D01*
X7102Y49608D01*
X6985Y49785D01*
X6808Y49902D01*
X6600Y49944D01*
D02*
G37*
G36*
X-1175Y50388D02*
X-1359Y50351D01*
X-1516Y50247D01*
X-1620Y50090D01*
X-1657Y49906D01*
X-1620Y49722D01*
X-1516Y49565D01*
X-1359Y49461D01*
X-1175Y49424D01*
X-991Y49461D01*
X-834Y49565D01*
X-730Y49722D01*
X-693Y49906D01*
X-730Y50090D01*
X-834Y50247D01*
X-991Y50351D01*
X-1175Y50388D01*
D02*
G37*
G36*
X655Y49779D02*
X222D01*
Y49346D01*
X319Y49365D01*
X509Y49492D01*
X636Y49682D01*
X655Y49779D01*
D02*
G37*
G36*
X-32D02*
X-465D01*
X-446Y49682D01*
X-319Y49492D01*
X-129Y49365D01*
X-32Y49346D01*
Y49779D01*
D02*
G37*
G36*
X-63814Y48477D02*
Y47507D01*
X-62844D01*
X-62865Y47668D01*
X-62976Y47937D01*
X-63153Y48167D01*
X-63384Y48344D01*
X-63653Y48456D01*
X-63814Y48477D01*
D02*
G37*
G36*
X2300Y47244D02*
X2092Y47202D01*
X1915Y47085D01*
X1798Y46908D01*
X1756Y46700D01*
X1798Y46492D01*
X1915Y46315D01*
X2092Y46198D01*
X2300Y46156D01*
X2418Y46180D01*
X2703Y45895D01*
X2703Y45895D01*
X2795Y45833D01*
X2904Y45811D01*
X3527D01*
X3564Y45755D01*
X3721Y45651D01*
X3905Y45614D01*
X4089Y45651D01*
X4246Y45755D01*
X4350Y45912D01*
X4387Y46096D01*
X4350Y46280D01*
X4246Y46437D01*
X4089Y46541D01*
X3905Y46578D01*
X3721Y46541D01*
X3564Y46437D01*
X3527Y46381D01*
X3022D01*
X2820Y46582D01*
X2844Y46700D01*
X2802Y46908D01*
X2685Y47085D01*
X2508Y47202D01*
X2300Y47244D01*
D02*
G37*
G36*
X-1175Y46578D02*
X-1359Y46541D01*
X-1516Y46437D01*
X-1620Y46280D01*
X-1657Y46096D01*
X-1620Y45912D01*
X-1516Y45755D01*
X-1359Y45651D01*
X-1175Y45614D01*
X-991Y45651D01*
X-834Y45755D01*
X-730Y45912D01*
X-693Y46096D01*
X-730Y46280D01*
X-834Y46437D01*
X-991Y46541D01*
X-1175Y46578D01*
D02*
G37*
G36*
X5735Y45969D02*
X5302D01*
Y45536D01*
X5399Y45555D01*
X5589Y45682D01*
X5716Y45872D01*
X5735Y45969D01*
D02*
G37*
G36*
X-32Y46656D02*
X-129Y46637D01*
X-319Y46510D01*
X-446Y46320D01*
X-465Y46223D01*
X-32D01*
Y46656D01*
D02*
G37*
G36*
X-24980Y47035D02*
X-25378D01*
Y46203D01*
X-24721D01*
Y46776D01*
X-24741Y46875D01*
X-24797Y46959D01*
X-24881Y47015D01*
X-24980Y47035D01*
D02*
G37*
G36*
X-25632D02*
X-26030D01*
X-26129Y47015D01*
X-26213Y46959D01*
X-26269Y46875D01*
X-26289Y46776D01*
Y46203D01*
X-25632D01*
Y47035D01*
D02*
G37*
G36*
X-24721Y45949D02*
X-25378D01*
Y45117D01*
X-24980D01*
X-24881Y45136D01*
X-24797Y45192D01*
X-24741Y45277D01*
X-24721Y45376D01*
Y45949D01*
D02*
G37*
G36*
X-25632D02*
X-26289D01*
Y45376D01*
X-26269Y45277D01*
X-26213Y45192D01*
X-26129Y45136D01*
X-26030Y45117D01*
X-25632D01*
Y45949D01*
D02*
G37*
G36*
X6600Y46044D02*
X6392Y46002D01*
X6215Y45885D01*
X6098Y45708D01*
X6056Y45500D01*
X6080Y45382D01*
X5808Y45111D01*
X5553D01*
X5516Y45167D01*
X5359Y45271D01*
X5175Y45308D01*
X4991Y45271D01*
X4834Y45167D01*
X4730Y45010D01*
X4693Y44826D01*
X4730Y44642D01*
X4834Y44485D01*
X4991Y44381D01*
X5175Y44344D01*
X5359Y44381D01*
X5516Y44485D01*
X5553Y44541D01*
X5926D01*
X5926Y44541D01*
X6035Y44563D01*
X6127Y44625D01*
X6482Y44980D01*
X6600Y44956D01*
X6808Y44998D01*
X6985Y45115D01*
X7102Y45292D01*
X7144Y45500D01*
X7102Y45708D01*
X6985Y45885D01*
X6808Y46002D01*
X6600Y46044D01*
D02*
G37*
G36*
X655Y45969D02*
X222D01*
Y45536D01*
X319Y45555D01*
X509Y45682D01*
X636Y45872D01*
X655Y45969D01*
D02*
G37*
G36*
X5048D02*
X4615D01*
X4634Y45872D01*
X4761Y45682D01*
X4951Y45555D01*
X5048Y45536D01*
Y45969D01*
D02*
G37*
G36*
X-32D02*
X-465D01*
X-446Y45872D01*
X-319Y45682D01*
X-129Y45555D01*
X-32Y45536D01*
Y45969D01*
D02*
G37*
G36*
X5735Y47239D02*
X5175D01*
X4615D01*
X4634Y47142D01*
X4761Y46952D01*
X4951Y46825D01*
X5100Y46796D01*
Y46666D01*
X4951Y46637D01*
X4761Y46510D01*
X4634Y46320D01*
X4615Y46223D01*
X5175D01*
X5735D01*
X5716Y46320D01*
X5589Y46510D01*
X5399Y46637D01*
X5250Y46666D01*
Y46796D01*
X5399Y46825D01*
X5589Y46952D01*
X5716Y47142D01*
X5735Y47239D01*
D02*
G37*
G36*
X5048Y47926D02*
X4951Y47907D01*
X4761Y47780D01*
X4634Y47590D01*
X4615Y47493D01*
X5048D01*
Y47926D01*
D02*
G37*
G36*
X-1302D02*
X-1399Y47907D01*
X-1589Y47780D01*
X-1716Y47590D01*
X-1735Y47493D01*
X-1302D01*
Y47926D01*
D02*
G37*
G36*
X3905Y47848D02*
X3721Y47811D01*
X3564Y47707D01*
X3460Y47550D01*
X3423Y47366D01*
X3460Y47182D01*
X3564Y47025D01*
X3721Y46921D01*
X3905Y46884D01*
X4089Y46921D01*
X4246Y47025D01*
X4350Y47182D01*
X4387Y47366D01*
X4350Y47550D01*
X4246Y47707D01*
X4089Y47811D01*
X3905Y47848D01*
D02*
G37*
G36*
X-64068Y48477D02*
X-64229Y48456D01*
X-64498Y48344D01*
X-64728Y48167D01*
X-64905Y47937D01*
X-65016Y47668D01*
X-65038Y47507D01*
X-64068D01*
Y48477D01*
D02*
G37*
G36*
X5302Y47926D02*
Y47493D01*
X5735D01*
X5716Y47590D01*
X5589Y47780D01*
X5399Y47907D01*
X5302Y47926D01*
D02*
G37*
G36*
X-1048D02*
Y47493D01*
X-615D01*
X-634Y47590D01*
X-761Y47780D01*
X-951Y47907D01*
X-1048Y47926D01*
D02*
G37*
G36*
X-62844Y47253D02*
X-63814D01*
Y46283D01*
X-63653Y46304D01*
X-63384Y46416D01*
X-63153Y46593D01*
X-62976Y46823D01*
X-62865Y47092D01*
X-62844Y47253D01*
D02*
G37*
G36*
X-64068D02*
X-65038D01*
X-65016Y47092D01*
X-64905Y46823D01*
X-64728Y46593D01*
X-64498Y46416D01*
X-64229Y46304D01*
X-64068Y46283D01*
Y47253D01*
D02*
G37*
G36*
X222Y46656D02*
Y46223D01*
X655D01*
X636Y46320D01*
X509Y46510D01*
X319Y46637D01*
X222Y46656D01*
D02*
G37*
G36*
X95Y47848D02*
X-89Y47811D01*
X-246Y47707D01*
X-350Y47550D01*
X-387Y47366D01*
X-350Y47182D01*
X-246Y47025D01*
X-89Y46921D01*
X95Y46884D01*
X279Y46921D01*
X436Y47025D01*
X540Y47182D01*
X577Y47366D01*
X540Y47550D01*
X436Y47707D01*
X279Y47811D01*
X95Y47848D01*
D02*
G37*
G36*
X-615Y47239D02*
X-1048D01*
Y46806D01*
X-951Y46825D01*
X-761Y46952D01*
X-634Y47142D01*
X-615Y47239D01*
D02*
G37*
G36*
X-1302D02*
X-1735D01*
X-1716Y47142D01*
X-1589Y46952D01*
X-1399Y46825D01*
X-1302Y46806D01*
Y47239D01*
D02*
G37*
G36*
Y54859D02*
X-1735D01*
X-1716Y54762D01*
X-1589Y54572D01*
X-1399Y54445D01*
X-1302Y54426D01*
Y54859D01*
D02*
G37*
G36*
X-62844Y54873D02*
X-63814D01*
Y53903D01*
X-63653Y53924D01*
X-63384Y54036D01*
X-63153Y54213D01*
X-62976Y54443D01*
X-62865Y54712D01*
X-62844Y54873D01*
D02*
G37*
G36*
X-64068D02*
X-65038D01*
X-65016Y54712D01*
X-64905Y54443D01*
X-64728Y54213D01*
X-64498Y54036D01*
X-64229Y53924D01*
X-64068Y53903D01*
Y54873D01*
D02*
G37*
G36*
X-63814Y56097D02*
Y55127D01*
X-62844D01*
X-62865Y55288D01*
X-62976Y55557D01*
X-63153Y55787D01*
X-63384Y55964D01*
X-63653Y56076D01*
X-63814Y56097D01*
D02*
G37*
G36*
X-64068D02*
X-64229Y56076D01*
X-64498Y55964D01*
X-64728Y55787D01*
X-64905Y55557D01*
X-65016Y55288D01*
X-65038Y55127D01*
X-64068D01*
Y56097D01*
D02*
G37*
G36*
X3778Y54859D02*
X3345D01*
X3364Y54762D01*
X3491Y54572D01*
X3681Y54445D01*
X3778Y54426D01*
Y54859D01*
D02*
G37*
G36*
X-32Y54276D02*
X-129Y54257D01*
X-319Y54130D01*
X-446Y53940D01*
X-465Y53843D01*
X-32D01*
Y54276D01*
D02*
G37*
G36*
X-1175Y54198D02*
X-1359Y54161D01*
X-1516Y54057D01*
X-1620Y53900D01*
X-1657Y53716D01*
X-1620Y53532D01*
X-1516Y53375D01*
X-1359Y53271D01*
X-1175Y53234D01*
X-991Y53271D01*
X-834Y53375D01*
X-730Y53532D01*
X-693Y53716D01*
X-730Y53900D01*
X-834Y54057D01*
X-991Y54161D01*
X-1175Y54198D01*
D02*
G37*
G36*
X5735Y53589D02*
X5302D01*
Y53156D01*
X5399Y53175D01*
X5589Y53302D01*
X5716Y53492D01*
X5735Y53589D01*
D02*
G37*
G36*
X5302Y54276D02*
Y53843D01*
X5735D01*
X5716Y53940D01*
X5589Y54130D01*
X5399Y54257D01*
X5302Y54276D01*
D02*
G37*
G36*
X222D02*
Y53843D01*
X655D01*
X636Y53940D01*
X509Y54130D01*
X319Y54257D01*
X222Y54276D01*
D02*
G37*
G36*
X5048Y54276D02*
X4951Y54257D01*
X4761Y54130D01*
X4634Y53940D01*
X4615Y53843D01*
X5048D01*
Y54276D01*
D02*
G37*
G36*
X5302Y56816D02*
Y56383D01*
X5735D01*
X5716Y56480D01*
X5589Y56670D01*
X5399Y56797D01*
X5302Y56816D01*
D02*
G37*
G36*
X-11580Y64869D02*
X-11743D01*
Y64300D01*
X-11870D01*
Y64173D01*
X-12419D01*
Y63990D01*
X-12399Y63891D01*
X-12343Y63807D01*
X-12259Y63751D01*
X-12212Y63741D01*
X-12224Y63614D01*
X-13009D01*
X-13047Y63741D01*
X-12877Y63855D01*
X-12737Y64065D01*
X-12713Y64186D01*
X-13957D01*
X-13933Y64065D01*
X-13793Y63855D01*
X-13623Y63741D01*
X-13661Y63614D01*
X-38800D01*
X-38959Y63583D01*
X-39093Y63493D01*
X-41972Y60614D01*
X-44110D01*
Y60925D01*
X-44158Y61042D01*
X-44275Y61090D01*
X-45425D01*
X-45542Y61042D01*
X-45590Y60925D01*
Y59475D01*
X-45542Y59358D01*
X-45425Y59310D01*
X-44275D01*
X-44158Y59358D01*
X-44110Y59475D01*
Y59786D01*
X-41800D01*
X-41641Y59817D01*
X-41507Y59907D01*
X-38628Y62786D01*
X-10176D01*
X-10151Y62659D01*
X-10192Y62642D01*
X-10240Y62525D01*
Y61646D01*
X-11698Y60188D01*
X-11787Y60054D01*
X-11819Y59895D01*
Y59014D01*
X-11907Y58882D01*
X-11948Y58674D01*
X-11907Y58466D01*
X-11789Y58289D01*
X-11613Y58172D01*
X-11405Y58130D01*
X-11196Y58172D01*
X-11020Y58289D01*
X-10902Y58466D01*
X-10861Y58674D01*
X-10902Y58882D01*
X-10990Y59014D01*
Y59724D01*
X-9804Y60910D01*
X-8925D01*
X-8808Y60958D01*
X-8760Y61075D01*
Y62525D01*
X-8808Y62642D01*
X-8849Y62659D01*
X-8824Y62786D01*
X-8472D01*
X-8381Y62695D01*
X-8392Y62642D01*
X-8440Y62525D01*
Y61075D01*
X-8392Y60958D01*
X-8275Y60910D01*
X-7125D01*
X-7008Y60958D01*
X-6960Y61075D01*
Y61408D01*
X-6843Y61457D01*
X-6114Y60728D01*
Y58300D01*
X-6083Y58141D01*
X-5993Y58007D01*
X-4995Y57009D01*
X-4861Y56920D01*
X-4702Y56888D01*
X-221D01*
X-182Y56761D01*
X-319Y56670D01*
X-446Y56480D01*
X-490Y56256D01*
X-488Y56243D01*
X-605Y56180D01*
X-697Y56272D01*
X-730Y56440D01*
X-834Y56597D01*
X-991Y56701D01*
X-1175Y56738D01*
X-1359Y56701D01*
X-1516Y56597D01*
X-1557Y56534D01*
X-6196D01*
X-6219Y56569D01*
X-6396Y56687D01*
X-6604Y56729D01*
X-6812Y56687D01*
X-6989Y56569D01*
X-7106Y56393D01*
X-7148Y56185D01*
X-7106Y55977D01*
X-6989Y55800D01*
X-6812Y55682D01*
X-6604Y55641D01*
X-6396Y55682D01*
X-6219Y55800D01*
X-6196Y55835D01*
X-1396D01*
X-1359Y55811D01*
X-1191Y55778D01*
X-1099Y55686D01*
X-1162Y55569D01*
X-1175Y55571D01*
X-1399Y55527D01*
X-1589Y55400D01*
X-1716Y55210D01*
X-1735Y55113D01*
X-1175D01*
Y54986D01*
X-1048D01*
Y54426D01*
X-951Y54445D01*
X-761Y54572D01*
X-634Y54762D01*
X-590Y54986D01*
X-592Y54999D01*
X-475Y55062D01*
X-383Y54970D01*
X-350Y54802D01*
X-246Y54645D01*
X-89Y54541D01*
X95Y54504D01*
X279Y54541D01*
X436Y54645D01*
X540Y54802D01*
X577Y54986D01*
X540Y55170D01*
X436Y55327D01*
X279Y55431D01*
X111Y55464D01*
X19Y55556D01*
X82Y55673D01*
X95Y55671D01*
X319Y55715D01*
X509Y55842D01*
X636Y56032D01*
X655Y56129D01*
X95D01*
Y56383D01*
X655D01*
X636Y56480D01*
X509Y56670D01*
X372Y56761D01*
X411Y56888D01*
X926D01*
X1986Y55828D01*
Y54132D01*
X2017Y53973D01*
X2107Y53839D01*
X2230Y53716D01*
X2107Y53593D01*
X2017Y53459D01*
X1986Y53300D01*
Y51600D01*
X2017Y51441D01*
X2107Y51307D01*
X2351Y51063D01*
X2313Y50974D01*
X2292Y50942D01*
X2092Y50902D01*
X1915Y50785D01*
X1798Y50608D01*
X1756Y50400D01*
X1798Y50192D01*
X1915Y50015D01*
X2092Y49898D01*
X2300Y49856D01*
X2418Y49880D01*
X2593Y49705D01*
X2685Y49643D01*
X2794Y49621D01*
X2794Y49621D01*
X3527D01*
X3564Y49565D01*
X3721Y49461D01*
X3905Y49424D01*
X4089Y49461D01*
X4246Y49565D01*
X4350Y49722D01*
X4387Y49906D01*
X4350Y50090D01*
X4246Y50247D01*
X4089Y50351D01*
X3905Y50388D01*
X3721Y50351D01*
X3564Y50247D01*
X3527Y50191D01*
X2912D01*
X2820Y50282D01*
X2844Y50400D01*
X2802Y50608D01*
X2781Y50641D01*
X2800Y50696D01*
X2853Y50762D01*
X3675D01*
X3721Y50731D01*
X3905Y50694D01*
X4089Y50731D01*
X4246Y50835D01*
X4350Y50992D01*
X4387Y51176D01*
X4350Y51360D01*
X4246Y51517D01*
X4089Y51621D01*
X3905Y51658D01*
X3721Y51621D01*
X3675Y51590D01*
X2996D01*
X2814Y51772D01*
Y53128D01*
X2988Y53302D01*
X3675D01*
X3721Y53271D01*
X3905Y53234D01*
X4089Y53271D01*
X4246Y53375D01*
X4350Y53532D01*
X4387Y53716D01*
X4350Y53900D01*
X4246Y54057D01*
X4089Y54161D01*
X3905Y54198D01*
X3721Y54161D01*
X3675Y54130D01*
X2988D01*
X2814Y54304D01*
Y55828D01*
X2872Y55886D01*
X3609D01*
X3721Y55811D01*
X3775Y55800D01*
X3879Y55696D01*
X3838Y55558D01*
X3681Y55527D01*
X3491Y55400D01*
X3364Y55210D01*
X3345Y55113D01*
X3905D01*
Y54986D01*
X4032D01*
Y54426D01*
X4129Y54445D01*
X4319Y54572D01*
X4446Y54762D01*
X4477Y54919D01*
X4615Y54960D01*
X4719Y54856D01*
X4730Y54802D01*
X4834Y54645D01*
X4991Y54541D01*
X5175Y54504D01*
X5359Y54541D01*
X5516Y54645D01*
X5620Y54802D01*
X5657Y54986D01*
X5620Y55170D01*
X5516Y55327D01*
X5359Y55431D01*
X5305Y55442D01*
X5201Y55546D01*
X5242Y55684D01*
X5399Y55715D01*
X5589Y55842D01*
X5716Y56032D01*
X5735Y56129D01*
X5175D01*
Y56256D01*
X5048D01*
Y56816D01*
X4951Y56797D01*
X4761Y56670D01*
X4634Y56480D01*
X4603Y56323D01*
X4465Y56282D01*
X4361Y56386D01*
X4350Y56440D01*
X4246Y56597D01*
X4089Y56701D01*
X3905Y56738D01*
X3788Y56714D01*
X2700D01*
X2541Y56683D01*
X2407Y56593D01*
X2400Y56586D01*
X1391Y57595D01*
X1256Y57685D01*
X1098Y57717D01*
X-4531D01*
X-5286Y58472D01*
Y60900D01*
X-5317Y61059D01*
X-5407Y61193D01*
X-6507Y62293D01*
X-6641Y62383D01*
X-6800Y62414D01*
X-6960D01*
Y62525D01*
X-7008Y62642D01*
X-7125Y62690D01*
X-7286D01*
Y63641D01*
X-7183Y63683D01*
X-7135Y63800D01*
Y64600D01*
X-7183Y64717D01*
X-7300Y64765D01*
X-8100D01*
X-8217Y64717D01*
X-8265Y64600D01*
Y63800D01*
X-8236Y63731D01*
X-8278Y63655D01*
X-8314Y63614D01*
X-8686D01*
X-8759Y63741D01*
X-8735Y63800D01*
Y64600D01*
X-8783Y64717D01*
X-8900Y64765D01*
X-9700D01*
X-9817Y64717D01*
X-9859Y64614D01*
X-10477D01*
X-10523Y64727D01*
X-10640Y64775D01*
X-11220D01*
X-11337Y64727D01*
X-11383Y64772D01*
X-11397Y64793D01*
X-11481Y64849D01*
X-11580Y64869D01*
D02*
G37*
G36*
X-46075Y61090D02*
X-47225D01*
X-47342Y61042D01*
X-47390Y60925D01*
Y60614D01*
X-47660D01*
Y60900D01*
X-47708Y61017D01*
X-47825Y61065D01*
X-48875D01*
X-48992Y61017D01*
X-49040Y60900D01*
Y59500D01*
X-48992Y59383D01*
X-48875Y59335D01*
X-47825D01*
X-47708Y59383D01*
X-47660Y59500D01*
Y59786D01*
X-47390D01*
Y59475D01*
X-47342Y59358D01*
X-47225Y59310D01*
X-47064D01*
Y59165D01*
X-47102Y59108D01*
X-47144Y58900D01*
X-47102Y58692D01*
X-46985Y58515D01*
X-46808Y58398D01*
X-46600Y58356D01*
X-46392Y58398D01*
X-46215Y58515D01*
X-46098Y58692D01*
X-46056Y58900D01*
X-46098Y59108D01*
X-46148Y59183D01*
X-46080Y59310D01*
X-46075D01*
X-45958Y59358D01*
X-45910Y59475D01*
Y60925D01*
X-45958Y61042D01*
X-46075Y61090D01*
D02*
G37*
G36*
X-49625Y61159D02*
X-50023D01*
Y60327D01*
X-49366D01*
Y60900D01*
X-49386Y60999D01*
X-49442Y61083D01*
X-49526Y61139D01*
X-49625Y61159D01*
D02*
G37*
G36*
X-13208Y64935D02*
Y64440D01*
X-12713D01*
X-12737Y64561D01*
X-12877Y64771D01*
X-13087Y64911D01*
X-13208Y64935D01*
D02*
G37*
G36*
X-13462D02*
X-13583Y64911D01*
X-13793Y64771D01*
X-13933Y64561D01*
X-13957Y64440D01*
X-13462D01*
Y64935D01*
D02*
G37*
G36*
X-11997Y64869D02*
X-12160D01*
X-12259Y64849D01*
X-12343Y64793D01*
X-12399Y64709D01*
X-12419Y64610D01*
Y64427D01*
X-11997D01*
Y64869D01*
D02*
G37*
G36*
X-1026Y59501D02*
X-1048Y59495D01*
X-1070Y59501D01*
X-1239Y59479D01*
X-1259Y59467D01*
X-1281D01*
X-1439Y59402D01*
X-1455Y59386D01*
X-1476Y59380D01*
X-1612Y59276D01*
X-1623Y59257D01*
X-1642Y59246D01*
X-1747Y59110D01*
X-1752Y59088D01*
X-1768Y59073D01*
X-1834Y58915D01*
Y58892D01*
X-1845Y58873D01*
X-1867Y58703D01*
X-1864Y58692D01*
X-1869Y58682D01*
X-1864Y58671D01*
X-1867Y58660D01*
X-1845Y58491D01*
X-1834Y58471D01*
Y58449D01*
X-1768Y58291D01*
X-1752Y58275D01*
X-1747Y58253D01*
X-1642Y58118D01*
X-1623Y58107D01*
X-1612Y58087D01*
X-1476Y57983D01*
X-1455Y57977D01*
X-1439Y57962D01*
X-1281Y57896D01*
X-1259D01*
X-1239Y57885D01*
X-1070Y57863D01*
X-1048Y57868D01*
X-1026Y57863D01*
X-857Y57885D01*
X-837Y57896D01*
X-815D01*
X-657Y57962D01*
X-641Y57977D01*
X-620Y57983D01*
X-484Y58087D01*
X-473Y58107D01*
X-454Y58118D01*
X-349Y58253D01*
X-344Y58275D01*
X-328Y58291D01*
X-262Y58449D01*
Y58471D01*
X-251Y58491D01*
X-229Y58660D01*
X-232Y58671D01*
X-227Y58682D01*
X-232Y58692D01*
X-229Y58703D01*
X-251Y58873D01*
X-262Y58892D01*
Y58915D01*
X-328Y59073D01*
X-344Y59088D01*
X-349Y59110D01*
X-454Y59246D01*
X-473Y59257D01*
X-484Y59276D01*
X-620Y59380D01*
X-641Y59386D01*
X-657Y59402D01*
X-815Y59467D01*
X-837D01*
X-857Y59479D01*
X-1026Y59501D01*
D02*
G37*
G36*
X-49366Y60073D02*
X-50023D01*
Y59241D01*
X-49625D01*
X-49526Y59261D01*
X-49442Y59317D01*
X-49386Y59401D01*
X-49366Y59500D01*
Y60073D01*
D02*
G37*
G36*
X-50277D02*
X-50934D01*
Y59500D01*
X-50914Y59401D01*
X-50858Y59317D01*
X-50774Y59261D01*
X-50675Y59241D01*
X-50277D01*
Y60073D01*
D02*
G37*
G36*
Y61159D02*
X-50675D01*
X-50774Y61139D01*
X-50858Y61083D01*
X-50914Y60999D01*
X-50934Y60900D01*
Y60327D01*
X-50277D01*
Y61159D01*
D02*
G37*
G36*
X2753Y62873D02*
X127D01*
Y60247D01*
X432Y60271D01*
X854Y60373D01*
X1254Y60539D01*
X1624Y60765D01*
X1953Y61047D01*
X2235Y61376D01*
X2461Y61746D01*
X2627Y62146D01*
X2729Y62568D01*
X2753Y62873D01*
D02*
G37*
G36*
X-127D02*
X-2753D01*
X-2729Y62568D01*
X-2627Y62146D01*
X-2461Y61746D01*
X-2235Y61376D01*
X-1953Y61047D01*
X-1624Y60765D01*
X-1254Y60539D01*
X-854Y60373D01*
X-432Y60271D01*
X-127Y60247D01*
Y62873D01*
D02*
G37*
G36*
X655Y53589D02*
X222D01*
Y53156D01*
X319Y53175D01*
X509Y53302D01*
X636Y53492D01*
X655Y53589D01*
D02*
G37*
G36*
X95Y51658D02*
X-89Y51621D01*
X-246Y51517D01*
X-350Y51360D01*
X-387Y51176D01*
X-350Y50992D01*
X-246Y50835D01*
X-89Y50731D01*
X95Y50694D01*
X279Y50731D01*
X436Y50835D01*
X540Y50992D01*
X577Y51176D01*
X540Y51360D01*
X436Y51517D01*
X279Y51621D01*
X95Y51658D01*
D02*
G37*
G36*
X-51597Y51123D02*
X-52019D01*
Y50940D01*
X-51999Y50841D01*
X-51943Y50757D01*
X-51859Y50701D01*
X-51760Y50681D01*
X-51597D01*
Y51123D01*
D02*
G37*
G36*
X-10100Y51644D02*
X-10308Y51602D01*
X-10485Y51485D01*
X-10602Y51308D01*
X-10644Y51100D01*
X-10602Y50892D01*
X-10494Y50730D01*
X-10493Y50682D01*
X-10494Y50676D01*
X-10634Y50637D01*
X-10980Y50982D01*
X-10956Y51100D01*
X-10998Y51308D01*
X-11115Y51485D01*
X-11292Y51602D01*
X-11500Y51644D01*
X-11708Y51602D01*
X-11885Y51485D01*
X-12002Y51308D01*
X-12044Y51100D01*
X-12002Y50892D01*
X-11885Y50715D01*
X-11708Y50598D01*
X-11500Y50556D01*
X-11382Y50580D01*
X-11014Y50211D01*
X-11023Y50189D01*
Y49400D01*
X-11277D01*
Y50084D01*
X-11300D01*
X-11399Y50064D01*
X-11400Y50064D01*
X-11401Y50064D01*
X-11500Y50084D01*
X-11523D01*
Y49400D01*
X-11650D01*
Y49273D01*
X-12059D01*
Y48975D01*
X-12039Y48876D01*
X-11983Y48792D01*
X-11934Y48759D01*
Y48027D01*
X-10900D01*
X-9866D01*
Y48775D01*
X-9883Y48860D01*
X-9835Y48975D01*
Y49825D01*
X-9865Y49898D01*
Y50615D01*
X-9715Y50715D01*
X-9598Y50892D01*
X-9556Y51100D01*
X-9598Y51308D01*
X-9715Y51485D01*
X-9892Y51602D01*
X-10100Y51644D01*
D02*
G37*
G36*
X-1048Y51736D02*
Y51303D01*
X-615D01*
X-634Y51400D01*
X-761Y51590D01*
X-951Y51717D01*
X-1048Y51736D01*
D02*
G37*
G36*
X5048Y51736D02*
X4951Y51717D01*
X4761Y51590D01*
X4634Y51400D01*
X4615Y51303D01*
X5048D01*
Y51736D01*
D02*
G37*
G36*
X-1302D02*
X-1399Y51717D01*
X-1589Y51590D01*
X-1716Y51400D01*
X-1735Y51303D01*
X-1302D01*
Y51736D01*
D02*
G37*
G36*
Y51049D02*
X-1735D01*
X-1716Y50952D01*
X-1589Y50762D01*
X-1399Y50635D01*
X-1302Y50616D01*
Y51049D01*
D02*
G37*
G36*
X-56194Y51017D02*
Y50047D01*
X-55224D01*
X-55245Y50208D01*
X-55356Y50477D01*
X-55533Y50707D01*
X-55764Y50884D01*
X-56033Y50996D01*
X-56194Y51017D01*
D02*
G37*
G36*
X-56448D02*
X-56609Y50996D01*
X-56878Y50884D01*
X-57108Y50707D01*
X-57285Y50477D01*
X-57396Y50208D01*
X-57418Y50047D01*
X-56448D01*
Y51017D01*
D02*
G37*
G36*
X5735Y51049D02*
X5302D01*
Y50616D01*
X5399Y50635D01*
X5589Y50762D01*
X5716Y50952D01*
X5735Y51049D01*
D02*
G37*
G36*
X-615D02*
X-1048D01*
Y50616D01*
X-951Y50635D01*
X-761Y50762D01*
X-634Y50952D01*
X-615Y51049D01*
D02*
G37*
G36*
X5048D02*
X4615D01*
X4634Y50952D01*
X4761Y50762D01*
X4951Y50635D01*
X5048Y50616D01*
Y51049D01*
D02*
G37*
G36*
X5302Y51736D02*
Y51303D01*
X5735D01*
X5716Y51400D01*
X5589Y51590D01*
X5399Y51717D01*
X5302Y51736D01*
D02*
G37*
G36*
X-56321Y56011D02*
X-56582Y55977D01*
X-56826Y55876D01*
X-57036Y55715D01*
X-57196Y55506D01*
X-57297Y55262D01*
X-57332Y55000D01*
X-57297Y54738D01*
X-57196Y54494D01*
X-57036Y54285D01*
X-56826Y54124D01*
X-56582Y54023D01*
X-56321Y53989D01*
X-56059Y54023D01*
X-55815Y54124D01*
X-55606Y54285D01*
X-55445Y54494D01*
X-55344Y54738D01*
X-55310Y55000D01*
X-55328Y55138D01*
X-55217Y55265D01*
X-51889D01*
X-51852Y55167D01*
X-51846Y55138D01*
X-51899Y55059D01*
X-51919Y54960D01*
Y54777D01*
X-51370D01*
Y54523D01*
X-51919D01*
Y54340D01*
X-51899Y54241D01*
X-51843Y54157D01*
X-51789Y54121D01*
X-51780Y54085D01*
Y54015D01*
X-51789Y53979D01*
X-51843Y53943D01*
X-51899Y53859D01*
X-51919Y53760D01*
Y53577D01*
X-51350D01*
Y53450D01*
X-51223D01*
Y52881D01*
X-51040D01*
X-50910Y52780D01*
X-50909Y52739D01*
X-50915Y52735D01*
X-50981Y52635D01*
X-55333D01*
X-55344Y52722D01*
X-55445Y52966D01*
X-55606Y53175D01*
X-55815Y53336D01*
X-56059Y53437D01*
X-56321Y53471D01*
X-56582Y53437D01*
X-56826Y53336D01*
X-57036Y53175D01*
X-57196Y52966D01*
X-57297Y52722D01*
X-57332Y52460D01*
X-57297Y52198D01*
X-57196Y51954D01*
X-57036Y51745D01*
X-56826Y51584D01*
X-56582Y51483D01*
X-56321Y51449D01*
X-56059Y51483D01*
X-55815Y51584D01*
X-55606Y51745D01*
X-55445Y51954D01*
X-55399Y52065D01*
X-50981D01*
X-50915Y51965D01*
X-50815Y51899D01*
Y51725D01*
X-50820D01*
X-50937Y51677D01*
X-50983Y51722D01*
X-50997Y51743D01*
X-51081Y51799D01*
X-51180Y51819D01*
X-51343D01*
Y51250D01*
Y50681D01*
X-51180D01*
X-51081Y50701D01*
X-50997Y50757D01*
X-50983Y50778D01*
X-50937Y50823D01*
X-50820Y50775D01*
X-50240D01*
X-50123Y50823D01*
X-50075Y50940D01*
Y51560D01*
X-50123Y51677D01*
X-50240Y51725D01*
X-50245D01*
Y51899D01*
X-50145Y51965D01*
X-50028Y52142D01*
X-49986Y52350D01*
X-50028Y52558D01*
X-50145Y52735D01*
X-50245Y52801D01*
Y52975D01*
X-50140D01*
X-50023Y53023D01*
X-50006Y53065D01*
X-49694D01*
X-49677Y53023D01*
X-49560Y52975D01*
X-48980D01*
X-48873Y53020D01*
X-48860Y53022D01*
X-48744Y52979D01*
Y51892D01*
X-49543Y51093D01*
X-49633Y50959D01*
X-49664Y50800D01*
Y50415D01*
X-49925D01*
X-50042Y50367D01*
X-50090Y50250D01*
Y48850D01*
X-50042Y48733D01*
X-49925Y48685D01*
X-49664D01*
Y48282D01*
X-49677Y48277D01*
X-49725Y48160D01*
Y47580D01*
X-49680Y47473D01*
X-49677Y47463D01*
Y47337D01*
X-49680Y47327D01*
X-49725Y47220D01*
Y47215D01*
X-50512D01*
X-50536Y47337D01*
X-50507Y47357D01*
X-50451Y47441D01*
X-50431Y47540D01*
Y47723D01*
X-51000D01*
X-51569D01*
Y47540D01*
X-51549Y47441D01*
X-51496Y47362D01*
X-51502Y47333D01*
X-51539Y47235D01*
X-55233D01*
X-55316Y47330D01*
X-55310Y47380D01*
X-55344Y47642D01*
X-55445Y47886D01*
X-55606Y48095D01*
X-55815Y48256D01*
X-56059Y48357D01*
X-56321Y48391D01*
X-56582Y48357D01*
X-56826Y48256D01*
X-57036Y48095D01*
X-57196Y47886D01*
X-57297Y47642D01*
X-57332Y47380D01*
X-57297Y47118D01*
X-57196Y46874D01*
X-57036Y46665D01*
X-56826Y46504D01*
X-56582Y46403D01*
X-56321Y46369D01*
X-56059Y46403D01*
X-55815Y46504D01*
X-55606Y46665D01*
X-55606Y46665D01*
X-51475D01*
Y46640D01*
X-51427Y46523D01*
X-51310Y46475D01*
X-50690D01*
X-50573Y46523D01*
X-50525Y46640D01*
Y46645D01*
X-49725D01*
Y46640D01*
X-49677Y46523D01*
X-49560Y46475D01*
X-48940D01*
X-48823Y46523D01*
X-48775Y46640D01*
Y46645D01*
X-47325D01*
Y46640D01*
X-47277Y46523D01*
X-47160Y46475D01*
X-46540D01*
X-46423Y46523D01*
X-46375Y46640D01*
Y47220D01*
X-46420Y47327D01*
X-46423Y47337D01*
Y47463D01*
X-46420Y47473D01*
X-46375Y47580D01*
Y47585D01*
X-46073D01*
X-46027Y47473D01*
X-45910Y47425D01*
X-45290D01*
X-45173Y47473D01*
X-45125Y47590D01*
Y47595D01*
X-40423D01*
X-37185Y44357D01*
Y40700D01*
X-37185Y40700D01*
X-37163Y40591D01*
X-37101Y40499D01*
X-35151Y38549D01*
X-35151Y38549D01*
X-35059Y38487D01*
X-34950Y38465D01*
X-33418D01*
X-33001Y38049D01*
X-32909Y37987D01*
X-32800Y37965D01*
X-32800Y37965D01*
X-32733D01*
X-32672Y37877D01*
X-31950D01*
X-31263D01*
X-31269Y37908D01*
X-31359Y38041D01*
X-31405Y38072D01*
X-31365Y38132D01*
X-31342Y38250D01*
X-31365Y38368D01*
X-31432Y38468D01*
Y38532D01*
X-31365Y38632D01*
X-31342Y38750D01*
X-31342Y38752D01*
X-31252Y38842D01*
X-31250Y38842D01*
X-31132Y38865D01*
X-31072Y38905D01*
X-31041Y38859D01*
X-30908Y38769D01*
X-30877Y38763D01*
Y39450D01*
X-30623D01*
Y38763D01*
X-30592Y38769D01*
X-30459Y38859D01*
X-30428Y38905D01*
X-30368Y38865D01*
X-30250Y38842D01*
X-30132Y38865D01*
X-30032Y38932D01*
X-29968D01*
X-29868Y38865D01*
X-29750Y38842D01*
X-29632Y38865D01*
X-29532Y38932D01*
X-29468D01*
X-29368Y38865D01*
X-29250Y38842D01*
X-29132Y38865D01*
X-29032Y38932D01*
X-28968D01*
X-28868Y38865D01*
X-28750Y38842D01*
X-28632Y38865D01*
X-28572Y38905D01*
X-28541Y38859D01*
X-28408Y38769D01*
X-28377Y38763D01*
Y39450D01*
Y40172D01*
X-28465Y40233D01*
Y42150D01*
X-28465Y42150D01*
X-28487Y42259D01*
X-28549Y42351D01*
X-28771Y42574D01*
X-28798Y42708D01*
X-28915Y42885D01*
X-29092Y43002D01*
X-29300Y43044D01*
X-29508Y43002D01*
X-29685Y42885D01*
X-29802Y42708D01*
X-29844Y42500D01*
X-29802Y42292D01*
X-29685Y42115D01*
X-29508Y41998D01*
X-29300Y41956D01*
X-29162Y41984D01*
X-29039Y41898D01*
X-29035Y41889D01*
Y41745D01*
X-29086Y41705D01*
X-29162Y41667D01*
X-29250Y41685D01*
X-30300D01*
X-30300Y41685D01*
X-30409Y41663D01*
X-30501Y41601D01*
X-30501Y41601D01*
X-30700Y41403D01*
X-31282Y41984D01*
X-31374Y42046D01*
X-31417Y42055D01*
X-31492Y42168D01*
X-31669Y42285D01*
X-31877Y42327D01*
X-32085Y42285D01*
X-32262Y42168D01*
X-32379Y41991D01*
X-32421Y41783D01*
X-32379Y41575D01*
X-32262Y41398D01*
X-32085Y41281D01*
X-31877Y41239D01*
X-31669Y41281D01*
X-31498Y41395D01*
X-30985Y40882D01*
Y40400D01*
X-30985Y40400D01*
X-30963Y40291D01*
X-30949Y40270D01*
X-30952Y40235D01*
X-31037Y40137D01*
X-31082Y40135D01*
X-31488Y40541D01*
X-31581Y40603D01*
X-31690Y40625D01*
X-31690Y40625D01*
X-32302D01*
X-32307Y40633D01*
X-32654Y40980D01*
Y41179D01*
X-32702Y41295D01*
X-32714Y41300D01*
Y42595D01*
X-32137Y43172D01*
X-27824D01*
Y42997D01*
X-27775Y42880D01*
X-27763Y42875D01*
Y42261D01*
X-27858Y42118D01*
X-27900Y41910D01*
X-27858Y41702D01*
X-27763Y41559D01*
Y41049D01*
X-27731Y40890D01*
X-27642Y40756D01*
X-27593Y40707D01*
X-27535Y40668D01*
Y40111D01*
X-27662Y40041D01*
X-27750Y40058D01*
X-27868Y40035D01*
X-27928Y39995D01*
X-27959Y40041D01*
X-28092Y40131D01*
X-28123Y40137D01*
Y39450D01*
Y38763D01*
X-28092Y38769D01*
X-27959Y38859D01*
X-27928Y38905D01*
X-27868Y38865D01*
X-27750Y38842D01*
X-27632Y38865D01*
X-27532Y38932D01*
X-27468D01*
X-27368Y38865D01*
X-27250Y38842D01*
X-27132Y38865D01*
X-27032Y38932D01*
X-26968D01*
X-26868Y38865D01*
X-26750Y38842D01*
X-26632Y38865D01*
X-26532Y38932D01*
X-26468D01*
X-26368Y38865D01*
X-26250Y38842D01*
X-26132Y38865D01*
X-26032Y38932D01*
X-25968D01*
X-25868Y38865D01*
X-25750Y38842D01*
X-25748Y38842D01*
X-25658Y38752D01*
X-25658Y38750D01*
X-25635Y38632D01*
X-25568Y38532D01*
Y38468D01*
X-25635Y38368D01*
X-25658Y38250D01*
X-25635Y38132D01*
X-25609Y38093D01*
X-25578Y38000D01*
X-25609Y37907D01*
X-25635Y37868D01*
X-25658Y37750D01*
X-25635Y37632D01*
X-25568Y37532D01*
Y37468D01*
X-25635Y37368D01*
X-25658Y37250D01*
X-25635Y37132D01*
X-25568Y37032D01*
Y36968D01*
X-25635Y36868D01*
X-25658Y36750D01*
X-25635Y36632D01*
X-25595Y36572D01*
X-25641Y36541D01*
X-25731Y36408D01*
X-25737Y36377D01*
X-25050D01*
Y36123D01*
X-25737D01*
X-25731Y36092D01*
X-25669Y36000D01*
X-25731Y35908D01*
X-25737Y35877D01*
X-25050D01*
Y35623D01*
X-25737D01*
X-25731Y35592D01*
X-25641Y35459D01*
X-25595Y35428D01*
X-25635Y35368D01*
X-25658Y35250D01*
X-25635Y35132D01*
X-25568Y35032D01*
Y34968D01*
X-25635Y34868D01*
X-25658Y34750D01*
X-25635Y34632D01*
X-25568Y34532D01*
Y34468D01*
X-25635Y34368D01*
X-25658Y34250D01*
X-25635Y34132D01*
X-25568Y34032D01*
X-25609Y33907D01*
X-25635Y33868D01*
X-25658Y33750D01*
X-25635Y33632D01*
X-25568Y33532D01*
Y33468D01*
X-25635Y33368D01*
X-25658Y33250D01*
X-25658Y33248D01*
X-25748Y33158D01*
X-25750Y33158D01*
X-25868Y33135D01*
X-25968Y33068D01*
X-26032D01*
X-26132Y33135D01*
X-26250Y33158D01*
X-26368Y33135D01*
X-26468Y33068D01*
X-26532D01*
X-26632Y33135D01*
X-26750Y33158D01*
X-26868Y33135D01*
X-26968Y33068D01*
X-27032D01*
X-27132Y33135D01*
X-27250Y33158D01*
X-27368Y33135D01*
X-27468Y33068D01*
X-27532D01*
X-27632Y33135D01*
X-27750Y33158D01*
X-27868Y33135D01*
X-27928Y33095D01*
X-27959Y33141D01*
X-28092Y33231D01*
X-28123Y33237D01*
Y32550D01*
X-28377D01*
Y33237D01*
X-28408Y33231D01*
X-28541Y33141D01*
X-28572Y33095D01*
X-28632Y33135D01*
X-28750Y33158D01*
X-28868Y33135D01*
X-28968Y33068D01*
X-29032D01*
X-29132Y33135D01*
X-29250Y33158D01*
X-29368Y33135D01*
X-29468Y33068D01*
X-29532D01*
X-29632Y33135D01*
X-29750Y33158D01*
X-29868Y33135D01*
X-29968Y33068D01*
X-30032D01*
X-30132Y33135D01*
X-30250Y33158D01*
X-30368Y33135D01*
X-30428Y33095D01*
X-30459Y33141D01*
X-30592Y33231D01*
X-30623Y33237D01*
Y32550D01*
Y31828D01*
X-30535Y31767D01*
Y30305D01*
X-30621Y30269D01*
X-30662Y30260D01*
X-30831Y30373D01*
X-31039Y30414D01*
X-31247Y30373D01*
X-31423Y30255D01*
X-31541Y30079D01*
X-31583Y29870D01*
X-31541Y29662D01*
X-31423Y29486D01*
X-31247Y29368D01*
X-31065Y29332D01*
X-30675Y28942D01*
Y28580D01*
X-30627Y28463D01*
X-30672Y28417D01*
X-30693Y28403D01*
X-30749Y28319D01*
X-30769Y28220D01*
Y28057D01*
X-30200D01*
X-29631D01*
Y28220D01*
X-29651Y28319D01*
X-29707Y28403D01*
X-29728Y28417D01*
X-29773Y28463D01*
X-29725Y28580D01*
Y28972D01*
X-29412Y29285D01*
X-29285Y29233D01*
Y29051D01*
X-29385Y28985D01*
X-29502Y28808D01*
X-29544Y28600D01*
X-29502Y28392D01*
X-29385Y28215D01*
X-29208Y28098D01*
X-29000Y28056D01*
X-28792Y28098D01*
X-28615Y28215D01*
X-28498Y28392D01*
X-28456Y28600D01*
X-28498Y28808D01*
X-28615Y28985D01*
X-28715Y29051D01*
Y29182D01*
X-28232Y29665D01*
X-28114Y29617D01*
Y27282D01*
X-28127Y27277D01*
X-28132Y27264D01*
X-28350D01*
X-28509Y27233D01*
X-28643Y27143D01*
X-28772Y27014D01*
X-31128D01*
X-31836Y27722D01*
Y29760D01*
X-31748Y29892D01*
X-31706Y30100D01*
X-31748Y30308D01*
X-31836Y30440D01*
Y30668D01*
X-31823Y30673D01*
X-31775Y30790D01*
Y30880D01*
X-31741Y30887D01*
X-31649Y30949D01*
X-31049Y31549D01*
X-30987Y31641D01*
X-30965Y31750D01*
X-30965Y31750D01*
Y31767D01*
X-30877Y31828D01*
Y32550D01*
Y33237D01*
X-30908Y33231D01*
X-31041Y33141D01*
X-31072Y33095D01*
X-31132Y33135D01*
X-31250Y33158D01*
X-31252Y33158D01*
X-31342Y33248D01*
X-31342Y33250D01*
X-31365Y33368D01*
X-31432Y33468D01*
Y33532D01*
X-31365Y33632D01*
X-31342Y33750D01*
X-31365Y33868D01*
X-31405Y33928D01*
X-31359Y33959D01*
X-31269Y34092D01*
X-31263Y34123D01*
X-31950D01*
X-32672D01*
X-32733Y34035D01*
X-33050D01*
X-33050Y34035D01*
X-33159Y34013D01*
X-33251Y33951D01*
X-33751Y33451D01*
X-33751Y33451D01*
X-36001Y31201D01*
X-36063Y31109D01*
X-36085Y31000D01*
X-36085Y31000D01*
Y20548D01*
X-38918Y17715D01*
X-45125D01*
Y17720D01*
X-45173Y17837D01*
X-45128Y17883D01*
X-45107Y17897D01*
X-45051Y17981D01*
X-45031Y18080D01*
Y18243D01*
X-46169D01*
Y18080D01*
X-46149Y17981D01*
X-46093Y17897D01*
X-46072Y17883D01*
X-46027Y17837D01*
X-46075Y17720D01*
Y17705D01*
X-46315D01*
Y23800D01*
X-46337Y23909D01*
X-46399Y24001D01*
X-46399Y24001D01*
X-46799Y24401D01*
X-46891Y24463D01*
X-47000Y24485D01*
X-47000Y24485D01*
X-47975D01*
Y24510D01*
X-48023Y24627D01*
X-48140Y24675D01*
X-48720D01*
X-48827Y24630D01*
X-48837Y24627D01*
X-48963D01*
X-48973Y24630D01*
X-49080Y24675D01*
X-49660D01*
X-49777Y24627D01*
X-49825Y24510D01*
Y24485D01*
X-49975D01*
Y24510D01*
X-50023Y24627D01*
X-50140Y24675D01*
X-50145Y24730D01*
X-50167Y24839D01*
X-50229Y24931D01*
X-50599Y25301D01*
X-50691Y25363D01*
X-50800Y25385D01*
X-50800Y25385D01*
X-55762D01*
X-55815Y25426D01*
X-56059Y25527D01*
X-56321Y25561D01*
X-56582Y25527D01*
X-56826Y25426D01*
X-57036Y25265D01*
X-57196Y25056D01*
X-57297Y24812D01*
X-57332Y24550D01*
X-57297Y24288D01*
X-57196Y24044D01*
X-57036Y23835D01*
X-56826Y23674D01*
X-56582Y23573D01*
X-56321Y23539D01*
X-56059Y23573D01*
X-55815Y23674D01*
X-55606Y23835D01*
X-55445Y24044D01*
X-55344Y24288D01*
X-55310Y24550D01*
X-55328Y24688D01*
X-55217Y24815D01*
X-51889D01*
X-51852Y24717D01*
X-51846Y24688D01*
X-51899Y24609D01*
X-51919Y24510D01*
Y24327D01*
X-51370D01*
Y24073D01*
X-51919D01*
Y23890D01*
X-51899Y23791D01*
X-51843Y23707D01*
X-51789Y23671D01*
X-51780Y23635D01*
Y23565D01*
X-51789Y23529D01*
X-51843Y23493D01*
X-51899Y23409D01*
X-51919Y23310D01*
Y23127D01*
X-51350D01*
Y23000D01*
X-51223D01*
Y22431D01*
X-51040D01*
X-50910Y22330D01*
X-50909Y22289D01*
X-50915Y22285D01*
X-50981Y22185D01*
X-55333D01*
X-55344Y22272D01*
X-55445Y22516D01*
X-55606Y22725D01*
X-55815Y22886D01*
X-56059Y22987D01*
X-56321Y23021D01*
X-56582Y22987D01*
X-56826Y22886D01*
X-57036Y22725D01*
X-57196Y22516D01*
X-57297Y22272D01*
X-57332Y22010D01*
X-57297Y21748D01*
X-57196Y21504D01*
X-57036Y21295D01*
X-56826Y21134D01*
X-56582Y21033D01*
X-56321Y20999D01*
X-56059Y21033D01*
X-55815Y21134D01*
X-55606Y21295D01*
X-55445Y21504D01*
X-55399Y21615D01*
X-50981D01*
X-50915Y21515D01*
X-50815Y21449D01*
Y21275D01*
X-50820D01*
X-50937Y21227D01*
X-50983Y21272D01*
X-50997Y21293D01*
X-51081Y21349D01*
X-51180Y21369D01*
X-51343D01*
Y20800D01*
Y20231D01*
X-51180D01*
X-51081Y20251D01*
X-50997Y20307D01*
X-50983Y20328D01*
X-50937Y20373D01*
X-50820Y20325D01*
X-50240D01*
X-50123Y20373D01*
X-50075Y20490D01*
Y21110D01*
X-50123Y21227D01*
X-50240Y21275D01*
X-50245D01*
Y21449D01*
X-50145Y21515D01*
X-50028Y21692D01*
X-49986Y21900D01*
X-50028Y22108D01*
X-50145Y22285D01*
X-50245Y22351D01*
Y22525D01*
X-50140D01*
X-50023Y22573D01*
X-50006Y22615D01*
X-49694D01*
X-49677Y22573D01*
X-49560Y22525D01*
X-48980D01*
X-48873Y22570D01*
X-48863Y22573D01*
X-48744Y22529D01*
Y21442D01*
X-49543Y20643D01*
X-49633Y20509D01*
X-49664Y20350D01*
Y19965D01*
X-49925D01*
X-50042Y19917D01*
X-50090Y19800D01*
Y18400D01*
X-50042Y18283D01*
X-49925Y18235D01*
X-49664D01*
Y17832D01*
X-49677Y17827D01*
X-49725Y17710D01*
Y17130D01*
X-49680Y17023D01*
X-49677Y17013D01*
Y16887D01*
X-49680Y16877D01*
X-49725Y16770D01*
Y16765D01*
X-50512D01*
X-50536Y16887D01*
X-50507Y16907D01*
X-50451Y16991D01*
X-50431Y17090D01*
Y17273D01*
X-51000D01*
X-51569D01*
Y17090D01*
X-51549Y16991D01*
X-51496Y16912D01*
X-51502Y16883D01*
X-51539Y16785D01*
X-55233D01*
X-55316Y16880D01*
X-55310Y16930D01*
X-55344Y17192D01*
X-55445Y17436D01*
X-55606Y17645D01*
X-55815Y17806D01*
X-56059Y17907D01*
X-56321Y17941D01*
X-56582Y17907D01*
X-56826Y17806D01*
X-57036Y17645D01*
X-57196Y17436D01*
X-57297Y17192D01*
X-57332Y16930D01*
X-57297Y16668D01*
X-57196Y16424D01*
X-57036Y16215D01*
X-56826Y16054D01*
X-56582Y15953D01*
X-56321Y15919D01*
X-56059Y15953D01*
X-55815Y16054D01*
X-55606Y16215D01*
X-55606Y16215D01*
X-51475D01*
Y16190D01*
X-51427Y16073D01*
X-51310Y16025D01*
X-50690D01*
X-50573Y16073D01*
X-50525Y16190D01*
Y16195D01*
X-49725D01*
Y16190D01*
X-49677Y16073D01*
X-49560Y16025D01*
X-48940D01*
X-48823Y16073D01*
X-48775Y16190D01*
Y16195D01*
X-47325D01*
Y16190D01*
X-47277Y16073D01*
X-47160Y16025D01*
X-46540D01*
X-46423Y16073D01*
X-46375Y16190D01*
Y16770D01*
X-46420Y16877D01*
X-46423Y16887D01*
Y17013D01*
X-46420Y17023D01*
X-46375Y17130D01*
Y17135D01*
X-46073D01*
X-46027Y17023D01*
X-45910Y16975D01*
X-45290D01*
X-45173Y17023D01*
X-45125Y17140D01*
Y17145D01*
X-38800D01*
X-38800Y17145D01*
X-38691Y17167D01*
X-38599Y17229D01*
X-35599Y20229D01*
X-35599Y20229D01*
X-35537Y20321D01*
X-35515Y20430D01*
Y30882D01*
X-33432Y32965D01*
X-32368D01*
X-32250Y32942D01*
X-31670D01*
X-31604Y32896D01*
X-31558Y32830D01*
Y32250D01*
X-31535Y32132D01*
Y31868D01*
X-31861Y31542D01*
X-31940Y31575D01*
X-32560D01*
X-32626Y31547D01*
X-32657Y31593D01*
X-32741Y31649D01*
X-32840Y31669D01*
X-33023D01*
Y31100D01*
Y30531D01*
X-32840D01*
X-32791Y30541D01*
X-32757Y30519D01*
X-32723Y30352D01*
X-32752Y30308D01*
X-32794Y30100D01*
X-32752Y29892D01*
X-32664Y29760D01*
Y27550D01*
X-32633Y27391D01*
X-32543Y27257D01*
X-31593Y26307D01*
X-31459Y26217D01*
X-31300Y26186D01*
X-29014D01*
Y13900D01*
X-28983Y13741D01*
X-28893Y13607D01*
X-27764Y12478D01*
Y11139D01*
X-27891Y11059D01*
X-27940Y11069D01*
X-28123D01*
Y10500D01*
Y9931D01*
X-27940D01*
X-27841Y9951D01*
X-27757Y10007D01*
X-27726Y10053D01*
X-27660Y10025D01*
X-27040D01*
X-26923Y10073D01*
X-26875Y10190D01*
Y10215D01*
X-26018D01*
X-25985Y10182D01*
Y9518D01*
X-26043Y9460D01*
X-26310D01*
X-26333Y9517D01*
X-26450Y9565D01*
X-27950D01*
X-28067Y9517D01*
X-28115Y9400D01*
Y8950D01*
X-28074Y8850D01*
X-28115Y8750D01*
Y8300D01*
X-28074Y8200D01*
X-28115Y8100D01*
Y7650D01*
X-28113Y7646D01*
X-28133Y7633D01*
X-28189Y7549D01*
X-28209Y7450D01*
Y7352D01*
X-26191D01*
Y7450D01*
X-26129Y7525D01*
X-25820D01*
X-25677Y7383D01*
X-25564Y7307D01*
X-25430Y7280D01*
X-25430Y7280D01*
X-25123D01*
X-25110Y7275D01*
X-24490D01*
X-24373Y7323D01*
X-24350Y7380D01*
X-24125D01*
Y7290D01*
X-24077Y7173D01*
X-23960Y7125D01*
X-23340D01*
X-23223Y7173D01*
X-23177Y7173D01*
X-23060Y7125D01*
X-22440D01*
X-22323Y7173D01*
X-22275Y7290D01*
Y7323D01*
X-22204Y7337D01*
X-22112Y7399D01*
X-21899Y7611D01*
X-21618D01*
X-18805Y4799D01*
X-18805Y4799D01*
X-18713Y4737D01*
X-18604Y4715D01*
X-18604Y4715D01*
X-14260D01*
X-14260Y4715D01*
X-14151Y4737D01*
X-14058Y4799D01*
X-13910Y4947D01*
X-13910Y4947D01*
X-13848Y5040D01*
X-13826Y5149D01*
Y6744D01*
X-13634D01*
Y3120D01*
X-13634Y3120D01*
X-13612Y3011D01*
X-13550Y2919D01*
X-13402Y2770D01*
X-13402Y2770D01*
X-13309Y2708D01*
X-13200Y2686D01*
X-11720D01*
X-11720Y2686D01*
X-11611Y2708D01*
X-11518Y2770D01*
X-11370Y2919D01*
X-11370Y2919D01*
X-11308Y3011D01*
X-11286Y3120D01*
Y4715D01*
X468D01*
X468Y4715D01*
X577Y4737D01*
X670Y4799D01*
X2209Y6338D01*
X2271Y6431D01*
X2293Y6540D01*
X2293Y6540D01*
Y13417D01*
X2293Y13417D01*
X2271Y13526D01*
X2209Y13619D01*
X2209Y13619D01*
X1662Y14166D01*
X1569Y14228D01*
X1460Y14250D01*
X1460Y14250D01*
X684D01*
X577Y14346D01*
X540Y14530D01*
X436Y14687D01*
X279Y14791D01*
X95Y14828D01*
X-89Y14791D01*
X-246Y14687D01*
X-350Y14530D01*
X-387Y14346D01*
X-350Y14162D01*
X-246Y14005D01*
X-89Y13901D01*
X95Y13864D01*
X161Y13877D01*
X246Y13792D01*
X259Y13731D01*
Y13691D01*
X246Y13630D01*
X161Y13545D01*
X95Y13558D01*
X-89Y13521D01*
X-246Y13417D01*
X-350Y13260D01*
X-387Y13076D01*
X-350Y12892D01*
X-246Y12735D01*
X-89Y12631D01*
X95Y12594D01*
X279Y12631D01*
X436Y12735D01*
X540Y12892D01*
X577Y13076D01*
X684Y13172D01*
X1132D01*
X1215Y13089D01*
Y6868D01*
X666Y6319D01*
X568Y6400D01*
X636Y6502D01*
X655Y6599D01*
X222D01*
Y6166D01*
X319Y6185D01*
X421Y6253D01*
X502Y6155D01*
X140Y5793D01*
X-11930D01*
X-12039Y5771D01*
X-12132Y5709D01*
X-12132Y5709D01*
X-12280Y5561D01*
X-12342Y5468D01*
X-12364Y5359D01*
X-12364Y5359D01*
Y3764D01*
X-12556D01*
Y7388D01*
X-12578Y7497D01*
X-12640Y7589D01*
X-12640Y7589D01*
X-12788Y7738D01*
X-12881Y7800D01*
X-12990Y7822D01*
X-12990Y7822D01*
X-14470D01*
X-14579Y7800D01*
X-14672Y7738D01*
X-14672Y7738D01*
X-14820Y7589D01*
X-14882Y7497D01*
X-14904Y7388D01*
X-14904Y7388D01*
Y5793D01*
X-18276D01*
X-21088Y8605D01*
X-21181Y8667D01*
X-21290Y8689D01*
X-21290Y8689D01*
X-21899D01*
X-22112Y8901D01*
X-22204Y8963D01*
X-22275Y8977D01*
Y9010D01*
X-22323Y9127D01*
X-22440Y9175D01*
X-23060D01*
X-23177Y9127D01*
X-23223Y9127D01*
X-23340Y9175D01*
X-23960D01*
X-24077Y9127D01*
X-24121Y9020D01*
X-24350D01*
X-24373Y9077D01*
X-24490Y9125D01*
X-25110D01*
X-25123Y9120D01*
X-25404D01*
X-25407Y9122D01*
X-25452Y9185D01*
X-25470Y9241D01*
X-25437Y9291D01*
X-25415Y9400D01*
X-25415Y9400D01*
Y10300D01*
X-25437Y10409D01*
X-25499Y10501D01*
X-25499Y10501D01*
X-25699Y10701D01*
X-25791Y10763D01*
X-25900Y10785D01*
X-25900Y10785D01*
X-26875D01*
Y10810D01*
X-26923Y10927D01*
X-26936Y10932D01*
Y12650D01*
X-26967Y12809D01*
X-27057Y12943D01*
X-28186Y14072D01*
Y25311D01*
X-28059Y25391D01*
X-28010Y25381D01*
X-27827D01*
Y25950D01*
X-27700D01*
Y26077D01*
X-27131D01*
Y26260D01*
X-27151Y26359D01*
X-27207Y26443D01*
X-27253Y26474D01*
X-27225Y26540D01*
Y27160D01*
X-27273Y27277D01*
X-27286Y27282D01*
Y29928D01*
X-27033Y30181D01*
X-26927Y30111D01*
X-26925Y30109D01*
Y29490D01*
X-26877Y29373D01*
X-26869Y29349D01*
X-26910Y29225D01*
X-27027Y29177D01*
X-27075Y29060D01*
Y28440D01*
X-27027Y28323D01*
X-27027Y28277D01*
X-27075Y28160D01*
Y27540D01*
X-27027Y27423D01*
X-26910Y27375D01*
X-26877D01*
X-26863Y27304D01*
X-26801Y27212D01*
X-26539Y26949D01*
Y21977D01*
X-26543Y21956D01*
X-26543Y21956D01*
Y16790D01*
X-26543Y16790D01*
X-26521Y16681D01*
X-26459Y16588D01*
X-25670Y15799D01*
X-25670Y15799D01*
X-25577Y15737D01*
X-25468Y15715D01*
X-25468Y15715D01*
X-12475D01*
X-12416Y15588D01*
X-12502Y15458D01*
X-12544Y15250D01*
X-12527Y15167D01*
X-12635Y15059D01*
X-12718Y15075D01*
X-12927Y15034D01*
X-13103Y14916D01*
X-13221Y14740D01*
X-13262Y14532D01*
X-13221Y14323D01*
X-13103Y14147D01*
X-12927Y14029D01*
X-12718Y13988D01*
X-12510Y14029D01*
X-12455Y14066D01*
X-2876D01*
X-2876Y14066D01*
X-2767Y14088D01*
X-2674Y14150D01*
X-2382Y14442D01*
X-1764D01*
X-1657Y14346D01*
X-1620Y14162D01*
X-1516Y14005D01*
X-1359Y13901D01*
X-1175Y13864D01*
X-991Y13901D01*
X-834Y14005D01*
X-730Y14162D01*
X-693Y14346D01*
X-730Y14530D01*
X-834Y14687D01*
X-991Y14791D01*
X-1175Y14828D01*
X-1241Y14815D01*
X-1326Y14900D01*
X-1339Y14961D01*
Y15001D01*
X-1326Y15062D01*
X-1241Y15147D01*
X-1175Y15134D01*
X-991Y15171D01*
X-834Y15275D01*
X-730Y15432D01*
X-693Y15616D01*
X-730Y15800D01*
X-834Y15957D01*
X-991Y16061D01*
X-1175Y16098D01*
X-1359Y16061D01*
X-1516Y15957D01*
X-1620Y15800D01*
X-1657Y15616D01*
X-1764Y15520D01*
X-2710D01*
X-2710Y15520D01*
X-2819Y15498D01*
X-2912Y15436D01*
X-3204Y15144D01*
X-11377D01*
X-11458Y15242D01*
X-11456Y15250D01*
X-11498Y15458D01*
X-11584Y15588D01*
X-11525Y15715D01*
X-4287D01*
X-4287Y15715D01*
X-4178Y15737D01*
X-4086Y15799D01*
X-1777Y18108D01*
X-1639Y18066D01*
X-1620Y17972D01*
X-1516Y17815D01*
X-1359Y17711D01*
X-1175Y17674D01*
X-991Y17711D01*
X-834Y17815D01*
X-730Y17972D01*
X-693Y18156D01*
X-730Y18340D01*
X-834Y18497D01*
X-991Y18601D01*
X-1175Y18638D01*
X-1241Y18625D01*
X-1326Y18710D01*
X-1339Y18771D01*
Y18811D01*
X-1326Y18872D01*
X-1241Y18957D01*
X-1175Y18944D01*
X-991Y18981D01*
X-834Y19085D01*
X-730Y19242D01*
X-693Y19426D01*
X-730Y19610D01*
X-834Y19767D01*
X-991Y19871D01*
X-1175Y19908D01*
X-1359Y19871D01*
X-1516Y19767D01*
X-1620Y19610D01*
X-1657Y19426D01*
X-1764Y19330D01*
X-1960D01*
X-2069Y19308D01*
X-2162Y19246D01*
X-2162Y19246D01*
X-4615Y16793D01*
X-25140D01*
X-25465Y17118D01*
Y21730D01*
X-25461Y21750D01*
X-25461Y21750D01*
Y26949D01*
X-25199Y27212D01*
X-25199Y27212D01*
X-25137Y27304D01*
X-25123Y27375D01*
X-25090D01*
X-24973Y27423D01*
X-24925Y27540D01*
Y28160D01*
X-24973Y28277D01*
X-24973Y28323D01*
X-24925Y28440D01*
Y29060D01*
X-24973Y29177D01*
X-25090Y29225D01*
X-25131Y29349D01*
X-25123Y29373D01*
X-25075Y29490D01*
Y30110D01*
X-25123Y30227D01*
X-25240Y30275D01*
X-25465D01*
Y32132D01*
X-25442Y32250D01*
Y32830D01*
X-25396Y32896D01*
X-25330Y32942D01*
X-24750D01*
X-24739Y32944D01*
X-24730Y32940D01*
X-24679Y32892D01*
X-24694Y32745D01*
X-24785Y32685D01*
X-24902Y32508D01*
X-24944Y32300D01*
X-24902Y32092D01*
X-24785Y31915D01*
X-24685Y31849D01*
Y27300D01*
X-24685Y27300D01*
X-24663Y27191D01*
X-24601Y27099D01*
X-20601Y23099D01*
X-20601Y23099D01*
X-20509Y23037D01*
X-20400Y23015D01*
X-17651D01*
X-17585Y22915D01*
X-17408Y22798D01*
X-17200Y22756D01*
X-16992Y22798D01*
X-16815Y22915D01*
X-16749Y23015D01*
X-15125D01*
Y22990D01*
X-15077Y22873D01*
X-14960Y22825D01*
X-14380D01*
X-14273Y22870D01*
X-14263Y22873D01*
X-14137D01*
X-14127Y22870D01*
X-14020Y22825D01*
X-13440D01*
X-13323Y22873D01*
X-13275Y22990D01*
Y23015D01*
X-11726D01*
X-11692Y22933D01*
X-11575Y22885D01*
X-10825D01*
X-10708Y22933D01*
X-10660Y23050D01*
Y23437D01*
X-10428Y23669D01*
X-10320Y23597D01*
X-10340Y23550D01*
Y23050D01*
X-10292Y22933D01*
X-10175Y22885D01*
X-9425D01*
X-9308Y22933D01*
X-9301Y22950D01*
X-8908D01*
X-8885Y22915D01*
X-8708Y22798D01*
X-8500Y22756D01*
X-8292Y22798D01*
X-8115Y22915D01*
X-7998Y23092D01*
X-7956Y23300D01*
X-7998Y23508D01*
X-8115Y23685D01*
X-8292Y23802D01*
X-8500Y23844D01*
X-8708Y23802D01*
X-8885Y23685D01*
X-8908Y23650D01*
X-9301D01*
X-9308Y23667D01*
X-9425Y23715D01*
X-10175D01*
X-10222Y23695D01*
X-10294Y23803D01*
X-9882Y24215D01*
X-7701D01*
X-7635Y24115D01*
X-7458Y23998D01*
X-7250Y23956D01*
X-7042Y23998D01*
X-6865Y24115D01*
X-6748Y24292D01*
X-6706Y24500D01*
X-6748Y24708D01*
X-6865Y24885D01*
X-7042Y25002D01*
X-7250Y25044D01*
X-7458Y25002D01*
X-7635Y24885D01*
X-7701Y24785D01*
X-10000D01*
X-10000Y24785D01*
X-10109Y24763D01*
X-10201Y24701D01*
X-11188Y23715D01*
X-11575D01*
X-11692Y23667D01*
X-11726Y23585D01*
X-13275D01*
Y23610D01*
X-13323Y23727D01*
X-13440Y23775D01*
X-14020D01*
X-14127Y23730D01*
X-14137Y23727D01*
X-14263D01*
X-14273Y23730D01*
X-14380Y23775D01*
X-14960D01*
X-15077Y23727D01*
X-15125Y23610D01*
Y23585D01*
X-16749D01*
X-16815Y23685D01*
X-16992Y23802D01*
X-17200Y23844D01*
X-17408Y23802D01*
X-17585Y23685D01*
X-17651Y23585D01*
X-20282D01*
X-24115Y27418D01*
Y31849D01*
X-24015Y31915D01*
X-23898Y32092D01*
X-23856Y32300D01*
X-23898Y32508D01*
X-24015Y32684D01*
Y33000D01*
X-24015Y33000D01*
X-24037Y33109D01*
X-24099Y33201D01*
X-24235Y33338D01*
X-24189Y33450D01*
X-24065Y33462D01*
X-23592Y32989D01*
X-23625Y32910D01*
Y32290D01*
X-23577Y32173D01*
X-23564Y32168D01*
Y31711D01*
X-23608Y31702D01*
X-23785Y31585D01*
X-23902Y31408D01*
X-23944Y31200D01*
X-23902Y30992D01*
X-23785Y30815D01*
X-23608Y30698D01*
X-23400Y30656D01*
X-23192Y30698D01*
X-23015Y30815D01*
X-22898Y30992D01*
X-22867Y31147D01*
X-22857Y31157D01*
X-22767Y31291D01*
X-22736Y31450D01*
Y31961D01*
X-22609Y32041D01*
X-22560Y32031D01*
X-22377D01*
Y32600D01*
Y33169D01*
X-22560D01*
X-22659Y33149D01*
X-22743Y33093D01*
X-22774Y33047D01*
X-22840Y33075D01*
X-22930D01*
X-22937Y33109D01*
X-22999Y33201D01*
X-22999Y33201D01*
X-23635Y33838D01*
X-23583Y33965D01*
X-22875D01*
X-22638Y33729D01*
X-22638Y33729D01*
X-22546Y33667D01*
X-22475Y33653D01*
Y33640D01*
X-22427Y33523D01*
X-22310Y33475D01*
X-21690D01*
X-21573Y33523D01*
X-21525Y33640D01*
Y33645D01*
X-21135D01*
X-21088Y33599D01*
X-21088Y33599D01*
X-20996Y33537D01*
X-20925Y33523D01*
Y33490D01*
X-20877Y33373D01*
X-20760Y33325D01*
X-20140D01*
X-20101Y33341D01*
X-20000Y33367D01*
X-19899Y33341D01*
X-19860Y33325D01*
X-19240D01*
X-19123Y33373D01*
X-19075Y33490D01*
Y33861D01*
X-8016D01*
X-8002Y33792D01*
X-7885Y33615D01*
X-7708Y33498D01*
X-7500Y33456D01*
X-7292Y33498D01*
X-7115Y33615D01*
X-6998Y33792D01*
X-6956Y34000D01*
X-6998Y34208D01*
X-7115Y34385D01*
X-7186Y34432D01*
Y34584D01*
X-7115Y34631D01*
X-6998Y34808D01*
X-6956Y35016D01*
X-6998Y35224D01*
X-7115Y35401D01*
X-7292Y35518D01*
X-7500Y35560D01*
X-7708Y35518D01*
X-7885Y35401D01*
X-8002Y35224D01*
X-8044Y35016D01*
X-8107Y34939D01*
X-19075D01*
Y35310D01*
X-19123Y35427D01*
X-19240Y35475D01*
X-19860D01*
X-19977Y35427D01*
X-20023Y35427D01*
X-20140Y35475D01*
X-20760D01*
X-20877Y35427D01*
X-20925Y35310D01*
Y35277D01*
X-20996Y35263D01*
X-21088Y35201D01*
X-21088Y35201D01*
X-21135Y35155D01*
X-21525D01*
Y35160D01*
X-21573Y35277D01*
X-21690Y35325D01*
X-22310D01*
X-22427Y35277D01*
X-22475Y35160D01*
Y35147D01*
X-22546Y35133D01*
X-22638Y35071D01*
X-22638Y35071D01*
X-22675Y35035D01*
X-23057D01*
X-23096Y35162D01*
X-23015Y35215D01*
X-22898Y35392D01*
X-22870Y35531D01*
X-22869Y35532D01*
X-22733Y35581D01*
X-22608Y35498D01*
X-22400Y35456D01*
X-22192Y35498D01*
X-22015Y35615D01*
X-21898Y35792D01*
X-21856Y36000D01*
X-21898Y36208D01*
X-22015Y36385D01*
X-22110Y36448D01*
X-22072Y36575D01*
X-21690D01*
X-21573Y36623D01*
X-21525Y36740D01*
Y36745D01*
X-21008D01*
X-20996Y36737D01*
X-20925Y36723D01*
Y36590D01*
X-20877Y36473D01*
X-20760Y36425D01*
X-20140D01*
X-20023Y36473D01*
X-19977Y36473D01*
X-19860Y36425D01*
X-19240D01*
X-19123Y36473D01*
X-19075Y36590D01*
Y36965D01*
X-15259D01*
X-15152Y36858D01*
X-15252Y36708D01*
X-15294Y36500D01*
X-15252Y36292D01*
X-15135Y36115D01*
X-14958Y35998D01*
X-14750Y35956D01*
X-14542Y35998D01*
X-14365Y36115D01*
X-14248Y36292D01*
X-14206Y36500D01*
X-14223Y36583D01*
X-14115Y36691D01*
X-14032Y36675D01*
X-13823Y36716D01*
X-13647Y36834D01*
X-13529Y37010D01*
X-13488Y37218D01*
X-13529Y37427D01*
X-13647Y37603D01*
X-13823Y37721D01*
X-14032Y37762D01*
X-14240Y37721D01*
X-14390Y37620D01*
X-14729Y37959D01*
X-14821Y38021D01*
X-14930Y38043D01*
X-14930Y38043D01*
X-19075D01*
Y38410D01*
X-19123Y38527D01*
X-19240Y38575D01*
X-19860D01*
X-19899Y38559D01*
X-20000Y38533D01*
X-20101Y38559D01*
X-20140Y38575D01*
X-20760D01*
X-20877Y38527D01*
X-20925Y38410D01*
Y38277D01*
X-20996Y38263D01*
X-21008Y38255D01*
X-21525D01*
Y38260D01*
X-21573Y38377D01*
X-21690Y38425D01*
X-22310D01*
X-22427Y38377D01*
X-22475Y38260D01*
Y38247D01*
X-22546Y38233D01*
X-22638Y38171D01*
X-22638Y38171D01*
X-22775Y38035D01*
X-23633D01*
X-23685Y38162D01*
X-22462Y39385D01*
X-22042D01*
X-21925Y39433D01*
X-21877Y39550D01*
Y40170D01*
X-21905Y40236D01*
X-21859Y40267D01*
X-21803Y40351D01*
X-21783Y40450D01*
Y40633D01*
X-22352D01*
X-22921D01*
Y40450D01*
X-22983Y40399D01*
X-23081Y40483D01*
Y40843D01*
X-23107Y40977D01*
X-23104Y40996D01*
X-23145Y41204D01*
X-23263Y41380D01*
X-23439Y41498D01*
X-23647Y41539D01*
X-23856Y41498D01*
X-24032Y41380D01*
X-24150Y41204D01*
X-24191Y40996D01*
X-24150Y40787D01*
X-24032Y40611D01*
X-23909Y40529D01*
Y40183D01*
X-23878Y40024D01*
X-23788Y39890D01*
X-23465Y39567D01*
X-23346Y39487D01*
X-23309Y39406D01*
X-23295Y39358D01*
X-23794Y38859D01*
X-23874Y38886D01*
X-23915Y38917D01*
Y39500D01*
X-23915Y39500D01*
X-23937Y39609D01*
X-23999Y39701D01*
X-23999Y39701D01*
X-24080Y39782D01*
X-24056Y39900D01*
X-24098Y40108D01*
X-24215Y40285D01*
X-24392Y40402D01*
X-24600Y40444D01*
X-24808Y40402D01*
X-24985Y40285D01*
X-25102Y40108D01*
X-25144Y39900D01*
X-25102Y39692D01*
X-24985Y39515D01*
X-24808Y39398D01*
X-24600Y39356D01*
X-24583Y39360D01*
X-24485Y39279D01*
Y39035D01*
X-24632D01*
X-24750Y39058D01*
X-25330D01*
X-25396Y39104D01*
X-25442Y39170D01*
Y39750D01*
X-25465Y39868D01*
Y41908D01*
X-25092Y42281D01*
X-24960Y42234D01*
X-24927Y42153D01*
X-24810Y42105D01*
X-24190D01*
X-24073Y42153D01*
X-24037Y42164D01*
X-23996Y42137D01*
X-23925Y42123D01*
Y42090D01*
X-23877Y41973D01*
X-23760Y41925D01*
X-23140D01*
X-23023Y41973D01*
X-22977Y41973D01*
X-22860Y41925D01*
X-22240D01*
X-22123Y41973D01*
X-22075Y42090D01*
Y42461D01*
X-16078D01*
X-13762Y40145D01*
X-13762Y40145D01*
X-13669Y40083D01*
X-13560Y40061D01*
X-13560Y40061D01*
X-13288D01*
X-13252Y39884D01*
X-13135Y39707D01*
X-12958Y39590D01*
X-12750Y39548D01*
X-12542Y39590D01*
X-12365Y39707D01*
X-12248Y39884D01*
X-12206Y40092D01*
X-12248Y40300D01*
X-12365Y40477D01*
X-12436Y40524D01*
Y40676D01*
X-12365Y40723D01*
X-12248Y40900D01*
X-12206Y41108D01*
X-12248Y41316D01*
X-12365Y41493D01*
X-12542Y41610D01*
X-12750Y41652D01*
X-12958Y41610D01*
X-13135Y41493D01*
X-13243Y41330D01*
X-13295Y41303D01*
X-13373Y41280D01*
X-15549Y43455D01*
X-15641Y43517D01*
X-15750Y43539D01*
X-15750Y43539D01*
X-22075D01*
Y43910D01*
X-22123Y44027D01*
X-22240Y44075D01*
X-22860D01*
X-22899Y44059D01*
X-23000Y44033D01*
X-23101Y44059D01*
X-23140Y44075D01*
X-23760D01*
X-23877Y44027D01*
X-23925Y43910D01*
X-24052Y43880D01*
X-24064Y43884D01*
X-24073Y43907D01*
X-24190Y43955D01*
X-24810D01*
X-24927Y43907D01*
X-24975Y43790D01*
Y43569D01*
X-25210D01*
X-25319Y43547D01*
X-25412Y43485D01*
X-25412Y43485D01*
X-25762Y43135D01*
X-25871Y43180D01*
X-26449D01*
Y43307D01*
X-26576D01*
Y43876D01*
X-26759D01*
X-26807Y43866D01*
X-26934Y43946D01*
Y45211D01*
X-26780D01*
X-26663Y45259D01*
X-26615Y45376D01*
Y46776D01*
X-26663Y46892D01*
X-26780Y46941D01*
X-27830D01*
X-27947Y46892D01*
X-27995Y46776D01*
Y45376D01*
X-27947Y45259D01*
X-27830Y45211D01*
X-27763D01*
Y44001D01*
X-32309D01*
X-32467Y43969D01*
X-32602Y43879D01*
X-33422Y43059D01*
X-33512Y42925D01*
X-33543Y42766D01*
Y41508D01*
X-33670Y41428D01*
X-33719Y41438D01*
X-33902D01*
Y40869D01*
Y40300D01*
X-33719D01*
X-33620Y40319D01*
X-33536Y40375D01*
X-33505Y40421D01*
X-33439Y40394D01*
X-33240D01*
X-33014Y40168D01*
Y40040D01*
X-33102Y39908D01*
X-33144Y39700D01*
X-33102Y39492D01*
X-32985Y39315D01*
X-32808Y39198D01*
X-32705Y39177D01*
X-32686Y39135D01*
X-32678Y39042D01*
X-32686Y39035D01*
X-33300D01*
X-33300Y39035D01*
X-33300Y39035D01*
X-34832D01*
X-36615Y40818D01*
Y44475D01*
X-36615Y44475D01*
X-36637Y44584D01*
X-36699Y44676D01*
X-40104Y48081D01*
X-40196Y48143D01*
X-40305Y48165D01*
X-40305Y48165D01*
X-45125D01*
Y48170D01*
X-45173Y48287D01*
X-45128Y48333D01*
X-45107Y48347D01*
X-45051Y48431D01*
X-45031Y48530D01*
Y48693D01*
X-46169D01*
Y48530D01*
X-46149Y48431D01*
X-46093Y48347D01*
X-46072Y48333D01*
X-46027Y48287D01*
X-46075Y48170D01*
Y48155D01*
X-46315D01*
Y54250D01*
X-46337Y54359D01*
X-46399Y54451D01*
X-46399Y54451D01*
X-46799Y54851D01*
X-46891Y54913D01*
X-47000Y54935D01*
X-47000Y54935D01*
X-47975D01*
Y54960D01*
X-48023Y55077D01*
X-48140Y55125D01*
X-48720D01*
X-48827Y55080D01*
X-48837Y55077D01*
X-48963D01*
X-48973Y55080D01*
X-49080Y55125D01*
X-49660D01*
X-49777Y55077D01*
X-49825Y54960D01*
Y54935D01*
X-49975D01*
Y54960D01*
X-50023Y55077D01*
X-50140Y55125D01*
X-50145Y55180D01*
X-50167Y55289D01*
X-50229Y55381D01*
X-50599Y55751D01*
X-50691Y55813D01*
X-50800Y55835D01*
X-50800Y55835D01*
X-55762D01*
X-55815Y55876D01*
X-56059Y55977D01*
X-56321Y56011D01*
D02*
G37*
G36*
X4032Y53006D02*
Y52573D01*
X4465D01*
X4446Y52670D01*
X4319Y52860D01*
X4129Y52987D01*
X4032Y53006D01*
D02*
G37*
G36*
X3778Y53006D02*
X3681Y52987D01*
X3491Y52860D01*
X3364Y52670D01*
X3345Y52573D01*
X3778D01*
Y53006D01*
D02*
G37*
G36*
X5048Y53589D02*
X4615D01*
X4634Y53492D01*
X4761Y53302D01*
X4951Y53175D01*
X5048Y53156D01*
Y53589D01*
D02*
G37*
G36*
X-32D02*
X-465D01*
X-446Y53492D01*
X-319Y53302D01*
X-129Y53175D01*
X-32Y53156D01*
Y53589D01*
D02*
G37*
G36*
X-51477Y53323D02*
X-51919D01*
Y53140D01*
X-51899Y53041D01*
X-51843Y52957D01*
X-51759Y52901D01*
X-51660Y52881D01*
X-51477D01*
Y53323D01*
D02*
G37*
G36*
X4465Y52319D02*
X4032D01*
Y51886D01*
X4129Y51905D01*
X4319Y52032D01*
X4446Y52222D01*
X4465Y52319D01*
D02*
G37*
G36*
X3778D02*
X3345D01*
X3364Y52222D01*
X3491Y52032D01*
X3681Y51905D01*
X3778Y51886D01*
Y52319D01*
D02*
G37*
G36*
X-51597Y51819D02*
X-51760D01*
X-51859Y51799D01*
X-51943Y51743D01*
X-51999Y51659D01*
X-52019Y51560D01*
Y51377D01*
X-51597D01*
Y51819D01*
D02*
G37*
G36*
X5175Y52928D02*
X4991Y52891D01*
X4834Y52787D01*
X4730Y52630D01*
X4693Y52446D01*
X4730Y52262D01*
X4834Y52105D01*
X4991Y52001D01*
X5175Y51964D01*
X5359Y52001D01*
X5516Y52105D01*
X5620Y52262D01*
X5657Y52446D01*
X5620Y52630D01*
X5516Y52787D01*
X5359Y52891D01*
X5175Y52928D01*
D02*
G37*
G36*
X95D02*
X-89Y52891D01*
X-246Y52787D01*
X-350Y52630D01*
X-387Y52446D01*
X-350Y52262D01*
X-246Y52105D01*
X-89Y52001D01*
X95Y51964D01*
X279Y52001D01*
X436Y52105D01*
X540Y52262D01*
X577Y52446D01*
X540Y52630D01*
X436Y52787D01*
X279Y52891D01*
X95Y52928D01*
D02*
G37*
G36*
X-1175D02*
X-1359Y52891D01*
X-1516Y52787D01*
X-1620Y52630D01*
X-1657Y52446D01*
X-1620Y52262D01*
X-1516Y52105D01*
X-1359Y52001D01*
X-1175Y51964D01*
X-991Y52001D01*
X-834Y52105D01*
X-730Y52262D01*
X-693Y52446D01*
X-730Y52630D01*
X-834Y52787D01*
X-991Y52891D01*
X-1175Y52928D01*
D02*
G37*
G36*
X-63814Y45947D02*
Y44977D01*
X-62844D01*
X-62865Y45138D01*
X-62976Y45407D01*
X-63153Y45637D01*
X-63384Y45814D01*
X-63653Y45926D01*
X-63814Y45947D01*
D02*
G37*
G36*
X3905Y38958D02*
X3721Y38921D01*
X3564Y38817D01*
X3460Y38660D01*
X3423Y38476D01*
X3460Y38292D01*
X3564Y38135D01*
X3721Y38031D01*
X3905Y37994D01*
X4089Y38031D01*
X4246Y38135D01*
X4350Y38292D01*
X4387Y38476D01*
X4350Y38660D01*
X4246Y38817D01*
X4089Y38921D01*
X3905Y38958D01*
D02*
G37*
G36*
X-1175D02*
X-1359Y38921D01*
X-1516Y38817D01*
X-1620Y38660D01*
X-1657Y38476D01*
X-1620Y38292D01*
X-1516Y38135D01*
X-1359Y38031D01*
X-1175Y37994D01*
X-991Y38031D01*
X-834Y38135D01*
X-730Y38292D01*
X-693Y38476D01*
X-730Y38660D01*
X-834Y38817D01*
X-991Y38921D01*
X-1175Y38958D01*
D02*
G37*
G36*
X655Y38349D02*
X222D01*
Y37916D01*
X319Y37935D01*
X509Y38062D01*
X636Y38252D01*
X655Y38349D01*
D02*
G37*
G36*
X-50416Y39273D02*
X-51073D01*
Y38441D01*
X-50675D01*
X-50576Y38461D01*
X-50492Y38517D01*
X-50436Y38601D01*
X-50416Y38700D01*
Y39273D01*
D02*
G37*
G36*
X-51327D02*
X-51984D01*
Y38700D01*
X-51964Y38601D01*
X-51908Y38517D01*
X-51824Y38461D01*
X-51725Y38441D01*
X-51327D01*
Y39273D01*
D02*
G37*
G36*
X5175Y38958D02*
X4991Y38921D01*
X4834Y38817D01*
X4730Y38660D01*
X4693Y38476D01*
X4730Y38292D01*
X4834Y38135D01*
X4991Y38031D01*
X5175Y37994D01*
X5359Y38031D01*
X5516Y38135D01*
X5620Y38292D01*
X5657Y38476D01*
X5620Y38660D01*
X5516Y38817D01*
X5359Y38921D01*
X5175Y38958D01*
D02*
G37*
G36*
X-63814Y38327D02*
Y37357D01*
X-62844D01*
X-62865Y37518D01*
X-62976Y37787D01*
X-63153Y38017D01*
X-63384Y38194D01*
X-63653Y38306D01*
X-63814Y38327D01*
D02*
G37*
G36*
X-64068D02*
X-64229Y38306D01*
X-64498Y38194D01*
X-64728Y38017D01*
X-64905Y37787D01*
X-65016Y37518D01*
X-65038Y37357D01*
X-64068D01*
Y38327D01*
D02*
G37*
G36*
X5302Y37766D02*
Y37333D01*
X5735D01*
X5716Y37430D01*
X5589Y37620D01*
X5399Y37747D01*
X5302Y37766D01*
D02*
G37*
G36*
X-32Y38349D02*
X-465D01*
X-446Y38252D01*
X-319Y38062D01*
X-129Y37935D01*
X-32Y37916D01*
Y38349D01*
D02*
G37*
G36*
X-50690Y38269D02*
X-50873D01*
Y37827D01*
X-50431D01*
Y38010D01*
X-50451Y38109D01*
X-50507Y38193D01*
X-50591Y38249D01*
X-50690Y38269D01*
D02*
G37*
G36*
X-51127D02*
X-51310D01*
X-51409Y38249D01*
X-51493Y38193D01*
X-51549Y38109D01*
X-51569Y38010D01*
Y37827D01*
X-51127D01*
Y38269D01*
D02*
G37*
G36*
X-32Y39036D02*
X-129Y39017D01*
X-319Y38890D01*
X-446Y38700D01*
X-465Y38603D01*
X-32D01*
Y39036D01*
D02*
G37*
G36*
X3905Y40228D02*
X3721Y40191D01*
X3564Y40087D01*
X3460Y39930D01*
X3423Y39746D01*
X3460Y39562D01*
X3564Y39405D01*
X3721Y39301D01*
X3905Y39264D01*
X4089Y39301D01*
X4246Y39405D01*
X4350Y39562D01*
X4387Y39746D01*
X4350Y39930D01*
X4246Y40087D01*
X4089Y40191D01*
X3905Y40228D01*
D02*
G37*
G36*
X95D02*
X-89Y40191D01*
X-246Y40087D01*
X-350Y39930D01*
X-387Y39746D01*
X-350Y39562D01*
X-246Y39405D01*
X-89Y39301D01*
X95Y39264D01*
X279Y39301D01*
X436Y39405D01*
X540Y39562D01*
X577Y39746D01*
X540Y39930D01*
X436Y40087D01*
X279Y40191D01*
X95Y40228D01*
D02*
G37*
G36*
X-615Y39619D02*
X-1048D01*
Y39186D01*
X-951Y39205D01*
X-761Y39332D01*
X-634Y39522D01*
X-615Y39619D01*
D02*
G37*
G36*
X-51327Y40359D02*
X-51725D01*
X-51824Y40339D01*
X-51908Y40283D01*
X-51964Y40199D01*
X-51984Y40100D01*
Y39527D01*
X-51327D01*
Y40359D01*
D02*
G37*
G36*
X5175Y40228D02*
X4991Y40191D01*
X4834Y40087D01*
X4730Y39930D01*
X4693Y39746D01*
X4730Y39562D01*
X4834Y39405D01*
X4991Y39301D01*
X5175Y39264D01*
X5359Y39301D01*
X5516Y39405D01*
X5620Y39562D01*
X5657Y39746D01*
X5620Y39930D01*
X5516Y40087D01*
X5359Y40191D01*
X5175Y40228D01*
D02*
G37*
G36*
X655Y34539D02*
X222D01*
Y34106D01*
X319Y34125D01*
X509Y34252D01*
X636Y34442D01*
X655Y34539D01*
D02*
G37*
G36*
X-55224Y39643D02*
X-56194D01*
Y38673D01*
X-56033Y38694D01*
X-55764Y38806D01*
X-55533Y38983D01*
X-55356Y39213D01*
X-55245Y39482D01*
X-55224Y39643D01*
D02*
G37*
G36*
X-56448D02*
X-57418D01*
X-57396Y39482D01*
X-57285Y39213D01*
X-57108Y38983D01*
X-56878Y38806D01*
X-56609Y38694D01*
X-56448Y38673D01*
Y39643D01*
D02*
G37*
G36*
X222Y39036D02*
Y38603D01*
X655D01*
X636Y38700D01*
X509Y38890D01*
X319Y39017D01*
X222Y39036D01*
D02*
G37*
G36*
X-1302Y39619D02*
X-1735D01*
X-1716Y39522D01*
X-1589Y39332D01*
X-1399Y39205D01*
X-1302Y39186D01*
Y39619D01*
D02*
G37*
G36*
X-45290Y39219D02*
X-45473D01*
Y38797D01*
X-45031D01*
Y38960D01*
X-45051Y39059D01*
X-45107Y39143D01*
X-45191Y39199D01*
X-45290Y39219D01*
D02*
G37*
G36*
X-45727D02*
X-45910D01*
X-46009Y39199D01*
X-46093Y39143D01*
X-46149Y39059D01*
X-46169Y38960D01*
Y38797D01*
X-45727D01*
Y39219D01*
D02*
G37*
G36*
X5048Y35809D02*
X4615D01*
X4634Y35712D01*
X4761Y35522D01*
X4951Y35395D01*
X5048Y35376D01*
Y35809D01*
D02*
G37*
G36*
X-1302D02*
X-1735D01*
X-1716Y35712D01*
X-1589Y35522D01*
X-1399Y35395D01*
X-1302Y35376D01*
Y35809D01*
D02*
G37*
G36*
X-63814Y35817D02*
Y34847D01*
X-62844D01*
X-62865Y35008D01*
X-62976Y35277D01*
X-63153Y35507D01*
X-63384Y35684D01*
X-63653Y35796D01*
X-63814Y35817D01*
D02*
G37*
G36*
X95Y36418D02*
X-89Y36381D01*
X-246Y36277D01*
X-350Y36120D01*
X-387Y35936D01*
X-350Y35752D01*
X-246Y35595D01*
X-89Y35491D01*
X95Y35454D01*
X279Y35491D01*
X436Y35595D01*
X540Y35752D01*
X577Y35936D01*
X540Y36120D01*
X436Y36277D01*
X279Y36381D01*
X95Y36418D01*
D02*
G37*
G36*
X5735Y35809D02*
X5302D01*
Y35376D01*
X5399Y35395D01*
X5589Y35522D01*
X5716Y35712D01*
X5735Y35809D01*
D02*
G37*
G36*
X-615D02*
X-1048D01*
Y35376D01*
X-951Y35395D01*
X-761Y35522D01*
X-634Y35712D01*
X-615Y35809D01*
D02*
G37*
G36*
X-32Y35226D02*
X-129Y35207D01*
X-319Y35080D01*
X-446Y34890D01*
X-465Y34793D01*
X-32D01*
Y35226D01*
D02*
G37*
G36*
X-56321Y35731D02*
X-56582Y35697D01*
X-56826Y35596D01*
X-57036Y35435D01*
X-57196Y35226D01*
X-57297Y34982D01*
X-57332Y34720D01*
X-57297Y34458D01*
X-57196Y34214D01*
X-57036Y34005D01*
X-56826Y33844D01*
X-56582Y33743D01*
X-56321Y33709D01*
X-56059Y33743D01*
X-55815Y33844D01*
X-55606Y34005D01*
X-55445Y34214D01*
X-55344Y34458D01*
X-55310Y34720D01*
X-55328Y34858D01*
X-55217Y34985D01*
X-51889D01*
X-51852Y34887D01*
X-51846Y34858D01*
X-51899Y34779D01*
X-51919Y34680D01*
Y34497D01*
X-51370D01*
Y34243D01*
X-51919D01*
Y34060D01*
X-51899Y33961D01*
X-51843Y33877D01*
X-51789Y33841D01*
X-51780Y33805D01*
Y33735D01*
X-51789Y33699D01*
X-51843Y33663D01*
X-51899Y33579D01*
X-51919Y33480D01*
Y33297D01*
X-51350D01*
Y33170D01*
X-51223D01*
Y32601D01*
X-51040D01*
X-50910Y32500D01*
X-50909Y32459D01*
X-50915Y32455D01*
X-50981Y32355D01*
X-55333D01*
X-55344Y32442D01*
X-55445Y32686D01*
X-55606Y32895D01*
X-55815Y33056D01*
X-56059Y33157D01*
X-56321Y33191D01*
X-56582Y33157D01*
X-56826Y33056D01*
X-57036Y32895D01*
X-57196Y32686D01*
X-57297Y32442D01*
X-57332Y32180D01*
X-57297Y31918D01*
X-57196Y31674D01*
X-57036Y31465D01*
X-56826Y31304D01*
X-56582Y31203D01*
X-56321Y31169D01*
X-56059Y31203D01*
X-55815Y31304D01*
X-55606Y31465D01*
X-55445Y31674D01*
X-55399Y31785D01*
X-50981D01*
X-50915Y31685D01*
X-50815Y31619D01*
Y31445D01*
X-50820D01*
X-50937Y31397D01*
X-50983Y31442D01*
X-50997Y31463D01*
X-51081Y31519D01*
X-51180Y31539D01*
X-51343D01*
Y30970D01*
Y30401D01*
X-51180D01*
X-51081Y30421D01*
X-50997Y30477D01*
X-50983Y30498D01*
X-50937Y30543D01*
X-50820Y30495D01*
X-50240D01*
X-50123Y30543D01*
X-50075Y30660D01*
Y31280D01*
X-50123Y31397D01*
X-50240Y31445D01*
X-50245D01*
Y31619D01*
X-50145Y31685D01*
X-50028Y31862D01*
X-49986Y32070D01*
X-50028Y32278D01*
X-50145Y32455D01*
X-50245Y32521D01*
Y32695D01*
X-50140D01*
X-50023Y32743D01*
X-50006Y32785D01*
X-49694D01*
X-49677Y32743D01*
X-49560Y32695D01*
X-48980D01*
X-48873Y32740D01*
X-48860Y32742D01*
X-48744Y32699D01*
Y31612D01*
X-49543Y30813D01*
X-49633Y30679D01*
X-49664Y30520D01*
Y30135D01*
X-49925D01*
X-50042Y30087D01*
X-50090Y29970D01*
Y28570D01*
X-50042Y28453D01*
X-49925Y28405D01*
X-49664D01*
Y28002D01*
X-49677Y27997D01*
X-49725Y27880D01*
Y27300D01*
X-49680Y27193D01*
X-49677Y27183D01*
Y27057D01*
X-49680Y27047D01*
X-49725Y26940D01*
Y26935D01*
X-50512D01*
X-50536Y27057D01*
X-50507Y27077D01*
X-50451Y27161D01*
X-50431Y27260D01*
Y27443D01*
X-51000D01*
X-51569D01*
Y27260D01*
X-51549Y27161D01*
X-51496Y27082D01*
X-51502Y27053D01*
X-51539Y26955D01*
X-55233D01*
X-55316Y27050D01*
X-55310Y27100D01*
X-55344Y27362D01*
X-55445Y27606D01*
X-55606Y27815D01*
X-55815Y27976D01*
X-56059Y28077D01*
X-56321Y28111D01*
X-56582Y28077D01*
X-56826Y27976D01*
X-57036Y27815D01*
X-57196Y27606D01*
X-57297Y27362D01*
X-57332Y27100D01*
X-57297Y26838D01*
X-57196Y26594D01*
X-57036Y26385D01*
X-56826Y26224D01*
X-56582Y26123D01*
X-56321Y26089D01*
X-56059Y26123D01*
X-55815Y26224D01*
X-55606Y26385D01*
X-55606Y26385D01*
X-51475D01*
Y26360D01*
X-51427Y26243D01*
X-51310Y26195D01*
X-50690D01*
X-50573Y26243D01*
X-50525Y26360D01*
Y26365D01*
X-49725D01*
Y26360D01*
X-49677Y26243D01*
X-49560Y26195D01*
X-48940D01*
X-48823Y26243D01*
X-48775Y26360D01*
Y26365D01*
X-47325D01*
Y26360D01*
X-47277Y26243D01*
X-47160Y26195D01*
X-46540D01*
X-46423Y26243D01*
X-46375Y26360D01*
Y26940D01*
X-46420Y27047D01*
X-46423Y27057D01*
Y27183D01*
X-46420Y27193D01*
X-46375Y27300D01*
Y27305D01*
X-46073D01*
X-46027Y27193D01*
X-45910Y27145D01*
X-45290D01*
X-45173Y27193D01*
X-45125Y27310D01*
Y27315D01*
X-43561D01*
X-43452Y27337D01*
X-43360Y27399D01*
X-43298Y27491D01*
X-43276Y27600D01*
Y29823D01*
X-43084D01*
Y27600D01*
Y25092D01*
X-43062Y24983D01*
X-43000Y24890D01*
X-42908Y24829D01*
X-42799Y24807D01*
X-42037D01*
X-41928Y24829D01*
X-41836Y24890D01*
X-41774Y24983D01*
X-41752Y25092D01*
Y27315D01*
X-40450D01*
X-40450Y27315D01*
X-40341Y27337D01*
X-40249Y27399D01*
X-33182Y34465D01*
X-32733D01*
X-32672Y34377D01*
X-31950D01*
X-31263D01*
X-31269Y34408D01*
X-31359Y34541D01*
X-31405Y34572D01*
X-31365Y34632D01*
X-31342Y34750D01*
X-31365Y34868D01*
X-31391Y34907D01*
X-31422Y35000D01*
X-31391Y35093D01*
X-31365Y35132D01*
X-31342Y35250D01*
X-31365Y35368D01*
X-31405Y35428D01*
X-31359Y35459D01*
X-31269Y35592D01*
X-31263Y35623D01*
X-31950D01*
X-32672D01*
X-32733Y35535D01*
X-32800D01*
X-32800Y35535D01*
X-32909Y35513D01*
X-33001Y35451D01*
X-33501Y34951D01*
X-40568Y27885D01*
X-42037D01*
X-42146Y27863D01*
X-42238Y27801D01*
X-42300Y27709D01*
X-42322Y27600D01*
Y25377D01*
X-42514D01*
Y27600D01*
Y30108D01*
X-42536Y30217D01*
X-42598Y30310D01*
X-42690Y30371D01*
X-42799Y30393D01*
X-43561D01*
X-43670Y30371D01*
X-43762Y30310D01*
X-43824Y30217D01*
X-43846Y30108D01*
Y27885D01*
X-45125D01*
Y27890D01*
X-45173Y28007D01*
X-45128Y28053D01*
X-45107Y28067D01*
X-45051Y28151D01*
X-45031Y28250D01*
Y28413D01*
X-46169D01*
Y28250D01*
X-46149Y28151D01*
X-46093Y28067D01*
X-46072Y28053D01*
X-46027Y28007D01*
X-46075Y27890D01*
Y27875D01*
X-46315D01*
Y33970D01*
X-46337Y34079D01*
X-46399Y34171D01*
X-46399Y34171D01*
X-46799Y34571D01*
X-46891Y34633D01*
X-47000Y34655D01*
X-47000Y34655D01*
X-47975D01*
Y34680D01*
X-48023Y34797D01*
X-48140Y34845D01*
X-48720D01*
X-48827Y34800D01*
X-48837Y34797D01*
X-48963D01*
X-48973Y34800D01*
X-49080Y34845D01*
X-49660D01*
X-49777Y34797D01*
X-49825Y34680D01*
Y34655D01*
X-49975D01*
Y34680D01*
X-50023Y34797D01*
X-50140Y34845D01*
X-50145Y34900D01*
X-50167Y35009D01*
X-50229Y35101D01*
X-50599Y35471D01*
X-50691Y35533D01*
X-50800Y35555D01*
X-50800Y35555D01*
X-55762D01*
X-55815Y35596D01*
X-56059Y35697D01*
X-56321Y35731D01*
D02*
G37*
G36*
X5175Y35148D02*
X4991Y35111D01*
X4834Y35007D01*
X4730Y34850D01*
X4693Y34666D01*
X4730Y34482D01*
X4834Y34325D01*
X4991Y34221D01*
X5175Y34184D01*
X5359Y34221D01*
X5516Y34325D01*
X5620Y34482D01*
X5657Y34666D01*
X5620Y34850D01*
X5516Y35007D01*
X5359Y35111D01*
X5175Y35148D01*
D02*
G37*
G36*
X3905D02*
X3721Y35111D01*
X3564Y35007D01*
X3460Y34850D01*
X3423Y34666D01*
X3460Y34482D01*
X3564Y34325D01*
X3721Y34221D01*
X3905Y34184D01*
X4089Y34221D01*
X4246Y34325D01*
X4350Y34482D01*
X4387Y34666D01*
X4350Y34850D01*
X4246Y35007D01*
X4089Y35111D01*
X3905Y35148D01*
D02*
G37*
G36*
X-64068Y35817D02*
X-64229Y35796D01*
X-64498Y35684D01*
X-64728Y35507D01*
X-64905Y35277D01*
X-65016Y35008D01*
X-65038Y34847D01*
X-64068D01*
Y35817D01*
D02*
G37*
G36*
X222Y35226D02*
Y34793D01*
X655D01*
X636Y34890D01*
X509Y35080D01*
X319Y35207D01*
X222Y35226D01*
D02*
G37*
G36*
X3905Y36418D02*
X3721Y36381D01*
X3564Y36277D01*
X3460Y36120D01*
X3423Y35936D01*
X3460Y35752D01*
X3564Y35595D01*
X3721Y35491D01*
X3905Y35454D01*
X4089Y35491D01*
X4246Y35595D01*
X4350Y35752D01*
X4387Y35936D01*
X4350Y36120D01*
X4246Y36277D01*
X4089Y36381D01*
X3905Y36418D01*
D02*
G37*
G36*
X95Y37688D02*
X-89Y37651D01*
X-246Y37547D01*
X-350Y37390D01*
X-387Y37206D01*
X-350Y37022D01*
X-246Y36865D01*
X-89Y36761D01*
X95Y36724D01*
X279Y36761D01*
X436Y36865D01*
X540Y37022D01*
X577Y37206D01*
X540Y37390D01*
X436Y37547D01*
X279Y37651D01*
X95Y37688D01*
D02*
G37*
G36*
X-1175D02*
X-1359Y37651D01*
X-1516Y37547D01*
X-1620Y37390D01*
X-1657Y37206D01*
X-1620Y37022D01*
X-1516Y36865D01*
X-1359Y36761D01*
X-1175Y36724D01*
X-991Y36761D01*
X-834Y36865D01*
X-730Y37022D01*
X-693Y37206D01*
X-730Y37390D01*
X-834Y37547D01*
X-991Y37651D01*
X-1175Y37688D01*
D02*
G37*
G36*
X3778Y37079D02*
X3345D01*
X3364Y36982D01*
X3491Y36792D01*
X3681Y36665D01*
X3778Y36646D01*
Y37079D01*
D02*
G37*
G36*
Y37766D02*
X3681Y37747D01*
X3491Y37620D01*
X3364Y37430D01*
X3345Y37333D01*
X3778D01*
Y37766D01*
D02*
G37*
G36*
X5048D02*
X4951Y37747D01*
X4761Y37620D01*
X4634Y37430D01*
X4605Y37281D01*
X4475D01*
X4446Y37430D01*
X4319Y37620D01*
X4129Y37747D01*
X4032Y37766D01*
Y37206D01*
Y36646D01*
X4129Y36665D01*
X4319Y36792D01*
X4446Y36982D01*
X4475Y37131D01*
X4605D01*
X4634Y36982D01*
X4761Y36792D01*
X4951Y36665D01*
X5100Y36636D01*
Y36506D01*
X4951Y36477D01*
X4761Y36350D01*
X4634Y36160D01*
X4615Y36063D01*
X5175D01*
X5735D01*
X5716Y36160D01*
X5589Y36350D01*
X5399Y36477D01*
X5250Y36506D01*
Y36636D01*
X5399Y36665D01*
X5589Y36792D01*
X5716Y36982D01*
X5735Y37079D01*
X5175D01*
Y37206D01*
X5048D01*
Y37766D01*
D02*
G37*
G36*
X-1175Y35148D02*
X-1359Y35111D01*
X-1516Y35007D01*
X-1620Y34850D01*
X-1657Y34666D01*
X-1620Y34482D01*
X-1516Y34325D01*
X-1359Y34221D01*
X-1175Y34184D01*
X-991Y34221D01*
X-834Y34325D01*
X-730Y34482D01*
X-693Y34666D01*
X-730Y34850D01*
X-834Y35007D01*
X-991Y35111D01*
X-1175Y35148D01*
D02*
G37*
G36*
X-28627Y38359D02*
X-30600D01*
X-30699Y38339D01*
X-30783Y38283D01*
X-30839Y38199D01*
X-30859Y38100D01*
Y36127D01*
X-28627D01*
Y38359D01*
D02*
G37*
G36*
X-1048Y36496D02*
Y36063D01*
X-615D01*
X-634Y36160D01*
X-761Y36350D01*
X-951Y36477D01*
X-1048Y36496D01*
D02*
G37*
G36*
X-1302Y36496D02*
X-1399Y36477D01*
X-1589Y36350D01*
X-1716Y36160D01*
X-1735Y36063D01*
X-1302D01*
Y36496D01*
D02*
G37*
G36*
X-62844Y37103D02*
X-63814D01*
Y36133D01*
X-63653Y36154D01*
X-63384Y36266D01*
X-63153Y36443D01*
X-62976Y36673D01*
X-62865Y36942D01*
X-62844Y37103D01*
D02*
G37*
G36*
X-64068D02*
X-65038D01*
X-65016Y36942D01*
X-64905Y36673D01*
X-64728Y36443D01*
X-64498Y36266D01*
X-64229Y36154D01*
X-64068Y36133D01*
Y37103D01*
D02*
G37*
G36*
X-26400Y38359D02*
X-28373D01*
Y36127D01*
X-26141D01*
Y38100D01*
X-26161Y38199D01*
X-26217Y38283D01*
X-26301Y38339D01*
X-26400Y38359D01*
D02*
G37*
G36*
X-26141Y35873D02*
X-28373D01*
Y33641D01*
X-26400D01*
X-26301Y33661D01*
X-26217Y33717D01*
X-26161Y33801D01*
X-26141Y33900D01*
Y35873D01*
D02*
G37*
G36*
X-1302Y43429D02*
X-1735D01*
X-1716Y43332D01*
X-1589Y43142D01*
X-1399Y43015D01*
X-1302Y42996D01*
Y43429D01*
D02*
G37*
G36*
X-51477Y43173D02*
X-51919D01*
Y42990D01*
X-51899Y42891D01*
X-51843Y42807D01*
X-51759Y42751D01*
X-51660Y42731D01*
X-51477D01*
Y43173D01*
D02*
G37*
G36*
X3905Y44038D02*
X3721Y44001D01*
X3564Y43897D01*
X3460Y43740D01*
X3423Y43556D01*
X3460Y43372D01*
X3564Y43215D01*
X3721Y43111D01*
X3905Y43074D01*
X4089Y43111D01*
X4246Y43215D01*
X4350Y43372D01*
X4387Y43556D01*
X4350Y43740D01*
X4246Y43897D01*
X4089Y44001D01*
X3905Y44038D01*
D02*
G37*
G36*
X95D02*
X-89Y44001D01*
X-246Y43897D01*
X-350Y43740D01*
X-387Y43556D01*
X-350Y43372D01*
X-246Y43215D01*
X-89Y43111D01*
X95Y43074D01*
X279Y43111D01*
X436Y43215D01*
X540Y43372D01*
X577Y43556D01*
X540Y43740D01*
X436Y43897D01*
X279Y44001D01*
X95Y44038D01*
D02*
G37*
G36*
X-615Y43429D02*
X-1048D01*
Y42996D01*
X-951Y43015D01*
X-761Y43142D01*
X-634Y43332D01*
X-615Y43429D01*
D02*
G37*
G36*
X222Y42846D02*
Y42413D01*
X655D01*
X636Y42510D01*
X509Y42700D01*
X319Y42827D01*
X222Y42846D01*
D02*
G37*
G36*
X5048Y42846D02*
X4951Y42827D01*
X4761Y42700D01*
X4634Y42510D01*
X4615Y42413D01*
X5048D01*
Y42846D01*
D02*
G37*
G36*
X-32D02*
X-129Y42827D01*
X-319Y42700D01*
X-446Y42510D01*
X-465Y42413D01*
X-32D01*
Y42846D01*
D02*
G37*
G36*
X-56321Y45861D02*
X-56582Y45827D01*
X-56826Y45726D01*
X-57036Y45565D01*
X-57196Y45356D01*
X-57297Y45112D01*
X-57332Y44850D01*
X-57297Y44588D01*
X-57196Y44344D01*
X-57036Y44135D01*
X-56826Y43974D01*
X-56582Y43873D01*
X-56321Y43839D01*
X-56059Y43873D01*
X-55815Y43974D01*
X-55606Y44135D01*
X-55445Y44344D01*
X-55344Y44588D01*
X-55310Y44850D01*
X-55328Y44988D01*
X-55217Y45115D01*
X-51889D01*
X-51852Y45017D01*
X-51846Y44988D01*
X-51899Y44909D01*
X-51919Y44810D01*
Y44627D01*
X-51370D01*
Y44373D01*
X-51919D01*
Y44190D01*
X-51899Y44091D01*
X-51843Y44007D01*
X-51789Y43971D01*
X-51780Y43935D01*
Y43865D01*
X-51789Y43829D01*
X-51843Y43793D01*
X-51899Y43709D01*
X-51919Y43610D01*
Y43427D01*
X-51350D01*
Y43300D01*
X-51223D01*
Y42731D01*
X-51040D01*
X-50910Y42630D01*
X-50909Y42589D01*
X-50915Y42585D01*
X-50981Y42485D01*
X-55333D01*
X-55344Y42572D01*
X-55445Y42816D01*
X-55606Y43025D01*
X-55815Y43186D01*
X-56059Y43287D01*
X-56321Y43321D01*
X-56582Y43287D01*
X-56826Y43186D01*
X-57036Y43025D01*
X-57196Y42816D01*
X-57297Y42572D01*
X-57332Y42310D01*
X-57297Y42048D01*
X-57196Y41804D01*
X-57036Y41595D01*
X-56826Y41434D01*
X-56582Y41333D01*
X-56321Y41299D01*
X-56059Y41333D01*
X-55815Y41434D01*
X-55606Y41595D01*
X-55445Y41804D01*
X-55399Y41915D01*
X-50981D01*
X-50915Y41815D01*
X-50815Y41749D01*
Y41575D01*
X-50820D01*
X-50937Y41527D01*
X-50983Y41572D01*
X-50997Y41593D01*
X-51081Y41649D01*
X-51180Y41669D01*
X-51343D01*
Y41100D01*
Y40531D01*
X-51180D01*
X-51081Y40551D01*
X-50997Y40607D01*
X-50983Y40628D01*
X-50937Y40673D01*
X-50820Y40625D01*
X-50240D01*
X-50123Y40673D01*
X-50075Y40790D01*
Y41410D01*
X-50123Y41527D01*
X-50240Y41575D01*
X-50245D01*
Y41749D01*
X-50145Y41815D01*
X-50028Y41992D01*
X-49986Y42200D01*
X-50028Y42408D01*
X-50145Y42585D01*
X-50245Y42651D01*
Y42825D01*
X-50140D01*
X-50023Y42873D01*
X-50006Y42915D01*
X-49694D01*
X-49677Y42873D01*
X-49560Y42825D01*
X-48980D01*
X-48873Y42870D01*
X-48860Y42872D01*
X-48744Y42829D01*
Y41742D01*
X-49543Y40943D01*
X-49633Y40809D01*
X-49664Y40650D01*
Y40265D01*
X-49925D01*
X-50042Y40217D01*
X-50090Y40100D01*
Y38700D01*
X-50042Y38583D01*
X-49925Y38535D01*
X-49664D01*
Y38132D01*
X-49677Y38127D01*
X-49725Y38010D01*
Y37430D01*
X-49680Y37323D01*
X-49677Y37313D01*
Y37187D01*
X-49680Y37177D01*
X-49725Y37070D01*
Y37065D01*
X-50512D01*
X-50536Y37187D01*
X-50507Y37207D01*
X-50451Y37291D01*
X-50431Y37390D01*
Y37573D01*
X-51000D01*
X-51569D01*
Y37390D01*
X-51549Y37291D01*
X-51496Y37212D01*
X-51502Y37183D01*
X-51539Y37085D01*
X-55233D01*
X-55316Y37180D01*
X-55310Y37230D01*
X-55344Y37492D01*
X-55445Y37736D01*
X-55606Y37945D01*
X-55815Y38106D01*
X-56059Y38207D01*
X-56321Y38241D01*
X-56582Y38207D01*
X-56826Y38106D01*
X-57036Y37945D01*
X-57196Y37736D01*
X-57297Y37492D01*
X-57332Y37230D01*
X-57297Y36968D01*
X-57196Y36724D01*
X-57036Y36515D01*
X-56826Y36354D01*
X-56582Y36253D01*
X-56321Y36219D01*
X-56059Y36253D01*
X-55815Y36354D01*
X-55606Y36515D01*
X-55606Y36515D01*
X-51475D01*
Y36490D01*
X-51427Y36373D01*
X-51310Y36325D01*
X-50690D01*
X-50573Y36373D01*
X-50525Y36490D01*
Y36495D01*
X-49725D01*
Y36490D01*
X-49677Y36373D01*
X-49560Y36325D01*
X-48940D01*
X-48823Y36373D01*
X-48775Y36490D01*
Y36495D01*
X-47325D01*
Y36490D01*
X-47277Y36373D01*
X-47160Y36325D01*
X-46540D01*
X-46423Y36373D01*
X-46375Y36490D01*
Y37070D01*
X-46420Y37177D01*
X-46423Y37187D01*
Y37313D01*
X-46420Y37323D01*
X-46375Y37430D01*
Y37435D01*
X-46073D01*
X-46027Y37323D01*
X-45910Y37275D01*
X-45548D01*
X-45321Y37049D01*
X-45321Y37049D01*
X-45229Y36987D01*
X-45120Y36965D01*
X-45120Y36965D01*
X-40137D01*
Y35142D01*
X-40116Y35033D01*
X-40054Y34941D01*
X-39962Y34879D01*
X-39853Y34857D01*
X-39091D01*
X-38982Y34879D01*
X-38889Y34941D01*
X-38827Y35033D01*
X-38806Y35142D01*
Y37250D01*
Y39073D01*
X-38613D01*
Y37250D01*
Y35142D01*
X-38592Y35033D01*
X-38530Y34941D01*
X-38438Y34879D01*
X-38329Y34857D01*
X-37567D01*
X-37458Y34879D01*
X-37365Y34941D01*
X-37303Y35033D01*
X-37282Y35142D01*
Y36965D01*
X-33568D01*
X-33265Y36662D01*
X-33317Y36535D01*
X-33885D01*
X-33923Y36627D01*
X-34040Y36675D01*
X-34620D01*
X-34727Y36630D01*
X-34737Y36627D01*
X-34863D01*
X-34873Y36630D01*
X-34980Y36675D01*
X-35560D01*
X-35677Y36627D01*
X-35725Y36510D01*
Y35890D01*
X-35714Y35864D01*
Y35440D01*
X-35802Y35308D01*
X-35844Y35100D01*
X-35802Y34892D01*
X-35685Y34715D01*
X-35508Y34598D01*
X-35300Y34556D01*
X-35092Y34598D01*
X-34915Y34715D01*
X-34798Y34892D01*
X-34756Y35100D01*
X-34798Y35308D01*
X-34886Y35440D01*
Y35764D01*
X-34863Y35773D01*
X-34737D01*
X-34727Y35770D01*
X-34620Y35725D01*
X-34040D01*
X-33923Y35773D01*
X-33875Y35890D01*
Y35965D01*
X-32733D01*
X-32672Y35877D01*
X-31950D01*
X-31263D01*
X-31269Y35908D01*
X-31359Y36041D01*
X-31405Y36072D01*
X-31365Y36132D01*
X-31342Y36250D01*
X-31365Y36368D01*
X-31391Y36407D01*
X-31422Y36500D01*
X-31391Y36593D01*
X-31365Y36632D01*
X-31342Y36750D01*
X-31365Y36868D01*
X-31432Y36968D01*
Y37032D01*
X-31365Y37132D01*
X-31342Y37250D01*
X-31365Y37368D01*
X-31405Y37428D01*
X-31359Y37459D01*
X-31269Y37592D01*
X-31263Y37623D01*
X-31950D01*
X-32672D01*
X-32733Y37535D01*
X-33450D01*
X-33450Y37535D01*
X-33450Y37535D01*
X-37567D01*
X-37676Y37513D01*
X-37768Y37451D01*
X-37830Y37359D01*
X-37851Y37250D01*
Y35427D01*
X-38044D01*
Y37250D01*
Y39358D01*
X-38065Y39467D01*
X-38127Y39559D01*
X-38220Y39621D01*
X-38329Y39643D01*
X-39091D01*
X-39200Y39621D01*
X-39292Y39559D01*
X-39354Y39467D01*
X-39375Y39358D01*
Y37250D01*
Y35427D01*
X-39568D01*
Y37250D01*
X-39589Y37359D01*
X-39651Y37451D01*
X-39744Y37513D01*
X-39853Y37535D01*
X-45002D01*
X-45125Y37658D01*
Y38020D01*
X-45173Y38137D01*
X-45128Y38183D01*
X-45107Y38197D01*
X-45051Y38281D01*
X-45031Y38380D01*
Y38543D01*
X-46169D01*
Y38380D01*
X-46149Y38281D01*
X-46093Y38197D01*
X-46072Y38183D01*
X-46027Y38137D01*
X-46075Y38020D01*
Y38005D01*
X-46315D01*
Y44100D01*
X-46337Y44209D01*
X-46399Y44301D01*
X-46399Y44301D01*
X-46799Y44701D01*
X-46891Y44763D01*
X-47000Y44785D01*
X-47000Y44785D01*
X-47975D01*
Y44810D01*
X-48023Y44927D01*
X-48140Y44975D01*
X-48720D01*
X-48827Y44930D01*
X-48837Y44927D01*
X-48963D01*
X-48973Y44930D01*
X-49080Y44975D01*
X-49660D01*
X-49777Y44927D01*
X-49825Y44810D01*
Y44785D01*
X-49975D01*
Y44810D01*
X-50023Y44927D01*
X-50140Y44975D01*
X-50145Y45030D01*
X-50167Y45139D01*
X-50229Y45231D01*
X-50599Y45601D01*
X-50691Y45663D01*
X-50800Y45685D01*
X-50800Y45685D01*
X-55762D01*
X-55815Y45726D01*
X-56059Y45827D01*
X-56321Y45861D01*
D02*
G37*
G36*
X5302Y42846D02*
Y42413D01*
X5735D01*
X5716Y42510D01*
X5589Y42700D01*
X5399Y42827D01*
X5302Y42846D01*
D02*
G37*
G36*
X-32Y34539D02*
X-465D01*
X-446Y34442D01*
X-319Y34252D01*
X-129Y34125D01*
X-32Y34106D01*
Y34539D01*
D02*
G37*
G36*
X-9527Y43723D02*
X-9969D01*
Y43540D01*
X-9949Y43441D01*
X-9893Y43357D01*
X-9809Y43301D01*
X-9710Y43281D01*
X-9527D01*
Y43723D01*
D02*
G37*
G36*
X-1175Y45308D02*
X-1359Y45271D01*
X-1516Y45167D01*
X-1620Y45010D01*
X-1657Y44826D01*
X-1620Y44642D01*
X-1516Y44485D01*
X-1359Y44381D01*
X-1175Y44344D01*
X-991Y44381D01*
X-834Y44485D01*
X-730Y44642D01*
X-693Y44826D01*
X-730Y45010D01*
X-834Y45167D01*
X-991Y45271D01*
X-1175Y45308D01*
D02*
G37*
G36*
X-9866Y47773D02*
X-10900D01*
X-11934D01*
Y47025D01*
X-11917Y46940D01*
X-11965Y46825D01*
Y45975D01*
X-11935Y45902D01*
Y45763D01*
X-12074Y45624D01*
X-12192Y45702D01*
X-12400Y45744D01*
X-12608Y45702D01*
X-12785Y45585D01*
X-12902Y45408D01*
X-12944Y45200D01*
X-12902Y44992D01*
X-12785Y44815D01*
X-12608Y44698D01*
X-12400Y44656D01*
X-12192Y44698D01*
X-12015Y44815D01*
X-11898Y44992D01*
X-11897Y44997D01*
X-11894Y44999D01*
X-11562Y45331D01*
X-11435Y45278D01*
Y44651D01*
X-11535Y44585D01*
X-11652Y44408D01*
X-11694Y44200D01*
X-11652Y43992D01*
X-11535Y43815D01*
X-11358Y43698D01*
X-11150Y43656D01*
X-10942Y43698D01*
X-10765Y43815D01*
X-10648Y43992D01*
X-10606Y44200D01*
X-10648Y44408D01*
X-10765Y44585D01*
X-10865Y44651D01*
Y45663D01*
X-10800Y45716D01*
X-10777D01*
Y46400D01*
X-10523D01*
Y45716D01*
X-10500D01*
X-10435Y45663D01*
Y45050D01*
X-10435Y45050D01*
X-10413Y44941D01*
X-10351Y44849D01*
X-10101Y44599D01*
X-10009Y44537D01*
X-9900Y44515D01*
X-9875Y44440D01*
X-9847Y44374D01*
X-9893Y44343D01*
X-9949Y44259D01*
X-9969Y44160D01*
Y43977D01*
X-9400D01*
X-8831D01*
Y44160D01*
X-8851Y44259D01*
X-8907Y44343D01*
X-8953Y44374D01*
X-8925Y44440D01*
X-8900Y44515D01*
X-8791Y44537D01*
X-8699Y44599D01*
X-8499Y44799D01*
X-8499Y44799D01*
X-8437Y44891D01*
X-8415Y45000D01*
Y45949D01*
X-8315Y46015D01*
X-8198Y46192D01*
X-8156Y46400D01*
X-8198Y46608D01*
X-8315Y46785D01*
X-8492Y46902D01*
X-8700Y46944D01*
X-8908Y46902D01*
X-9085Y46785D01*
X-9202Y46608D01*
X-9244Y46400D01*
X-9202Y46192D01*
X-9085Y46015D01*
X-8985Y45949D01*
Y45295D01*
X-9090Y45225D01*
X-9710D01*
X-9738Y45213D01*
X-9865Y45298D01*
Y45902D01*
X-9835Y45975D01*
Y46825D01*
X-9883Y46940D01*
X-9866Y47025D01*
Y47773D01*
D02*
G37*
G36*
X6600Y44644D02*
X6392Y44602D01*
X6215Y44485D01*
X6098Y44308D01*
X6056Y44100D01*
X6080Y43982D01*
X5938Y43841D01*
X5553D01*
X5516Y43897D01*
X5359Y44001D01*
X5175Y44038D01*
X4991Y44001D01*
X4834Y43897D01*
X4730Y43740D01*
X4693Y43556D01*
X4730Y43372D01*
X4834Y43215D01*
X4991Y43111D01*
X5175Y43074D01*
X5359Y43111D01*
X5516Y43215D01*
X5553Y43271D01*
X6056D01*
X6056Y43271D01*
X6165Y43293D01*
X6257Y43355D01*
X6482Y43580D01*
X6600Y43556D01*
X6808Y43598D01*
X6985Y43715D01*
X7102Y43892D01*
X7144Y44100D01*
X7102Y44308D01*
X6985Y44485D01*
X6808Y44602D01*
X6600Y44644D01*
D02*
G37*
G36*
X-64068Y45947D02*
X-64229Y45926D01*
X-64498Y45814D01*
X-64728Y45637D01*
X-64905Y45407D01*
X-65016Y45138D01*
X-65038Y44977D01*
X-64068D01*
Y45947D01*
D02*
G37*
G36*
X3905Y45308D02*
X3721Y45271D01*
X3564Y45167D01*
X3460Y45010D01*
X3423Y44826D01*
X3460Y44642D01*
X3564Y44485D01*
X3721Y44381D01*
X3905Y44344D01*
X4089Y44381D01*
X4246Y44485D01*
X4350Y44642D01*
X4387Y44826D01*
X4350Y45010D01*
X4246Y45167D01*
X4089Y45271D01*
X3905Y45308D01*
D02*
G37*
G36*
X95D02*
X-89Y45271D01*
X-246Y45167D01*
X-350Y45010D01*
X-387Y44826D01*
X-350Y44642D01*
X-246Y44485D01*
X-89Y44381D01*
X95Y44344D01*
X279Y44381D01*
X436Y44485D01*
X540Y44642D01*
X577Y44826D01*
X540Y45010D01*
X436Y45167D01*
X279Y45271D01*
X95Y45308D01*
D02*
G37*
G36*
X-1302Y44116D02*
X-1399Y44097D01*
X-1589Y43970D01*
X-1716Y43780D01*
X-1735Y43683D01*
X-1302D01*
Y44116D01*
D02*
G37*
G36*
X-26139Y43876D02*
X-26322D01*
Y43434D01*
X-25880D01*
Y43617D01*
X-25899Y43716D01*
X-25955Y43800D01*
X-26039Y43856D01*
X-26139Y43876D01*
D02*
G37*
G36*
X-8831Y43723D02*
X-9273D01*
Y43281D01*
X-9090D01*
X-8991Y43301D01*
X-8907Y43357D01*
X-8851Y43441D01*
X-8831Y43540D01*
Y43723D01*
D02*
G37*
G36*
X-62844Y44723D02*
X-63814D01*
Y43753D01*
X-63653Y43774D01*
X-63384Y43886D01*
X-63153Y44063D01*
X-62976Y44293D01*
X-62865Y44562D01*
X-62844Y44723D01*
D02*
G37*
G36*
X-64068D02*
X-65038D01*
X-65016Y44562D01*
X-64905Y44293D01*
X-64728Y44063D01*
X-64498Y43886D01*
X-64229Y43774D01*
X-64068Y43753D01*
Y44723D01*
D02*
G37*
G36*
X-1048Y44116D02*
Y43683D01*
X-615D01*
X-634Y43780D01*
X-761Y43970D01*
X-951Y44097D01*
X-1048Y44116D01*
D02*
G37*
G36*
X3778Y40889D02*
X3345D01*
X3364Y40792D01*
X3491Y40602D01*
X3681Y40475D01*
X3778Y40456D01*
Y40889D01*
D02*
G37*
G36*
X-34156Y40742D02*
X-34598D01*
Y40559D01*
X-34578Y40459D01*
X-34522Y40375D01*
X-34438Y40319D01*
X-34339Y40300D01*
X-34156D01*
Y40742D01*
D02*
G37*
G36*
X-20307Y40640D02*
X-20803D01*
Y40145D01*
X-20682Y40169D01*
X-20472Y40309D01*
X-20331Y40519D01*
X-20307Y40640D01*
D02*
G37*
G36*
X-1175Y41498D02*
X-1359Y41461D01*
X-1516Y41357D01*
X-1620Y41200D01*
X-1657Y41016D01*
X-1620Y40832D01*
X-1516Y40675D01*
X-1359Y40571D01*
X-1175Y40534D01*
X-991Y40571D01*
X-834Y40675D01*
X-730Y40832D01*
X-693Y41016D01*
X-730Y41200D01*
X-834Y41357D01*
X-991Y41461D01*
X-1175Y41498D01*
D02*
G37*
G36*
X-51597Y40973D02*
X-52019D01*
Y40790D01*
X-51999Y40691D01*
X-51943Y40607D01*
X-51859Y40551D01*
X-51760Y40531D01*
X-51597D01*
Y40973D01*
D02*
G37*
G36*
X5735Y40889D02*
X5302D01*
Y40456D01*
X5399Y40475D01*
X5589Y40602D01*
X5716Y40792D01*
X5735Y40889D01*
D02*
G37*
G36*
X-1048Y40306D02*
Y39873D01*
X-615D01*
X-634Y39970D01*
X-761Y40160D01*
X-951Y40287D01*
X-1048Y40306D01*
D02*
G37*
G36*
X-1302Y40306D02*
X-1399Y40287D01*
X-1589Y40160D01*
X-1716Y39970D01*
X-1735Y39873D01*
X-1302D01*
Y40306D01*
D02*
G37*
G36*
X-50675Y40359D02*
X-51073D01*
Y39527D01*
X-50416D01*
Y40100D01*
X-50436Y40199D01*
X-50492Y40283D01*
X-50576Y40339D01*
X-50675Y40359D01*
D02*
G37*
G36*
X-21057Y40640D02*
X-21552D01*
X-21528Y40519D01*
X-21387Y40309D01*
X-21177Y40169D01*
X-21057Y40145D01*
Y40640D01*
D02*
G37*
G36*
X-56194Y40867D02*
Y39897D01*
X-55224D01*
X-55245Y40058D01*
X-55356Y40327D01*
X-55533Y40557D01*
X-55764Y40734D01*
X-56033Y40846D01*
X-56194Y40867D01*
D02*
G37*
G36*
X-56448D02*
X-56609Y40846D01*
X-56878Y40734D01*
X-57108Y40557D01*
X-57285Y40327D01*
X-57396Y40058D01*
X-57418Y39897D01*
X-56448D01*
Y40867D01*
D02*
G37*
G36*
X95Y41498D02*
X-89Y41461D01*
X-246Y41357D01*
X-350Y41200D01*
X-387Y41016D01*
X-350Y40832D01*
X-246Y40675D01*
X-89Y40571D01*
X95Y40534D01*
X279Y40571D01*
X436Y40675D01*
X540Y40832D01*
X577Y41016D01*
X540Y41200D01*
X436Y41357D01*
X279Y41461D01*
X95Y41498D01*
D02*
G37*
G36*
X-32Y42159D02*
X-465D01*
X-446Y42062D01*
X-319Y41872D01*
X-129Y41745D01*
X-32Y41726D01*
Y42159D01*
D02*
G37*
G36*
X-51597Y41669D02*
X-51760D01*
X-51859Y41649D01*
X-51943Y41593D01*
X-51999Y41509D01*
X-52019Y41410D01*
Y41227D01*
X-51597D01*
Y41669D01*
D02*
G37*
G36*
X3778Y41576D02*
X3681Y41557D01*
X3491Y41430D01*
X3364Y41240D01*
X3345Y41143D01*
X3778D01*
Y41576D01*
D02*
G37*
G36*
X3905Y42768D02*
X3721Y42731D01*
X3564Y42627D01*
X3460Y42470D01*
X3423Y42286D01*
X3460Y42102D01*
X3564Y41945D01*
X3721Y41841D01*
X3905Y41804D01*
X4089Y41841D01*
X4246Y41945D01*
X4350Y42102D01*
X4387Y42286D01*
X4350Y42470D01*
X4246Y42627D01*
X4089Y42731D01*
X3905Y42768D01*
D02*
G37*
G36*
X-1175D02*
X-1359Y42731D01*
X-1516Y42627D01*
X-1620Y42470D01*
X-1657Y42286D01*
X-1620Y42102D01*
X-1516Y41945D01*
X-1359Y41841D01*
X-1175Y41804D01*
X-991Y41841D01*
X-834Y41945D01*
X-730Y42102D01*
X-693Y42286D01*
X-730Y42470D01*
X-834Y42627D01*
X-991Y42731D01*
X-1175Y42768D01*
D02*
G37*
G36*
X655Y42159D02*
X222D01*
Y41726D01*
X319Y41745D01*
X509Y41872D01*
X636Y42062D01*
X655Y42159D01*
D02*
G37*
G36*
X-21057Y41389D02*
X-21177Y41365D01*
X-21387Y41225D01*
X-21528Y41015D01*
X-21552Y40894D01*
X-21057D01*
Y41389D01*
D02*
G37*
G36*
X-22042Y41329D02*
X-22225D01*
Y40887D01*
X-21783D01*
Y41070D01*
X-21803Y41169D01*
X-21859Y41253D01*
X-21943Y41309D01*
X-22042Y41329D01*
D02*
G37*
G36*
X-22479D02*
X-22662D01*
X-22761Y41309D01*
X-22845Y41253D01*
X-22901Y41169D01*
X-22921Y41070D01*
Y40887D01*
X-22479D01*
Y41329D01*
D02*
G37*
G36*
X5735Y42159D02*
X5175D01*
X4615D01*
X4634Y42062D01*
X4761Y41872D01*
X4951Y41745D01*
X5100Y41716D01*
Y41586D01*
X4951Y41557D01*
X4761Y41430D01*
X4634Y41240D01*
X4605Y41091D01*
X4475D01*
X4446Y41240D01*
X4319Y41430D01*
X4129Y41557D01*
X4032Y41576D01*
Y41016D01*
Y40456D01*
X4129Y40475D01*
X4319Y40602D01*
X4446Y40792D01*
X4475Y40941D01*
X4605D01*
X4634Y40792D01*
X4761Y40602D01*
X4951Y40475D01*
X5048Y40456D01*
Y41016D01*
X5175D01*
Y41143D01*
X5735D01*
X5716Y41240D01*
X5589Y41430D01*
X5399Y41557D01*
X5250Y41586D01*
Y41716D01*
X5399Y41745D01*
X5589Y41872D01*
X5716Y42062D01*
X5735Y42159D01*
D02*
G37*
G36*
X-34156Y41438D02*
X-34339D01*
X-34438Y41418D01*
X-34522Y41362D01*
X-34578Y41278D01*
X-34598Y41179D01*
Y40996D01*
X-34156D01*
Y41438D01*
D02*
G37*
G36*
X-20803Y41389D02*
Y40894D01*
X-20307D01*
X-20331Y41015D01*
X-20472Y41225D01*
X-20682Y41365D01*
X-20803Y41389D01*
D02*
G37*
%LPD*%
G36*
X-47508Y12298D02*
X-47300Y12256D01*
X-47092Y12298D01*
X-47012Y12351D01*
X-46885Y12283D01*
Y7675D01*
X-47160D01*
X-47277Y7627D01*
X-47325Y7510D01*
Y6930D01*
X-47280Y6823D01*
X-47277Y6813D01*
Y6687D01*
X-47280Y6677D01*
X-47325Y6570D01*
Y6565D01*
X-48775D01*
Y6570D01*
X-48820Y6677D01*
X-48823Y6687D01*
Y6813D01*
X-48820Y6823D01*
X-48775Y6930D01*
Y7510D01*
X-48823Y7627D01*
X-48836Y7632D01*
Y8051D01*
X-48758Y8083D01*
X-48710Y8200D01*
Y9600D01*
X-48758Y9717D01*
X-48836Y9749D01*
Y9978D01*
X-48037Y10777D01*
X-47947Y10911D01*
X-47916Y11070D01*
Y12386D01*
X-47640D01*
X-47508Y12298D01*
D02*
G37*
G36*
Y52948D02*
X-47300Y52906D01*
X-47092Y52948D01*
X-47012Y53001D01*
X-46885Y52933D01*
Y48325D01*
X-47160D01*
X-47277Y48277D01*
X-47325Y48160D01*
Y47580D01*
X-47280Y47473D01*
X-47277Y47463D01*
Y47337D01*
X-47280Y47327D01*
X-47325Y47220D01*
Y47215D01*
X-48775D01*
Y47220D01*
X-48820Y47327D01*
X-48822Y47340D01*
X-48779Y47456D01*
X-48395D01*
X-48308Y47398D01*
X-48100Y47356D01*
X-47892Y47398D01*
X-47715Y47515D01*
X-47598Y47692D01*
X-47556Y47900D01*
X-47598Y48108D01*
X-47715Y48285D01*
X-47892Y48402D01*
X-48100Y48444D01*
X-48308Y48402D01*
X-48485Y48285D01*
X-48485Y48284D01*
X-48836D01*
Y48701D01*
X-48758Y48733D01*
X-48710Y48850D01*
Y50250D01*
X-48758Y50367D01*
X-48836Y50399D01*
Y50628D01*
X-48037Y51427D01*
X-47947Y51561D01*
X-47916Y51720D01*
Y53036D01*
X-47640D01*
X-47508Y52948D01*
D02*
G37*
G36*
Y22498D02*
X-47300Y22456D01*
X-47092Y22498D01*
X-47012Y22551D01*
X-46885Y22483D01*
Y17875D01*
X-47160D01*
X-47277Y17827D01*
X-47325Y17710D01*
Y17130D01*
X-47280Y17023D01*
X-47277Y17013D01*
Y16887D01*
X-47280Y16877D01*
X-47325Y16770D01*
Y16765D01*
X-48775D01*
Y16770D01*
X-48820Y16877D01*
X-48822Y16890D01*
X-48779Y17006D01*
X-48395D01*
X-48308Y16948D01*
X-48100Y16906D01*
X-47892Y16948D01*
X-47715Y17065D01*
X-47598Y17242D01*
X-47556Y17450D01*
X-47598Y17658D01*
X-47715Y17835D01*
X-47892Y17952D01*
X-48100Y17994D01*
X-48308Y17952D01*
X-48485Y17835D01*
X-48485Y17834D01*
X-48836D01*
Y18251D01*
X-48758Y18283D01*
X-48710Y18400D01*
Y19800D01*
X-48758Y19917D01*
X-48836Y19949D01*
Y20178D01*
X-48037Y20977D01*
X-47947Y21111D01*
X-47916Y21270D01*
Y22586D01*
X-47640D01*
X-47508Y22498D01*
D02*
G37*
G36*
Y32668D02*
X-47300Y32626D01*
X-47092Y32668D01*
X-47012Y32721D01*
X-46885Y32653D01*
Y28045D01*
X-47160D01*
X-47277Y27997D01*
X-47325Y27880D01*
Y27300D01*
X-47280Y27193D01*
X-47277Y27183D01*
Y27057D01*
X-47280Y27047D01*
X-47325Y26940D01*
Y26935D01*
X-48775D01*
Y26940D01*
X-48820Y27047D01*
X-48822Y27060D01*
X-48779Y27176D01*
X-48395D01*
X-48308Y27118D01*
X-48100Y27076D01*
X-47892Y27118D01*
X-47715Y27235D01*
X-47598Y27412D01*
X-47556Y27620D01*
X-47598Y27828D01*
X-47715Y28005D01*
X-47892Y28122D01*
X-48100Y28164D01*
X-48308Y28122D01*
X-48485Y28005D01*
X-48485Y28004D01*
X-48836D01*
Y28421D01*
X-48758Y28453D01*
X-48710Y28570D01*
Y29970D01*
X-48758Y30087D01*
X-48836Y30119D01*
Y30348D01*
X-48037Y31147D01*
X-47947Y31281D01*
X-47916Y31440D01*
Y32756D01*
X-47640D01*
X-47508Y32668D01*
D02*
G37*
G36*
Y42798D02*
X-47300Y42756D01*
X-47092Y42798D01*
X-47012Y42851D01*
X-46885Y42783D01*
Y38175D01*
X-47160D01*
X-47277Y38127D01*
X-47325Y38010D01*
Y37430D01*
X-47280Y37323D01*
X-47277Y37313D01*
Y37187D01*
X-47280Y37177D01*
X-47325Y37070D01*
Y37065D01*
X-48775D01*
Y37070D01*
X-48820Y37177D01*
X-48822Y37190D01*
X-48779Y37306D01*
X-48395D01*
X-48308Y37248D01*
X-48100Y37206D01*
X-47892Y37248D01*
X-47715Y37365D01*
X-47598Y37542D01*
X-47556Y37750D01*
X-47598Y37958D01*
X-47715Y38135D01*
X-47892Y38252D01*
X-48100Y38294D01*
X-48308Y38252D01*
X-48485Y38135D01*
X-48485Y38134D01*
X-48836D01*
Y38551D01*
X-48758Y38583D01*
X-48710Y38700D01*
Y40100D01*
X-48758Y40217D01*
X-48836Y40249D01*
Y40478D01*
X-48037Y41277D01*
X-47947Y41411D01*
X-47916Y41570D01*
Y42886D01*
X-47640D01*
X-47508Y42798D01*
D02*
G37*
D10*
X-1651Y8865D02*
D03*
Y8484D02*
D03*
D11*
X-24500Y42560D02*
D03*
Y43500D02*
D03*
X-46850Y7220D02*
D03*
Y6280D02*
D03*
X-45600Y8170D02*
D03*
Y7230D02*
D03*
Y48820D02*
D03*
Y47880D02*
D03*
Y38670D02*
D03*
Y37730D02*
D03*
Y28540D02*
D03*
Y27600D02*
D03*
Y18370D02*
D03*
Y17430D02*
D03*
X-49250Y7220D02*
D03*
Y6280D02*
D03*
Y47870D02*
D03*
Y46930D02*
D03*
Y37720D02*
D03*
Y36780D02*
D03*
Y27590D02*
D03*
Y26650D02*
D03*
Y17420D02*
D03*
Y16480D02*
D03*
X-46850Y47870D02*
D03*
Y46930D02*
D03*
Y37720D02*
D03*
Y36780D02*
D03*
Y27590D02*
D03*
Y26650D02*
D03*
Y17420D02*
D03*
Y16480D02*
D03*
X-30200Y27930D02*
D03*
Y28870D02*
D03*
X-24800Y8670D02*
D03*
Y7730D02*
D03*
X-22000Y37970D02*
D03*
Y37030D02*
D03*
Y34870D02*
D03*
Y33930D02*
D03*
D12*
X-26600Y27850D02*
D03*
X-25400D02*
D03*
X-51000Y47850D02*
D03*
Y46950D02*
D03*
Y37700D02*
D03*
Y36800D02*
D03*
Y27570D02*
D03*
Y26670D02*
D03*
Y17400D02*
D03*
Y16500D02*
D03*
X-27700Y25950D02*
D03*
Y26850D02*
D03*
X-22352Y40760D02*
D03*
Y39860D02*
D03*
X-25400Y28750D02*
D03*
X-26600D02*
D03*
X-51000Y7200D02*
D03*
Y6300D02*
D03*
X-9400Y43850D02*
D03*
Y44750D02*
D03*
D13*
X-27305Y46076D02*
D03*
X-25505D02*
D03*
X-48350Y60200D02*
D03*
X-50150D02*
D03*
X-49400Y8900D02*
D03*
X-51200D02*
D03*
X-49400Y49550D02*
D03*
X-51200D02*
D03*
X-49400Y39400D02*
D03*
X-51200D02*
D03*
X-49400Y29270D02*
D03*
X-51200D02*
D03*
X-49400Y19100D02*
D03*
X-51200D02*
D03*
D14*
X-9500Y61800D02*
D03*
X-7700D02*
D03*
X-46650Y60200D02*
D03*
X-44850D02*
D03*
D15*
X-51470Y51250D02*
D03*
X-50530D02*
D03*
X-51470Y41100D02*
D03*
X-50530D02*
D03*
X-51470Y30970D02*
D03*
X-50530D02*
D03*
X-51470Y20800D02*
D03*
X-50530D02*
D03*
X-48430Y14000D02*
D03*
X-49370D02*
D03*
X-48430Y54650D02*
D03*
X-49370D02*
D03*
X-48430Y44500D02*
D03*
X-49370D02*
D03*
X-48430Y34370D02*
D03*
X-49370D02*
D03*
X-48430Y24200D02*
D03*
X-49370D02*
D03*
X-51370Y14000D02*
D03*
X-50430D02*
D03*
X-51370Y54650D02*
D03*
X-50430D02*
D03*
X-51370Y44500D02*
D03*
X-50430D02*
D03*
X-51370Y34370D02*
D03*
X-50430D02*
D03*
X-51370Y24200D02*
D03*
X-50430D02*
D03*
X-48330Y12800D02*
D03*
X-49270D02*
D03*
X-48330Y53450D02*
D03*
X-49270D02*
D03*
X-48330Y43300D02*
D03*
X-49270D02*
D03*
X-48330Y33170D02*
D03*
X-49270D02*
D03*
X-48330Y23000D02*
D03*
X-49270D02*
D03*
X-13630Y18100D02*
D03*
X-14570D02*
D03*
X-13630Y28600D02*
D03*
X-14570D02*
D03*
X-13630Y25700D02*
D03*
X-14570D02*
D03*
X-13630Y20800D02*
D03*
X-14570D02*
D03*
X-13730Y23300D02*
D03*
X-14670D02*
D03*
X-10930Y64300D02*
D03*
X-11870D02*
D03*
X-34330Y36200D02*
D03*
X-35270D02*
D03*
X-25530Y29800D02*
D03*
X-26470D02*
D03*
X-51470Y10600D02*
D03*
X-50530D02*
D03*
D16*
X-9700Y28600D02*
D03*
X-11100D02*
D03*
X-9700Y25700D02*
D03*
X-11100D02*
D03*
X-9700Y20800D02*
D03*
X-11100D02*
D03*
X-9800Y23300D02*
D03*
X-11200D02*
D03*
X-9700Y18100D02*
D03*
X-11100D02*
D03*
D17*
X-51350Y12800D02*
D03*
X-50450D02*
D03*
X-51350Y53450D02*
D03*
X-50450D02*
D03*
X-51350Y43300D02*
D03*
X-50450D02*
D03*
X-51350Y33170D02*
D03*
X-50450D02*
D03*
X-51350Y23000D02*
D03*
X-50450D02*
D03*
X-28250Y10500D02*
D03*
X-27350D02*
D03*
X-22750Y8700D02*
D03*
X-23650D02*
D03*
X-22750Y7600D02*
D03*
X-23650D02*
D03*
X-33150Y31100D02*
D03*
X-32250D02*
D03*
X-22250Y32600D02*
D03*
X-23150D02*
D03*
X-26449Y43307D02*
D03*
X-27349D02*
D03*
X-34029Y40869D02*
D03*
X-33129D02*
D03*
X-22550Y43600D02*
D03*
X-23450D02*
D03*
X-22550Y42400D02*
D03*
X-23450D02*
D03*
X-19550Y38100D02*
D03*
X-20450D02*
D03*
X-19550Y36900D02*
D03*
X-20450D02*
D03*
X-19550Y35000D02*
D03*
X-20450D02*
D03*
X-19550Y33800D02*
D03*
X-20450D02*
D03*
D18*
X-7700Y64200D02*
D03*
X-9300D02*
D03*
D19*
X-25050Y33250D02*
D03*
Y33750D02*
D03*
Y34250D02*
D03*
Y34750D02*
D03*
Y35250D02*
D03*
Y35750D02*
D03*
Y36250D02*
D03*
Y36750D02*
D03*
Y37250D02*
D03*
Y37750D02*
D03*
Y38250D02*
D03*
Y38750D02*
D03*
X-31950D02*
D03*
Y38250D02*
D03*
Y37750D02*
D03*
Y37250D02*
D03*
Y36750D02*
D03*
Y36250D02*
D03*
Y35750D02*
D03*
Y35250D02*
D03*
Y34750D02*
D03*
Y34250D02*
D03*
Y33750D02*
D03*
Y33250D02*
D03*
D20*
X-25750Y39450D02*
D03*
X-26250D02*
D03*
X-26750D02*
D03*
X-27250D02*
D03*
X-27750D02*
D03*
X-28250D02*
D03*
X-28750D02*
D03*
X-29250D02*
D03*
X-29750D02*
D03*
X-30250D02*
D03*
X-30750D02*
D03*
X-31250D02*
D03*
Y32550D02*
D03*
X-30750D02*
D03*
X-30250D02*
D03*
X-29750D02*
D03*
X-29250D02*
D03*
X-28750D02*
D03*
X-28250D02*
D03*
X-27750D02*
D03*
X-27250D02*
D03*
X-26750D02*
D03*
X-26250D02*
D03*
X-25750D02*
D03*
D21*
X-28500Y36000D02*
D03*
D22*
X-1175Y56256D02*
D03*
Y54986D02*
D03*
Y53716D02*
D03*
Y52446D02*
D03*
Y51176D02*
D03*
Y49906D02*
D03*
Y48636D02*
D03*
Y47366D02*
D03*
Y46096D02*
D03*
Y44826D02*
D03*
Y43556D02*
D03*
Y42286D02*
D03*
Y41016D02*
D03*
Y39746D02*
D03*
Y38476D02*
D03*
Y37206D02*
D03*
Y35936D02*
D03*
Y34666D02*
D03*
Y33396D02*
D03*
Y32126D02*
D03*
Y30856D02*
D03*
Y29586D02*
D03*
Y28316D02*
D03*
Y27046D02*
D03*
Y25776D02*
D03*
Y24506D02*
D03*
Y23236D02*
D03*
Y21966D02*
D03*
Y20696D02*
D03*
Y19426D02*
D03*
Y18156D02*
D03*
Y16886D02*
D03*
Y15616D02*
D03*
Y14346D02*
D03*
Y13076D02*
D03*
Y11806D02*
D03*
Y10536D02*
D03*
Y9266D02*
D03*
Y7996D02*
D03*
Y6726D02*
D03*
X95Y56256D02*
D03*
Y54986D02*
D03*
Y53716D02*
D03*
Y52446D02*
D03*
Y51176D02*
D03*
Y49906D02*
D03*
Y48636D02*
D03*
Y47366D02*
D03*
Y46096D02*
D03*
Y44826D02*
D03*
Y43556D02*
D03*
Y42286D02*
D03*
Y41016D02*
D03*
Y39746D02*
D03*
Y38476D02*
D03*
Y37206D02*
D03*
Y35936D02*
D03*
Y34666D02*
D03*
Y33396D02*
D03*
Y32126D02*
D03*
Y30856D02*
D03*
Y29586D02*
D03*
Y28316D02*
D03*
Y27046D02*
D03*
Y25776D02*
D03*
Y24506D02*
D03*
Y23236D02*
D03*
Y21966D02*
D03*
Y20696D02*
D03*
Y19426D02*
D03*
Y18156D02*
D03*
Y16886D02*
D03*
Y15616D02*
D03*
Y14346D02*
D03*
Y13076D02*
D03*
Y11806D02*
D03*
Y10536D02*
D03*
Y9266D02*
D03*
Y7996D02*
D03*
Y6726D02*
D03*
X3905Y56256D02*
D03*
Y54986D02*
D03*
Y53716D02*
D03*
Y52446D02*
D03*
Y51176D02*
D03*
Y49906D02*
D03*
Y48636D02*
D03*
Y47366D02*
D03*
Y46096D02*
D03*
Y44826D02*
D03*
Y43556D02*
D03*
Y42286D02*
D03*
Y41016D02*
D03*
Y39746D02*
D03*
Y38476D02*
D03*
Y37206D02*
D03*
Y35936D02*
D03*
Y34666D02*
D03*
Y33396D02*
D03*
Y32126D02*
D03*
Y30856D02*
D03*
Y29586D02*
D03*
Y28316D02*
D03*
Y27046D02*
D03*
Y25776D02*
D03*
Y24506D02*
D03*
Y23236D02*
D03*
Y21966D02*
D03*
Y20696D02*
D03*
Y19426D02*
D03*
Y18156D02*
D03*
Y16886D02*
D03*
Y15616D02*
D03*
Y14346D02*
D03*
Y13076D02*
D03*
Y11806D02*
D03*
Y10536D02*
D03*
Y9266D02*
D03*
Y7996D02*
D03*
Y6726D02*
D03*
X5175Y56256D02*
D03*
Y54986D02*
D03*
Y53716D02*
D03*
Y52446D02*
D03*
Y51176D02*
D03*
Y49906D02*
D03*
Y48636D02*
D03*
Y47366D02*
D03*
Y46096D02*
D03*
Y44826D02*
D03*
Y43556D02*
D03*
Y42286D02*
D03*
Y41016D02*
D03*
Y39746D02*
D03*
Y38476D02*
D03*
Y37206D02*
D03*
Y35936D02*
D03*
Y34666D02*
D03*
Y33396D02*
D03*
Y32126D02*
D03*
Y30856D02*
D03*
Y29586D02*
D03*
Y28316D02*
D03*
Y27046D02*
D03*
Y25776D02*
D03*
Y24506D02*
D03*
Y23236D02*
D03*
Y21966D02*
D03*
Y20696D02*
D03*
Y19426D02*
D03*
Y18156D02*
D03*
Y16886D02*
D03*
Y15616D02*
D03*
Y14346D02*
D03*
Y13076D02*
D03*
Y11806D02*
D03*
Y10536D02*
D03*
Y9266D02*
D03*
Y7996D02*
D03*
Y6726D02*
D03*
D23*
X-10150Y49400D02*
D03*
X-10650D02*
D03*
X-11150D02*
D03*
X-11650D02*
D03*
Y46400D02*
D03*
X-11150D02*
D03*
X-10650D02*
D03*
X-10150D02*
D03*
D24*
X-10900Y47900D02*
D03*
D25*
X-31600Y9175D02*
D03*
Y8525D02*
D03*
Y7875D02*
D03*
Y7225D02*
D03*
X-27200Y7875D02*
D03*
Y8525D02*
D03*
Y9175D02*
D03*
Y7225D02*
D03*
D26*
X-1194Y9132D02*
X-1118Y9209D01*
X-1208Y9312D02*
X-1194Y9322D01*
Y9132D02*
Y9322D01*
X-1625Y9018D02*
X-1208Y9312D01*
X-1208Y9312D01*
X-1651Y8865D02*
X-1625Y9018D01*
X-1651Y8484D02*
X-1524D01*
X-1676D02*
X-1651D01*
X-1524D02*
X-1175Y8135D01*
Y7996D02*
Y8135D01*
Y9266D02*
X-1118Y9209D01*
D27*
X-50530Y32871D02*
X-50331Y33070D01*
X-50530Y31940D02*
X-50400Y32070D01*
X-20400Y23300D02*
X-14670D01*
X-50530Y22701D02*
X-50331Y22900D01*
X-50530Y21770D02*
X-50400Y21900D01*
X4530Y15280D02*
Y18801D01*
X3905Y19426D02*
X4530Y18801D01*
X-7652Y34146D02*
X-7544Y34254D01*
X2965Y16790D02*
Y18632D01*
X2214Y19383D02*
X2965Y18632D01*
X2214Y19383D02*
Y24964D01*
X2457Y16579D02*
Y18422D01*
X1706Y19173D02*
X2457Y18422D01*
X1706Y19173D02*
Y25175D01*
X2965Y16790D02*
X3250Y16505D01*
X3524D01*
X2457Y16579D02*
X3040Y15997D01*
X-23200Y32450D02*
Y33000D01*
X-27250Y30850D02*
Y32550D01*
X-26750Y30800D02*
Y32550D01*
X-31605Y7230D02*
X-31300D01*
X-38481D02*
X-31800D01*
X-45600D02*
X-41427D01*
X-39522D02*
X-38481D01*
X-39522Y5163D02*
Y7230D01*
X-40284Y5163D02*
X-39522D01*
X-40284D02*
Y7230D01*
Y9297D01*
X-41046D02*
X-40284D01*
X-41046Y7230D02*
Y9297D01*
X-41427Y7230D02*
X-41046D01*
X-40450Y27600D02*
X-33300Y34750D01*
X-41656Y27600D02*
X-40450D01*
X-45600D02*
X-43840D01*
X-43561D01*
Y30108D01*
X-42799D01*
Y27600D02*
Y30108D01*
Y25092D02*
Y27600D01*
Y25092D02*
X-42037D01*
Y27600D01*
X-41656D01*
X-37186Y37250D02*
X-33450D01*
X-45120D02*
X-44196D01*
X-39853D01*
Y35142D02*
Y37250D01*
Y35142D02*
X-39091D01*
Y37250D01*
Y39358D01*
X-38329D01*
Y37250D02*
Y39358D01*
Y35142D02*
Y37250D01*
Y35142D02*
X-37567D01*
Y37250D01*
X-37186D01*
X-45600Y37730D02*
X-45120Y37250D01*
X-13004Y40854D02*
X-12750Y41108D01*
X-13350Y40854D02*
X-13004D01*
Y40346D02*
X-12750Y40092D01*
X-24000Y38250D02*
X-22390Y39860D01*
X-20887Y37000D02*
X-20450D01*
X-20887Y38000D02*
X-20450D01*
X-30215Y28885D02*
X-28800Y30300D01*
X-50530Y53151D02*
X-50331Y53350D01*
X-50530Y43001D02*
X-50331Y43200D01*
X-50530Y42070D02*
X-50400Y42200D01*
X-26258Y39450D02*
Y42236D01*
X-32600Y40340D02*
X-31690D01*
X-30215Y28885D02*
X-30200Y28870D01*
X-30250Y28920D02*
X-30215Y28885D01*
X-31039Y29709D02*
X-30250Y28920D01*
X-31483Y41783D02*
X-30700Y41000D01*
X-31877Y41783D02*
X-31483D01*
X-31039Y29709D02*
Y29870D01*
X-10000Y24500D02*
X-7250D01*
X2500Y15000D02*
X3637D01*
X3646Y14991D01*
X4241D01*
X4530Y15280D01*
X3524Y16505D02*
X3905Y16886D01*
X3524Y15997D02*
X3905Y15616D01*
X3040Y15997D02*
X3524D01*
X983Y17267D02*
X1250Y17000D01*
X476Y17267D02*
X983D01*
X-13560Y40346D02*
X-13004D01*
X-15960Y42746D02*
X-13560Y40346D01*
X-22204Y42746D02*
X-15960D01*
X-22550Y42400D02*
X-22204Y42746D01*
X95Y16886D02*
X476Y17267D01*
X1525Y17775D02*
X1718Y17968D01*
X95Y18156D02*
X476Y17775D01*
X1525D01*
X-15750Y43254D02*
X-13350Y40854D01*
X-22550Y43600D02*
X-22204Y43254D01*
X-15750D01*
X-11200Y23300D02*
X-10000Y24500D01*
X-13730Y23300D02*
X-11200D01*
X2336Y25805D02*
Y26164D01*
X-19204Y34654D02*
X-7862D01*
X-19550Y35000D02*
X-19204Y34654D01*
X1706Y25175D02*
X2336Y25805D01*
X-7862Y34654D02*
X-7500Y35016D01*
X2833Y25417D02*
X3026D01*
X2750Y25500D02*
X2833Y25417D01*
X2214Y24964D02*
X2750Y25500D01*
X-7544Y34254D02*
X-7503D01*
X-19550Y33800D02*
X-19204Y34146D01*
X-7652D01*
X-24716Y43284D02*
X-24500Y43500D01*
X-25210Y43284D02*
X-24716D01*
X-26258Y42236D02*
X-25210Y43284D01*
X-24716Y42776D02*
X-24500Y42560D01*
X-25000Y42776D02*
X-24716D01*
X-25750Y42026D02*
X-25000Y42776D01*
X-25750Y39450D02*
Y42026D01*
X-24500Y43500D02*
X-23987D01*
X-23887Y43600D01*
X-23450D01*
X-24500Y42560D02*
X-24047D01*
X-23887Y42400D01*
X-23450D01*
X-9129Y27671D02*
X6329D01*
X-13630Y25700D02*
X-11100D01*
X-9129Y27671D01*
X6329D02*
X7250Y26750D01*
X7500D01*
X6789Y30211D02*
X8186Y28814D01*
Y20686D02*
Y28814D01*
X6926Y19426D02*
X8186Y20686D01*
X7406Y18156D02*
X7500Y18250D01*
X5175Y18156D02*
X7406D01*
X-13630Y28600D02*
X-11100D01*
Y29150D01*
X-10039Y30211D01*
X6789D01*
X5175Y19426D02*
X6926D01*
X6679Y21250D02*
X6750D01*
X4530Y21321D02*
X6679D01*
X-11100Y21150D02*
X-10500Y21750D01*
X-6250D01*
X3905Y20696D02*
X4530Y21321D01*
X-13630Y20800D02*
X-11100D01*
Y18100D02*
Y18400D01*
X-10250Y19250D01*
X-4682D01*
X-1966Y21966D01*
X-1175D01*
X-13630Y18100D02*
X-13630Y18100D01*
X-11100D01*
X476Y13965D02*
X1460D01*
X476Y13457D02*
X1250D01*
X1460Y13965D02*
X2008Y13417D01*
X1250Y13457D02*
X1500Y13207D01*
X2008Y6540D02*
Y13417D01*
X1500Y6750D02*
Y13207D01*
X468Y5000D02*
X2008Y6540D01*
X258Y5508D02*
X1500Y6750D01*
X-11571Y5000D02*
X468D01*
X-11571Y3120D02*
Y5000D01*
X-11720Y2971D02*
X-11571Y3120D01*
X-13200Y2971D02*
X-11720D01*
X-13349Y3120D02*
X-13200Y2971D01*
X-13349Y3120D02*
Y7029D01*
X-14111D02*
X-13349D01*
X-14111Y5149D02*
Y7029D01*
X-14260Y5000D02*
X-14111Y5149D01*
X-18604Y5000D02*
X-14260D01*
X-11930Y5508D02*
X258D01*
X-12079Y5359D02*
X-11930Y5508D01*
X-12079Y3479D02*
Y5359D01*
X-12841Y3479D02*
X-12079D01*
X-12841D02*
Y7388D01*
X-12990Y7537D02*
X-12841Y7388D01*
X-14470Y7537D02*
X-12990D01*
X-14619Y7388D02*
X-14470Y7537D01*
X-14619Y5508D02*
Y7388D01*
X-18394Y5508D02*
X-14619D01*
X-21500Y7896D02*
X-18604Y5000D01*
X-21290Y8404D02*
X-18394Y5508D01*
X-22017Y7896D02*
X-21500D01*
X-22017Y8404D02*
X-21290D01*
X95Y14346D02*
X476Y13965D01*
X-22313Y7600D02*
X-22017Y7896D01*
X95Y13076D02*
X476Y13457D01*
X-22313Y8700D02*
X-22017Y8404D01*
X-22750Y8700D02*
X-22313D01*
X-22750Y7600D02*
X-22313D01*
X-25468Y16000D02*
X-4287D01*
X-26254Y21960D02*
Y27067D01*
X-25258Y16508D02*
X-4497D01*
X-25746Y21750D02*
Y27067D01*
X-1556Y18537D02*
X-1175Y18156D01*
X-1750Y18537D02*
X-1556D01*
X-4287Y16000D02*
X-1750Y18537D01*
X-26600Y27413D02*
X-26254Y27067D01*
X-26600Y27413D02*
Y27850D01*
X-1556Y19045D02*
X-1175Y19426D01*
X-1960Y19045D02*
X-1556D01*
X-4497Y16508D02*
X-1960Y19045D01*
X-25400Y27413D02*
Y27850D01*
X-25746Y27067D02*
X-25400Y27413D01*
X-26258Y21956D02*
X-26254Y21960D01*
X-26258Y16790D02*
Y21956D01*
X-25750Y21746D02*
X-25746Y21750D01*
X-25750Y17000D02*
Y21746D01*
X-26258Y16790D02*
X-25468Y16000D01*
X-25750Y17000D02*
X-25258Y16508D01*
X-24600Y39900D02*
X-24200Y39500D01*
X-19250Y37758D02*
X-14930D01*
X-19250Y37250D02*
X-15141D01*
X-1556Y15235D02*
X-1175Y15616D01*
X-2710Y15235D02*
X-1556D01*
X-3086Y14859D02*
X-2710Y15235D01*
X-11609Y14859D02*
X-3086D01*
X-12000Y15250D02*
X-11609Y14859D01*
X-19423Y37931D02*
X-19250Y37758D01*
X-19550Y38100D02*
X-19423Y37973D01*
Y37931D02*
Y37973D01*
X-2876Y14351D02*
X-2500Y14727D01*
X-1556D01*
X-1175Y14346D01*
X-12538Y14351D02*
X-2876D01*
X-12718Y14532D02*
X-12538Y14351D01*
X-19423Y37077D02*
X-19250Y37250D01*
X-19423Y37027D02*
Y37077D01*
X-19550Y36900D02*
X-19423Y37027D01*
X-14930Y37758D02*
X-14391Y37218D01*
X-15141Y37250D02*
X-14750Y36859D01*
X-14391Y37218D02*
X-14032D01*
X-14750Y36500D02*
Y36859D01*
X-50530Y12501D02*
X-50331Y12700D01*
X-50530Y11570D02*
X-50400Y11700D01*
X-31250Y31750D02*
Y32550D01*
X-31850Y31150D02*
X-31250Y31750D01*
X-32081Y31150D02*
X-31850D01*
X-24400Y27300D02*
Y32300D01*
Y27300D02*
X-20400Y23300D01*
X-17100Y18100D02*
X-14570D01*
X-17200Y20900D02*
X-17100Y20800D01*
X-17300Y25700D02*
X-16000D01*
X-17400Y28600D02*
X-14570D01*
X-16000Y25700D02*
X-14570D01*
X-17100Y20800D02*
X-14570D01*
X-24200Y38900D02*
Y39500D01*
X-24350Y38750D02*
X-24200Y38900D01*
X-25050Y38750D02*
X-24350D01*
X-25050Y36750D02*
X-23150D01*
X-22400Y36000D01*
X-29300Y42500D02*
X-29100D01*
X-28750Y42150D01*
Y39450D02*
Y42150D01*
X-30000Y40700D02*
X-29750Y40450D01*
Y39450D02*
Y40450D01*
X-34330Y36200D02*
X-34280Y36250D01*
X-31950D01*
X-33300Y38750D02*
X-31950D01*
X-34950D02*
X-33300D01*
X-32800Y38250D01*
X-31950D01*
X-36900Y40700D02*
X-34950Y38750D01*
X-36900Y40700D02*
Y44475D01*
X-40305Y47880D02*
X-36900Y44475D01*
X-32800Y35250D02*
X-31950D01*
X-33300Y34750D02*
X-32800Y35250D01*
X-33450Y37250D02*
X-32950Y36750D01*
X-31950D01*
X-33450Y37250D02*
X-31950D01*
X-33550Y33250D02*
X-33050Y33750D01*
X-31950D01*
X-33550Y33250D02*
X-31950D01*
X-35800Y31000D02*
X-33550Y33250D01*
X-35800Y20430D02*
Y31000D01*
X-38800Y17430D02*
X-35800Y20430D01*
X-33300Y34750D02*
X-31950D01*
X-25050Y35250D02*
X-23750D01*
X-23400Y35600D01*
X-25050Y33250D02*
X-24550D01*
X-24300Y33000D01*
Y32400D02*
Y33000D01*
X-24400Y32300D02*
X-24300Y32400D01*
X-29750Y30850D02*
X-29500Y30600D01*
X-29750Y30850D02*
Y32550D01*
X-30250Y28920D02*
Y32550D01*
X-29231Y31331D02*
Y32181D01*
Y31331D02*
X-28800Y30900D01*
X-28750Y31650D02*
Y32550D01*
Y31650D02*
X-28300Y31200D01*
Y30000D02*
Y31200D01*
X-29000Y29300D02*
X-28300Y30000D01*
X-29250Y32200D02*
X-29231Y32181D01*
X-28800Y30300D02*
Y30900D01*
X-29250Y32200D02*
Y32550D01*
X-29000Y28600D02*
Y29300D01*
X-31690Y40340D02*
X-31250Y39900D01*
X-30250Y39450D02*
Y39800D01*
X-30300Y41400D02*
X-29250D01*
X-30700Y41000D02*
X-30300Y41400D01*
X-30269Y39819D02*
Y39969D01*
X-30700Y40400D02*
X-30269Y39969D01*
X-30700Y40400D02*
Y41000D01*
X-29250Y39450D02*
Y41400D01*
X-25750Y30020D02*
Y32550D01*
X-26250Y30020D02*
Y32550D01*
X-25400Y28750D02*
Y29187D01*
X-25530Y29317D02*
X-25400Y29187D01*
X-25530Y29317D02*
Y29800D01*
X-26600Y28750D02*
Y29187D01*
X-26470Y29317D01*
Y29800D01*
X-25750Y30020D02*
X-25530Y29800D01*
X-26470D02*
X-26250Y30020D01*
X-25050Y34250D02*
X-22757D01*
X-22437Y33930D02*
X-22000D01*
X-22757Y34250D02*
X-22437Y33930D01*
Y34870D02*
X-22000D01*
X-22557Y34750D02*
X-22437Y34870D01*
X-25050Y34750D02*
X-22557D01*
X-20887Y33800D02*
X-20450D01*
X-21017Y33930D02*
X-20887Y33800D01*
X-22000Y33930D02*
X-21017D01*
X-20887Y35000D02*
X-20450D01*
X-21017Y34870D02*
X-20887Y35000D01*
X-22000Y34870D02*
X-21017D01*
X-23950Y33750D02*
X-23200Y33000D01*
X-25050Y33750D02*
X-23950D01*
X-20917Y37970D02*
X-20887Y38000D01*
X-22000Y37970D02*
X-20917D01*
Y37030D02*
X-20887Y37000D01*
X-22000Y37030D02*
X-20917D01*
X-22437Y37970D02*
X-22000D01*
X-22657Y37750D02*
X-22437Y37970D01*
X-25050Y37750D02*
X-22657D01*
X-22437Y37030D02*
X-22000D01*
X-22657Y37250D02*
X-22437Y37030D01*
X-25050Y37250D02*
X-22657D01*
X-25050Y38250D02*
X-24000D01*
X-27250Y40950D02*
X-26750Y40450D01*
X-27300Y41000D02*
X-27250Y40950D01*
X-26750Y39450D02*
Y40450D01*
X-27250Y39450D02*
Y40950D01*
X-31250Y39450D02*
Y39900D01*
X-11150Y44200D02*
Y46400D01*
X-11650Y45645D02*
Y46400D01*
X-12095Y45200D02*
X-11650Y45645D01*
X-12400Y45200D02*
X-12095D01*
X-9900Y44800D02*
X-8900D01*
X-8700Y45000D01*
X-10150Y45050D02*
X-9900Y44800D01*
X-10150Y45050D02*
Y46400D01*
X-8700Y45000D02*
Y46400D01*
X6056Y43556D02*
X6600Y44100D01*
X5175Y43556D02*
X6056D01*
X5926Y44826D02*
X6600Y45500D01*
X5175Y44826D02*
X5926D01*
X2300Y46700D02*
X2904Y46096D01*
X3905D01*
X-10150Y51050D02*
X-10100Y51100D01*
X-10150Y49400D02*
Y51050D01*
X-10650Y49400D02*
Y50250D01*
X-11500Y51100D02*
X-10650Y50250D01*
X-11500Y51100D02*
X-11500D01*
X5836Y48636D02*
X6600Y49400D01*
X5175Y48636D02*
X5836D01*
X2300Y50400D02*
X2794Y49906D01*
X3905D01*
X-49370Y24200D02*
X-49300D01*
X-48130Y17420D02*
X-48100Y17450D01*
X-50430Y24200D02*
X-49370D01*
X-47000D02*
X-46600Y23800D01*
Y17670D02*
Y23800D01*
X-48430Y24200D02*
X-47000D01*
X-46850Y17420D02*
X-45660D01*
X-46850D02*
X-46600Y17670D01*
X-49250Y16480D02*
X-46850D01*
X-50430Y24200D02*
Y24730D01*
X-50800Y25100D02*
X-50430Y24730D01*
X-55771Y25100D02*
X-50800D01*
X-56321Y24550D02*
X-55771Y25100D01*
X-50980Y16480D02*
X-49250D01*
X-51000Y16500D02*
X-50980Y16480D01*
X-55891Y16500D02*
X-51000D01*
X-56321Y16930D02*
X-55891Y16500D01*
X-50331Y22900D02*
X-49351D01*
X-50530Y21900D02*
Y22701D01*
X-56211Y21900D02*
X-50530D01*
Y20950D02*
Y21770D01*
X-49370Y34370D02*
X-49300D01*
X-48130Y27590D02*
X-48100Y27620D01*
X-50430Y34370D02*
X-49370D01*
X-47000D02*
X-46600Y33970D01*
Y27840D02*
Y33970D01*
X-48430Y34370D02*
X-47000D01*
X-46850Y27590D02*
X-45660D01*
X-46850D02*
X-46600Y27840D01*
X-49250Y26650D02*
X-46850D01*
X-50430Y34370D02*
Y34900D01*
X-50800Y35270D02*
X-50430Y34900D01*
X-55771Y35270D02*
X-50800D01*
X-56321Y34720D02*
X-55771Y35270D01*
X-50980Y26650D02*
X-49250D01*
X-51000Y26670D02*
X-50980Y26650D01*
X-55891Y26670D02*
X-51000D01*
X-56321Y27100D02*
X-55891Y26670D01*
X-50331Y33070D02*
X-49351D01*
X-50530Y32070D02*
Y32871D01*
X-56211Y32070D02*
X-50530D01*
Y31120D02*
Y31940D01*
X-49370Y44500D02*
X-49300D01*
X-48130Y37720D02*
X-48100Y37750D01*
X-50430Y44500D02*
X-49370D01*
X-47000D02*
X-46600Y44100D01*
Y37970D02*
Y44100D01*
X-48430Y44500D02*
X-47000D01*
X-46850Y37720D02*
X-45660D01*
X-46850D02*
X-46600Y37970D01*
X-49250Y36780D02*
X-46850D01*
X-50430Y44500D02*
Y45030D01*
X-50800Y45400D02*
X-50430Y45030D01*
X-55771Y45400D02*
X-50800D01*
X-56321Y44850D02*
X-55771Y45400D01*
X-50980Y36780D02*
X-49250D01*
X-51000Y36800D02*
X-50980Y36780D01*
X-55891Y36800D02*
X-51000D01*
X-56321Y37230D02*
X-55891Y36800D01*
X-50331Y43200D02*
X-49351D01*
X-50530Y42200D02*
Y43001D01*
X-56211Y42200D02*
X-50530D01*
Y41250D02*
Y42070D01*
X-48130Y47870D02*
X-48100Y47900D01*
X-49370Y54650D02*
X-49300D01*
X-50430D02*
X-49370D01*
X-50430D02*
Y55180D01*
X-50800Y55550D02*
X-50430Y55180D01*
X-55771Y55550D02*
X-50800D01*
X-56321Y55000D02*
X-55771Y55550D01*
X-50980Y46930D02*
X-49250D01*
X-51000Y46950D02*
X-50980Y46930D01*
X-55891Y46950D02*
X-51000D01*
X-56321Y47380D02*
X-55891Y46950D01*
X-50331Y53350D02*
X-49351D01*
X-50530Y52350D02*
Y53151D01*
X-56211Y52350D02*
X-50530D01*
Y51400D02*
Y52220D01*
X-45600Y47880D02*
X-40305D01*
X-46600Y48120D02*
Y54250D01*
X-47000Y54650D02*
X-46600Y54250D01*
X-48430Y54650D02*
X-47000D01*
X-46850Y47870D02*
X-45660D01*
X-46850D02*
X-46600Y48120D01*
X-49250Y46930D02*
X-46850D01*
X-45600Y17430D02*
X-38800D01*
X-36900Y8200D02*
X-33900D01*
X-27350Y10500D02*
X-25900D01*
X-25700Y10300D01*
X-25925Y9175D02*
X-25700Y9400D01*
X-27200Y9175D02*
X-25925D01*
X-25700Y9400D02*
Y10300D01*
X-47000Y14000D02*
X-46600Y13600D01*
Y7470D02*
Y13600D01*
X-46850Y7220D02*
X-46600Y7470D01*
X-56211Y11700D02*
X-50530D01*
Y10750D02*
Y11570D01*
X-48430Y14000D02*
X-47000D01*
X-49250Y6280D02*
X-46850D01*
Y7220D02*
X-45660D01*
X-49370Y14000D02*
X-49300D01*
X-50430D02*
X-49370D01*
X-50331Y12700D02*
X-49351D01*
X-40400Y11700D02*
X-36900Y8200D01*
X-33575Y8525D02*
X-31600D01*
X-33575Y7875D02*
X-31600D01*
Y9175D02*
X-29775D01*
X-29500Y8900D01*
Y7500D02*
Y8900D01*
X-29775Y7225D02*
X-29500Y7500D01*
X-31600Y7225D02*
X-29775D01*
X-56321Y14350D02*
X-55771Y14900D01*
X-50800D01*
X-50430Y14530D01*
Y14000D02*
Y14530D01*
X-50530Y11700D02*
Y12501D01*
X-56321Y6730D02*
X-55891Y6300D01*
X-51000D01*
X-50980Y6280D01*
X-49250D01*
D28*
X-7700Y62000D02*
X-6800D01*
X1098Y57302D02*
X2400Y56000D01*
X-4702Y57302D02*
X1098D01*
X-5700Y58300D02*
X-4702Y57302D01*
X-27349Y41049D02*
Y43307D01*
X-11405Y59895D02*
X-9500Y61800D01*
X-11405Y58674D02*
Y59895D01*
X-27349Y46032D02*
X-27305Y46076D01*
X-27349Y43307D02*
Y46032D01*
X-27628Y43586D02*
X-27349Y43307D01*
X-32309Y43586D02*
X-27628D01*
X-33129Y42766D02*
X-32309Y43586D01*
X-22390Y39860D02*
X-22352D01*
X-23172D02*
X-22390D01*
X-23495Y40183D02*
X-23172Y39860D01*
X-23495Y40183D02*
Y40843D01*
X-23647Y40996D02*
X-23495Y40843D01*
X-27349Y41049D02*
X-27300Y41000D01*
X-33129Y40869D02*
Y42766D01*
Y40869D02*
X-32600Y40340D01*
Y39700D02*
Y40340D01*
X-49250Y47870D02*
Y50800D01*
Y37720D02*
Y40650D01*
Y27590D02*
Y30520D01*
Y17420D02*
Y20350D01*
Y7220D02*
Y10150D01*
X-32250Y27550D02*
Y30100D01*
X-35300Y36170D02*
X-35270Y36200D01*
X-35300Y35100D02*
Y36170D01*
X-32250Y30100D02*
Y31100D01*
Y27550D02*
X-31300Y26600D01*
X-28600D01*
X-23150Y31450D02*
Y32600D01*
X-23400Y31200D02*
X-23150Y31450D01*
X-27350Y10500D02*
Y12650D01*
X-28600Y13900D02*
X-27350Y12650D01*
X-28600Y13900D02*
Y26600D01*
X-28350Y26850D01*
X-27700D01*
Y30100D02*
X-27100Y30700D01*
X-27700Y27050D02*
Y30100D01*
X-7700Y62600D02*
Y64200D01*
Y62000D02*
Y62600D01*
Y61800D02*
Y62000D01*
X-44850Y60200D02*
X-41800D01*
X-38800Y63200D01*
X-8300D01*
X-7700Y62600D01*
X-10930Y64300D02*
X-10830Y64200D01*
X-9300D01*
X-5700Y58300D02*
Y60900D01*
X-6800Y62000D02*
X-5700Y60900D01*
X3905Y56256D02*
X5175Y54986D01*
X3861Y56300D02*
X3905Y56256D01*
X2700Y56300D02*
X3861D01*
X2400Y56000D02*
X2700Y56300D01*
X2400Y54132D02*
Y56000D01*
Y54132D02*
X2816Y53716D01*
X3905D01*
X2400Y53300D02*
X2816Y53716D01*
X2400Y51600D02*
Y53300D01*
Y51600D02*
X2824Y51176D01*
X3905D01*
X-49250Y17420D02*
X-48130D01*
X-48330Y23000D02*
X-47300D01*
X-49250Y20350D02*
X-48330Y21270D01*
Y23000D01*
X-49250Y27590D02*
X-48130D01*
X-48330Y33170D02*
X-47300D01*
X-49250Y30520D02*
X-48330Y31440D01*
Y33170D01*
X-49250Y37720D02*
X-48130D01*
X-48330Y43300D02*
X-47300D01*
X-48330Y41570D02*
Y43300D01*
X-49250Y40650D02*
X-48330Y41570D01*
X-49250Y47870D02*
X-48130D01*
X-46650Y58950D02*
Y60200D01*
Y58950D02*
X-46600Y58900D01*
X-48350Y60200D02*
X-46650D01*
X-48330Y53450D02*
X-47300D01*
X-48330Y51720D02*
Y53450D01*
X-49250Y50800D02*
X-48330Y51720D01*
Y12800D02*
X-47300D01*
X-48330Y11070D02*
Y12800D01*
X-49250Y10150D02*
X-48330Y11070D01*
D29*
X-1175Y56256D02*
X95Y54986D01*
X-1246Y56185D02*
X-1175Y56256D01*
X-6604Y56185D02*
X-1246D01*
X-9700Y25700D02*
X-8500D01*
X-25430Y7630D02*
X-24800D01*
X-25430Y8770D02*
X-24800D01*
X-1201Y6700D02*
X-1175Y6726D01*
X-3000Y6700D02*
X-1201D01*
X-9700Y28600D02*
X-8500D01*
X-9800Y23300D02*
X-8500D01*
X-9700Y20800D02*
X-8500D01*
X-9700Y18100D02*
X-8500D01*
X-23780Y7730D02*
X-23650Y7600D01*
X-24800Y7730D02*
X-23780D01*
X-23680Y8670D02*
X-23650Y8700D01*
X-24800Y8670D02*
X-23680D01*
X-27200Y8525D02*
X-25675D01*
X-25430Y8770D01*
X-25675Y7875D02*
X-25430Y7630D01*
X-27200Y7875D02*
X-25675D01*
D30*
X-56321Y47380D02*
D03*
Y49920D02*
D03*
Y52460D02*
D03*
Y55000D02*
D03*
X-63941Y47380D02*
D03*
Y55000D02*
D03*
X-56321Y37230D02*
D03*
Y39770D02*
D03*
Y42310D02*
D03*
Y44850D02*
D03*
X-63941Y37230D02*
D03*
Y44850D02*
D03*
X-56321Y27100D02*
D03*
Y29640D02*
D03*
Y32180D02*
D03*
Y34720D02*
D03*
X-63941Y27100D02*
D03*
Y34720D02*
D03*
X-56321Y16930D02*
D03*
Y19470D02*
D03*
Y22010D02*
D03*
Y24550D02*
D03*
X-63941Y16930D02*
D03*
Y24550D02*
D03*
X-56321Y6730D02*
D03*
Y9270D02*
D03*
Y11810D02*
D03*
Y14350D02*
D03*
X-63941Y6730D02*
D03*
Y14350D02*
D03*
D31*
X0Y63000D02*
D03*
X-54600Y2500D02*
D03*
Y59050D02*
D03*
X0Y0D02*
D03*
D32*
X-1048Y58682D02*
D03*
X2000Y4300D02*
D03*
D33*
X-10900Y47900D02*
D03*
X-25502Y48260D02*
D03*
X-20930Y40767D02*
D03*
X-26797Y37694D02*
D03*
X-26848Y34341D02*
D03*
X-30150Y34366D02*
D03*
Y37643D02*
D03*
X-34468Y30810D02*
D03*
X-29693Y10566D02*
D03*
X-13335Y64313D02*
D03*
X-6604Y56185D02*
D03*
X-12750Y41108D02*
D03*
Y40092D02*
D03*
X-11405Y58674D02*
D03*
X-27356Y41910D02*
D03*
X-23647Y40996D02*
D03*
X-32600Y39700D02*
D03*
X-31877Y41783D02*
D03*
X-31039Y29870D02*
D03*
X-7250Y24500D02*
D03*
X2500Y15000D02*
D03*
X2336Y26164D02*
D03*
X-7500Y35016D02*
D03*
X3026Y25417D02*
D03*
X-7500Y34000D02*
D03*
X1250Y17000D02*
D03*
X1718Y17968D02*
D03*
X7500Y26750D02*
D03*
Y18250D02*
D03*
X-6250Y21750D02*
D03*
X6750Y21250D02*
D03*
X-24600Y39900D02*
D03*
X-8500Y28600D02*
D03*
Y25700D02*
D03*
X-12000Y15250D02*
D03*
X-12718Y14532D02*
D03*
X-14032Y37218D02*
D03*
X-14750Y36500D02*
D03*
X-35300Y35100D02*
D03*
X-32250Y30100D02*
D03*
X-23400Y31200D02*
D03*
X-3000Y6700D02*
D03*
X-8500Y23300D02*
D03*
Y20800D02*
D03*
Y18100D02*
D03*
X-17200Y23300D02*
D03*
X-17400Y28600D02*
D03*
X-17100Y18100D02*
D03*
X-17200Y20900D02*
D03*
X-17300Y25700D02*
D03*
X-33800Y8200D02*
D03*
X-27000Y30900D02*
D03*
X-22400Y36000D02*
D03*
X-29300Y42500D02*
D03*
X-30000Y40700D02*
D03*
X-23400Y35600D02*
D03*
X-24400Y32300D02*
D03*
X-29500Y30600D02*
D03*
X-29000Y28600D02*
D03*
X-11150Y44200D02*
D03*
X-12400Y45200D02*
D03*
X6600Y44100D02*
D03*
Y45500D02*
D03*
X-8700Y46400D02*
D03*
X2300Y46700D02*
D03*
X-11500Y51100D02*
D03*
X6600Y49400D02*
D03*
X-10100Y51100D02*
D03*
X2300Y50400D02*
D03*
X-48100Y17450D02*
D03*
X-47300Y23000D02*
D03*
X-50530Y21900D02*
D03*
X-48100Y27620D02*
D03*
X-47300Y33170D02*
D03*
X-50530Y32070D02*
D03*
X-48100Y37750D02*
D03*
X-47300Y43300D02*
D03*
X-50530Y42200D02*
D03*
X-48100Y47900D02*
D03*
X-46600Y58900D02*
D03*
X-47300Y53450D02*
D03*
X-50530Y52350D02*
D03*
X-47300Y12800D02*
D03*
X-40400Y11700D02*
D03*
X-50530D02*
D03*
M02*
