G04 Layer_Color=32896*
%FSLAX43Y43*%
%MOMM*%
G71*
G01*
G75*
%ADD60C,0.100*%
D60*
X-55100Y2500D02*
X-54600D01*
Y3000D01*
Y2500D02*
X-54100D01*
X-54600Y2000D02*
Y2500D01*
X-54600Y59050D02*
Y59550D01*
Y59050D02*
X-54100D01*
X-54600Y58550D02*
Y59050D01*
X-55100D02*
X-54600D01*
X-500Y0D02*
X0D01*
Y500D01*
Y0D02*
X500D01*
X0Y-500D02*
Y0D01*
X-500Y63000D02*
X0D01*
Y63500D01*
Y63000D02*
X500D01*
X0Y62500D02*
Y63000D01*
X-60131Y51190D02*
X-59631D01*
X-60631D02*
X-60131D01*
Y51690D01*
Y50690D02*
Y51190D01*
X-63941Y55000D02*
X-63441D01*
X-64441D02*
X-63941D01*
Y55500D01*
Y54500D02*
Y55000D01*
Y47380D02*
X-63441D01*
X-64441D02*
X-63941D01*
Y47880D01*
Y46880D02*
Y47380D01*
X-56321Y55000D02*
X-55821D01*
X-56821D02*
X-56321D01*
Y55500D01*
Y54500D02*
Y55000D01*
Y52460D02*
X-55821D01*
X-56821D02*
X-56321D01*
Y52960D01*
Y51960D02*
Y52460D01*
Y49920D02*
X-55821D01*
X-56821D02*
X-56321D01*
Y50420D01*
Y49420D02*
Y49920D01*
Y47380D02*
X-55821D01*
X-56821D02*
X-56321D01*
Y47880D01*
Y46880D02*
Y47380D01*
X-60131Y41040D02*
X-59631D01*
X-60631D02*
X-60131D01*
Y41540D01*
Y40540D02*
Y41040D01*
X-63941Y44850D02*
X-63441D01*
X-64441D02*
X-63941D01*
Y45350D01*
Y44350D02*
Y44850D01*
Y37230D02*
X-63441D01*
X-64441D02*
X-63941D01*
Y37730D01*
Y36730D02*
Y37230D01*
X-56321Y44850D02*
X-55821D01*
X-56821D02*
X-56321D01*
Y45350D01*
Y44350D02*
Y44850D01*
Y42310D02*
X-55821D01*
X-56821D02*
X-56321D01*
Y42810D01*
Y41810D02*
Y42310D01*
Y39770D02*
X-55821D01*
X-56821D02*
X-56321D01*
Y40270D01*
Y39270D02*
Y39770D01*
Y37230D02*
X-55821D01*
X-56821D02*
X-56321D01*
Y37730D01*
Y36730D02*
Y37230D01*
X-60131Y30910D02*
X-59631D01*
X-60631D02*
X-60131D01*
Y31410D01*
Y30410D02*
Y30910D01*
X-63941Y34720D02*
X-63441D01*
X-64441D02*
X-63941D01*
Y35220D01*
Y34220D02*
Y34720D01*
Y27100D02*
X-63441D01*
X-64441D02*
X-63941D01*
Y27600D01*
Y26600D02*
Y27100D01*
X-56321Y34720D02*
X-55821D01*
X-56821D02*
X-56321D01*
Y35220D01*
Y34220D02*
Y34720D01*
Y32180D02*
X-55821D01*
X-56821D02*
X-56321D01*
Y32680D01*
Y31680D02*
Y32180D01*
Y29640D02*
X-55821D01*
X-56821D02*
X-56321D01*
Y30140D01*
Y29140D02*
Y29640D01*
Y27100D02*
X-55821D01*
X-56821D02*
X-56321D01*
Y27600D01*
Y26600D02*
Y27100D01*
X-60131Y20740D02*
X-59631D01*
X-60631D02*
X-60131D01*
Y21240D01*
Y20240D02*
Y20740D01*
X-63941Y24550D02*
X-63441D01*
X-64441D02*
X-63941D01*
Y25050D01*
Y24050D02*
Y24550D01*
Y16930D02*
X-63441D01*
X-64441D02*
X-63941D01*
Y17430D01*
Y16430D02*
Y16930D01*
X-56321Y24550D02*
X-55821D01*
X-56821D02*
X-56321D01*
Y25050D01*
Y24050D02*
Y24550D01*
Y22010D02*
X-55821D01*
X-56821D02*
X-56321D01*
Y22510D01*
Y21510D02*
Y22010D01*
Y19470D02*
X-55821D01*
X-56821D02*
X-56321D01*
Y19970D01*
Y18970D02*
Y19470D01*
Y16930D02*
X-55821D01*
X-56821D02*
X-56321D01*
Y17430D01*
Y16430D02*
Y16930D01*
X-60131Y10540D02*
X-59631D01*
X-60631D02*
X-60131D01*
Y11040D01*
Y10040D02*
Y10540D01*
X-63941Y14350D02*
X-63441D01*
X-64441D02*
X-63941D01*
Y14850D01*
Y13850D02*
Y14350D01*
Y6730D02*
X-63441D01*
X-64441D02*
X-63941D01*
Y7230D01*
Y6230D02*
Y6730D01*
X-56321Y14350D02*
X-55821D01*
X-56821D02*
X-56321D01*
Y14850D01*
Y13850D02*
Y14350D01*
Y11810D02*
X-55821D01*
X-56821D02*
X-56321D01*
Y12310D01*
Y11310D02*
Y11810D01*
Y9270D02*
X-55821D01*
X-56821D02*
X-56321D01*
Y9770D01*
Y8770D02*
Y9270D01*
Y6730D02*
X-55821D01*
X-56821D02*
X-56321D01*
Y7230D01*
Y6230D02*
Y6730D01*
X-8854Y63846D02*
X-8500Y64200D01*
X-8854Y64554D02*
X-8500Y64200D01*
X-8146Y64554D01*
X-8500Y64200D02*
X-8146Y63846D01*
X-9700Y63800D02*
X-8900D01*
Y64600D01*
X-9700D02*
X-8900D01*
X-9700Y63800D02*
Y64600D01*
X-8100Y63800D02*
X-7300D01*
Y64600D01*
X-8100D02*
X-7300D01*
X-8100Y63800D02*
Y64600D01*
X-9800Y64200D02*
X-9300D01*
Y64700D01*
Y64200D02*
X-8800D01*
X-9300Y63700D02*
Y64200D01*
X-8200D02*
X-7700D01*
Y64700D01*
Y64200D02*
X-7200D01*
X-7700Y63700D02*
Y64200D01*
X-1175Y56256D02*
X-175D01*
X-2175D02*
X-1175D01*
Y55256D02*
Y56256D01*
Y57256D01*
X95Y56256D02*
X1095D01*
X-905D02*
X95D01*
Y55256D02*
Y56256D01*
Y57256D01*
X3905Y56256D02*
X4905D01*
X2905D02*
X3905D01*
Y55256D02*
Y56256D01*
Y57256D01*
X5175Y56256D02*
X6175D01*
X4175D02*
X5175D01*
Y55256D02*
Y56256D01*
Y57256D01*
X-1175Y54986D02*
X-175D01*
X-2175D02*
X-1175D01*
Y53986D02*
Y54986D01*
Y55986D01*
X95Y54986D02*
X1095D01*
X-905D02*
X95D01*
Y53986D02*
Y54986D01*
Y55986D01*
X3905Y54986D02*
X4905D01*
X2905D02*
X3905D01*
Y53986D02*
Y54986D01*
Y55986D01*
X5175Y54986D02*
X6175D01*
X4175D02*
X5175D01*
Y53986D02*
Y54986D01*
Y55986D01*
X-1175Y53716D02*
X-175D01*
X-2175D02*
X-1175D01*
Y52716D02*
Y53716D01*
Y54716D01*
X95Y53716D02*
X1095D01*
X-905D02*
X95D01*
Y52716D02*
Y53716D01*
Y54716D01*
X3905Y53716D02*
X4905D01*
X2905D02*
X3905D01*
Y52716D02*
Y53716D01*
Y54716D01*
X5175Y53716D02*
X6175D01*
X4175D02*
X5175D01*
Y52716D02*
Y53716D01*
Y54716D01*
X-1175Y52446D02*
X-175D01*
X-2175D02*
X-1175D01*
Y51446D02*
Y52446D01*
Y53446D01*
X95Y52446D02*
X1095D01*
X-905D02*
X95D01*
Y51446D02*
Y52446D01*
Y53446D01*
X3905Y52446D02*
X4905D01*
X2905D02*
X3905D01*
Y51446D02*
Y52446D01*
Y53446D01*
X5175Y52446D02*
X6175D01*
X4175D02*
X5175D01*
Y51446D02*
Y52446D01*
Y53446D01*
X-1175Y51176D02*
X-175D01*
X-2175D02*
X-1175D01*
Y50176D02*
Y51176D01*
Y52176D01*
X95Y51176D02*
X1095D01*
X-905D02*
X95D01*
Y50176D02*
Y51176D01*
Y52176D01*
X3905Y51176D02*
X4905D01*
X2905D02*
X3905D01*
Y50176D02*
Y51176D01*
Y52176D01*
X5175Y51176D02*
X6175D01*
X4175D02*
X5175D01*
Y50176D02*
Y51176D01*
Y52176D01*
X-1175Y49906D02*
X-175D01*
X-2175D02*
X-1175D01*
Y48906D02*
Y49906D01*
Y50906D01*
X95Y49906D02*
X1095D01*
X-905D02*
X95D01*
Y48906D02*
Y49906D01*
Y50906D01*
X3905Y49906D02*
X4905D01*
X2905D02*
X3905D01*
Y48906D02*
Y49906D01*
Y50906D01*
X5175Y49906D02*
X6175D01*
X4175D02*
X5175D01*
Y48906D02*
Y49906D01*
Y50906D01*
X-1175Y48636D02*
X-175D01*
X-2175D02*
X-1175D01*
Y47636D02*
Y48636D01*
Y49636D01*
X95Y48636D02*
X1095D01*
X-905D02*
X95D01*
Y47636D02*
Y48636D01*
Y49636D01*
X3905Y48636D02*
X4905D01*
X2905D02*
X3905D01*
Y47636D02*
Y48636D01*
Y49636D01*
X5175Y48636D02*
X6175D01*
X4175D02*
X5175D01*
Y47636D02*
Y48636D01*
Y49636D01*
X-1175Y47366D02*
X-175D01*
X-2175D02*
X-1175D01*
Y46366D02*
Y47366D01*
Y48366D01*
X95Y47366D02*
X1095D01*
X-905D02*
X95D01*
Y46366D02*
Y47366D01*
Y48366D01*
X3905Y47366D02*
X4905D01*
X2905D02*
X3905D01*
Y46366D02*
Y47366D01*
Y48366D01*
X5175Y47366D02*
X6175D01*
X4175D02*
X5175D01*
Y46366D02*
Y47366D01*
Y48366D01*
X-1175Y46096D02*
X-175D01*
X-2175D02*
X-1175D01*
Y45096D02*
Y46096D01*
Y47096D01*
X95Y46096D02*
X1095D01*
X-905D02*
X95D01*
Y45096D02*
Y46096D01*
Y47096D01*
X3905Y46096D02*
X4905D01*
X2905D02*
X3905D01*
Y45096D02*
Y46096D01*
Y47096D01*
X5175Y46096D02*
X6175D01*
X4175D02*
X5175D01*
Y45096D02*
Y46096D01*
Y47096D01*
X-1175Y44826D02*
X-175D01*
X-2175D02*
X-1175D01*
Y43826D02*
Y44826D01*
Y45826D01*
X95Y44826D02*
X1095D01*
X-905D02*
X95D01*
Y43826D02*
Y44826D01*
Y45826D01*
X3905Y44826D02*
X4905D01*
X2905D02*
X3905D01*
Y43826D02*
Y44826D01*
Y45826D01*
X5175Y44826D02*
X6175D01*
X4175D02*
X5175D01*
Y43826D02*
Y44826D01*
Y45826D01*
X-1175Y43556D02*
X-175D01*
X-2175D02*
X-1175D01*
Y42556D02*
Y43556D01*
Y44556D01*
X95Y43556D02*
X1095D01*
X-905D02*
X95D01*
Y42556D02*
Y43556D01*
Y44556D01*
X3905Y43556D02*
X4905D01*
X2905D02*
X3905D01*
Y42556D02*
Y43556D01*
Y44556D01*
X5175Y43556D02*
X6175D01*
X4175D02*
X5175D01*
Y42556D02*
Y43556D01*
Y44556D01*
X-1175Y42286D02*
X-175D01*
X-2175D02*
X-1175D01*
Y41286D02*
Y42286D01*
Y43286D01*
X95Y42286D02*
X1095D01*
X-905D02*
X95D01*
Y41286D02*
Y42286D01*
Y43286D01*
X3905Y42286D02*
X4905D01*
X2905D02*
X3905D01*
Y41286D02*
Y42286D01*
Y43286D01*
X5175Y42286D02*
X6175D01*
X4175D02*
X5175D01*
Y41286D02*
Y42286D01*
Y43286D01*
X-1175Y41016D02*
X-175D01*
X-2175D02*
X-1175D01*
Y40016D02*
Y41016D01*
Y42016D01*
X95Y41016D02*
X1095D01*
X-905D02*
X95D01*
Y40016D02*
Y41016D01*
Y42016D01*
X3905Y41016D02*
X4905D01*
X2905D02*
X3905D01*
Y40016D02*
Y41016D01*
Y42016D01*
X5175Y41016D02*
X6175D01*
X4175D02*
X5175D01*
Y40016D02*
Y41016D01*
Y42016D01*
X-1175Y39746D02*
X-175D01*
X-2175D02*
X-1175D01*
Y38746D02*
Y39746D01*
Y40746D01*
X95Y39746D02*
X1095D01*
X-905D02*
X95D01*
Y38746D02*
Y39746D01*
Y40746D01*
X3905Y39746D02*
X4905D01*
X2905D02*
X3905D01*
Y38746D02*
Y39746D01*
Y40746D01*
X5175Y39746D02*
X6175D01*
X4175D02*
X5175D01*
Y38746D02*
Y39746D01*
Y40746D01*
X-1175Y38476D02*
X-175D01*
X-2175D02*
X-1175D01*
Y37476D02*
Y38476D01*
Y39476D01*
X95Y38476D02*
X1095D01*
X-905D02*
X95D01*
Y37476D02*
Y38476D01*
Y39476D01*
X3905Y38476D02*
X4905D01*
X2905D02*
X3905D01*
Y37476D02*
Y38476D01*
Y39476D01*
X5175Y38476D02*
X6175D01*
X4175D02*
X5175D01*
Y37476D02*
Y38476D01*
Y39476D01*
X-1175Y37206D02*
X-175D01*
X-2175D02*
X-1175D01*
Y36206D02*
Y37206D01*
Y38206D01*
X95Y37206D02*
X1095D01*
X-905D02*
X95D01*
Y36206D02*
Y37206D01*
Y38206D01*
X3905Y37206D02*
X4905D01*
X2905D02*
X3905D01*
Y36206D02*
Y37206D01*
Y38206D01*
X5175Y37206D02*
X6175D01*
X4175D02*
X5175D01*
Y36206D02*
Y37206D01*
Y38206D01*
X-1175Y35936D02*
X-175D01*
X-2175D02*
X-1175D01*
Y34936D02*
Y35936D01*
Y36936D01*
X95Y35936D02*
X1095D01*
X-905D02*
X95D01*
Y34936D02*
Y35936D01*
Y36936D01*
X3905Y35936D02*
X4905D01*
X2905D02*
X3905D01*
Y34936D02*
Y35936D01*
Y36936D01*
X5175Y35936D02*
X6175D01*
X4175D02*
X5175D01*
Y34936D02*
Y35936D01*
Y36936D01*
X-1175Y34666D02*
X-175D01*
X-2175D02*
X-1175D01*
Y33666D02*
Y34666D01*
Y35666D01*
X95Y34666D02*
X1095D01*
X-905D02*
X95D01*
Y33666D02*
Y34666D01*
Y35666D01*
X3905Y34666D02*
X4905D01*
X2905D02*
X3905D01*
Y33666D02*
Y34666D01*
Y35666D01*
X5175Y34666D02*
X6175D01*
X4175D02*
X5175D01*
Y33666D02*
Y34666D01*
Y35666D01*
X-1175Y33396D02*
X-175D01*
X-2175D02*
X-1175D01*
Y32396D02*
Y33396D01*
Y34396D01*
X95Y33396D02*
X1095D01*
X-905D02*
X95D01*
Y32396D02*
Y33396D01*
Y34396D01*
X3905Y33396D02*
X4905D01*
X2905D02*
X3905D01*
Y32396D02*
Y33396D01*
Y34396D01*
X5175Y33396D02*
X6175D01*
X4175D02*
X5175D01*
Y32396D02*
Y33396D01*
Y34396D01*
X-1175Y32126D02*
X-175D01*
X-2175D02*
X-1175D01*
Y31126D02*
Y32126D01*
Y33126D01*
X95Y32126D02*
X1095D01*
X-905D02*
X95D01*
Y31126D02*
Y32126D01*
Y33126D01*
X3905Y32126D02*
X4905D01*
X2905D02*
X3905D01*
Y31126D02*
Y32126D01*
Y33126D01*
X5175Y32126D02*
X6175D01*
X4175D02*
X5175D01*
Y31126D02*
Y32126D01*
Y33126D01*
X-1175Y30856D02*
X-175D01*
X-2175D02*
X-1175D01*
Y29856D02*
Y30856D01*
Y31856D01*
X95Y30856D02*
X1095D01*
X-905D02*
X95D01*
Y29856D02*
Y30856D01*
Y31856D01*
X3905Y30856D02*
X4905D01*
X2905D02*
X3905D01*
Y29856D02*
Y30856D01*
Y31856D01*
X5175Y30856D02*
X6175D01*
X4175D02*
X5175D01*
Y29856D02*
Y30856D01*
Y31856D01*
X-1175Y29586D02*
X-175D01*
X-2175D02*
X-1175D01*
Y28586D02*
Y29586D01*
Y30586D01*
X95Y29586D02*
X1095D01*
X-905D02*
X95D01*
Y28586D02*
Y29586D01*
Y30586D01*
X3905Y29586D02*
X4905D01*
X2905D02*
X3905D01*
Y28586D02*
Y29586D01*
Y30586D01*
X5175Y29586D02*
X6175D01*
X4175D02*
X5175D01*
Y28586D02*
Y29586D01*
Y30586D01*
X-1175Y28316D02*
X-175D01*
X-2175D02*
X-1175D01*
Y27316D02*
Y28316D01*
Y29316D01*
X95Y28316D02*
X1095D01*
X-905D02*
X95D01*
Y27316D02*
Y28316D01*
Y29316D01*
X3905Y28316D02*
X4905D01*
X2905D02*
X3905D01*
Y27316D02*
Y28316D01*
Y29316D01*
X5175Y28316D02*
X6175D01*
X4175D02*
X5175D01*
Y27316D02*
Y28316D01*
Y29316D01*
X-1175Y27046D02*
X-175D01*
X-2175D02*
X-1175D01*
Y26046D02*
Y27046D01*
Y28046D01*
X95Y27046D02*
X1095D01*
X-905D02*
X95D01*
Y26046D02*
Y27046D01*
Y28046D01*
X3905Y27046D02*
X4905D01*
X2905D02*
X3905D01*
Y26046D02*
Y27046D01*
Y28046D01*
X5175Y27046D02*
X6175D01*
X4175D02*
X5175D01*
Y26046D02*
Y27046D01*
Y28046D01*
X-1175Y25776D02*
X-175D01*
X-2175D02*
X-1175D01*
Y24776D02*
Y25776D01*
Y26776D01*
X95Y25776D02*
X1095D01*
X-905D02*
X95D01*
Y24776D02*
Y25776D01*
Y26776D01*
X3905Y25776D02*
X4905D01*
X2905D02*
X3905D01*
Y24776D02*
Y25776D01*
Y26776D01*
X5175Y25776D02*
X6175D01*
X4175D02*
X5175D01*
Y24776D02*
Y25776D01*
Y26776D01*
X-1175Y24506D02*
X-175D01*
X-2175D02*
X-1175D01*
Y23506D02*
Y24506D01*
Y25506D01*
X95Y24506D02*
X1095D01*
X-905D02*
X95D01*
Y23506D02*
Y24506D01*
Y25506D01*
X3905Y24506D02*
X4905D01*
X2905D02*
X3905D01*
Y23506D02*
Y24506D01*
Y25506D01*
X5175Y24506D02*
X6175D01*
X4175D02*
X5175D01*
Y23506D02*
Y24506D01*
Y25506D01*
X-1175Y23236D02*
X-175D01*
X-2175D02*
X-1175D01*
Y22236D02*
Y23236D01*
Y24236D01*
X95Y23236D02*
X1095D01*
X-905D02*
X95D01*
Y22236D02*
Y23236D01*
Y24236D01*
X3905Y23236D02*
X4905D01*
X2905D02*
X3905D01*
Y22236D02*
Y23236D01*
Y24236D01*
X5175Y23236D02*
X6175D01*
X4175D02*
X5175D01*
Y22236D02*
Y23236D01*
Y24236D01*
X-1175Y21966D02*
X-175D01*
X-2175D02*
X-1175D01*
Y20966D02*
Y21966D01*
Y22966D01*
X95Y21966D02*
X1095D01*
X-905D02*
X95D01*
Y20966D02*
Y21966D01*
Y22966D01*
X3905Y21966D02*
X4905D01*
X2905D02*
X3905D01*
Y20966D02*
Y21966D01*
Y22966D01*
X5175Y21966D02*
X6175D01*
X4175D02*
X5175D01*
Y20966D02*
Y21966D01*
Y22966D01*
X-1175Y20696D02*
X-175D01*
X-2175D02*
X-1175D01*
Y19696D02*
Y20696D01*
Y21696D01*
X95Y20696D02*
X1095D01*
X-905D02*
X95D01*
Y19696D02*
Y20696D01*
Y21696D01*
X3905Y20696D02*
X4905D01*
X2905D02*
X3905D01*
Y19696D02*
Y20696D01*
Y21696D01*
X5175Y20696D02*
X6175D01*
X4175D02*
X5175D01*
Y19696D02*
Y20696D01*
Y21696D01*
X-1175Y19426D02*
X-175D01*
X-2175D02*
X-1175D01*
Y18426D02*
Y19426D01*
Y20426D01*
X95Y19426D02*
X1095D01*
X-905D02*
X95D01*
Y18426D02*
Y19426D01*
Y20426D01*
X3905Y19426D02*
X4905D01*
X2905D02*
X3905D01*
Y18426D02*
Y19426D01*
Y20426D01*
X5175Y19426D02*
X6175D01*
X4175D02*
X5175D01*
Y18426D02*
Y19426D01*
Y20426D01*
X-1175Y18156D02*
X-175D01*
X-2175D02*
X-1175D01*
Y17156D02*
Y18156D01*
Y19156D01*
X95Y18156D02*
X1095D01*
X-905D02*
X95D01*
Y17156D02*
Y18156D01*
Y19156D01*
X3905Y18156D02*
X4905D01*
X2905D02*
X3905D01*
Y17156D02*
Y18156D01*
Y19156D01*
X5175Y18156D02*
X6175D01*
X4175D02*
X5175D01*
Y17156D02*
Y18156D01*
Y19156D01*
X-1175Y16886D02*
X-175D01*
X-2175D02*
X-1175D01*
Y15886D02*
Y16886D01*
Y17886D01*
X95Y16886D02*
X1095D01*
X-905D02*
X95D01*
Y15886D02*
Y16886D01*
Y17886D01*
X3905Y16886D02*
X4905D01*
X2905D02*
X3905D01*
Y15886D02*
Y16886D01*
Y17886D01*
X5175Y16886D02*
X6175D01*
X4175D02*
X5175D01*
Y15886D02*
Y16886D01*
Y17886D01*
X-1175Y15616D02*
X-175D01*
X-2175D02*
X-1175D01*
Y14616D02*
Y15616D01*
Y16616D01*
X95Y15616D02*
X1095D01*
X-905D02*
X95D01*
Y14616D02*
Y15616D01*
Y16616D01*
X3905Y15616D02*
X4905D01*
X2905D02*
X3905D01*
Y14616D02*
Y15616D01*
Y16616D01*
X5175Y15616D02*
X6175D01*
X4175D02*
X5175D01*
Y14616D02*
Y15616D01*
Y16616D01*
X-1175Y14346D02*
X-175D01*
X-2175D02*
X-1175D01*
Y13346D02*
Y14346D01*
Y15346D01*
X95Y14346D02*
X1095D01*
X-905D02*
X95D01*
Y13346D02*
Y14346D01*
Y15346D01*
X3905Y14346D02*
X4905D01*
X2905D02*
X3905D01*
Y13346D02*
Y14346D01*
Y15346D01*
X5175Y14346D02*
X6175D01*
X4175D02*
X5175D01*
Y13346D02*
Y14346D01*
Y15346D01*
X-1175Y13076D02*
X-175D01*
X-2175D02*
X-1175D01*
Y12076D02*
Y13076D01*
Y14076D01*
X95Y13076D02*
X1095D01*
X-905D02*
X95D01*
Y12076D02*
Y13076D01*
Y14076D01*
X3905Y13076D02*
X4905D01*
X2905D02*
X3905D01*
Y12076D02*
Y13076D01*
Y14076D01*
X5175Y13076D02*
X6175D01*
X4175D02*
X5175D01*
Y12076D02*
Y13076D01*
Y14076D01*
X-1175Y11806D02*
X-175D01*
X-2175D02*
X-1175D01*
Y10806D02*
Y11806D01*
Y12806D01*
X95Y11806D02*
X1095D01*
X-905D02*
X95D01*
Y10806D02*
Y11806D01*
Y12806D01*
X3905Y11806D02*
X4905D01*
X2905D02*
X3905D01*
Y10806D02*
Y11806D01*
Y12806D01*
X5175Y11806D02*
X6175D01*
X4175D02*
X5175D01*
Y10806D02*
Y11806D01*
Y12806D01*
X-1175Y10536D02*
X-175D01*
X-2175D02*
X-1175D01*
Y9536D02*
Y10536D01*
Y11536D01*
X95Y10536D02*
X1095D01*
X-905D02*
X95D01*
Y9536D02*
Y10536D01*
Y11536D01*
X3905Y10536D02*
X4905D01*
X2905D02*
X3905D01*
Y9536D02*
Y10536D01*
Y11536D01*
X5175Y10536D02*
X6175D01*
X4175D02*
X5175D01*
Y9536D02*
Y10536D01*
Y11536D01*
X-1175Y9266D02*
X-175D01*
X-2175D02*
X-1175D01*
Y8266D02*
Y9266D01*
Y10266D01*
X95Y9266D02*
X1095D01*
X-905D02*
X95D01*
Y8266D02*
Y9266D01*
Y10266D01*
X3905Y9266D02*
X4905D01*
X2905D02*
X3905D01*
Y8266D02*
Y9266D01*
Y10266D01*
X5175Y9266D02*
X6175D01*
X4175D02*
X5175D01*
Y8266D02*
Y9266D01*
Y10266D01*
X-1175Y7996D02*
X-175D01*
X-2175D02*
X-1175D01*
Y6996D02*
Y7996D01*
Y8996D01*
X95Y7996D02*
X1095D01*
X-905D02*
X95D01*
Y6996D02*
Y7996D01*
Y8996D01*
X3905Y7996D02*
X4905D01*
X2905D02*
X3905D01*
Y6996D02*
Y7996D01*
Y8996D01*
X5175Y7996D02*
X6175D01*
X4175D02*
X5175D01*
Y6996D02*
Y7996D01*
Y8996D01*
X-1175Y6726D02*
X-175D01*
X-2175D02*
X-1175D01*
Y5726D02*
Y6726D01*
Y7726D01*
X95Y6726D02*
X1095D01*
X-905D02*
X95D01*
Y5726D02*
Y6726D01*
Y7726D01*
X3905Y6726D02*
X4905D01*
X2905D02*
X3905D01*
Y5726D02*
Y6726D01*
Y7726D01*
X5175Y6726D02*
X6175D01*
X4175D02*
X5175D01*
Y5726D02*
Y6726D01*
Y7726D01*
X2000Y4300D02*
X3000D01*
X1000D02*
X2000D01*
Y3300D02*
Y4300D01*
Y5300D01*
X-1048Y58682D02*
X-48D01*
X-2048D02*
X-1048D01*
Y57682D02*
Y58682D01*
Y59682D01*
M02*
