M48
;Layer_Color=9474304
;FILE_FORMAT=4:3
METRIC,LZ
;TYPE=PLATED
T1F00S00C0.305
T2F00S00C1.000
T3F00S00C2.700
;TYPE=NON_PLATED
T4F00S00C1.300
%
T01
X00025Y0015
X000125Y0017
X0001718Y0017968
X00075Y001825
X000675Y002125
X00075Y002675
X0002336Y0026164
X0003026Y0025417
X-000725Y00245
X-00085Y00233
Y00257
Y00286
X-00075Y0034
Y0035016
X-000625Y002175
X-00085Y00208
Y00181
X-0012Y001525
X-0012718Y0014532
X-00171Y00181
X-00172Y00209
Y00233
X-00173Y00257
X-00174Y00286
X-00234Y00312
X-00244Y00323
X-0027Y00309
X-00295Y00306
X-0031039Y002987
X-003225Y00301
X-0034468Y003081
X-00353Y00351
X-003015Y0034366
X-0026848Y0034341
X-00234Y00356
X-00224Y0036
X-0029Y00286
X-0029693Y0010566
X-00338Y00082
X-00404Y00117
X-0003Y00067
X-00473Y00128
X-005053Y00117
X-00481Y001745
X-00473Y0023
X-005053Y00219
X-00481Y002762
X-00473Y003317
X-005053Y003207
X-00481Y003775
X-00473Y00433
X-005053Y00422
X-00481Y00479
X-00473Y005345
X-005053Y005235
X-00466Y00589
X-0025502Y004826
X-0027356Y004191
X-00293Y00425
X-003Y00407
X-0031877Y0041783
X-00326Y00397
X-003015Y0037643
X-0026797Y0037694
X-00246Y00399
X-0023647Y0040996
X-002093Y0040767
X-001275Y0041108
Y0040092
X-0014032Y0037218
X-001475Y00365
X-00124Y00452
X-001115Y00442
X-00109Y00479
X-00087Y00464
X-00101Y00511
X-00115
X-0011405Y0058674
X-0006604Y0056185
X-0013335Y0064313
X00023Y00504
Y00467
X00066Y00455
Y00441
Y00494
T02
X-0063941Y000673
X-0056321
Y000927
Y001181
Y001435
Y001693
Y001947
Y002201
Y002455
Y00271
Y002964
Y003218
Y003472
X-0063941
Y00271
Y002455
Y001693
Y001435
Y003723
X-0056321
Y003977
Y004231
Y004485
Y004738
Y004992
Y005246
Y0055
X-0063941
Y004738
Y004485
T03
X0Y0
X-00546Y00025
Y005905
X0Y0063
T04
X0002Y00043
X-0001048Y0058682
M30
