G04 Layer_Color=65535*
%FSLAX43Y43*%
%MOMM*%
G71*
G01*
G75*
%ADD27C,0.254*%
%ADD35C,0.300*%
%ADD36C,0.200*%
%ADD37C,0.250*%
%ADD38C,0.125*%
%ADD39C,0.150*%
D27*
X-1522Y9616D02*
Y11140D01*
X-506Y9616D01*
Y11140D01*
X2D02*
X1018D01*
X510D01*
Y9616D01*
X1525D02*
X2033D01*
X1779D01*
Y11140D01*
X1525Y10886D01*
D35*
X-53331Y47990D02*
G03*
X-53331Y47990I-150J0D01*
G01*
Y37840D02*
G03*
X-53331Y37840I-150J0D01*
G01*
Y27710D02*
G03*
X-53331Y27710I-150J0D01*
G01*
Y17540D02*
G03*
X-53331Y17540I-150J0D01*
G01*
Y7340D02*
G03*
X-53331Y7340I-150J0D01*
G01*
D36*
X-71151Y48590D02*
G03*
X-71151Y48590I-600J0D01*
G01*
X-67685Y48061D02*
G03*
X-67054Y48490I134J482D01*
G01*
X-71198Y48358D02*
G03*
X-71441Y49104I-553J233D01*
G01*
X-71151Y53790D02*
G03*
X-71151Y53790I-600J0D01*
G01*
X-67054Y53890D02*
G03*
X-67685Y54319I-497J-53D01*
G01*
X-71441Y53276D02*
G03*
X-71198Y54023I-309J514D01*
G01*
X-71151Y38440D02*
G03*
X-71151Y38440I-600J0D01*
G01*
X-67685Y37911D02*
G03*
X-67054Y38340I134J482D01*
G01*
X-71198Y38208D02*
G03*
X-71441Y38954I-553J233D01*
G01*
X-71151Y43640D02*
G03*
X-71151Y43640I-600J0D01*
G01*
X-67054Y43740D02*
G03*
X-67685Y44169I-497J-53D01*
G01*
X-71441Y43126D02*
G03*
X-71198Y43873I-309J514D01*
G01*
X-71151Y28310D02*
G03*
X-71151Y28310I-600J0D01*
G01*
X-67685Y27781D02*
G03*
X-67054Y28210I134J482D01*
G01*
X-71198Y28078D02*
G03*
X-71441Y28824I-553J233D01*
G01*
X-71151Y33510D02*
G03*
X-71151Y33510I-600J0D01*
G01*
X-67054Y33610D02*
G03*
X-67685Y34039I-497J-53D01*
G01*
X-71441Y32996D02*
G03*
X-71198Y33743I-309J514D01*
G01*
X-71151Y18140D02*
G03*
X-71151Y18140I-600J0D01*
G01*
X-67685Y17611D02*
G03*
X-67054Y18040I134J482D01*
G01*
X-71198Y17908D02*
G03*
X-71441Y18654I-553J233D01*
G01*
X-71151Y23340D02*
G03*
X-71151Y23340I-600J0D01*
G01*
X-67054Y23440D02*
G03*
X-67685Y23869I-497J-53D01*
G01*
X-71441Y22826D02*
G03*
X-71198Y23573I-309J514D01*
G01*
X-71151Y7940D02*
G03*
X-71151Y7940I-600J0D01*
G01*
X-67685Y7411D02*
G03*
X-67054Y7840I134J482D01*
G01*
X-71198Y7708D02*
G03*
X-71441Y8454I-553J233D01*
G01*
X-71151Y13140D02*
G03*
X-71151Y13140I-600J0D01*
G01*
X-67054Y13240D02*
G03*
X-67685Y13669I-497J-53D01*
G01*
X-71441Y12626D02*
G03*
X-71198Y13373I-309J514D01*
G01*
X-5341Y55138D02*
G03*
X-5087Y54884I254J0D01*
G01*
Y8098D02*
G03*
X-5341Y7844I0J-254D01*
G01*
X-4172Y54630D02*
G03*
X-4426Y54884I-254J0D01*
G01*
Y8098D02*
G03*
X-4172Y8352I0J254D01*
G01*
X-4426Y53818D02*
G03*
X-4172Y54072I0J254D01*
G01*
Y8910D02*
G03*
X-4426Y9164I-254J0D01*
G01*
X-5087Y53818D02*
G03*
X-5341Y53564I0J-254D01*
G01*
Y9418D02*
G03*
X-5087Y9164I254J0D01*
G01*
X-5341Y52598D02*
G03*
X-5087Y52344I254J0D01*
G01*
Y10638D02*
G03*
X-5341Y10384I0J-254D01*
G01*
X-4172Y52090D02*
G03*
X-4426Y52344I-254J0D01*
G01*
Y10638D02*
G03*
X-4172Y10892I0J254D01*
G01*
X-4426Y51278D02*
G03*
X-4172Y51532I0J254D01*
G01*
Y11450D02*
G03*
X-4426Y11704I-254J0D01*
G01*
X-5087Y51278D02*
G03*
X-5341Y51024I0J-254D01*
G01*
Y11958D02*
G03*
X-5087Y11704I254J0D01*
G01*
X-5341Y50058D02*
G03*
X-5087Y49804I254J0D01*
G01*
Y13178D02*
G03*
X-5341Y12924I0J-254D01*
G01*
X-4172Y49550D02*
G03*
X-4426Y49804I-254J0D01*
G01*
Y13178D02*
G03*
X-4172Y13432I0J254D01*
G01*
X-4426Y48738D02*
G03*
X-4172Y48992I0J254D01*
G01*
Y13990D02*
G03*
X-4426Y14244I-254J0D01*
G01*
X-5087Y48738D02*
G03*
X-5341Y48484I0J-254D01*
G01*
Y14498D02*
G03*
X-5087Y14244I254J0D01*
G01*
X-5341Y47518D02*
G03*
X-5087Y47264I254J0D01*
G01*
Y15718D02*
G03*
X-5341Y15464I0J-254D01*
G01*
X-4172Y47010D02*
G03*
X-4426Y47264I-254J0D01*
G01*
Y15718D02*
G03*
X-4172Y15972I0J254D01*
G01*
X-4426Y46198D02*
G03*
X-4172Y46452I0J254D01*
G01*
Y16530D02*
G03*
X-4426Y16784I-254J0D01*
G01*
X-5087Y46198D02*
G03*
X-5341Y45944I0J-254D01*
G01*
Y17038D02*
G03*
X-5087Y16784I254J0D01*
G01*
X-5341Y44978D02*
G03*
X-5087Y44724I254J0D01*
G01*
Y18258D02*
G03*
X-5341Y18004I0J-254D01*
G01*
X-4172Y44470D02*
G03*
X-4426Y44724I-254J0D01*
G01*
Y18258D02*
G03*
X-4172Y18512I0J254D01*
G01*
X-4426Y43658D02*
G03*
X-4172Y43912I0J254D01*
G01*
Y19070D02*
G03*
X-4426Y19324I-254J0D01*
G01*
X-5087Y43658D02*
G03*
X-5341Y43404I0J-254D01*
G01*
Y19578D02*
G03*
X-5087Y19324I254J0D01*
G01*
X-5341Y42438D02*
G03*
X-5087Y42184I254J0D01*
G01*
Y20798D02*
G03*
X-5341Y20544I0J-254D01*
G01*
X-4172Y41930D02*
G03*
X-4426Y42184I-254J0D01*
G01*
Y20798D02*
G03*
X-4172Y21052I0J254D01*
G01*
X-4426Y41118D02*
G03*
X-4172Y41372I0J254D01*
G01*
Y21610D02*
G03*
X-4426Y21864I-254J0D01*
G01*
X-5087Y41118D02*
G03*
X-5341Y40864I0J-254D01*
G01*
Y22118D02*
G03*
X-5087Y21864I254J0D01*
G01*
X-5341Y39898D02*
G03*
X-5087Y39644I254J0D01*
G01*
Y23338D02*
G03*
X-5341Y23084I0J-254D01*
G01*
X-4172Y39390D02*
G03*
X-4426Y39644I-254J0D01*
G01*
Y23338D02*
G03*
X-4172Y23592I0J254D01*
G01*
X-4426Y38578D02*
G03*
X-4172Y38832I0J254D01*
G01*
Y24150D02*
G03*
X-4426Y24404I-254J0D01*
G01*
X-5087Y38578D02*
G03*
X-5341Y38324I0J-254D01*
G01*
Y24658D02*
G03*
X-5087Y24404I254J0D01*
G01*
X-5341Y37358D02*
G03*
X-5087Y37104I254J0D01*
G01*
Y25878D02*
G03*
X-5341Y25624I0J-254D01*
G01*
X-4172Y36850D02*
G03*
X-4426Y37104I-254J0D01*
G01*
Y25878D02*
G03*
X-4172Y26132I0J254D01*
G01*
X-4426Y36038D02*
G03*
X-4172Y36292I0J254D01*
G01*
Y26690D02*
G03*
X-4426Y26944I-254J0D01*
G01*
X-5087Y36038D02*
G03*
X-5341Y35784I0J-254D01*
G01*
Y27198D02*
G03*
X-5087Y26944I254J0D01*
G01*
X-5341Y34818D02*
G03*
X-5087Y34564I254J0D01*
G01*
Y28418D02*
G03*
X-5341Y28164I0J-254D01*
G01*
X-4172Y34310D02*
G03*
X-4426Y34564I-254J0D01*
G01*
Y28418D02*
G03*
X-4172Y28672I0J254D01*
G01*
X-4426Y33498D02*
G03*
X-4172Y33752I0J254D01*
G01*
Y29230D02*
G03*
X-4426Y29484I-254J0D01*
G01*
X-5087Y33498D02*
G03*
X-5341Y33244I0J-254D01*
G01*
Y29738D02*
G03*
X-5087Y29484I254J0D01*
G01*
X-5341Y32278D02*
G03*
X-5087Y32024I254J0D01*
G01*
Y30958D02*
G03*
X-5341Y30704I0J-254D01*
G01*
X-4172Y31770D02*
G03*
X-4426Y32024I-254J0D01*
G01*
Y30958D02*
G03*
X-4172Y31212I0J254D01*
G01*
X9341Y7844D02*
G03*
X9087Y8098I-254J0D01*
G01*
X8172Y8352D02*
G03*
X8426Y8098I254J0D01*
G01*
Y9164D02*
G03*
X8172Y8910I0J-254D01*
G01*
X9087Y54884D02*
G03*
X9341Y55138I0J254D01*
G01*
X9087Y9164D02*
G03*
X9341Y9418I0J254D01*
G01*
X8426Y54884D02*
G03*
X8172Y54630I0J-254D01*
G01*
X9341Y10384D02*
G03*
X9087Y10638I-254J0D01*
G01*
X8172Y54072D02*
G03*
X8426Y53818I254J0D01*
G01*
X8172Y10892D02*
G03*
X8426Y10638I254J0D01*
G01*
X9341Y53564D02*
G03*
X9087Y53818I-254J0D01*
G01*
X8426Y11704D02*
G03*
X8172Y11450I0J-254D01*
G01*
X9087Y52344D02*
G03*
X9341Y52598I0J254D01*
G01*
X9087Y11704D02*
G03*
X9341Y11958I0J254D01*
G01*
X8426Y52344D02*
G03*
X8172Y52090I0J-254D01*
G01*
X9341Y12924D02*
G03*
X9087Y13178I-254J0D01*
G01*
X8172Y51532D02*
G03*
X8426Y51278I254J0D01*
G01*
X8172Y13432D02*
G03*
X8426Y13178I254J0D01*
G01*
X9341Y51024D02*
G03*
X9087Y51278I-254J0D01*
G01*
X8426Y14244D02*
G03*
X8172Y13990I0J-254D01*
G01*
X9087Y49804D02*
G03*
X9341Y50058I0J254D01*
G01*
X9087Y14244D02*
G03*
X9341Y14498I0J254D01*
G01*
X8426Y49804D02*
G03*
X8172Y49550I0J-254D01*
G01*
X9341Y15464D02*
G03*
X9087Y15718I-254J0D01*
G01*
X8172Y48992D02*
G03*
X8426Y48738I254J0D01*
G01*
X8172Y15972D02*
G03*
X8426Y15718I254J0D01*
G01*
X9341Y48484D02*
G03*
X9087Y48738I-254J0D01*
G01*
X8426Y16784D02*
G03*
X8172Y16530I0J-254D01*
G01*
X9087Y47264D02*
G03*
X9341Y47518I0J254D01*
G01*
X9087Y16784D02*
G03*
X9341Y17038I0J254D01*
G01*
X8426Y47264D02*
G03*
X8172Y47010I0J-254D01*
G01*
X9341Y18004D02*
G03*
X9087Y18258I-254J0D01*
G01*
X8172Y46452D02*
G03*
X8426Y46198I254J0D01*
G01*
X8172Y18512D02*
G03*
X8426Y18258I254J0D01*
G01*
X9341Y45944D02*
G03*
X9087Y46198I-254J0D01*
G01*
X8426Y19324D02*
G03*
X8172Y19070I0J-254D01*
G01*
X9087Y44724D02*
G03*
X9341Y44978I0J254D01*
G01*
X9087Y19324D02*
G03*
X9341Y19578I0J254D01*
G01*
X8426Y44724D02*
G03*
X8172Y44470I0J-254D01*
G01*
X9341Y20544D02*
G03*
X9087Y20798I-254J0D01*
G01*
X8172Y43912D02*
G03*
X8426Y43658I254J0D01*
G01*
X8172Y21052D02*
G03*
X8426Y20798I254J0D01*
G01*
X9341Y43404D02*
G03*
X9087Y43658I-254J0D01*
G01*
X8426Y21864D02*
G03*
X8172Y21610I0J-254D01*
G01*
X9087Y42184D02*
G03*
X9341Y42438I0J254D01*
G01*
X9087Y21864D02*
G03*
X9341Y22118I0J254D01*
G01*
X8426Y42184D02*
G03*
X8172Y41930I0J-254D01*
G01*
X9341Y23084D02*
G03*
X9087Y23338I-254J0D01*
G01*
X8172Y41372D02*
G03*
X8426Y41118I254J0D01*
G01*
X8172Y23592D02*
G03*
X8426Y23338I254J0D01*
G01*
X9341Y40864D02*
G03*
X9087Y41118I-254J0D01*
G01*
X8426Y24404D02*
G03*
X8172Y24150I0J-254D01*
G01*
X9087Y39644D02*
G03*
X9341Y39898I0J254D01*
G01*
X9087Y24404D02*
G03*
X9341Y24658I0J254D01*
G01*
X8426Y39644D02*
G03*
X8172Y39390I0J-254D01*
G01*
X9341Y25624D02*
G03*
X9087Y25878I-254J0D01*
G01*
X8172Y38832D02*
G03*
X8426Y38578I254J0D01*
G01*
X8172Y26132D02*
G03*
X8426Y25878I254J0D01*
G01*
X9341Y38324D02*
G03*
X9087Y38578I-254J0D01*
G01*
X8426Y26944D02*
G03*
X8172Y26690I0J-254D01*
G01*
X9087Y37104D02*
G03*
X9341Y37358I0J254D01*
G01*
X9087Y26944D02*
G03*
X9341Y27198I0J254D01*
G01*
X8426Y37104D02*
G03*
X8172Y36850I0J-254D01*
G01*
X9341Y28164D02*
G03*
X9087Y28418I-254J0D01*
G01*
X8172Y36292D02*
G03*
X8426Y36038I254J0D01*
G01*
X8172Y28672D02*
G03*
X8426Y28418I254J0D01*
G01*
X9341Y35784D02*
G03*
X9087Y36038I-254J0D01*
G01*
X8426Y29484D02*
G03*
X8172Y29230I0J-254D01*
G01*
X9087Y34564D02*
G03*
X9341Y34818I0J254D01*
G01*
X9087Y29484D02*
G03*
X9341Y29738I0J254D01*
G01*
X8426Y34564D02*
G03*
X8172Y34310I0J-254D01*
G01*
X9341Y30704D02*
G03*
X9087Y30958I-254J0D01*
G01*
X8172Y33752D02*
G03*
X8426Y33498I254J0D01*
G01*
X8172Y31212D02*
G03*
X8426Y30958I254J0D01*
G01*
X9341Y33244D02*
G03*
X9087Y33498I-254J0D01*
G01*
X8426Y32024D02*
G03*
X8172Y31770I0J-254D01*
G01*
X9087Y32024D02*
G03*
X9341Y32278I0J254D01*
G01*
X8426Y9164D02*
G03*
X8172Y8910I0J-254D01*
G01*
Y8352D02*
G03*
X8426Y8098I254J0D01*
G01*
X-4172Y8910D02*
G03*
X-4426Y9164I-254J0D01*
G01*
Y8098D02*
G03*
X-4172Y8352I0J254D01*
G01*
X8426Y11704D02*
G03*
X8172Y11450I0J-254D01*
G01*
Y10892D02*
G03*
X8426Y10638I254J0D01*
G01*
X-4172Y11450D02*
G03*
X-4426Y11704I-254J0D01*
G01*
Y10638D02*
G03*
X-4172Y10892I0J254D01*
G01*
X8426Y14244D02*
G03*
X8172Y13990I0J-254D01*
G01*
Y13432D02*
G03*
X8426Y13178I254J0D01*
G01*
X-4172Y13990D02*
G03*
X-4426Y14244I-254J0D01*
G01*
Y13178D02*
G03*
X-4172Y13432I0J254D01*
G01*
X8426Y16784D02*
G03*
X8172Y16530I0J-254D01*
G01*
Y15972D02*
G03*
X8426Y15718I254J0D01*
G01*
X-4172Y16530D02*
G03*
X-4426Y16784I-254J0D01*
G01*
Y15718D02*
G03*
X-4172Y15972I0J254D01*
G01*
X8426Y19324D02*
G03*
X8172Y19070I0J-254D01*
G01*
Y18512D02*
G03*
X8426Y18258I254J0D01*
G01*
X-4172Y19070D02*
G03*
X-4426Y19324I-254J0D01*
G01*
Y18258D02*
G03*
X-4172Y18512I0J254D01*
G01*
X8426Y21864D02*
G03*
X8172Y21610I0J-254D01*
G01*
Y21052D02*
G03*
X8426Y20798I254J0D01*
G01*
X-4172Y21610D02*
G03*
X-4426Y21864I-254J0D01*
G01*
Y20798D02*
G03*
X-4172Y21052I0J254D01*
G01*
X8426Y24404D02*
G03*
X8172Y24150I0J-254D01*
G01*
Y23592D02*
G03*
X8426Y23338I254J0D01*
G01*
X-4172Y24150D02*
G03*
X-4426Y24404I-254J0D01*
G01*
Y23338D02*
G03*
X-4172Y23592I0J254D01*
G01*
X8426Y26944D02*
G03*
X8172Y26690I0J-254D01*
G01*
Y26132D02*
G03*
X8426Y25878I254J0D01*
G01*
X-4172Y26690D02*
G03*
X-4426Y26944I-254J0D01*
G01*
Y25878D02*
G03*
X-4172Y26132I0J254D01*
G01*
X8426Y29484D02*
G03*
X8172Y29230I0J-254D01*
G01*
Y28672D02*
G03*
X8426Y28418I254J0D01*
G01*
X-4172Y29230D02*
G03*
X-4426Y29484I-254J0D01*
G01*
Y28418D02*
G03*
X-4172Y28672I0J254D01*
G01*
X8426Y32024D02*
G03*
X8172Y31770I0J-254D01*
G01*
Y31212D02*
G03*
X8426Y30958I254J0D01*
G01*
X-4172Y31770D02*
G03*
X-4426Y32024I-254J0D01*
G01*
Y30958D02*
G03*
X-4172Y31212I0J254D01*
G01*
X8426Y34564D02*
G03*
X8172Y34310I0J-254D01*
G01*
Y33752D02*
G03*
X8426Y33498I254J0D01*
G01*
X-4172Y34310D02*
G03*
X-4426Y34564I-254J0D01*
G01*
Y33498D02*
G03*
X-4172Y33752I0J254D01*
G01*
X8426Y37104D02*
G03*
X8172Y36850I0J-254D01*
G01*
Y36292D02*
G03*
X8426Y36038I254J0D01*
G01*
X-4172Y36850D02*
G03*
X-4426Y37104I-254J0D01*
G01*
Y36038D02*
G03*
X-4172Y36292I0J254D01*
G01*
X8426Y39644D02*
G03*
X8172Y39390I0J-254D01*
G01*
Y38832D02*
G03*
X8426Y38578I254J0D01*
G01*
X-4172Y39390D02*
G03*
X-4426Y39644I-254J0D01*
G01*
Y38578D02*
G03*
X-4172Y38832I0J254D01*
G01*
X8426Y42184D02*
G03*
X8172Y41930I0J-254D01*
G01*
Y41372D02*
G03*
X8426Y41118I254J0D01*
G01*
X-4172Y41930D02*
G03*
X-4426Y42184I-254J0D01*
G01*
Y41118D02*
G03*
X-4172Y41372I0J254D01*
G01*
X8426Y44724D02*
G03*
X8172Y44470I0J-254D01*
G01*
Y43912D02*
G03*
X8426Y43658I254J0D01*
G01*
X-4172Y44470D02*
G03*
X-4426Y44724I-254J0D01*
G01*
Y43658D02*
G03*
X-4172Y43912I0J254D01*
G01*
X8426Y47264D02*
G03*
X8172Y47010I0J-254D01*
G01*
Y46452D02*
G03*
X8426Y46198I254J0D01*
G01*
X-4172Y47010D02*
G03*
X-4426Y47264I-254J0D01*
G01*
Y46198D02*
G03*
X-4172Y46452I0J254D01*
G01*
X8426Y49804D02*
G03*
X8172Y49550I0J-254D01*
G01*
Y48992D02*
G03*
X8426Y48738I254J0D01*
G01*
X-4172Y49550D02*
G03*
X-4426Y49804I-254J0D01*
G01*
Y48738D02*
G03*
X-4172Y48992I0J254D01*
G01*
X8426Y52344D02*
G03*
X8172Y52090I0J-254D01*
G01*
Y51532D02*
G03*
X8426Y51278I254J0D01*
G01*
X-4172Y52090D02*
G03*
X-4426Y52344I-254J0D01*
G01*
Y51278D02*
G03*
X-4172Y51532I0J254D01*
G01*
X8426Y54884D02*
G03*
X8172Y54630I0J-254D01*
G01*
Y54072D02*
G03*
X8426Y53818I254J0D01*
G01*
X-4172Y54630D02*
G03*
X-4426Y54884I-254J0D01*
G01*
Y53818D02*
G03*
X-4172Y54072I0J254D01*
G01*
X-26405Y45501D02*
Y46651D01*
X-8600Y61200D02*
Y62400D01*
X-45750Y59600D02*
Y60800D01*
X-67054Y48490D02*
Y53890D01*
X-71441Y49104D02*
X-67685Y48061D01*
X-71198Y48358D02*
X-65851Y46110D01*
X-71441Y53276D02*
X-67685Y54319D01*
X-71198Y54023D02*
X-65851Y56270D01*
X-54151Y51790D02*
Y55070D01*
X-53551D02*
Y56270D01*
Y50590D02*
Y51790D01*
X-54151Y47310D02*
Y50590D01*
Y51790D02*
X-53551D01*
X-54151Y50590D02*
X-53551D01*
X-54151Y55070D02*
X-53551D01*
X-54151Y47310D02*
X-53551D01*
X-65851Y46110D02*
X-62051D01*
X-65851Y56270D02*
X-62051D01*
Y55255D02*
Y56270D01*
X-62731Y55412D02*
X-62051Y55255D01*
X-62731Y54240D02*
X-61251D01*
Y56270D01*
X-62051Y45095D02*
Y46110D01*
X-62851Y45280D02*
X-62051Y45095D01*
X-62851Y44080D02*
Y45280D01*
Y44080D02*
X-61251D01*
Y46110D01*
X-53551D01*
X-61251Y56270D02*
X-53551D01*
Y46110D02*
Y47310D01*
X-67054Y38340D02*
Y43740D01*
X-71441Y38954D02*
X-67685Y37911D01*
X-71198Y38208D02*
X-65851Y35960D01*
X-71441Y43126D02*
X-67685Y44169D01*
X-71198Y43873D02*
X-65851Y46120D01*
X-54151Y41640D02*
Y44920D01*
X-53551D02*
Y46120D01*
Y40440D02*
Y41640D01*
X-54151Y37160D02*
Y40440D01*
Y41640D02*
X-53551D01*
X-54151Y40440D02*
X-53551D01*
X-54151Y44920D02*
X-53551D01*
X-54151Y37160D02*
X-53551D01*
X-65851Y35960D02*
X-62051D01*
X-65851Y46120D02*
X-62051D01*
Y45105D02*
Y46120D01*
X-62731Y45262D02*
X-62051Y45105D01*
X-62731Y44090D02*
X-61251D01*
Y46120D01*
X-62051Y34945D02*
Y35960D01*
X-62851Y35130D02*
X-62051Y34945D01*
X-62851Y33930D02*
Y35130D01*
Y33930D02*
X-61251D01*
Y35960D01*
X-53551D01*
X-61251Y46120D02*
X-53551D01*
Y35960D02*
Y37160D01*
X-67054Y28210D02*
Y33610D01*
X-71441Y28824D02*
X-67685Y27781D01*
X-71198Y28078D02*
X-65851Y25830D01*
X-71441Y32996D02*
X-67685Y34039D01*
X-71198Y33743D02*
X-65851Y35990D01*
X-54151Y31510D02*
Y34790D01*
X-53551D02*
Y35990D01*
Y30310D02*
Y31510D01*
X-54151Y27030D02*
Y30310D01*
Y31510D02*
X-53551D01*
X-54151Y30310D02*
X-53551D01*
X-54151Y34790D02*
X-53551D01*
X-54151Y27030D02*
X-53551D01*
X-65851Y25830D02*
X-62051D01*
X-65851Y35990D02*
X-62051D01*
Y34975D02*
Y35990D01*
X-62731Y35132D02*
X-62051Y34975D01*
X-62731Y33960D02*
X-61251D01*
Y35990D01*
X-62051Y24815D02*
Y25830D01*
X-62851Y25000D02*
X-62051Y24815D01*
X-62851Y23800D02*
Y25000D01*
Y23800D02*
X-61251D01*
Y25830D01*
X-53551D01*
X-61251Y35990D02*
X-53551D01*
Y25830D02*
Y27030D01*
X-67054Y18040D02*
Y23440D01*
X-71441Y18654D02*
X-67685Y17611D01*
X-71198Y17908D02*
X-65851Y15660D01*
X-71441Y22826D02*
X-67685Y23869D01*
X-71198Y23573D02*
X-65851Y25820D01*
X-54151Y21340D02*
Y24620D01*
X-53551D02*
Y25820D01*
Y20140D02*
Y21340D01*
X-54151Y16860D02*
Y20140D01*
Y21340D02*
X-53551D01*
X-54151Y20140D02*
X-53551D01*
X-54151Y24620D02*
X-53551D01*
X-54151Y16860D02*
X-53551D01*
X-65851Y15660D02*
X-62051D01*
X-65851Y25820D02*
X-62051D01*
Y24805D02*
Y25820D01*
X-62731Y24962D02*
X-62051Y24805D01*
X-62731Y23790D02*
X-61251D01*
Y25820D01*
X-62051Y14645D02*
Y15660D01*
X-62851Y14830D02*
X-62051Y14645D01*
X-62851Y13630D02*
Y14830D01*
Y13630D02*
X-61251D01*
Y15660D01*
X-53551D01*
X-61251Y25820D02*
X-53551D01*
Y15660D02*
Y16860D01*
X-49250Y59625D02*
Y60775D01*
X-50300Y8325D02*
Y9475D01*
Y48975D02*
Y50125D01*
Y38825D02*
Y39975D01*
Y28695D02*
Y29845D01*
Y18525D02*
Y19675D01*
X-67054Y7840D02*
Y13240D01*
X-71441Y8454D02*
X-67685Y7411D01*
X-71198Y7708D02*
X-65851Y5460D01*
X-71441Y12626D02*
X-67685Y13669D01*
X-71198Y13373D02*
X-65851Y15620D01*
X-54151Y11140D02*
Y14420D01*
X-53551D02*
Y15620D01*
Y9940D02*
Y11140D01*
X-54151Y6660D02*
Y9940D01*
Y11140D02*
X-53551D01*
X-54151Y9940D02*
X-53551D01*
X-54151Y14420D02*
X-53551D01*
X-54151Y6660D02*
X-53551D01*
X-65851Y5460D02*
X-62051D01*
X-65851Y15620D02*
X-62051D01*
Y14605D02*
Y15620D01*
X-62731Y14762D02*
X-62051Y14605D01*
X-62731Y13590D02*
X-61251D01*
Y15620D01*
X-62051Y4445D02*
Y5460D01*
X-62851Y4630D02*
X-62051Y4445D01*
X-62851Y3430D02*
Y4630D01*
Y3430D02*
X-61251D01*
Y5460D01*
X-53551D01*
X-61251Y15620D02*
X-53551D01*
Y5460D02*
Y6660D01*
X-8600Y64600D02*
X-8400D01*
X-8600Y63800D02*
X-8400D01*
X-25000Y32700D02*
Y32750D01*
X-25200Y32500D02*
X-25000Y32700D01*
X-25250Y32500D02*
X-25200D01*
X-32000D02*
Y32750D01*
Y32500D02*
X-31750D01*
X-25000Y39250D02*
Y39500D01*
X-25250D02*
X-25000D01*
X-32000Y39250D02*
Y39500D01*
X-31750D01*
X-4579Y3602D02*
X-7D01*
X-5341Y58618D02*
X-4579Y59380D01*
X-5341Y4364D02*
X-4579Y3602D01*
X-5341Y55138D02*
Y58618D01*
Y4364D02*
Y7844D01*
X-5087Y54884D02*
X-4426D01*
X-5087Y8098D02*
X-4426D01*
X-4172Y54072D02*
Y54630D01*
Y8352D02*
Y8910D01*
X-5087Y53818D02*
X-4426D01*
X-5087Y9164D02*
X-4426D01*
X-5341Y52598D02*
Y53564D01*
Y9418D02*
Y10384D01*
X-5087Y52344D02*
X-4426D01*
X-5087Y10638D02*
X-4426D01*
X-4172Y51532D02*
Y52090D01*
Y10892D02*
Y11450D01*
X-5087Y51278D02*
X-4426D01*
X-5087Y11704D02*
X-4426D01*
X-5341Y50058D02*
Y51024D01*
Y11958D02*
Y12924D01*
X-5087Y49804D02*
X-4426D01*
X-5087Y13178D02*
X-4426D01*
X-4172Y48992D02*
Y49550D01*
Y13432D02*
Y13990D01*
X-5087Y48738D02*
X-4426D01*
X-5087Y14244D02*
X-4426D01*
X-5341Y47518D02*
Y48484D01*
Y14498D02*
Y15464D01*
X-5087Y47264D02*
X-4426D01*
X-5087Y15718D02*
X-4426D01*
X-4172Y46452D02*
Y47010D01*
Y15972D02*
Y16530D01*
X-5087Y46198D02*
X-4426D01*
X-5087Y16784D02*
X-4426D01*
X-5341Y44978D02*
Y45944D01*
Y17038D02*
Y18004D01*
X-5087Y44724D02*
X-4426D01*
X-5087Y18258D02*
X-4426D01*
X-4172Y43912D02*
Y44470D01*
Y18512D02*
Y19070D01*
X-5087Y43658D02*
X-4426D01*
X-5087Y19324D02*
X-4426D01*
X-5341Y42438D02*
Y43404D01*
Y19578D02*
Y20544D01*
X-5087Y42184D02*
X-4426D01*
X-5087Y20798D02*
X-4426D01*
X-4172Y41372D02*
Y41930D01*
Y21052D02*
Y21610D01*
X-5087Y41118D02*
X-4426D01*
X-5087Y21864D02*
X-4426D01*
X-5341Y39898D02*
Y40864D01*
Y22118D02*
Y23084D01*
X-5087Y39644D02*
X-4426D01*
X-5087Y23338D02*
X-4426D01*
X-4172Y38832D02*
Y39390D01*
Y23592D02*
Y24150D01*
X-5087Y38578D02*
X-4426D01*
X-5087Y24404D02*
X-4426D01*
X-5341Y37358D02*
Y38324D01*
Y24658D02*
Y25624D01*
X-5087Y37104D02*
X-4426D01*
X-5087Y25878D02*
X-4426D01*
X-4172Y36292D02*
Y36850D01*
Y26132D02*
Y26690D01*
X-5087Y36038D02*
X-4426D01*
X-5087Y26944D02*
X-4426D01*
X-5341Y34818D02*
Y35784D01*
Y27198D02*
Y28164D01*
X-5087Y34564D02*
X-4426D01*
X-5087Y28418D02*
X-4426D01*
X-4172Y33752D02*
Y34310D01*
Y28672D02*
Y29230D01*
X-5087Y33498D02*
X-4426D01*
X-5087Y29484D02*
X-4426D01*
X-5341Y32278D02*
Y33244D01*
Y29738D02*
Y30704D01*
X-5087Y32024D02*
X-4426D01*
X-5087Y30958D02*
X-4426D01*
X-4172Y31212D02*
Y31770D01*
X4007Y3602D02*
X8579D01*
X9341Y4364D01*
Y7844D01*
X6572Y58440D02*
Y59380D01*
X8426Y8098D02*
X9087D01*
X6572Y59380D02*
X8579D01*
X9341Y58618D01*
X8172Y8352D02*
Y8910D01*
X9341Y55138D02*
Y58618D01*
X8426Y9164D02*
X9087D01*
X8426Y54884D02*
X9087D01*
X9341Y9418D02*
Y10384D01*
X8172Y54072D02*
Y54630D01*
X8426Y10638D02*
X9087D01*
X8426Y53818D02*
X9087D01*
X8172Y10892D02*
Y11450D01*
X9341Y52598D02*
Y53564D01*
X8426Y11704D02*
X9087D01*
X8426Y52344D02*
X9087D01*
X9341Y11958D02*
Y12924D01*
X8172Y51532D02*
Y52090D01*
X8426Y13178D02*
X9087D01*
X8426Y51278D02*
X9087D01*
X8172Y13432D02*
Y13990D01*
X9341Y50058D02*
Y51024D01*
X8426Y14244D02*
X9087D01*
X8426Y49804D02*
X9087D01*
X9341Y14498D02*
Y15464D01*
X8172Y48992D02*
Y49550D01*
X8426Y15718D02*
X9087D01*
X8426Y48738D02*
X9087D01*
X8172Y15972D02*
Y16530D01*
X9341Y47518D02*
Y48484D01*
X8426Y16784D02*
X9087D01*
X8426Y47264D02*
X9087D01*
X9341Y17038D02*
Y18004D01*
X8172Y46452D02*
Y47010D01*
X8426Y18258D02*
X9087D01*
X8426Y46198D02*
X9087D01*
X8172Y18512D02*
Y19070D01*
X9341Y44978D02*
Y45944D01*
X8426Y19324D02*
X9087D01*
X8426Y44724D02*
X9087D01*
X9341Y19578D02*
Y20544D01*
X8172Y43912D02*
Y44470D01*
X8426Y20798D02*
X9087D01*
X8426Y43658D02*
X9087D01*
X8172Y21052D02*
Y21610D01*
X9341Y42438D02*
Y43404D01*
X8426Y21864D02*
X9087D01*
X8426Y42184D02*
X9087D01*
X9341Y22118D02*
Y23084D01*
X8172Y41372D02*
Y41930D01*
X8426Y23338D02*
X9087D01*
X8426Y41118D02*
X9087D01*
X8172Y23592D02*
Y24150D01*
X9341Y39898D02*
Y40864D01*
X8426Y24404D02*
X9087D01*
X8426Y39644D02*
X9087D01*
X9341Y24658D02*
Y25624D01*
X8172Y38832D02*
Y39390D01*
X8426Y25878D02*
X9087D01*
X8426Y38578D02*
X9087D01*
X8172Y26132D02*
Y26690D01*
X9341Y37358D02*
Y38324D01*
X8426Y26944D02*
X9087D01*
X8426Y37104D02*
X9087D01*
X9341Y27198D02*
Y28164D01*
X8172Y36292D02*
Y36850D01*
X8426Y28418D02*
X9087D01*
X8426Y36038D02*
X9087D01*
X8172Y28672D02*
Y29230D01*
X9341Y34818D02*
Y35784D01*
X8426Y29484D02*
X9087D01*
X8426Y34564D02*
X9087D01*
X9341Y29738D02*
Y30704D01*
X8172Y33752D02*
Y34310D01*
X8426Y30958D02*
X9087D01*
X8426Y33498D02*
X9087D01*
X8172Y31212D02*
Y31770D01*
X9341Y32278D02*
Y33244D01*
X8426Y32024D02*
X9087D01*
X-2572Y58223D02*
X-2059Y58399D01*
X5937Y58440D02*
X6572Y58223D01*
X5683Y58440D02*
X5937D01*
X5048Y58223D02*
X5683Y58440D01*
X5048Y58223D02*
Y59380D01*
X5683Y58745D01*
X5937D02*
X6572Y59380D01*
X5683Y58745D02*
X5937D01*
X5048Y59380D02*
X5683Y58745D01*
X5937Y58440D02*
X6572Y58223D01*
Y59380D01*
X5937Y58440D02*
Y58745D01*
X6572Y59380D01*
X-2572Y58223D02*
X-2059Y58399D01*
X-2572Y59380D02*
X-2078Y58886D01*
X-2572Y59380D02*
X-2078Y58886D01*
X5683Y58440D02*
X5937D01*
Y58745D01*
X5683Y58440D02*
Y58745D01*
X5937D01*
X6572Y58186D02*
Y59380D01*
Y58440D02*
Y59380D01*
X5048Y58186D02*
Y59380D01*
Y58440D02*
Y59380D01*
X8426Y8098D02*
X9087D01*
X8426Y9164D02*
X9087D01*
X8172Y8352D02*
Y8910D01*
X-4172Y8352D02*
Y8910D01*
X-5087Y9164D02*
X-4426D01*
X-5087Y8098D02*
X-4426D01*
X8426Y10638D02*
X9087D01*
X8426Y11704D02*
X9087D01*
X8172Y10892D02*
Y11450D01*
X-4172Y10892D02*
Y11450D01*
X-5087Y11704D02*
X-4426D01*
X-5087Y10638D02*
X-4426D01*
X8426Y13178D02*
X9087D01*
X8426Y14244D02*
X9087D01*
X8172Y13432D02*
Y13990D01*
X-4172Y13432D02*
Y13990D01*
X-5087Y14244D02*
X-4426D01*
X-5087Y13178D02*
X-4426D01*
X8426Y15718D02*
X9087D01*
X8426Y16784D02*
X9087D01*
X8172Y15972D02*
Y16530D01*
X-4172Y15972D02*
Y16530D01*
X-5087Y16784D02*
X-4426D01*
X-5087Y15718D02*
X-4426D01*
X8426Y18258D02*
X9087D01*
X8426Y19324D02*
X9087D01*
X8172Y18512D02*
Y19070D01*
X-4172Y18512D02*
Y19070D01*
X-5087Y19324D02*
X-4426D01*
X-5087Y18258D02*
X-4426D01*
X8426Y20798D02*
X9087D01*
X8426Y21864D02*
X9087D01*
X8172Y21052D02*
Y21610D01*
X-4172Y21052D02*
Y21610D01*
X-5087Y21864D02*
X-4426D01*
X-5087Y20798D02*
X-4426D01*
X8426Y23338D02*
X9087D01*
X8426Y24404D02*
X9087D01*
X8172Y23592D02*
Y24150D01*
X-4172Y23592D02*
Y24150D01*
X-5087Y24404D02*
X-4426D01*
X-5087Y23338D02*
X-4426D01*
X8426Y25878D02*
X9087D01*
X8426Y26944D02*
X9087D01*
X8172Y26132D02*
Y26690D01*
X-4172Y26132D02*
Y26690D01*
X-5087Y26944D02*
X-4426D01*
X-5087Y25878D02*
X-4426D01*
X8426Y28418D02*
X9087D01*
X8426Y29484D02*
X9087D01*
X8172Y28672D02*
Y29230D01*
X-4172Y28672D02*
Y29230D01*
X-5087Y29484D02*
X-4426D01*
X-5087Y28418D02*
X-4426D01*
X8426Y30958D02*
X9087D01*
X8426Y32024D02*
X9087D01*
X8172Y31212D02*
Y31770D01*
X-4172Y31212D02*
Y31770D01*
X-5087Y32024D02*
X-4426D01*
X-5087Y30958D02*
X-4426D01*
X8426Y33498D02*
X9087D01*
X8426Y34564D02*
X9087D01*
X8172Y33752D02*
Y34310D01*
X-4172Y33752D02*
Y34310D01*
X-5087Y34564D02*
X-4426D01*
X-5087Y33498D02*
X-4426D01*
X8426Y36038D02*
X9087D01*
X8426Y37104D02*
X9087D01*
X8172Y36292D02*
Y36850D01*
X-4172Y36292D02*
Y36850D01*
X-5087Y37104D02*
X-4426D01*
X-5087Y36038D02*
X-4426D01*
X8426Y38578D02*
X9087D01*
X8426Y39644D02*
X9087D01*
X8172Y38832D02*
Y39390D01*
X-4172Y38832D02*
Y39390D01*
X-5087Y39644D02*
X-4426D01*
X-5087Y38578D02*
X-4426D01*
X8426Y41118D02*
X9087D01*
X8426Y42184D02*
X9087D01*
X8172Y41372D02*
Y41930D01*
X-4172Y41372D02*
Y41930D01*
X-5087Y42184D02*
X-4426D01*
X-5087Y41118D02*
X-4426D01*
X8426Y43658D02*
X9087D01*
X8426Y44724D02*
X9087D01*
X8172Y43912D02*
Y44470D01*
X-4172Y43912D02*
Y44470D01*
X-5087Y44724D02*
X-4426D01*
X-5087Y43658D02*
X-4426D01*
X8426Y46198D02*
X9087D01*
X8426Y47264D02*
X9087D01*
X8172Y46452D02*
Y47010D01*
X-4172Y46452D02*
Y47010D01*
X-5087Y47264D02*
X-4426D01*
X-5087Y46198D02*
X-4426D01*
X8426Y48738D02*
X9087D01*
X8426Y49804D02*
X9087D01*
X8172Y48992D02*
Y49550D01*
X-4172Y48992D02*
Y49550D01*
X-5087Y49804D02*
X-4426D01*
X-5087Y48738D02*
X-4426D01*
X8426Y51278D02*
X9087D01*
X8426Y52344D02*
X9087D01*
X8172Y51532D02*
Y52090D01*
X-4172Y51532D02*
Y52090D01*
X-5087Y52344D02*
X-4426D01*
X-5087Y51278D02*
X-4426D01*
X8426Y53818D02*
X9087D01*
X8426Y54884D02*
X9087D01*
X8172Y54072D02*
Y54630D01*
X-4172Y54072D02*
Y54630D01*
X-5087Y54884D02*
X-4426D01*
X-5087Y53818D02*
X-4426D01*
X-5341Y4364D02*
X-4579Y3602D01*
X8579D02*
X9341Y4364D01*
X8579Y59380D02*
X9341Y58618D01*
X-5341D02*
X-4579Y59380D01*
X9341Y4364D02*
Y7844D01*
X-5341Y55138D02*
Y58618D01*
X7486Y56970D02*
Y58186D01*
X4007Y3602D02*
X8579D01*
X-4579D02*
X-7D01*
X5048Y59380D02*
X6572D01*
X-4579D02*
X-1832D01*
X-5341Y52598D02*
Y53564D01*
X9341Y55138D02*
Y58618D01*
X-5341Y50058D02*
Y51024D01*
X9341Y52598D02*
Y53564D01*
X-5341Y47518D02*
Y48484D01*
X9341Y50058D02*
Y51024D01*
X-5341Y44978D02*
Y45944D01*
X9341Y47518D02*
Y48484D01*
X-5341Y42438D02*
Y43404D01*
X9341Y44978D02*
Y45944D01*
X-5341Y39898D02*
Y40864D01*
X9341Y42438D02*
Y43404D01*
X-5341Y37358D02*
Y38324D01*
X9341Y39898D02*
Y40864D01*
X-5341Y34818D02*
Y35784D01*
X9341Y37358D02*
Y38324D01*
X-5341Y32278D02*
Y33244D01*
X9341Y34818D02*
Y35784D01*
X-5341Y29738D02*
Y30704D01*
X9341Y32278D02*
Y33244D01*
X-5341Y27198D02*
Y28164D01*
X9341Y29738D02*
Y30704D01*
X-5341Y24658D02*
Y25624D01*
X9341Y27198D02*
Y28164D01*
X-5341Y22118D02*
Y23084D01*
X9341Y24658D02*
Y25624D01*
X-5341Y19578D02*
Y20544D01*
X9341Y22118D02*
Y23084D01*
X-5341Y17038D02*
Y18004D01*
X9341Y19578D02*
Y20544D01*
X-5341Y14498D02*
Y15464D01*
X9341Y17038D02*
Y18004D01*
X-5341Y11958D02*
Y12924D01*
X9341Y14498D02*
Y15464D01*
X-5341Y9418D02*
Y10384D01*
X9341Y11958D02*
Y12924D01*
X-5341Y4364D02*
Y7844D01*
X9341Y9418D02*
Y10384D01*
X7486Y58186D02*
X7740Y58440D01*
X-122Y58186D02*
X7486D01*
X6572Y58440D02*
X7740D01*
X-26D02*
X5048D01*
Y59380D01*
X-2572Y58186D02*
Y59380D01*
X-7Y3602D02*
Y4796D01*
Y3602D02*
X628Y4237D01*
Y4542D01*
X-7Y4759D02*
X628Y4542D01*
Y4237D02*
X952D01*
X628Y4542D02*
X978D01*
X2762Y2713D02*
Y3578D01*
X1238Y2713D02*
X2762D01*
X1238D02*
Y3578D01*
X4007Y3602D02*
Y4796D01*
X3372Y4542D02*
X4007Y4759D01*
X3372Y4237D02*
Y4542D01*
Y4237D02*
X4007Y3602D01*
X3022Y4542D02*
X3372D01*
X3048Y4237D02*
X3372D01*
X7740Y57006D02*
Y58440D01*
X-264Y59380D02*
X8579D01*
X-3486Y58186D02*
X-1974D01*
X-3740Y58440D02*
X-2572D01*
X-3740D02*
X-3486Y58186D01*
X-3740Y57191D02*
Y58440D01*
X-3486Y57191D02*
Y58186D01*
X-30525Y6700D02*
X-28275D01*
Y9700D01*
X-30525D02*
X-28275D01*
X-30525Y6700D02*
Y9700D01*
Y9500D02*
X-30325Y9700D01*
X-30525Y9300D02*
X-30125Y9700D01*
X-30525Y9100D02*
X-29925Y9700D01*
X-30525Y8900D02*
X-29725Y9700D01*
X-30525Y8700D02*
X-29525Y9700D01*
D37*
X-9175Y27850D02*
G03*
X-9175Y27850I-125J0D01*
G01*
Y24950D02*
G03*
X-9175Y24950I-125J0D01*
G01*
Y20050D02*
G03*
X-9175Y20050I-125J0D01*
G01*
X-9275Y22550D02*
G03*
X-9275Y22550I-125J0D01*
G01*
X-10175Y64200D02*
G03*
X-10175Y64200I-125J0D01*
G01*
X-23875Y33250D02*
G03*
X-23875Y33250I-125J0D01*
G01*
X-9175Y17350D02*
G03*
X-9175Y17350I-125J0D01*
G01*
X-10025Y50300D02*
G03*
X-10025Y50300I-125J0D01*
G01*
X-31975Y9900D02*
G03*
X-31975Y9900I-125J0D01*
G01*
D38*
X-26105Y48051D02*
X-25980Y47926D01*
X-25730D01*
X-25605Y48051D01*
Y48551D01*
X-25730Y48676D01*
X-25980D01*
X-26105Y48551D01*
X-26855Y47926D02*
X-26605Y48051D01*
X-26355Y48301D01*
Y48551D01*
X-26480Y48676D01*
X-26730D01*
X-26855Y48551D01*
Y48426D01*
X-26730Y48301D01*
X-26355D01*
X-9200Y60150D02*
Y59400D01*
X-8700D01*
X-7950D02*
X-8450D01*
X-7950Y59900D01*
Y60025D01*
X-8075Y60150D01*
X-8325D01*
X-8450Y60025D01*
X-46000Y5900D02*
Y6650D01*
X-45625D01*
X-45500Y6525D01*
Y6275D01*
X-45625Y6150D01*
X-46000D01*
X-45750D02*
X-45500Y5900D01*
X-45250D02*
Y6650D01*
X-44875D01*
X-44750Y6525D01*
Y6275D01*
X-44875Y6150D01*
X-45250D01*
X-45000D02*
X-44750Y5900D01*
X-44001D02*
X-44500D01*
X-44001Y6400D01*
Y6525D01*
X-44126Y6650D01*
X-44376D01*
X-44500Y6525D01*
X-43751Y5775D02*
X-43251D01*
X-42501Y6650D02*
X-43001D01*
Y6275D01*
X-42751Y6400D01*
X-42626D01*
X-42501Y6275D01*
Y6025D01*
X-42626Y5900D01*
X-42876D01*
X-43001Y6025D01*
X-44900Y8000D02*
Y8750D01*
X-44525D01*
X-44400Y8625D01*
Y8375D01*
X-44525Y8250D01*
X-44900D01*
X-44650D02*
X-44400Y8000D01*
X-44150Y8750D02*
X-43650D01*
X-43900D01*
Y8000D01*
X-43400Y8625D02*
X-43276Y8750D01*
X-43026D01*
X-42901Y8625D01*
Y8500D01*
X-43026Y8375D01*
X-43151D01*
X-43026D01*
X-42901Y8250D01*
Y8125D01*
X-43026Y8000D01*
X-43276D01*
X-43400Y8125D01*
X-42651Y7875D02*
X-42151D01*
X-41401Y8750D02*
X-41901D01*
Y8375D01*
X-41651Y8500D01*
X-41526D01*
X-41401Y8375D01*
Y8125D01*
X-41526Y8000D01*
X-41776D01*
X-41901Y8125D01*
X3000Y250D02*
Y-500D01*
X3375D01*
X3500Y-375D01*
Y-250D01*
X3375Y-125D01*
X3000D01*
X3375D01*
X3500Y-0D01*
Y125D01*
X3375Y250D01*
X3000D01*
X3750Y-500D02*
X4000D01*
X3875D01*
Y250D01*
X3750Y125D01*
X-63000Y59750D02*
Y59000D01*
X-62625D01*
X-62500Y59125D01*
Y59250D01*
X-62625Y59375D01*
X-63000D01*
X-62625D01*
X-62500Y59500D01*
Y59625D01*
X-62625Y59750D01*
X-63000D01*
X-61750Y59000D02*
X-62250D01*
X-61750Y59500D01*
Y59625D01*
X-61875Y59750D01*
X-62125D01*
X-62250Y59625D01*
X-61500Y58875D02*
X-61001D01*
X-60751Y59000D02*
Y59750D01*
X-60376D01*
X-60251Y59625D01*
Y59375D01*
X-60376Y59250D01*
X-60751D01*
X-59876Y59500D02*
X-59626D01*
X-59501Y59375D01*
Y59000D01*
X-59876D01*
X-60001Y59125D01*
X-59876Y59250D01*
X-59501D01*
X-59251Y59000D02*
Y59500D01*
X-58876D01*
X-58751Y59375D01*
Y59000D01*
X-58127D02*
X-58376D01*
X-58501Y59125D01*
Y59375D01*
X-58376Y59500D01*
X-58127D01*
X-58002Y59375D01*
Y59250D01*
X-58501D01*
X-57752Y59000D02*
X-57502D01*
X-57627D01*
Y59750D01*
X-57752D01*
X-63000Y2750D02*
Y2000D01*
X-62625D01*
X-62500Y2125D01*
Y2250D01*
X-62625Y2375D01*
X-63000D01*
X-62625D01*
X-62500Y2500D01*
Y2625D01*
X-62625Y2750D01*
X-63000D01*
X-62250Y2625D02*
X-62125Y2750D01*
X-61875D01*
X-61750Y2625D01*
Y2500D01*
X-61875Y2375D01*
X-62000D01*
X-61875D01*
X-61750Y2250D01*
Y2125D01*
X-61875Y2000D01*
X-62125D01*
X-62250Y2125D01*
X-61500Y1875D02*
X-61001D01*
X-60751Y2000D02*
Y2750D01*
X-60376D01*
X-60251Y2625D01*
Y2375D01*
X-60376Y2250D01*
X-60751D01*
X-59876Y2500D02*
X-59626D01*
X-59501Y2375D01*
Y2000D01*
X-59876D01*
X-60001Y2125D01*
X-59876Y2250D01*
X-59501D01*
X-59251Y2000D02*
Y2500D01*
X-58876D01*
X-58751Y2375D01*
Y2000D01*
X-58127D02*
X-58376D01*
X-58501Y2125D01*
Y2375D01*
X-58376Y2500D01*
X-58127D01*
X-58002Y2375D01*
Y2250D01*
X-58501D01*
X-57752Y2000D02*
X-57502D01*
X-57627D01*
Y2750D01*
X-57752D01*
X3000Y63250D02*
Y62500D01*
X3375D01*
X3500Y62625D01*
Y62750D01*
X3375Y62875D01*
X3000D01*
X3375D01*
X3500Y63000D01*
Y63125D01*
X3375Y63250D01*
X3000D01*
X4125Y62500D02*
Y63250D01*
X3750Y62875D01*
X4250D01*
X-52925Y20500D02*
X-53050Y20375D01*
Y20125D01*
X-52925Y20000D01*
X-52425D01*
X-52300Y20125D01*
Y20375D01*
X-52425Y20500D01*
X-52300Y20750D02*
Y21000D01*
Y20875D01*
X-53050D01*
X-52925Y20750D01*
X-52175Y21375D02*
Y21874D01*
X-52300Y22124D02*
Y22374D01*
Y22249D01*
X-53050D01*
X-52925Y22124D01*
Y30670D02*
X-53050Y30545D01*
Y30295D01*
X-52925Y30170D01*
X-52425D01*
X-52300Y30295D01*
Y30545D01*
X-52425Y30670D01*
X-52300Y30920D02*
Y31170D01*
Y31045D01*
X-53050D01*
X-52925Y30920D01*
X-52175Y31545D02*
Y32044D01*
X-52300Y32794D02*
Y32294D01*
X-52800Y32794D01*
X-52925D01*
X-53050Y32669D01*
Y32419D01*
X-52925Y32294D01*
Y40800D02*
X-53050Y40675D01*
Y40425D01*
X-52925Y40300D01*
X-52425D01*
X-52300Y40425D01*
Y40675D01*
X-52425Y40800D01*
X-52300Y41050D02*
Y41300D01*
Y41175D01*
X-53050D01*
X-52925Y41050D01*
X-52175Y41675D02*
Y42174D01*
X-52925Y42424D02*
X-53050Y42549D01*
Y42799D01*
X-52925Y42924D01*
X-52800D01*
X-52675Y42799D01*
Y42674D01*
Y42799D01*
X-52550Y42924D01*
X-52425D01*
X-52300Y42799D01*
Y42549D01*
X-52425Y42424D01*
X-52925Y50950D02*
X-53050Y50825D01*
Y50575D01*
X-52925Y50450D01*
X-52425D01*
X-52300Y50575D01*
Y50825D01*
X-52425Y50950D01*
X-52300Y51200D02*
Y51450D01*
Y51325D01*
X-53050D01*
X-52925Y51200D01*
X-52175Y51825D02*
Y52324D01*
X-52300Y52949D02*
X-53050D01*
X-52675Y52574D01*
Y53074D01*
X-52925Y10300D02*
X-53050Y10175D01*
Y9925D01*
X-52925Y9800D01*
X-52425D01*
X-52300Y9925D01*
Y10175D01*
X-52425Y10300D01*
X-52300Y10550D02*
Y10800D01*
Y10675D01*
X-53050D01*
X-52925Y10550D01*
X-52175Y11175D02*
Y11674D01*
X-53050Y12424D02*
Y11924D01*
X-52675D01*
X-52800Y12174D01*
Y12299D01*
X-52675Y12424D01*
X-52425D01*
X-52300Y12299D01*
Y12049D01*
X-52425Y11924D01*
X-50362Y62442D02*
X-50487Y62567D01*
X-50737D01*
X-50862Y62442D01*
Y61942D01*
X-50737Y61817D01*
X-50487D01*
X-50362Y61942D01*
X-49613Y61817D02*
X-50112D01*
X-49613Y62317D01*
Y62442D01*
X-49738Y62567D01*
X-49987D01*
X-50112Y62442D01*
X-26483Y26530D02*
X-26358Y26655D01*
Y26905D01*
X-26483Y27030D01*
X-26983D01*
X-27108Y26905D01*
Y26655D01*
X-26983Y26530D01*
X-26483Y26280D02*
X-26358Y26155D01*
Y25905D01*
X-26483Y25780D01*
X-26608D01*
X-26733Y25905D01*
Y26030D01*
Y25905D01*
X-26858Y25780D01*
X-26983D01*
X-27108Y25905D01*
Y26155D01*
X-26983Y26280D01*
X-25029Y26530D02*
X-24904Y26655D01*
Y26905D01*
X-25029Y27030D01*
X-25529D01*
X-25654Y26905D01*
Y26655D01*
X-25529Y26530D01*
X-25654Y25905D02*
X-24904D01*
X-25279Y26280D01*
Y25780D01*
X-18500Y33925D02*
X-18625Y34050D01*
X-18875D01*
X-19000Y33925D01*
Y33425D01*
X-18875Y33300D01*
X-18625D01*
X-18500Y33425D01*
X-17750Y34050D02*
X-18250D01*
Y33675D01*
X-18000Y33800D01*
X-17875D01*
X-17750Y33675D01*
Y33425D01*
X-17875Y33300D01*
X-18125D01*
X-18250Y33425D01*
X-18500Y35625D02*
X-18625Y35750D01*
X-18875D01*
X-19000Y35625D01*
Y35125D01*
X-18875Y35000D01*
X-18625D01*
X-18500Y35125D01*
X-18250Y35750D02*
X-17750D01*
Y35625D01*
X-18250Y35125D01*
Y35000D01*
X-21770Y36783D02*
X-21645Y36658D01*
X-21395D01*
X-21270Y36783D01*
Y37283D01*
X-21395Y37408D01*
X-21645D01*
X-21770Y37283D01*
X-22020Y36783D02*
X-22145Y36658D01*
X-22395D01*
X-22520Y36783D01*
Y36908D01*
X-22395Y37033D01*
X-22520Y37158D01*
Y37283D01*
X-22395Y37408D01*
X-22145D01*
X-22020Y37283D01*
Y37158D01*
X-22145Y37033D01*
X-22020Y36908D01*
Y36783D01*
X-22145Y37033D02*
X-22395D01*
X-18230Y38471D02*
X-18355Y38596D01*
X-18605D01*
X-18730Y38471D01*
Y37971D01*
X-18605Y37846D01*
X-18355D01*
X-18230Y37971D01*
X-17980D02*
X-17855Y37846D01*
X-17605D01*
X-17480Y37971D01*
Y38471D01*
X-17605Y38596D01*
X-17855D01*
X-17980Y38471D01*
Y38346D01*
X-17855Y38221D01*
X-17480D01*
X-20950Y43025D02*
X-21075Y43150D01*
X-21325D01*
X-21450Y43025D01*
Y42525D01*
X-21325Y42400D01*
X-21075D01*
X-20950Y42525D01*
X-20700Y42400D02*
X-20450D01*
X-20575D01*
Y43150D01*
X-20700Y43025D01*
X-20075D02*
X-19950Y43150D01*
X-19701D01*
X-19576Y43025D01*
Y42525D01*
X-19701Y42400D01*
X-19950D01*
X-20075Y42525D01*
Y43025D01*
X-21484Y43971D02*
X-21609Y44096D01*
X-21859D01*
X-21984Y43971D01*
Y43471D01*
X-21859Y43346D01*
X-21609D01*
X-21484Y43471D01*
X-21234Y43346D02*
X-20984D01*
X-21109D01*
Y44096D01*
X-21234Y43971D01*
X-20609Y43346D02*
X-20360D01*
X-20484D01*
Y44096D01*
X-20609Y43971D01*
X-36079Y41243D02*
X-36204Y41368D01*
X-36454D01*
X-36579Y41243D01*
Y40744D01*
X-36454Y40619D01*
X-36204D01*
X-36079Y40744D01*
X-35829Y40619D02*
X-35579D01*
X-35704D01*
Y41368D01*
X-35829Y41243D01*
X-34704Y40619D02*
X-35204D01*
X-34704Y41118D01*
Y41243D01*
X-34829Y41368D01*
X-35079D01*
X-35204Y41243D01*
X-25898Y42182D02*
X-25773Y42057D01*
X-25524D01*
X-25399Y42182D01*
Y42682D01*
X-25524Y42807D01*
X-25773D01*
X-25898Y42682D01*
X-26148Y42807D02*
X-26398D01*
X-26273D01*
Y42057D01*
X-26148Y42182D01*
X-26773D02*
X-26898Y42057D01*
X-27148D01*
X-27273Y42182D01*
Y42307D01*
X-27148Y42432D01*
X-27023D01*
X-27148D01*
X-27273Y42557D01*
Y42682D01*
X-27148Y42807D01*
X-26898D01*
X-26773Y42682D01*
X-21090Y40993D02*
X-21215Y41118D01*
X-21465D01*
X-21590Y40993D01*
Y40493D01*
X-21465Y40368D01*
X-21215D01*
X-21090Y40493D01*
X-20840Y40368D02*
X-20590D01*
X-20715D01*
Y41118D01*
X-20840Y40993D01*
X-19841Y40368D02*
Y41118D01*
X-20215Y40743D01*
X-19716D01*
X-21325Y33100D02*
X-21450Y32975D01*
Y32725D01*
X-21325Y32600D01*
X-20825D01*
X-20700Y32725D01*
Y32975D01*
X-20825Y33100D01*
X-20700Y33350D02*
Y33600D01*
Y33475D01*
X-21450D01*
X-21325Y33350D01*
X-21450Y34474D02*
Y33975D01*
X-21075D01*
X-21200Y34224D01*
Y34349D01*
X-21075Y34474D01*
X-20825D01*
X-20700Y34349D01*
Y34100D01*
X-20825Y33975D01*
X-34600Y30775D02*
X-34475Y30650D01*
X-34225D01*
X-34100Y30775D01*
Y31275D01*
X-34225Y31400D01*
X-34475D01*
X-34600Y31275D01*
X-34850Y31400D02*
X-35100D01*
X-34975D01*
Y30650D01*
X-34850Y30775D01*
X-35974Y30650D02*
X-35724Y30775D01*
X-35475Y31025D01*
Y31275D01*
X-35600Y31400D01*
X-35849D01*
X-35974Y31275D01*
Y31150D01*
X-35849Y31025D01*
X-35475D01*
X-27575Y24650D02*
X-27450Y24775D01*
Y25025D01*
X-27575Y25150D01*
X-28075D01*
X-28200Y25025D01*
Y24775D01*
X-28075Y24650D01*
X-28200Y24400D02*
Y24150D01*
Y24275D01*
X-27450D01*
X-27575Y24400D01*
X-27450Y23775D02*
Y23276D01*
X-27575D01*
X-28075Y23775D01*
X-28200D01*
X-21200Y7725D02*
X-21325Y7850D01*
X-21575D01*
X-21700Y7725D01*
Y7225D01*
X-21575Y7100D01*
X-21325D01*
X-21200Y7225D01*
X-20450Y7100D02*
X-20950D01*
X-20450Y7600D01*
Y7725D01*
X-20575Y7850D01*
X-20825D01*
X-20950Y7725D01*
X-20200D02*
X-20076Y7850D01*
X-19826D01*
X-19701Y7725D01*
Y7225D01*
X-19826Y7100D01*
X-20076D01*
X-20200Y7225D01*
Y7725D01*
X-21200Y8825D02*
X-21325Y8950D01*
X-21575D01*
X-21700Y8825D01*
Y8325D01*
X-21575Y8200D01*
X-21325D01*
X-21200Y8325D01*
X-20450Y8200D02*
X-20950D01*
X-20450Y8700D01*
Y8825D01*
X-20575Y8950D01*
X-20825D01*
X-20950Y8825D01*
X-20200Y8200D02*
X-19951D01*
X-20076D01*
Y8950D01*
X-20200Y8825D01*
X-28135Y12292D02*
X-28260Y12417D01*
X-28510D01*
X-28635Y12292D01*
Y11792D01*
X-28510Y11667D01*
X-28260D01*
X-28135Y11792D01*
X-27385Y11667D02*
X-27885D01*
X-27385Y12167D01*
Y12292D01*
X-27510Y12417D01*
X-27760D01*
X-27885Y12292D01*
X-26635Y11667D02*
X-27135D01*
X-26635Y12167D01*
Y12292D01*
X-26760Y12417D01*
X-27010D01*
X-27135Y12292D01*
X-9625Y41600D02*
X-9750Y41475D01*
Y41225D01*
X-9625Y41100D01*
X-9125D01*
X-9000Y41225D01*
Y41475D01*
X-9125Y41600D01*
X-9000Y42350D02*
Y41850D01*
X-9500Y42350D01*
X-9625D01*
X-9750Y42225D01*
Y41975D01*
X-9625Y41850D01*
Y42600D02*
X-9750Y42724D01*
Y42974D01*
X-9625Y43099D01*
X-9500D01*
X-9375Y42974D01*
Y42849D01*
Y42974D01*
X-9250Y43099D01*
X-9125D01*
X-9000Y42974D01*
Y42724D01*
X-9125Y42600D01*
X-46300Y23225D02*
X-46425Y23350D01*
X-46675D01*
X-46800Y23225D01*
Y22725D01*
X-46675Y22600D01*
X-46425D01*
X-46300Y22725D01*
X-46050Y22600D02*
Y23350D01*
X-45675D01*
X-45550Y23225D01*
Y22975D01*
X-45675Y22850D01*
X-46050D01*
X-45800D02*
X-45550Y22600D01*
X-45300D02*
X-45051D01*
X-45176D01*
Y23350D01*
X-45300Y23225D01*
X-44676Y22475D02*
X-44176D01*
X-43926Y22600D02*
X-43676D01*
X-43801D01*
Y23350D01*
X-43926Y23225D01*
X-46300Y33395D02*
X-46425Y33520D01*
X-46675D01*
X-46800Y33395D01*
Y32895D01*
X-46675Y32770D01*
X-46425D01*
X-46300Y32895D01*
X-46050Y32770D02*
Y33520D01*
X-45675D01*
X-45550Y33395D01*
Y33145D01*
X-45675Y33020D01*
X-46050D01*
X-45800D02*
X-45550Y32770D01*
X-45300D02*
X-45051D01*
X-45176D01*
Y33520D01*
X-45300Y33395D01*
X-44676Y32645D02*
X-44176D01*
X-43426Y32770D02*
X-43926D01*
X-43426Y33270D01*
Y33395D01*
X-43551Y33520D01*
X-43801D01*
X-43926Y33395D01*
X-46300Y43525D02*
X-46425Y43650D01*
X-46675D01*
X-46800Y43525D01*
Y43025D01*
X-46675Y42900D01*
X-46425D01*
X-46300Y43025D01*
X-46050Y42900D02*
Y43650D01*
X-45675D01*
X-45550Y43525D01*
Y43275D01*
X-45675Y43150D01*
X-46050D01*
X-45800D02*
X-45550Y42900D01*
X-45300D02*
X-45051D01*
X-45176D01*
Y43650D01*
X-45300Y43525D01*
X-44676Y42775D02*
X-44176D01*
X-43926Y43525D02*
X-43801Y43650D01*
X-43551D01*
X-43426Y43525D01*
Y43400D01*
X-43551Y43275D01*
X-43676D01*
X-43551D01*
X-43426Y43150D01*
Y43025D01*
X-43551Y42900D01*
X-43801D01*
X-43926Y43025D01*
X-46300Y53675D02*
X-46425Y53800D01*
X-46675D01*
X-46800Y53675D01*
Y53175D01*
X-46675Y53050D01*
X-46425D01*
X-46300Y53175D01*
X-46050Y53050D02*
Y53800D01*
X-45675D01*
X-45550Y53675D01*
Y53425D01*
X-45675Y53300D01*
X-46050D01*
X-45800D02*
X-45550Y53050D01*
X-45300D02*
X-45051D01*
X-45176D01*
Y53800D01*
X-45300Y53675D01*
X-44676Y52925D02*
X-44176D01*
X-43551Y53050D02*
Y53800D01*
X-43926Y53425D01*
X-43426D01*
X-46300Y13025D02*
X-46425Y13150D01*
X-46675D01*
X-46800Y13025D01*
Y12525D01*
X-46675Y12400D01*
X-46425D01*
X-46300Y12525D01*
X-46050Y12400D02*
Y13150D01*
X-45675D01*
X-45550Y13025D01*
Y12775D01*
X-45675Y12650D01*
X-46050D01*
X-45800D02*
X-45550Y12400D01*
X-45300D02*
X-45051D01*
X-45176D01*
Y13150D01*
X-45300Y13025D01*
X-44676Y12275D02*
X-44176D01*
X-43426Y13150D02*
X-43926D01*
Y12775D01*
X-43676Y12900D01*
X-43551D01*
X-43426Y12775D01*
Y12525D01*
X-43551Y12400D01*
X-43801D01*
X-43926Y12525D01*
X-52925Y16100D02*
X-53050Y15975D01*
Y15725D01*
X-52925Y15600D01*
X-52425D01*
X-52300Y15725D01*
Y15975D01*
X-52425Y16100D01*
X-53050Y16350D02*
Y16850D01*
Y16600D01*
X-52300D01*
Y17100D02*
Y17349D01*
Y17224D01*
X-53050D01*
X-52925Y17100D01*
X-52175Y17724D02*
Y18224D01*
X-52300Y18474D02*
Y18724D01*
Y18599D01*
X-53050D01*
X-52925Y18474D01*
X-52925Y26270D02*
X-53050Y26145D01*
Y25895D01*
X-52925Y25770D01*
X-52425D01*
X-52300Y25895D01*
Y26145D01*
X-52425Y26270D01*
X-53050Y26520D02*
Y27020D01*
Y26770D01*
X-52300D01*
Y27270D02*
Y27519D01*
Y27394D01*
X-53050D01*
X-52925Y27270D01*
X-52175Y27894D02*
Y28394D01*
X-52300Y29144D02*
Y28644D01*
X-52800Y29144D01*
X-52925D01*
X-53050Y29019D01*
Y28769D01*
X-52925Y28644D01*
Y36400D02*
X-53050Y36275D01*
Y36025D01*
X-52925Y35900D01*
X-52425D01*
X-52300Y36025D01*
Y36275D01*
X-52425Y36400D01*
X-53050Y36650D02*
Y37150D01*
Y36900D01*
X-52300D01*
Y37400D02*
Y37649D01*
Y37524D01*
X-53050D01*
X-52925Y37400D01*
X-52175Y38024D02*
Y38524D01*
X-52925Y38774D02*
X-53050Y38899D01*
Y39149D01*
X-52925Y39274D01*
X-52800D01*
X-52675Y39149D01*
Y39024D01*
Y39149D01*
X-52550Y39274D01*
X-52425D01*
X-52300Y39149D01*
Y38899D01*
X-52425Y38774D01*
X-52925Y46550D02*
X-53050Y46425D01*
Y46175D01*
X-52925Y46050D01*
X-52425D01*
X-52300Y46175D01*
Y46425D01*
X-52425Y46550D01*
X-53050Y46800D02*
Y47300D01*
Y47050D01*
X-52300D01*
Y47550D02*
Y47799D01*
Y47674D01*
X-53050D01*
X-52925Y47550D01*
X-52175Y48174D02*
Y48674D01*
X-52300Y49299D02*
X-53050D01*
X-52675Y48924D01*
Y49424D01*
X-52925Y5900D02*
X-53050Y5775D01*
Y5525D01*
X-52925Y5400D01*
X-52425D01*
X-52300Y5525D01*
Y5775D01*
X-52425Y5900D01*
X-53050Y6150D02*
Y6650D01*
Y6400D01*
X-52300D01*
Y6900D02*
Y7149D01*
Y7024D01*
X-53050D01*
X-52925Y6900D01*
X-52175Y7524D02*
Y8024D01*
X-53050Y8774D02*
Y8274D01*
X-52675D01*
X-52800Y8524D01*
Y8649D01*
X-52675Y8774D01*
X-52425D01*
X-52300Y8649D01*
Y8399D01*
X-52425Y8274D01*
X-12000Y23050D02*
Y23800D01*
X-12375D01*
X-12500Y23675D01*
Y23175D01*
X-12375Y23050D01*
X-12000D01*
X-12750Y23800D02*
X-13000D01*
X-12875D01*
Y23050D01*
X-12750Y23175D01*
X-11900Y20550D02*
Y21300D01*
X-12275D01*
X-12400Y21175D01*
Y20675D01*
X-12275Y20550D01*
X-11900D01*
X-13150Y21300D02*
X-12650D01*
X-13150Y20800D01*
Y20675D01*
X-13025Y20550D01*
X-12775D01*
X-12650Y20675D01*
X-11900Y25450D02*
Y26200D01*
X-12275D01*
X-12400Y26075D01*
Y25575D01*
X-12275Y25450D01*
X-11900D01*
X-12650Y25575D02*
X-12775Y25450D01*
X-13025D01*
X-13150Y25575D01*
Y25700D01*
X-13025Y25825D01*
X-12900D01*
X-13025D01*
X-13150Y25950D01*
Y26075D01*
X-13025Y26200D01*
X-12775D01*
X-12650Y26075D01*
X-11900Y28350D02*
Y29100D01*
X-12275D01*
X-12400Y28975D01*
Y28475D01*
X-12275Y28350D01*
X-11900D01*
X-13025Y29100D02*
Y28350D01*
X-12650Y28725D01*
X-13150D01*
X-11900Y17850D02*
Y18600D01*
X-12275D01*
X-12400Y18475D01*
Y17975D01*
X-12275Y17850D01*
X-11900D01*
X-13150D02*
X-12650D01*
Y18225D01*
X-12900Y18100D01*
X-13025D01*
X-13150Y18225D01*
Y18475D01*
X-13025Y18600D01*
X-12775D01*
X-12650Y18475D01*
X-34250Y33000D02*
X-34000D01*
X-34125D01*
Y32250D01*
X-34250D01*
X-34000D01*
X-33125Y32875D02*
X-33250Y33000D01*
X-33500D01*
X-33625Y32875D01*
Y32375D01*
X-33500Y32250D01*
X-33250D01*
X-33125Y32375D01*
X-32875Y32250D02*
X-32626D01*
X-32750D01*
Y33000D01*
X-32875Y32875D01*
X-32503Y11536D02*
X-32253D01*
X-32378D01*
Y10786D01*
X-32503D01*
X-32253D01*
X-31378Y11411D02*
X-31503Y11536D01*
X-31753D01*
X-31878Y11411D01*
Y10911D01*
X-31753Y10786D01*
X-31503D01*
X-31378Y10911D01*
X-30628Y10786D02*
X-31128D01*
X-30628Y11286D01*
Y11411D01*
X-30753Y11536D01*
X-31003D01*
X-31128Y11411D01*
X-12075Y50700D02*
Y50450D01*
Y50575D01*
X-12825D01*
Y50700D01*
Y50450D01*
X-12200Y49575D02*
X-12075Y49700D01*
Y49950D01*
X-12200Y50075D01*
X-12700D01*
X-12825Y49950D01*
Y49700D01*
X-12700Y49575D01*
X-12200Y49325D02*
X-12075Y49200D01*
Y48951D01*
X-12200Y48826D01*
X-12325D01*
X-12450Y48951D01*
Y49076D01*
Y48951D01*
X-12575Y48826D01*
X-12700D01*
X-12825Y48951D01*
Y49200D01*
X-12700Y49325D01*
X-51200Y25650D02*
X-51450D01*
X-51325D01*
Y25025D01*
X-51450Y24900D01*
X-51575D01*
X-51700Y25025D01*
X-50950Y24900D02*
X-50700D01*
X-50825D01*
Y25650D01*
X-50950Y25525D01*
X-50325Y24775D02*
X-49826D01*
X-49576Y24900D02*
X-49326D01*
X-49451D01*
Y25650D01*
X-49576Y25525D01*
X-51200Y35820D02*
X-51450D01*
X-51325D01*
Y35195D01*
X-51450Y35070D01*
X-51575D01*
X-51700Y35195D01*
X-50950Y35070D02*
X-50700D01*
X-50825D01*
Y35820D01*
X-50950Y35695D01*
X-50325Y34945D02*
X-49826D01*
X-49076Y35070D02*
X-49576D01*
X-49076Y35570D01*
Y35695D01*
X-49201Y35820D01*
X-49451D01*
X-49576Y35695D01*
X-51200Y45950D02*
X-51450D01*
X-51325D01*
Y45325D01*
X-51450Y45200D01*
X-51575D01*
X-51700Y45325D01*
X-50950Y45200D02*
X-50700D01*
X-50825D01*
Y45950D01*
X-50950Y45825D01*
X-50325Y45075D02*
X-49826D01*
X-49576Y45825D02*
X-49451Y45950D01*
X-49201D01*
X-49076Y45825D01*
Y45700D01*
X-49201Y45575D01*
X-49326D01*
X-49201D01*
X-49076Y45450D01*
Y45325D01*
X-49201Y45200D01*
X-49451D01*
X-49576Y45325D01*
X-51200Y56100D02*
X-51450D01*
X-51325D01*
Y55475D01*
X-51450Y55350D01*
X-51575D01*
X-51700Y55475D01*
X-50950Y55350D02*
X-50700D01*
X-50825D01*
Y56100D01*
X-50950Y55975D01*
X-50325Y55225D02*
X-49826D01*
X-49201Y55350D02*
Y56100D01*
X-49576Y55725D01*
X-49076D01*
X-51200Y15450D02*
X-51450D01*
X-51325D01*
Y14825D01*
X-51450Y14700D01*
X-51575D01*
X-51700Y14825D01*
X-50950Y14700D02*
X-50700D01*
X-50825D01*
Y15450D01*
X-50950Y15325D01*
X-50325Y14575D02*
X-49826D01*
X-49076Y15450D02*
X-49576D01*
Y15075D01*
X-49326Y15200D01*
X-49201D01*
X-49076Y15075D01*
Y14825D01*
X-49201Y14700D01*
X-49451D01*
X-49576Y14825D01*
X-5599Y61102D02*
X-5849D01*
X-5724D01*
Y60478D01*
X-5849Y60353D01*
X-5974D01*
X-6099Y60478D01*
X-4849Y60353D02*
X-5349D01*
X-4849Y60852D01*
Y60977D01*
X-4974Y61102D01*
X-5224D01*
X-5349Y60977D01*
X-47396Y62599D02*
Y61849D01*
X-46896D01*
X-46646D02*
X-46396D01*
X-46521D01*
Y62599D01*
X-46646Y62474D01*
X-6400Y64650D02*
Y63900D01*
X-5900D01*
X-5650Y64650D02*
Y63900D01*
X-5275D01*
X-5150Y64025D01*
Y64525D01*
X-5275Y64650D01*
X-5650D01*
X-4900Y63900D02*
X-4651D01*
X-4776D01*
Y64650D01*
X-4900Y64525D01*
X-24852Y29400D02*
Y30150D01*
X-24477D01*
X-24352Y30025D01*
Y29775D01*
X-24477Y29650D01*
X-24852D01*
X-24602D02*
X-24352Y29400D01*
X-24102D02*
X-23852D01*
X-23977D01*
Y30150D01*
X-24102Y30025D01*
X-22500Y34400D02*
X-23250D01*
Y34775D01*
X-23125Y34900D01*
X-22875D01*
X-22750Y34775D01*
Y34400D01*
Y34650D02*
X-22500Y34900D01*
Y35650D02*
Y35150D01*
X-23000Y35650D01*
X-23125D01*
X-23250Y35525D01*
Y35275D01*
X-23125Y35150D01*
X-22500Y36500D02*
X-23250D01*
Y36875D01*
X-23125Y37000D01*
X-22875D01*
X-22750Y36875D01*
Y36500D01*
Y36750D02*
X-22500Y37000D01*
X-23125Y37250D02*
X-23250Y37375D01*
Y37625D01*
X-23125Y37750D01*
X-23000D01*
X-22875Y37625D01*
Y37500D01*
Y37625D01*
X-22750Y37750D01*
X-22625D01*
X-22500Y37625D01*
Y37375D01*
X-22625Y37250D01*
X-24754Y42014D02*
X-24004D01*
Y41639D01*
X-24129Y41514D01*
X-24379D01*
X-24504Y41639D01*
Y42014D01*
Y41764D02*
X-24754Y41514D01*
Y40889D02*
X-24004D01*
X-24379Y41264D01*
Y40764D01*
X-35605Y37349D02*
Y38099D01*
X-35230D01*
X-35105Y37974D01*
Y37724D01*
X-35230Y37599D01*
X-35605D01*
X-35355D02*
X-35105Y37349D01*
X-34355Y38099D02*
X-34855D01*
Y37724D01*
X-34605Y37849D01*
X-34480D01*
X-34355Y37724D01*
Y37474D01*
X-34480Y37349D01*
X-34730D01*
X-34855Y37474D01*
X-25500Y5900D02*
Y6650D01*
X-25125D01*
X-25000Y6525D01*
Y6275D01*
X-25125Y6150D01*
X-25500D01*
X-25250D02*
X-25000Y5900D01*
X-24250Y6650D02*
X-24500Y6525D01*
X-24750Y6275D01*
Y6025D01*
X-24625Y5900D01*
X-24375D01*
X-24250Y6025D01*
Y6150D01*
X-24375Y6275D01*
X-24750D01*
X-29438Y28908D02*
X-28688D01*
Y28533D01*
X-28813Y28408D01*
X-29063D01*
X-29188Y28533D01*
Y28908D01*
Y28658D02*
X-29438Y28408D01*
X-28688Y28158D02*
Y27658D01*
X-28813D01*
X-29313Y28158D01*
X-29438D01*
X-13900Y63800D02*
Y64550D01*
X-13525D01*
X-13400Y64425D01*
Y64175D01*
X-13525Y64050D01*
X-13900D01*
X-13650D02*
X-13400Y63800D01*
X-13150Y64425D02*
X-13025Y64550D01*
X-12775D01*
X-12650Y64425D01*
Y64300D01*
X-12775Y64175D01*
X-12650Y64050D01*
Y63925D01*
X-12775Y63800D01*
X-13025D01*
X-13150Y63925D01*
Y64050D01*
X-13025Y64175D01*
X-13150Y64300D01*
Y64425D01*
X-13025Y64175D02*
X-12775D01*
X-16700Y22800D02*
Y23550D01*
X-16325D01*
X-16200Y23425D01*
Y23175D01*
X-16325Y23050D01*
X-16700D01*
X-16450D02*
X-16200Y22800D01*
X-15950Y22925D02*
X-15825Y22800D01*
X-15575D01*
X-15450Y22925D01*
Y23425D01*
X-15575Y23550D01*
X-15825D01*
X-15950Y23425D01*
Y23300D01*
X-15825Y23175D01*
X-15450D01*
X-17100Y20300D02*
Y21050D01*
X-16725D01*
X-16600Y20925D01*
Y20675D01*
X-16725Y20550D01*
X-17100D01*
X-16850D02*
X-16600Y20300D01*
X-16350D02*
X-16100D01*
X-16225D01*
Y21050D01*
X-16350Y20925D01*
X-15725D02*
X-15600Y21050D01*
X-15351D01*
X-15226Y20925D01*
Y20425D01*
X-15351Y20300D01*
X-15600D01*
X-15725Y20425D01*
Y20925D01*
X-17100Y25200D02*
Y25950D01*
X-16725D01*
X-16600Y25825D01*
Y25575D01*
X-16725Y25450D01*
X-17100D01*
X-16850D02*
X-16600Y25200D01*
X-16350D02*
X-16100D01*
X-16225D01*
Y25950D01*
X-16350Y25825D01*
X-15725Y25200D02*
X-15476D01*
X-15600D01*
Y25950D01*
X-15725Y25825D01*
X-17100Y28100D02*
Y28850D01*
X-16725D01*
X-16600Y28725D01*
Y28475D01*
X-16725Y28350D01*
X-17100D01*
X-16850D02*
X-16600Y28100D01*
X-16350D02*
X-16100D01*
X-16225D01*
Y28850D01*
X-16350Y28725D01*
X-15226Y28100D02*
X-15725D01*
X-15226Y28600D01*
Y28725D01*
X-15351Y28850D01*
X-15600D01*
X-15725Y28725D01*
X-14200Y20900D02*
X-13450D01*
Y20525D01*
X-13575Y20400D01*
X-13825D01*
X-13950Y20525D01*
Y20900D01*
Y20650D02*
X-14200Y20400D01*
Y20150D02*
Y19900D01*
Y20025D01*
X-13450D01*
X-13575Y20150D01*
Y19525D02*
X-13450Y19400D01*
Y19151D01*
X-13575Y19026D01*
X-13700D01*
X-13825Y19151D01*
Y19276D01*
Y19151D01*
X-13950Y19026D01*
X-14075D01*
X-14200Y19151D01*
Y19400D01*
X-14075Y19525D01*
X-42800Y22700D02*
Y23450D01*
X-42425D01*
X-42300Y23325D01*
Y23075D01*
X-42425Y22950D01*
X-42800D01*
X-42550D02*
X-42300Y22700D01*
X-42050D02*
Y23450D01*
X-41675D01*
X-41550Y23325D01*
Y23075D01*
X-41675Y22950D01*
X-42050D01*
X-41800D02*
X-41550Y22700D01*
X-41300D02*
X-41051D01*
X-41176D01*
Y23450D01*
X-41300Y23325D01*
X-40676Y22575D02*
X-40176D01*
X-39926Y22700D02*
X-39676D01*
X-39801D01*
Y23450D01*
X-39926Y23325D01*
X-42800Y32870D02*
Y33620D01*
X-42425D01*
X-42300Y33495D01*
Y33245D01*
X-42425Y33120D01*
X-42800D01*
X-42550D02*
X-42300Y32870D01*
X-42050D02*
Y33620D01*
X-41675D01*
X-41550Y33495D01*
Y33245D01*
X-41675Y33120D01*
X-42050D01*
X-41800D02*
X-41550Y32870D01*
X-41300D02*
X-41051D01*
X-41176D01*
Y33620D01*
X-41300Y33495D01*
X-40676Y32745D02*
X-40176D01*
X-39426Y32870D02*
X-39926D01*
X-39426Y33370D01*
Y33495D01*
X-39551Y33620D01*
X-39801D01*
X-39926Y33495D01*
X-42800Y43000D02*
Y43750D01*
X-42425D01*
X-42300Y43625D01*
Y43375D01*
X-42425Y43250D01*
X-42800D01*
X-42550D02*
X-42300Y43000D01*
X-42050D02*
Y43750D01*
X-41675D01*
X-41550Y43625D01*
Y43375D01*
X-41675Y43250D01*
X-42050D01*
X-41800D02*
X-41550Y43000D01*
X-41300D02*
X-41051D01*
X-41176D01*
Y43750D01*
X-41300Y43625D01*
X-40676Y42875D02*
X-40176D01*
X-39926Y43625D02*
X-39801Y43750D01*
X-39551D01*
X-39426Y43625D01*
Y43500D01*
X-39551Y43375D01*
X-39676D01*
X-39551D01*
X-39426Y43250D01*
Y43125D01*
X-39551Y43000D01*
X-39801D01*
X-39926Y43125D01*
X-42800Y53150D02*
Y53900D01*
X-42425D01*
X-42300Y53775D01*
Y53525D01*
X-42425Y53400D01*
X-42800D01*
X-42550D02*
X-42300Y53150D01*
X-42050D02*
Y53900D01*
X-41675D01*
X-41550Y53775D01*
Y53525D01*
X-41675Y53400D01*
X-42050D01*
X-41800D02*
X-41550Y53150D01*
X-41300D02*
X-41051D01*
X-41176D01*
Y53900D01*
X-41300Y53775D01*
X-40676Y53025D02*
X-40176D01*
X-39551Y53150D02*
Y53900D01*
X-39926Y53525D01*
X-39426D01*
X-42800Y12500D02*
Y13250D01*
X-42425D01*
X-42300Y13125D01*
Y12875D01*
X-42425Y12750D01*
X-42800D01*
X-42550D02*
X-42300Y12500D01*
X-42050D02*
Y13250D01*
X-41675D01*
X-41550Y13125D01*
Y12875D01*
X-41675Y12750D01*
X-42050D01*
X-41800D02*
X-41550Y12500D01*
X-41300D02*
X-41051D01*
X-41176D01*
Y13250D01*
X-41300Y13125D01*
X-40676Y12375D02*
X-40176D01*
X-39426Y13250D02*
X-39926D01*
Y12875D01*
X-39676Y13000D01*
X-39551D01*
X-39426Y12875D01*
Y12625D01*
X-39551Y12500D01*
X-39801D01*
X-39926Y12625D01*
X-46000Y16100D02*
Y16850D01*
X-45625D01*
X-45500Y16725D01*
Y16475D01*
X-45625Y16350D01*
X-46000D01*
X-45750D02*
X-45500Y16100D01*
X-45250D02*
Y16850D01*
X-44875D01*
X-44750Y16725D01*
Y16475D01*
X-44875Y16350D01*
X-45250D01*
X-45000D02*
X-44750Y16100D01*
X-44001D02*
X-44500D01*
X-44001Y16600D01*
Y16725D01*
X-44126Y16850D01*
X-44376D01*
X-44500Y16725D01*
X-43751Y15975D02*
X-43251D01*
X-43001Y16100D02*
X-42751D01*
X-42876D01*
Y16850D01*
X-43001Y16725D01*
X-46000Y26270D02*
Y27020D01*
X-45625D01*
X-45500Y26895D01*
Y26645D01*
X-45625Y26520D01*
X-46000D01*
X-45750D02*
X-45500Y26270D01*
X-45250D02*
Y27020D01*
X-44875D01*
X-44750Y26895D01*
Y26645D01*
X-44875Y26520D01*
X-45250D01*
X-45000D02*
X-44750Y26270D01*
X-44001D02*
X-44500D01*
X-44001Y26770D01*
Y26895D01*
X-44126Y27020D01*
X-44376D01*
X-44500Y26895D01*
X-43751Y26145D02*
X-43251D01*
X-42501Y26270D02*
X-43001D01*
X-42501Y26770D01*
Y26895D01*
X-42626Y27020D01*
X-42876D01*
X-43001Y26895D01*
X-46000Y36400D02*
Y37150D01*
X-45625D01*
X-45500Y37025D01*
Y36775D01*
X-45625Y36650D01*
X-46000D01*
X-45750D02*
X-45500Y36400D01*
X-45250D02*
Y37150D01*
X-44875D01*
X-44750Y37025D01*
Y36775D01*
X-44875Y36650D01*
X-45250D01*
X-45000D02*
X-44750Y36400D01*
X-44001D02*
X-44500D01*
X-44001Y36900D01*
Y37025D01*
X-44126Y37150D01*
X-44376D01*
X-44500Y37025D01*
X-43751Y36275D02*
X-43251D01*
X-43001Y37025D02*
X-42876Y37150D01*
X-42626D01*
X-42501Y37025D01*
Y36900D01*
X-42626Y36775D01*
X-42751D01*
X-42626D01*
X-42501Y36650D01*
Y36525D01*
X-42626Y36400D01*
X-42876D01*
X-43001Y36525D01*
X-46000Y46550D02*
Y47300D01*
X-45625D01*
X-45500Y47175D01*
Y46925D01*
X-45625Y46800D01*
X-46000D01*
X-45750D02*
X-45500Y46550D01*
X-45250D02*
Y47300D01*
X-44875D01*
X-44750Y47175D01*
Y46925D01*
X-44875Y46800D01*
X-45250D01*
X-45000D02*
X-44750Y46550D01*
X-44001D02*
X-44500D01*
X-44001Y47050D01*
Y47175D01*
X-44126Y47300D01*
X-44376D01*
X-44500Y47175D01*
X-43751Y46425D02*
X-43251D01*
X-42626Y46550D02*
Y47300D01*
X-43001Y46925D01*
X-42501D01*
X-46900Y23900D02*
Y24650D01*
X-46525D01*
X-46400Y24525D01*
Y24275D01*
X-46525Y24150D01*
X-46900D01*
X-46650D02*
X-46400Y23900D01*
X-46150D02*
Y24650D01*
X-45775D01*
X-45650Y24525D01*
Y24275D01*
X-45775Y24150D01*
X-46150D01*
X-45900D02*
X-45650Y23900D01*
X-45400Y24525D02*
X-45276Y24650D01*
X-45026D01*
X-44901Y24525D01*
Y24400D01*
X-45026Y24275D01*
X-45151D01*
X-45026D01*
X-44901Y24150D01*
Y24025D01*
X-45026Y23900D01*
X-45276D01*
X-45400Y24025D01*
X-44651Y23775D02*
X-44151D01*
X-43901Y23900D02*
X-43651D01*
X-43776D01*
Y24650D01*
X-43901Y24525D01*
X-46900Y34070D02*
Y34820D01*
X-46525D01*
X-46400Y34695D01*
Y34445D01*
X-46525Y34320D01*
X-46900D01*
X-46650D02*
X-46400Y34070D01*
X-46150D02*
Y34820D01*
X-45775D01*
X-45650Y34695D01*
Y34445D01*
X-45775Y34320D01*
X-46150D01*
X-45900D02*
X-45650Y34070D01*
X-45400Y34695D02*
X-45276Y34820D01*
X-45026D01*
X-44901Y34695D01*
Y34570D01*
X-45026Y34445D01*
X-45151D01*
X-45026D01*
X-44901Y34320D01*
Y34195D01*
X-45026Y34070D01*
X-45276D01*
X-45400Y34195D01*
X-44651Y33945D02*
X-44151D01*
X-43401Y34070D02*
X-43901D01*
X-43401Y34570D01*
Y34695D01*
X-43526Y34820D01*
X-43776D01*
X-43901Y34695D01*
X-46900Y44200D02*
Y44950D01*
X-46525D01*
X-46400Y44825D01*
Y44575D01*
X-46525Y44450D01*
X-46900D01*
X-46650D02*
X-46400Y44200D01*
X-46150D02*
Y44950D01*
X-45775D01*
X-45650Y44825D01*
Y44575D01*
X-45775Y44450D01*
X-46150D01*
X-45900D02*
X-45650Y44200D01*
X-45400Y44825D02*
X-45276Y44950D01*
X-45026D01*
X-44901Y44825D01*
Y44700D01*
X-45026Y44575D01*
X-45151D01*
X-45026D01*
X-44901Y44450D01*
Y44325D01*
X-45026Y44200D01*
X-45276D01*
X-45400Y44325D01*
X-44651Y44075D02*
X-44151D01*
X-43901Y44825D02*
X-43776Y44950D01*
X-43526D01*
X-43401Y44825D01*
Y44700D01*
X-43526Y44575D01*
X-43651D01*
X-43526D01*
X-43401Y44450D01*
Y44325D01*
X-43526Y44200D01*
X-43776D01*
X-43901Y44325D01*
X-46900Y54350D02*
Y55100D01*
X-46525D01*
X-46400Y54975D01*
Y54725D01*
X-46525Y54600D01*
X-46900D01*
X-46650D02*
X-46400Y54350D01*
X-46150D02*
Y55100D01*
X-45775D01*
X-45650Y54975D01*
Y54725D01*
X-45775Y54600D01*
X-46150D01*
X-45900D02*
X-45650Y54350D01*
X-45400Y54975D02*
X-45276Y55100D01*
X-45026D01*
X-44901Y54975D01*
Y54850D01*
X-45026Y54725D01*
X-45151D01*
X-45026D01*
X-44901Y54600D01*
Y54475D01*
X-45026Y54350D01*
X-45276D01*
X-45400Y54475D01*
X-44651Y54225D02*
X-44151D01*
X-43526Y54350D02*
Y55100D01*
X-43901Y54725D01*
X-43401D01*
X-46900Y13700D02*
Y14450D01*
X-46525D01*
X-46400Y14325D01*
Y14075D01*
X-46525Y13950D01*
X-46900D01*
X-46650D02*
X-46400Y13700D01*
X-46150D02*
Y14450D01*
X-45775D01*
X-45650Y14325D01*
Y14075D01*
X-45775Y13950D01*
X-46150D01*
X-45900D02*
X-45650Y13700D01*
X-45400Y14325D02*
X-45276Y14450D01*
X-45026D01*
X-44901Y14325D01*
Y14200D01*
X-45026Y14075D01*
X-45151D01*
X-45026D01*
X-44901Y13950D01*
Y13825D01*
X-45026Y13700D01*
X-45276D01*
X-45400Y13825D01*
X-44651Y13575D02*
X-44151D01*
X-43401Y14450D02*
X-43901D01*
Y14075D01*
X-43651Y14200D01*
X-43526D01*
X-43401Y14075D01*
Y13825D01*
X-43526Y13700D01*
X-43776D01*
X-43901Y13825D01*
X-47700Y16300D02*
X-48450D01*
Y16675D01*
X-48325Y16800D01*
X-48075D01*
X-47950Y16675D01*
Y16300D01*
Y16550D02*
X-47700Y16800D01*
X-48450Y17050D02*
Y17550D01*
Y17300D01*
X-47700D01*
Y17800D02*
Y18049D01*
Y17924D01*
X-48450D01*
X-48325Y17800D01*
X-47575Y18424D02*
Y18924D01*
X-47700Y19174D02*
Y19424D01*
Y19299D01*
X-48450D01*
X-48325Y19174D01*
X-47700Y26470D02*
X-48450D01*
Y26845D01*
X-48325Y26970D01*
X-48075D01*
X-47950Y26845D01*
Y26470D01*
Y26720D02*
X-47700Y26970D01*
X-48450Y27220D02*
Y27720D01*
Y27470D01*
X-47700D01*
Y27970D02*
Y28219D01*
Y28094D01*
X-48450D01*
X-48325Y27970D01*
X-47575Y28594D02*
Y29094D01*
X-47700Y29844D02*
Y29344D01*
X-48200Y29844D01*
X-48325D01*
X-48450Y29719D01*
Y29469D01*
X-48325Y29344D01*
X-47700Y36600D02*
X-48450D01*
Y36975D01*
X-48325Y37100D01*
X-48075D01*
X-47950Y36975D01*
Y36600D01*
Y36850D02*
X-47700Y37100D01*
X-48450Y37350D02*
Y37850D01*
Y37600D01*
X-47700D01*
Y38100D02*
Y38349D01*
Y38224D01*
X-48450D01*
X-48325Y38100D01*
X-47575Y38724D02*
Y39224D01*
X-48325Y39474D02*
X-48450Y39599D01*
Y39849D01*
X-48325Y39974D01*
X-48200D01*
X-48075Y39849D01*
Y39724D01*
Y39849D01*
X-47950Y39974D01*
X-47825D01*
X-47700Y39849D01*
Y39599D01*
X-47825Y39474D01*
X-47700Y46750D02*
X-48450D01*
Y47125D01*
X-48325Y47250D01*
X-48075D01*
X-47950Y47125D01*
Y46750D01*
Y47000D02*
X-47700Y47250D01*
X-48450Y47500D02*
Y48000D01*
Y47750D01*
X-47700D01*
Y48250D02*
Y48499D01*
Y48374D01*
X-48450D01*
X-48325Y48250D01*
X-47575Y48874D02*
Y49374D01*
X-47700Y49999D02*
X-48450D01*
X-48075Y49624D01*
Y50124D01*
X-47700Y6100D02*
X-48450D01*
Y6475D01*
X-48325Y6600D01*
X-48075D01*
X-47950Y6475D01*
Y6100D01*
Y6350D02*
X-47700Y6600D01*
X-48450Y6850D02*
Y7350D01*
Y7100D01*
X-47700D01*
Y7600D02*
Y7849D01*
Y7724D01*
X-48450D01*
X-48325Y7600D01*
X-47575Y8224D02*
Y8724D01*
X-48450Y9474D02*
Y8974D01*
X-48075D01*
X-48200Y9224D01*
Y9349D01*
X-48075Y9474D01*
X-47825D01*
X-47700Y9349D01*
Y9099D01*
X-47825Y8974D01*
X-42900Y23800D02*
Y24550D01*
X-42525D01*
X-42400Y24425D01*
Y24175D01*
X-42525Y24050D01*
X-42900D01*
X-42650D02*
X-42400Y23800D01*
X-42150Y24550D02*
X-41650D01*
X-41900D01*
Y23800D01*
X-40901D02*
X-41400D01*
X-40901Y24300D01*
Y24425D01*
X-41026Y24550D01*
X-41276D01*
X-41400Y24425D01*
X-40651Y23675D02*
X-40151D01*
X-39901Y23800D02*
X-39651D01*
X-39776D01*
Y24550D01*
X-39901Y24425D01*
X-42900Y33970D02*
Y34720D01*
X-42525D01*
X-42400Y34595D01*
Y34345D01*
X-42525Y34220D01*
X-42900D01*
X-42650D02*
X-42400Y33970D01*
X-42150Y34720D02*
X-41650D01*
X-41900D01*
Y33970D01*
X-40901D02*
X-41400D01*
X-40901Y34470D01*
Y34595D01*
X-41026Y34720D01*
X-41276D01*
X-41400Y34595D01*
X-40651Y33845D02*
X-40151D01*
X-39401Y33970D02*
X-39901D01*
X-39401Y34470D01*
Y34595D01*
X-39526Y34720D01*
X-39776D01*
X-39901Y34595D01*
X-42900Y44100D02*
Y44850D01*
X-42525D01*
X-42400Y44725D01*
Y44475D01*
X-42525Y44350D01*
X-42900D01*
X-42650D02*
X-42400Y44100D01*
X-42150Y44850D02*
X-41650D01*
X-41900D01*
Y44100D01*
X-40901D02*
X-41400D01*
X-40901Y44600D01*
Y44725D01*
X-41026Y44850D01*
X-41276D01*
X-41400Y44725D01*
X-40651Y43975D02*
X-40151D01*
X-39901Y44725D02*
X-39776Y44850D01*
X-39526D01*
X-39401Y44725D01*
Y44600D01*
X-39526Y44475D01*
X-39651D01*
X-39526D01*
X-39401Y44350D01*
Y44225D01*
X-39526Y44100D01*
X-39776D01*
X-39901Y44225D01*
X-42900Y54250D02*
Y55000D01*
X-42525D01*
X-42400Y54875D01*
Y54625D01*
X-42525Y54500D01*
X-42900D01*
X-42650D02*
X-42400Y54250D01*
X-42150Y55000D02*
X-41650D01*
X-41900D01*
Y54250D01*
X-40901D02*
X-41400D01*
X-40901Y54750D01*
Y54875D01*
X-41026Y55000D01*
X-41276D01*
X-41400Y54875D01*
X-40651Y54125D02*
X-40151D01*
X-39526Y54250D02*
Y55000D01*
X-39901Y54625D01*
X-39401D01*
X-42900Y13600D02*
Y14350D01*
X-42525D01*
X-42400Y14225D01*
Y13975D01*
X-42525Y13850D01*
X-42900D01*
X-42650D02*
X-42400Y13600D01*
X-42150Y14350D02*
X-41650D01*
X-41900D01*
Y13600D01*
X-40901D02*
X-41400D01*
X-40901Y14100D01*
Y14225D01*
X-41026Y14350D01*
X-41276D01*
X-41400Y14225D01*
X-40651Y13475D02*
X-40151D01*
X-39401Y14350D02*
X-39901D01*
Y13975D01*
X-39651Y14100D01*
X-39526D01*
X-39401Y13975D01*
Y13725D01*
X-39526Y13600D01*
X-39776D01*
X-39901Y13725D01*
X-44900Y18200D02*
Y18950D01*
X-44525D01*
X-44400Y18825D01*
Y18575D01*
X-44525Y18450D01*
X-44900D01*
X-44650D02*
X-44400Y18200D01*
X-44150Y18950D02*
X-43650D01*
X-43900D01*
Y18200D01*
X-43400Y18825D02*
X-43276Y18950D01*
X-43026D01*
X-42901Y18825D01*
Y18700D01*
X-43026Y18575D01*
X-43151D01*
X-43026D01*
X-42901Y18450D01*
Y18325D01*
X-43026Y18200D01*
X-43276D01*
X-43400Y18325D01*
X-42651Y18075D02*
X-42151D01*
X-41901Y18200D02*
X-41651D01*
X-41776D01*
Y18950D01*
X-41901Y18825D01*
X-44900Y28370D02*
Y29120D01*
X-44525D01*
X-44400Y28995D01*
Y28745D01*
X-44525Y28620D01*
X-44900D01*
X-44650D02*
X-44400Y28370D01*
X-44150Y29120D02*
X-43650D01*
X-43900D01*
Y28370D01*
X-43400Y28995D02*
X-43276Y29120D01*
X-43026D01*
X-42901Y28995D01*
Y28870D01*
X-43026Y28745D01*
X-43151D01*
X-43026D01*
X-42901Y28620D01*
Y28495D01*
X-43026Y28370D01*
X-43276D01*
X-43400Y28495D01*
X-42651Y28245D02*
X-42151D01*
X-41401Y28370D02*
X-41901D01*
X-41401Y28870D01*
Y28995D01*
X-41526Y29120D01*
X-41776D01*
X-41901Y28995D01*
X-44900Y38500D02*
Y39250D01*
X-44525D01*
X-44400Y39125D01*
Y38875D01*
X-44525Y38750D01*
X-44900D01*
X-44650D02*
X-44400Y38500D01*
X-44150Y39250D02*
X-43650D01*
X-43900D01*
Y38500D01*
X-43400Y39125D02*
X-43276Y39250D01*
X-43026D01*
X-42901Y39125D01*
Y39000D01*
X-43026Y38875D01*
X-43151D01*
X-43026D01*
X-42901Y38750D01*
Y38625D01*
X-43026Y38500D01*
X-43276D01*
X-43400Y38625D01*
X-42651Y38375D02*
X-42151D01*
X-41901Y39125D02*
X-41776Y39250D01*
X-41526D01*
X-41401Y39125D01*
Y39000D01*
X-41526Y38875D01*
X-41651D01*
X-41526D01*
X-41401Y38750D01*
Y38625D01*
X-41526Y38500D01*
X-41776D01*
X-41901Y38625D01*
X-44900Y48650D02*
Y49400D01*
X-44525D01*
X-44400Y49275D01*
Y49025D01*
X-44525Y48900D01*
X-44900D01*
X-44650D02*
X-44400Y48650D01*
X-44150Y49400D02*
X-43650D01*
X-43900D01*
Y48650D01*
X-43400Y49275D02*
X-43276Y49400D01*
X-43026D01*
X-42901Y49275D01*
Y49150D01*
X-43026Y49025D01*
X-43151D01*
X-43026D01*
X-42901Y48900D01*
Y48775D01*
X-43026Y48650D01*
X-43276D01*
X-43400Y48775D01*
X-42651Y48525D02*
X-42151D01*
X-41526Y48650D02*
Y49400D01*
X-41901Y49025D01*
X-41401D01*
X-49700Y20400D02*
Y21150D01*
X-49325D01*
X-49200Y21025D01*
Y20775D01*
X-49325Y20650D01*
X-49700D01*
X-49450D02*
X-49200Y20400D01*
X-48950Y21150D02*
X-48450D01*
X-48700D01*
Y20400D01*
X-47826D02*
Y21150D01*
X-48200Y20775D01*
X-47701D01*
X-47451Y20275D02*
X-46951D01*
X-46701Y20400D02*
X-46451D01*
X-46576D01*
Y21150D01*
X-46701Y21025D01*
X-49700Y30570D02*
Y31320D01*
X-49325D01*
X-49200Y31195D01*
Y30945D01*
X-49325Y30820D01*
X-49700D01*
X-49450D02*
X-49200Y30570D01*
X-48950Y31320D02*
X-48450D01*
X-48700D01*
Y30570D01*
X-47826D02*
Y31320D01*
X-48200Y30945D01*
X-47701D01*
X-47451Y30445D02*
X-46951D01*
X-46201Y30570D02*
X-46701D01*
X-46201Y31070D01*
Y31195D01*
X-46326Y31320D01*
X-46576D01*
X-46701Y31195D01*
X-49700Y40700D02*
Y41450D01*
X-49325D01*
X-49200Y41325D01*
Y41075D01*
X-49325Y40950D01*
X-49700D01*
X-49450D02*
X-49200Y40700D01*
X-48950Y41450D02*
X-48450D01*
X-48700D01*
Y40700D01*
X-47826D02*
Y41450D01*
X-48200Y41075D01*
X-47701D01*
X-47451Y40575D02*
X-46951D01*
X-46701Y41325D02*
X-46576Y41450D01*
X-46326D01*
X-46201Y41325D01*
Y41200D01*
X-46326Y41075D01*
X-46451D01*
X-46326D01*
X-46201Y40950D01*
Y40825D01*
X-46326Y40700D01*
X-46576D01*
X-46701Y40825D01*
X-49700Y50850D02*
Y51600D01*
X-49325D01*
X-49200Y51475D01*
Y51225D01*
X-49325Y51100D01*
X-49700D01*
X-49450D02*
X-49200Y50850D01*
X-48950Y51600D02*
X-48450D01*
X-48700D01*
Y50850D01*
X-47826D02*
Y51600D01*
X-48200Y51225D01*
X-47701D01*
X-47451Y50725D02*
X-46951D01*
X-46326Y50850D02*
Y51600D01*
X-46701Y51225D01*
X-46201D01*
X-49700Y10200D02*
Y10950D01*
X-49325D01*
X-49200Y10825D01*
Y10575D01*
X-49325Y10450D01*
X-49700D01*
X-49450D02*
X-49200Y10200D01*
X-48950Y10950D02*
X-48450D01*
X-48700D01*
Y10200D01*
X-47826D02*
Y10950D01*
X-48200Y10575D01*
X-47701D01*
X-47451Y10075D02*
X-46951D01*
X-46201Y10950D02*
X-46701D01*
Y10575D01*
X-46451Y10700D01*
X-46326D01*
X-46201Y10575D01*
Y10325D01*
X-46326Y10200D01*
X-46576D01*
X-46701Y10325D01*
D39*
X-6073Y6883D02*
X-5978Y6931D01*
X-5835Y7074D01*
Y6074D01*
X-3324Y56791D02*
X-3800Y56124D01*
X-3086D01*
X-3324Y56791D02*
Y55791D01*
X-2624Y56791D02*
X-2767Y56743D01*
X-2862Y56600D01*
X-2910Y56362D01*
Y56219D01*
X-2862Y55981D01*
X-2767Y55839D01*
X-2624Y55791D01*
X-2529D01*
X-2386Y55839D01*
X-2291Y55981D01*
X-2243Y56219D01*
Y56362D01*
X-2291Y56600D01*
X-2386Y56743D01*
X-2529Y56791D01*
X-2624D01*
X341Y2296D02*
Y1534D01*
X293Y1391D01*
X245Y1343D01*
X150Y1296D01*
X7D01*
X-88Y1343D01*
X341Y2153D02*
X245Y2248D01*
X150Y2296D01*
X7D01*
X-88Y2248D01*
X-183Y2153D01*
X-231Y2010D01*
Y1915D01*
X-183Y1772D01*
X-88Y1677D01*
X7Y1629D01*
X150D01*
X245Y1677D01*
X341Y1772D01*
X-1556Y2519D02*
Y1519D01*
Y1995D02*
X-1413Y2138D01*
X-1318Y2186D01*
X-1175D01*
X-1080Y2138D01*
X-1032Y1995D01*
Y1519D01*
X5492Y2043D02*
X5397Y2138D01*
X5302Y2186D01*
X5159D01*
X5064Y2138D01*
X4969Y2043D01*
X4921Y1900D01*
Y1805D01*
X4969Y1662D01*
X5064Y1567D01*
X5159Y1519D01*
X5302D01*
X5397Y1567D01*
X5492Y1662D01*
X4116Y2502D02*
Y1502D01*
Y2026D02*
X4021Y2121D01*
X3926Y2169D01*
X3783D01*
X3687Y2121D01*
X3592Y2026D01*
X3545Y1883D01*
Y1788D01*
X3592Y1645D01*
X3687Y1550D01*
X3783Y1502D01*
X3926D01*
X4021Y1550D01*
X4116Y1645D01*
M02*
